<svg xmlns="http://www.w3.org/2000/svg" width="20.694" height="15.521" viewBox="0 0 20.694 15.521">
  <path id="Truck_Icon_-_Light___Font_Awesome-42" data-name="Truck Icon - Light _ Font Awesome-42" d="M20.435,43.382h-.776v-3.5a2.071,2.071,0,0,0-.608-1.462l-2.713-2.713a2.06,2.06,0,0,0-1.462-.608H13.451v-1.6A1.557,1.557,0,0,0,11.854,32H1.6A1.557,1.557,0,0,0,0,33.507v9.4a1.557,1.557,0,0,0,1.6,1.507h.524a2.485,2.485,0,0,0-.052.517,2.587,2.587,0,1,0,5.174,0,2.725,2.725,0,0,0-.052-.517H13.5a2.485,2.485,0,0,0-.052.517,2.587,2.587,0,1,0,5.174,0,2.725,2.725,0,0,0-.052-.517h1.862a.259.259,0,0,0,.259-.259V43.64A.259.259,0,0,0,20.435,43.382Zm-5.558-7.243a1.033,1.033,0,0,1,.731.3l2.713,2.713a.865.865,0,0,1,.058.091H13.451v-3.1h1.426ZM4.656,46.486a1.552,1.552,0,1,1,1.552-1.552A1.552,1.552,0,0,1,4.656,46.486Zm2.056-3.1a2.561,2.561,0,0,0-4.113,0h-1a.523.523,0,0,1-.563-.472v-9.4a.523.523,0,0,1,.563-.472H11.854a.523.523,0,0,1,.563.472v9.875Zm9.325,3.1a1.552,1.552,0,1,1,1.552-1.552A1.552,1.552,0,0,1,16.038,46.486Zm0-4.139a2.573,2.573,0,0,0-2.056,1.035h-.53v-3.1h5.174v3.1h-.53a2.573,2.573,0,0,0-2.056-1.035Z" transform="translate(0 -32)" fill="#181E85"/>
</svg>
