<svg xmlns="http://www.w3.org/2000/svg" width="17.657" height="16.553" viewBox="0 0 17.657 16.553">
  <path id="Gift_Icon_-_Light___Font_Awesome-42" data-name="Gift Icon - Light _ Font Awesome-42" d="M16,20.414H14.646a2.851,2.851,0,0,0,.528-1.655A2.672,2.672,0,0,0,12.6,16c-1.459,0-2.3.876-3.776,3.3C7.356,16.876,6.511,16,5.052,16a2.672,2.672,0,0,0-2.569,2.759,2.851,2.851,0,0,0,.528,1.655H1.655A1.656,1.656,0,0,0,0,22.07V25.38a.553.553,0,0,0,.552.552H1.1V30.9a1.656,1.656,0,0,0,1.655,1.655H14.9A1.656,1.656,0,0,0,16.553,30.9V25.932h.552a.553.553,0,0,0,.552-.552V22.07A1.656,1.656,0,0,0,16,20.414ZM9.525,20.29C11.232,17.417,11.8,17.1,12.6,17.1a1.668,1.668,0,0,1,0,3.311H9.449ZM5.052,17.1c.807,0,1.373.314,3.08,3.187l.072.124H5.049a1.667,1.667,0,0,1,0-3.311ZM6.621,31.45H2.759a.553.553,0,0,1-.552-.552V25.932H6.621Zm0-6.621H1.1V22.07a.553.553,0,0,1,.552-.552H6.621ZM9.932,31.45H7.725V21.518H9.932ZM15.45,30.9a.553.553,0,0,1-.552.552H11.036V25.932H15.45Zm1.1-6.07H11.036V21.518H16a.553.553,0,0,1,.552.552Z" transform="translate(0 -16)" fill="#235896"/>
</svg>
