<svg xmlns="http://www.w3.org/2000/svg" width="31.199" height="25.934" viewBox="0 0 31.199 25.934">
  <path id="Intersection_1" data-name="Intersection 1" d="M-3279.346,4788.266a1.708,1.708,0,0,1-1.621-1.782v-11.518a4.6,4.6,0,0,1-1.925-6.625l3.288-5.248a1.619,1.619,0,0,1,1.373-.76h20.463a1.623,1.623,0,0,1,1.374.76l3.287,5.248a4.6,4.6,0,0,1-1.925,6.625v11.518a1.707,1.707,0,0,1-1.62,1.782Zm-.291-1.5a.242.242,0,0,0,.061.183l23.2-.016c-.031-.006.011-.062.011-.167v-6.483h-.291v-.124h-22.692v.124h-.291Zm0-8.146h23.269V4775.3h-.131a5.147,5.147,0,0,1-3.839-1.719c-.038.042-.077.084-.116.125l-.076-.082a5,5,0,0,1-3.689,1.675,5.136,5.136,0,0,1-3.787-1.718,5.125,5.125,0,0,1-3.786,1.718,5.012,5.012,0,0,1-3.691-1.675l-.075.082c-.04-.042-.078-.083-.116-.125a5.129,5.129,0,0,1-3.834,1.719h-.13Zm12.847-6.08a3.362,3.362,0,0,0,2.532,1.139,3.375,3.375,0,0,0,1.23-.229,3.488,3.488,0,0,0,1.464-.981l1.093-1.222,1.157,1.282a3.363,3.363,0,0,0,2.532,1.141,3.669,3.669,0,0,0,.477-.031c.055-.007.109-.016.163-.027l.137-.015a2.632,2.632,0,0,0,2.042-1.548,3.17,3.17,0,0,0-.172-3.008l-3.371-5.381h-20.988l-3.372,5.391a3.171,3.171,0,0,0-.172,3.009,2.638,2.638,0,0,0,2.042,1.548l.138.015c.053.011.107.02.162.027a3.64,3.64,0,0,0,.476.03,3.363,3.363,0,0,0,2.532-1.139l1.157-1.294,1.1,1.223a3.5,3.5,0,0,0,1.464.982,3.378,3.378,0,0,0,1.229.229,3.363,3.363,0,0,0,2.533-1.139l1.206-1.347Z" transform="translate(3283.6 -4762.333)" fill="#023a7b"/>
</svg>
