<svg id="Group_5248" data-name="Group 5248" xmlns="http://www.w3.org/2000/svg" width="41.434" height="36.741" viewBox="0 0 41.434 36.741">
  <g id="Group_5247" data-name="Group 5247" transform="translate(0 0)">
    <g id="leaf" transform="translate(0 0)">
      <g id="Group_5244" data-name="Group 5244">
        <g id="Group_5243" data-name="Group 5243">
          <path id="Path_54425" data-name="Path 54425" d="M25.565.365a.582.582,0,0,0-.538-.36C2.439.005,0,9.366,0,13.392c0,5.222,3.976,8.73,9.895,8.73,7.474,0,9.04-7.112,9.882-10.933A19.71,19.71,0,0,1,25.439,1,.581.581,0,0,0,25.565.365ZM18.639,10.939c-1.067,4.847-2.71,10.019-8.744,10.019-5.222,0-8.73-3.041-8.73-7.566,0-3.6,2.226-11.855,22.49-12.211A20.525,20.525,0,0,0,18.639,10.939Z" transform="translate(0 -0.005)" fill="#023a7b"/>
        </g>
      </g>
      <g id="Group_5246" data-name="Group 5246" transform="translate(0 5.821)">
        <g id="Group_5245" data-name="Group 5245" transform="translate(0)">
          <path id="Path_54426" data-name="Path 54426" d="M16.239,107.011a.584.584,0,0,0-.778-.27C6,111.325,0,122.429,0,125.889a.582.582,0,0,0,1.164,0c0-2.72,5.251-13.472,14.8-18.1A.583.583,0,0,0,16.239,107.011Z" transform="translate(0 -106.683)" fill="#023a7b"/>
        </g>
      </g>
    </g>
    <g id="leaf-2" data-name="leaf" transform="translate(41.434 36.741) rotate(180)">
      <g id="Group_5244-2" data-name="Group 5244" transform="translate(0 0)">
        <g id="Group_5243-2" data-name="Group 5243" transform="translate(0 0)">
          <path id="Path_54425-2" data-name="Path 54425" d="M25.565.36A.582.582,0,0,0,25.027,0C2.439,0,0,9.361,0,13.387c0,5.222,3.976,8.73,9.895,8.73,7.474,0,9.04-7.112,9.882-10.933A19.71,19.71,0,0,1,25.439.994.581.581,0,0,0,25.565.36ZM18.639,10.934c-1.067,4.847-2.71,10.019-8.744,10.019-5.222,0-8.73-3.041-8.73-7.566,0-3.6,2.226-11.855,22.49-12.211A20.525,20.525,0,0,0,18.639,10.934Z" fill="#023a7b"/>
        </g>
      </g>
      <g id="Group_5246-2" data-name="Group 5246" transform="translate(0 5.821)">
        <g id="Group_5245-2" data-name="Group 5245" transform="translate(0 0)">
          <path id="Path_54426-2" data-name="Path 54426" d="M16.239.328a.584.584,0,0,0-.778-.27C6,4.642,0,15.746,0,19.206a.582.582,0,1,0,1.164,0c0-2.72,5.251-13.472,14.8-18.1A.583.583,0,0,0,16.239.328Z" fill="#023a7b"/>
        </g>
      </g>
    </g>
  </g>
</svg>
