<svg xmlns="http://www.w3.org/2000/svg" width="34.402" height="37.908" viewBox="0 0 34.402 37.908">
  <path id="Tags_Icon_-_Light___Font_Awesome-33" data-name="Tags Icon - Light _ Font Awesome-33" d="M31.455,18.589,23.548,26.5a1.859,1.859,0,0,1-2.63,0l-.069-.069.877-.877.069.069a.62.62,0,0,0,.877,0l7.907-7.907a.621.621,0,0,0,0-.877L15.164,1.421a.616.616,0,0,0-.438-.182h-.757L12.729,0h2A1.86,1.86,0,0,1,16.04.545L31.455,15.959A1.859,1.859,0,0,1,31.455,18.589ZM9.767,1.24H1.86a.621.621,0,0,0-.62.62V9.767a.616.616,0,0,0,.182.438L16.836,25.62a.62.62,0,0,0,.877,0l7.907-7.907a.621.621,0,0,0,0-.877L10.205,1.421a.616.616,0,0,0-.438-.182m0-1.24a1.86,1.86,0,0,1,1.315.545L26.5,15.959a1.86,1.86,0,0,1,0,2.63L18.589,26.5a1.859,1.859,0,0,1-2.63,0L.545,11.082A1.86,1.86,0,0,1,0,9.767V1.86A1.859,1.859,0,0,1,1.86,0ZM5.579,4.8a.775.775,0,1,0,.775.775A.776.776,0,0,0,5.579,4.8m0-1.085a1.86,1.86,0,1,1-1.86,1.86A1.859,1.859,0,0,1,5.579,3.719Z" transform="matrix(-0.259, 0.966, -0.966, -0.259, 34.402, 6.999)" fill="#023a7b"/>
</svg>
