<svg xmlns="http://www.w3.org/2000/svg" xmlns:xlink="http://www.w3.org/1999/xlink" width="70" height="70" viewBox="0 0 70 70">
  <defs>
    <clipPath id="clip-path">
      <path id="Path_54267" data-name="Path 54267" d="M105.207-267.548a2.458,2.458,0,0,1,3.58,1.359,3.685,3.685,0,0,1-.156,2.053l-.017.049.065.012a2.654,2.654,0,0,1,1.606,1.032l.042.059a2.976,2.976,0,0,1,.481,1.78v.02h.041a2.007,2.007,0,0,1,1.435.666l.039.046a3.452,3.452,0,0,1,.64,2.534c-.087,1.173-.87,2.28-1.928,1.919a.566.566,0,0,1-.353-.718.566.566,0,0,1,.682-.364l.036.011c.027.009.071-.012.169-.15a1.672,1.672,0,0,0,.266-.782,2.419,2.419,0,0,0-.379-1.724.743.743,0,0,0-1.046-.15.566.566,0,0,1-.938-.6l.015-.032a1.839,1.839,0,0,0-.1-1.821,1.5,1.5,0,0,0-1.471-.626l-.059.011a.566.566,0,0,1-.612-.818,3.178,3.178,0,0,0,.438-2.144,1.345,1.345,0,0,0-1.985-.6.566.566,0,0,1-.756-.262A.566.566,0,0,1,105.207-267.548Z" transform="translate(-104.888 267.851)" fill="none"/>
    </clipPath>
    <clipPath id="clip-path-2">
      <path id="Path_54269" data-name="Path 54269" d="M139.194-236.732a.566.566,0,0,1,.672-.434.566.566,0,0,1,.434.672l-.048.22-.048.211-.024.1-.049.2-.05.19-.051.182a4,4,0,0,1-1.357,2.259,2.781,2.781,0,0,1-3.222.1l-.057-.039-.1.173-.212.362-.089.148-.044.071-.086.135a2.208,2.208,0,0,1-1.564,1.22c-1,.177-1.745-.389-2.6-1.53a.566.566,0,0,1,.112-.792.566.566,0,0,1,.792.112c.614.817,1.08,1.17,1.5,1.1a.915.915,0,0,0,.557-.37l.062-.077c.063-.082.129-.177.2-.287l.073-.116.077-.126.082-.137.171-.294.115-.192.069-.113.065-.1.063-.094.031-.045.062-.086.063-.083.066-.083a.566.566,0,0,1,.872-.006,1.647,1.647,0,0,0,2.253.259,2.524,2.524,0,0,0,.784-1.147l.048-.131q.024-.067.047-.138l.046-.145q.034-.112.068-.232l.044-.165.044-.173.044-.182.022-.094.044-.2Z" transform="translate(-130.58 237.179)" fill="none"/>
    </clipPath>
    <clipPath id="clip-path-3">
      <path id="Path_54271" data-name="Path 54271" d="M136.943-281.438a.566.566,0,0,1,.79.125.566.566,0,0,1-.095.766l-.031.024a2.559,2.559,0,0,0-.556,1.16,3.909,3.909,0,0,0-.082.406l-.014.107q0,.026-.005.051l-.008.1a.928.928,0,0,0,.051.477,2.758,2.758,0,0,0,1.595.911.566.566,0,0,1,.283.9l-.026.029a1.946,1.946,0,0,0-.346,2.18,1.1,1.1,0,0,0,1.6.3l.033-.032a.566.566,0,0,1,.948.561l-.026.085-.049.162a2.071,2.071,0,0,0-.088,1.44,1.17,1.17,0,0,0,1.067.588,2.426,2.426,0,0,0,.649-.077l.107-.028.056-.016.117-.035.124-.04.133-.045.143-.05.154-.056.166-.061a.566.566,0,0,1,.728.331.566.566,0,0,1-.331.728l-.284.1-.174.062-.164.056c-.079.026-.155.05-.228.072l-.142.041a3.548,3.548,0,0,1-1.075.142,2.278,2.278,0,0,1-2.074-1.251,2.279,2.279,0,0,1-.176-1.307l0-.029a2.288,2.288,0,0,1-2.156-1.017l-.034-.055a2.968,2.968,0,0,1-.017-2.8l.028-.056-.02-.008a3.175,3.175,0,0,1-1.4-1.018l-.048-.066C135.452-278.439,136.056-280.793,136.943-281.438Z" transform="translate(-135.818 281.546)" fill="none"/>
    </clipPath>
    <clipPath id="clip-path-4">
      <path id="Path_54273" data-name="Path 54273" d="M108.649-285.232a5.607,5.607,0,0,1,5.285.514.566.566,0,0,1,.155.785.566.566,0,0,1-.785.155,4.471,4.471,0,0,0-4.206-.416,5.177,5.177,0,0,0-2.906,3.449.566.566,0,0,1-.688.409.566.566,0,0,1-.409-.688A6.314,6.314,0,0,1,108.649-285.232Z" transform="translate(-105.078 285.666)" fill="none"/>
    </clipPath>
    <clipPath id="clip-path-5">
      <path id="Path_54275" data-name="Path 54275" d="M120.116-303.578a.566.566,0,0,1,.787-.141.566.566,0,0,1,.141.787,4.821,4.821,0,0,0-.992,3.74.566.566,0,0,1-.5.623.566.566,0,0,1-.623-.5A5.921,5.921,0,0,1,120.116-303.578Z" transform="translate(-118.877 303.821)" fill="none"/>
    </clipPath>
    <clipPath id="clip-path-6">
      <path id="Path_54279" data-name="Path 54279" d="M114.751-235.93a.566.566,0,0,1,.689-.407,4.183,4.183,0,0,1,2.707,2.9,6.718,6.718,0,0,1-.243,3l-.106.4-.038.15-.06.243-.042.178-.275,1.217-.056.242-.053.226-.077.317-.051.2-.025.1a9.265,9.265,0,0,1-1.822,3.932,13.37,13.37,0,0,1-4.223,3.391,6,6,0,0,1-1.3.447,3.138,3.138,0,0,1-.5.068h-.02a3.1,3.1,0,0,1-2.44-.907l-.1-.095a5.306,5.306,0,0,1-.442-.465l-.091-.111a4.4,4.4,0,0,1-1.017-2.43l0-.062,0-.146v-.1c0-.016,0-.032,0-.048l0-.1.006-.1.008-.1.011-.1.006-.052.014-.105.017-.109.019-.113.022-.118.024-.123.027-.129.046-.205.034-.146.057-.233.064-.253.1-.37.167-.625.1-.4.046-.188.043-.179.039-.17.035-.162.031-.155.028-.147.024-.141.02-.134q.014-.1.024-.19l.011-.12.008-.115,0-.11c0-.09,0-.176,0-.259l-.008-.1q-.007-.072-.018-.141a2.792,2.792,0,0,0-1.915-1.983,1.572,1.572,0,0,0-1.157-.078l-.02.01-.047.032a1.9,1.9,0,0,0-.485.494l-.042.065-.022.033-.042.058-.081.117-.078.117-.075.117-.073.119-.071.12-.069.123-.067.125-.066.129-.032.066-.064.135q-.032.068-.063.139l-.063.144-.031.074-.063.153-.063.16-.032.082-.064.17-.064.178-.066.186-.1.3-.1.318-.11.341-.291.92-.073.224-.1.311-.067.2a8.749,8.749,0,0,0-.411,5.537l.025.069.047.121.057.142.092.219.079.185.088.2.163.367.219.484.2.432.34.728.221.467.413.859.341.7.283.569.152.3.143.28.2.373.141.262.074.133.065.113.038.064.034.054a4.954,4.954,0,0,1,.485.954l.041.109.019.054.037.109.036.112.036.118.055.194.06.224.07.268.051.19.051.183.052.176a6.089,6.089,0,0,0,2.35,3.331.566.566,0,0,1,.073.8.566.566,0,0,1-.8.073,7.157,7.157,0,0,1-2.677-3.768l-.058-.19-.057-.2-.056-.2-.133-.505-.034-.125-.033-.113-.032-.1-.047-.144-.032-.092-.034-.092a3.874,3.874,0,0,0-.312-.639l-.1-.158-.063-.105-.072-.125-.053-.094-.116-.213-.163-.307-.179-.347-.194-.381-.332-.666-.3-.623-.355-.736-.331-.7-.261-.557-.206-.447-.23-.505-.14-.313-.158-.358-.084-.2-.1-.234-.062-.154-.052-.134-.029-.078-.012-.035a9.661,9.661,0,0,1,.366-6.15l.11-.32.066-.2.069-.209.329-1.037.117-.362.112-.338.108-.316.07-.2.069-.191.069-.183.068-.176.034-.085.068-.166.069-.16q.052-.118.1-.23l.071-.148c.06-.121.121-.239.184-.354l.077-.137.08-.135.041-.067.084-.133.043-.066.089-.132.092-.133.037-.052.041-.063a3.031,3.031,0,0,1,.811-.826l.081-.054.036-.021a2.53,2.53,0,0,1,2.124-.008,3.884,3.884,0,0,1,2.643,2.871,4.411,4.411,0,0,1-.006,1.316l-.022.153-.026.159-.015.082-.032.168-.018.087-.038.179-.043.187-.047.2-.051.2-.084.325-.22.823-.088.339-.076.3-.049.206-.043.189-.025.118-.023.112-.02.106-.018.1-.015.1-.013.093-.011.089-.008.086-.006.084,0,.082,0,.081q0,.02,0,.04v.079q0,.02,0,.04c.033,1.357,1.678,3.139,2.762,2.984l.044-.008a.565.565,0,0,1,.083-.01h.071l.052,0,.068-.008.083-.013.1-.019a4.885,4.885,0,0,0,1.054-.365,12.277,12.277,0,0,0,3.852-3.114,8.285,8.285,0,0,0,1.575-3.468l.049-.191.074-.3.051-.213.094-.409.217-.964.09-.385.042-.172.041-.162.122-.465.056-.226a5.4,5.4,0,0,0,.171-2.3,3.117,3.117,0,0,0-1.824-1.991l-.052-.014A.566.566,0,0,1,114.751-235.93Z" transform="translate(-98.572 236.355)" fill="none"/>
    </clipPath>
    <clipPath id="clip-path-7">
      <path id="Path_54281" data-name="Path 54281" d="M171.408-257.451h.076a5.278,5.278,0,0,1,2.874.6,7.887,7.887,0,0,1,3.864,6.2,15.864,15.864,0,0,1,.036,2.061l-.013.324-.017.332q0,.084-.01.169l-.023.343-.026.349q-.007.088-.014.177l-.031.357q-.008.09-.017.18l-.036.362-.039.365q-.041.366-.087.733l-.048.366-.05.365-.053.363-.055.36-.057.355q-.043.265-.089.523l-.062.341-.063.334c-.128.659-.265,1.268-.407,1.792a.566.566,0,0,1-.694.4.566.566,0,0,1-.4-.694c.122-.453.242-.974.355-1.539l.061-.312.03-.159.059-.323q.029-.163.057-.33l.055-.335.053-.34.026-.171.05-.345.024-.173.047-.348.045-.349q.011-.087.021-.175l.041-.349q.01-.087.02-.174l.037-.346.034-.344q.008-.086.016-.171l.03-.338q.014-.168.027-.333l.023-.327q.011-.162.02-.321l.016-.313.013-.3q.006-.15.009-.3l.005-.285a12.388,12.388,0,0,0-.046-1.343,6.76,6.76,0,0,0-3.341-5.359,4.227,4.227,0,0,0-2.164-.43h-.106a1.7,1.7,0,0,0-1.411.734l-.049.074a2.711,2.711,0,0,0-.365,1.818l.01.163q.006.083.014.171l.017.179.01.093.022.192.012.1a.566.566,0,0,1-.493.63.566.566,0,0,1-.63-.493q-.013-.109-.025-.215l-.022-.207-.019-.2q0-.049-.008-.1l-.014-.188a3.761,3.761,0,0,1,.526-2.538l.035-.052.032-.049A2.822,2.822,0,0,1,171.408-257.451Z" transform="translate(-168.514 257.452)" fill="none"/>
    </clipPath>
    <clipPath id="clip-path-8">
      <path id="Path_54283" data-name="Path 54283" d="M204.238-184.577a3.187,3.187,0,0,1,2.825.943,3.918,3.918,0,0,1,1.025,2.942.566.566,0,0,1-.606.522.566.566,0,0,1-.522-.606,2.781,2.781,0,0,0-.721-2.084,2.051,2.051,0,0,0-1.746-.612l-.069.01a.566.566,0,0,1-.651-.465A.566.566,0,0,1,204.238-184.577Z" transform="translate(-203.765 184.62)" fill="none"/>
    </clipPath>
    <clipPath id="clip-path-9">
      <path id="Path_54285" data-name="Path 54285" d="M158.558-170.481a3.01,3.01,0,0,1,2.671-.042,2.349,2.349,0,0,1,1.5,2.356c0,.169,0,.326-.016.515l-.013.165.037-.007a5.553,5.553,0,0,1,2.394.011l.056.02a3.354,3.354,0,0,1,2.034,2.108,7.963,7.963,0,0,1,.4,2.5l.007.256c0,.044,0,.088,0,.132a4.508,4.508,0,0,1-.544,1.872l-.083.17-.044.086-.091.175q-.07.133-.147.27l-.1.185-.11.189-.115.192-.059.1-.122.2-.127.2-.065.1-.135.206-.139.21-.144.213-.149.216-.153.219-.078.111-.159.223-.162.223-.082.112-.166.223-.083.111-.168.222-.169.22-.17.218-.17.215-.169.212-.252.311-.084.1-.166.2-.082.1-.243.285-.158.182-.155.175-.151.168-.146.16-.141.152L162-153.6l-.131.133-.124.123-.118.113-.08.073-.091.077-.049.04-.105.083-.056.043-.119.089-.127.092-.136.1-.143.1-.151.1-.157.1-.164.106-.257.162-.178.11-.183.112-.282.17-.193.115-.3.173-.3.174-.409.232-.207.115-.239.132-.382.208-.254.136-.377.2-.248.129-.365.187-.238.119-.232.115-.336.163-.215.1-.207.1-.2.089-.1.042-.182.078-.171.071c-5.932,2.4-10.724,1.219-13.948-3.109a.566.566,0,0,1,.116-.792.566.566,0,0,1,.792.116c2.908,3.9,7.149,4.949,12.617,2.736l.074-.03.156-.066.082-.035.17-.075.179-.081.187-.087.194-.092.3-.147.209-.1.323-.162.331-.17.225-.117.341-.18.344-.185.345-.188.229-.127.228-.127.338-.191.331-.191.322-.189.208-.124.3-.183.193-.119.276-.174.174-.112.165-.109.155-.105.145-.1.134-.1a4.6,4.6,0,0,0,.412-.333q.127-.119.26-.251l.134-.136.137-.142.14-.148.142-.154.144-.159.146-.164.147-.169.149-.173.15-.178.15-.181.151-.185.151-.188.151-.191.227-.291.151-.2.15-.2.223-.3.147-.2.145-.2.072-.1.142-.2.14-.2.138-.2.135-.2.132-.2.129-.2.126-.2.122-.194.06-.1.116-.19.112-.187.054-.092.105-.182.1-.178.1-.174.09-.17.084-.165a3.764,3.764,0,0,0,.49-1.461l0-.108-.006-.211-.008-.2-.01-.2q0-.048-.006-.1l-.014-.187c-.14-1.685-.6-2.555-1.662-2.956a3.331,3.331,0,0,0-1.506-.025c-.251.039-.5.091-.714.147l-.05.013-.09.025-.088.028-.016.005-.019.01a.566.566,0,0,1-.806-.495v-.037l0-.071.009-.134.061-.633.01-.124.008-.112.005-.1q0-.025,0-.049l0-.1c0-.031,0-.062,0-.094a1.251,1.251,0,0,0-.8-1.33,1.893,1.893,0,0,0-1.717,0c-.038.02-.075.04-.113.063l-.123.076-.09.057a.779.779,0,0,1-.271.118.591.591,0,0,1-.718-.5.566.566,0,0,1,.447-.631l.037-.006h.005l.057-.036C158.394-170.392,158.473-170.437,158.558-170.481Z" transform="translate(-140.149 170.813)" fill="none"/>
    </clipPath>
    <clipPath id="clip-path-10">
      <path id="Path_54287" data-name="Path 54287" d="M165.148-181.33a.566.566,0,0,1,.694.4.566.566,0,0,1-.4.694,5.718,5.718,0,0,0-2.439,1.2l-.1.088-.1.093-.109.1-.114.108-.06.057-.125.122-.253.252-.984,1a11.773,11.773,0,0,0-2.034,2.928,6.7,6.7,0,0,0-.923,3.494c.083,1.073.756,1.843,1.291,1.679a1.168,1.168,0,0,0,.354-.19l.069-.053.036-.029.077-.064.041-.035.086-.077.093-.086.1-.1,2.378-2.27.466-.441.224-.21.43-.4.308-.283.3-.27.286-.256.185-.164.271-.236.176-.151.172-.146.169-.141.166-.136.164-.132.161-.127.159-.123.157-.119.155-.115.154-.112.077-.055.152-.107.152-.1.151-.1.151-.1.151-.095.075-.046.151-.091.076-.045.152-.088.076-.043.153-.085.155-.083.156-.082.158-.08.16-.079a.566.566,0,0,1,.756.261.566.566,0,0,1-.261.756l-.076.037-.15.075-.148.076-.147.078-.146.08-.145.082-.144.084-.072.043-.144.087-.144.09-.144.093-.144.1-.145.1-.146.1-.147.105-.149.109-.15.113-.152.117-.155.121-.157.125-.16.13-.163.134-.166.139-.169.144-.173.149-.267.234-.276.246-.287.259-.2.18-.306.282-.318.3-.561.529-.356.339-2.149,2.051-.127.119-.119.108a2.636,2.636,0,0,1-1.049.652c-1.392.427-2.62-.977-2.751-2.673a7.708,7.708,0,0,1,1.039-4.088,12.9,12.9,0,0,1,2.233-3.209l1.043-1.061.218-.217.134-.131.127-.121.122-.113.118-.106.115-.1.057-.049A6.829,6.829,0,0,1,165.148-181.33Z" transform="translate(-157.052 181.35)" fill="none"/>
    </clipPath>
    <clipPath id="clip-path-11">
      <path id="Path_54289" data-name="Path 54289" d="M182.361-145.384a.566.566,0,0,1,.778.184.566.566,0,0,1-.184.778l-.124.078-.122.079-.12.081-.118.083-.117.085-.116.088-.058.045-.115.092-.057.047-.115.1-.057.049-.115.1-.115.105-.058.054-.116.111-.058.057-.118.118-.119.123-.121.127-.123.133-.125.138-.063.071-.128.146-.131.152-.2.24-.21.255-.144.178-.224.281-.234.3-.328.424-1.028,1.352-.27.35-.28.356-.156.2-.04.049a6.273,6.273,0,0,1-2.823,2.319,2.441,2.441,0,0,1-1.969-.179,2.435,2.435,0,0,1-1.17-1.5l-.017-.07a4.637,4.637,0,0,1,.16-2.477,12.914,12.914,0,0,1,2.37-4.248.566.566,0,0,1,.793-.1.566.566,0,0,1,.1.793,11.89,11.89,0,0,0-2.184,3.883,3.6,3.6,0,0,0-.146,1.881,1.31,1.31,0,0,0,.639.847,1.315,1.315,0,0,0,1.066.093,4.434,4.434,0,0,0,1.86-1.437l.141-.164.072-.085.147-.177.152-.188.268-.337.292-.377.955-1.256.267-.348.255-.33.164-.21.238-.3.154-.191.15-.184.146-.177.072-.086.142-.167.07-.081.137-.158.135-.152.067-.074.132-.143.13-.138.128-.133.064-.065.127-.126.126-.121.125-.117c.125-.115.25-.224.375-.329l.126-.1.127-.1.128-.1.129-.095.131-.093.066-.046.133-.09.136-.088Z" transform="translate(-171.25 145.468)" fill="none"/>
    </clipPath>
    <clipPath id="clip-path-12">
      <path id="Path_54291" data-name="Path 54291" d="M203.689-126.494l.152-.147.148-.139.144-.132.07-.063.138-.121a2.831,2.831,0,0,1,2.393-.935.566.566,0,0,1,.469.648.566.566,0,0,1-.648.469,1.443,1.443,0,0,0-1.039.339l-.1.071q-.127.093-.266.209l-.113.1-.117.1-.122.11-.126.117-.131.125-.136.132-2.127,2.1-.236.23-.148.141-.141.132-.134.124-.129.115-.124.108-.12.1-.116.094a4.531,4.531,0,0,1-.886.56l-.116.053-.059.026a2.356,2.356,0,0,1-2.886-.615,4.224,4.224,0,0,1-.126-4.087.566.566,0,0,1,.748-.283.566.566,0,0,1,.283.748,3.187,3.187,0,0,0-.008,2.931,1.245,1.245,0,0,0,1.545.264q.07-.03.137-.062l.09-.045.09-.049.09-.053.091-.057c.061-.04.122-.083.186-.13l.1-.073.049-.039.1-.082.052-.044.108-.093.113-.1.118-.108.125-.116.2-.19.217-.211Z" transform="translate(-196.599 128.061)" fill="none"/>
    </clipPath>
  </defs>
  <g id="Compostable" transform="translate(-180 -2126)">
    <path id="Subtraction_10" data-name="Subtraction 10" d="M1096-3612a34.777,34.777,0,0,1-13.624-2.75,34.884,34.884,0,0,1-11.125-7.5,34.879,34.879,0,0,1-7.5-11.125A34.784,34.784,0,0,1,1061-3647a34.786,34.786,0,0,1,2.75-13.624,34.881,34.881,0,0,1,7.5-11.125,34.878,34.878,0,0,1,11.125-7.5A34.777,34.777,0,0,1,1096-3682a34.776,34.776,0,0,1,13.623,2.75,34.881,34.881,0,0,1,11.125,7.5,34.883,34.883,0,0,1,7.5,11.125A34.783,34.783,0,0,1,1131-3647a34.78,34.78,0,0,1-2.75,13.623,34.883,34.883,0,0,1-7.5,11.125,34.887,34.887,0,0,1-11.125,7.5A34.776,34.776,0,0,1,1096-3612Zm0-69a33.781,33.781,0,0,0-13.234,2.672,33.888,33.888,0,0,0-10.807,7.287,33.889,33.889,0,0,0-7.286,10.808A33.786,33.786,0,0,0,1062-3647a33.785,33.785,0,0,0,2.672,13.234,33.887,33.887,0,0,0,7.286,10.807,33.882,33.882,0,0,0,10.807,7.286A33.781,33.781,0,0,0,1096-3613a33.781,33.781,0,0,0,13.234-2.672,33.882,33.882,0,0,0,10.807-7.286,33.887,33.887,0,0,0,7.286-10.807A33.786,33.786,0,0,0,1130-3647a33.786,33.786,0,0,0-2.672-13.234,33.887,33.887,0,0,0-7.286-10.808,33.888,33.888,0,0,0-10.807-7.287A33.781,33.781,0,0,0,1096-3681Z" transform="translate(-881 5808)" fill="#181E85"/>
    <g id="Group_5319" data-name="Group 5319" transform="translate(4 0)">
      <g id="Group_4783" data-name="Group 4783" transform="translate(194.429 2142.139)" clip-path="url(#clip-path)">
        <path id="Path_54266" data-name="Path 54266" d="M99.888-272.851h10.353v14.163H99.888Z" transform="translate(-101.019 271.72)" fill="#181E85"/>
      </g>
      <g id="Group_4784" data-name="Group 4784" transform="translate(200.242 2149.079)" clip-path="url(#clip-path-2)">
        <path id="Path_54268" data-name="Path 54268" d="M125.58-242.179h12v8.513h-12Z" transform="translate(-126.711 241.048)" fill="#181E85"/>
      </g>
      <g id="Group_4785" data-name="Group 4785" transform="translate(201.428 2139.041)" clip-path="url(#clip-path-3)">
        <path id="Path_54270" data-name="Path 54270" d="M130.818-286.546h10.844V-272.7H130.818Z" transform="translate(-131.95 285.414)" fill="#181E85"/>
      </g>
      <g id="Group_4786" data-name="Group 4786" transform="translate(194.472 2138.108)" clip-path="url(#clip-path-4)">
        <path id="Path_54272" data-name="Path 54272" d="M100.078-290.666h11.369v7.611H100.078Z" transform="translate(-101.209 289.535)" fill="#181E85"/>
      </g>
      <g id="Group_4787" data-name="Group 4787" transform="translate(197.594 2134)" clip-path="url(#clip-path-5)">
        <path id="Path_54274" data-name="Path 54274" d="M113.877-308.821h4.532v7.518h-4.532Z" transform="translate(-115.008 307.69)" fill="#181E85"/>
      </g>
      <g id="Group_4789" data-name="Group 4789" transform="translate(193 2149.266)" clip-path="url(#clip-path-6)">
        <path id="Path_54278" data-name="Path 54278" d="M93.572-241.355H115.49v32.611H93.572Z" transform="translate(-94.703 240.224)" fill="#181E85"/>
      </g>
      <g id="Group_4790" data-name="Group 4790" transform="translate(208.826 2144.492)" clip-path="url(#clip-path-7)">
        <path id="Path_54280" data-name="Path 54280" d="M163.514-262.452h12.022v20.04H163.514Z" transform="translate(-164.646 261.32)" fill="#181E85"/>
      </g>
      <g id="Group_4791" data-name="Group 4791" transform="translate(216.802 2160.972)" clip-path="url(#clip-path-8)">
        <path id="Path_54282" data-name="Path 54282" d="M198.765-189.62h6.6v6.715h-6.6Z" transform="translate(-199.896 188.489)" fill="#181E85"/>
      </g>
      <g id="Group_4792" data-name="Group 4792" transform="translate(202.408 2164.096)" clip-path="url(#clip-path-9)">
        <path id="Path_54284" data-name="Path 54284" d="M135.149-175.813h29.739v25.3H135.149Z" transform="translate(-136.28 174.682)" fill="#181E85"/>
      </g>
      <g id="Group_4793" data-name="Group 4793" transform="translate(206.232 2161.712)" clip-path="url(#clip-path-10)">
        <path id="Path_54286" data-name="Path 54286" d="M152.052-186.35h14.992V-170.7H152.052Z" transform="translate(-153.183 185.218)" fill="#181E85"/>
      </g>
      <g id="Group_4794" data-name="Group 4794" transform="translate(209.445 2169.831)" clip-path="url(#clip-path-11)">
        <path id="Path_54288" data-name="Path 54288" d="M166.25-150.468h14.237v12H166.25Z" transform="translate(-167.382 149.337)" fill="#181E85"/>
      </g>
      <g id="Group_4795" data-name="Group 4795" transform="translate(215.181 2173.77)" clip-path="url(#clip-path-12)">
        <path id="Path_54290" data-name="Path 54290" d="M191.6-133.061h12.874v8.729H191.6Z" transform="translate(-192.73 131.93)" fill="#181E85"/>
      </g>
    </g>
  </g>
</svg>
