<svg xmlns="http://www.w3.org/2000/svg" width="420" height="420" viewBox="0 0 420 420" style="background-color:#f0faff"><title>TIS_Icons_NoName_Navy_RGB</title><path d="M143.81,128.4376c6.1855-3.0021,11.4126.5756,12.2972,4.3284s-.3523,7.7778-2.1565,11.2123a9.1475,9.1475,0,0,1,9.3059,3.7432,10.6547,10.6547,0,0,1,.6085,10.5952c2.2227-2.43,6.3137-1.7276,8.3832.7429s2.4977,6.07,2.25,9.4087c-.2374,3.1983-2.3628,7.2746-5.22,6.3007" fill="none" stroke="#1414b4" stroke-linecap="round" stroke-linejoin="round" stroke-width="5"/><path d="M169.5012,174.7407c2.3077,3.07,5.3534,6.4593,9.0646,5.8006,4.5929-.8154,6.2011-6.8662,9.2686-10.6321a9.7858,9.7858,0,0,0,13.42,1.501c3.87-3.0472,5.198-8.4411,6.2615-13.39" fill="none" stroke="#1414b4" stroke-linecap="round" stroke-linejoin="round" stroke-width="5"/><path d="M207.6637,157.8809c-2.6668.9986-5.4058,2.01-8.2109,1.9542s-5.7346-1.4109-6.9407-4.0653c-1.2841-2.8258-.3438-6.2184.6108-9.2429-3.1145,3.2578-8.8917,2.1856-11.1777-1.644s-1.23-9.32,1.8456-12.619c-3.1634-.9108-6.43-2.22-8.3924-4.9781s.5294-11.6346,3.2815-13.6322" fill="none" stroke="#1414b4" stroke-linecap="round" stroke-linejoin="round" stroke-width="5"/><path d="M144,128.1694a25.378,25.378,0,0,1,14.245-16.91,22.2809,22.2809,0,0,1,21,2.0426" fill="none" stroke="#1414b4" stroke-linecap="round" stroke-linejoin="round" stroke-width="5"/><path d="M158.0117,109.602c-.9427-8.7815,1.629-13.6418,4.8167-18.2237" fill="none" stroke="#1414b4" stroke-linecap="round" stroke-linejoin="round" stroke-width="5"/><path d="M162.6763,91.437a41.7222,41.7222,0,0,1-9.956-4.0617c-5.2739,8.3408-4.4343,19.1249,2.7646,25.2961" fill="none" stroke="#1414b4" stroke-linecap="round" stroke-linejoin="round" stroke-width="5"/><path d="M208.9164,158.8447c4.35,1.1214,9.3195,6.415,10.1275,10.8342s-.1554,8.9592-1.3282,13.2958c-2.3959,8.86-3.898,22.0193-10.6718,29.6973-14.75,16.7186-25.087,16.42-25.087,16.42-6.8665,1.346-15.2106-8.55-15.38-15.5455-.1832-7.5608,5.63-19.2717,4.4609-26.7438-.7952-5.0844-5.2423-8.9528-10.0734-10.726-2.3672-.8689-5.1166-1.3141-7.3338-.113a10.898,10.898,0,0,0-3.3951,3.4574c-4.983,6.9332-6.6853,15.1922-9.5031,23.2519s-4.6327,18.0582-1.8175,26.1188c1.5872,4.5446,12.7025,27.9807,15.34,32.0076,5.3336,8.1429,1.2525,15.4957,15.2723,27.1659" fill="none" stroke="#1414b4" stroke-linecap="round" stroke-linejoin="round" stroke-width="5"/><path d="M207.8837,156.12c-.5727-4.6889-1.0325-9.8654,1.6785-13.7339a9.9915,9.9915,0,0,1,8.5231-4.6359c3.6668-.0379,8.2388.329,11.3421,2.2826,9.5482,6.0107,14.7907,14.3236,15.9224,25.5493s-2.1194,34.839-5.064,45.7307" fill="none" stroke="#1414b4" stroke-linecap="round" stroke-linejoin="round" stroke-width="5"/><path d="M242.6869,210.7358a11.5642,11.5642,0,0,1,10.2359,3.395,14.8153,14.8153,0,0,1,3.8752,11.1266" fill="none" stroke="#1414b4" stroke-linecap="round" stroke-linejoin="round" stroke-width="5"/><path d="M256.8983,226.6162c.1358.9915,3.9293-4.4318,11.8783-1.1391,6.9914,2.896,4.7766,10.3474,4.6365,14.5295.4272-.3115,8.5924-2.6063,12.9163-.9765,7.98,3.0078,9.0243,11.2787,9.1691,19.79s-18.7472,32.4394-25.6978,38.9609c-5.153,4.8349-25.4476,15.5227-32.0293,18.1868-26.39,10.6817-45.8633,4.3166-58.7011-12.915" fill="none" stroke="#1414b4" stroke-linecap="round" stroke-linejoin="round" stroke-width="5"/><path d="M229.905,213.85c-9.7316,2.6306-12.0526,5.8854-20.1236,14.0335a54.4451,54.4451,0,0,0-9.4014,13.5221c-2.606,5.09-4.7928,10.9808-4.3461,16.7737s4.467,10.9869,8.9329,9.6173c1.8394-.5642,3.4635-2.0939,5.0247-3.5847l9.2-8.7845c8.8629-8.4631,17.8921-17.0453,28.04-21.9795" fill="none" stroke="#1414b4" stroke-linecap="round" stroke-linejoin="round" stroke-width="5"/><path d="M221.2986,253.78c-4.071,5.2923-7.9986,11.0878-10.0629,17.9675-.9374,3.1244-1.461,6.5942-.6832,9.6a8.2877,8.2877,0,0,0,10.7259,5.9671c4.324-1.3768,8.02-5.3563,11.3324-9.4534,8.1284-10.0544,15.4623-21.948,25.4789-28.13" fill="none" stroke="#1414b4" stroke-linecap="round" stroke-linejoin="round" stroke-width="5"/><path d="M237.327,272.415c-2.2523,4.987-2.6358,11.74.2619,15.5077,2.3841,3.1,6.3684,3.4014,9.7913,1.942s6.4273-4.3967,9.3514-7.2779l9.0351-8.9028c3.5028-3.4514,7.5217-7.105,11.6493-6.4457" fill="none" stroke="#1414b4" stroke-linecap="round" stroke-linejoin="round" stroke-width="5"/><path d="M57.1831,306.916a13.7619,13.7619,0,0,1,2.0391-7.2977,19.7828,19.7828,0,0,1,13.0068-9.0021,13.7892,13.7892,0,0,1,7.53.6744,13.2067,13.2067,0,0,1,6.1352,5.0378,12.525,12.525,0,0,1,2.4283,9.0749,14.786,14.786,0,0,1-4.2,8.3118l-3.7813-5.4632a7.1354,7.1354,0,0,0,1.8579-4.0417,6.2375,6.2375,0,0,0-1.1748-4.4041,5.9064,5.9064,0,0,0-5.2788-2.7945,12.9467,12.9467,0,0,0-6.8931,2.6037,13.0109,13.0109,0,0,0-4.9194,5.5719A5.9181,5.9181,0,0,0,64.707,311.1a6.118,6.118,0,0,0,3.6216,2.6037,7.2691,7.2691,0,0,0,4.22-.165l3.731,5.3907a14.1791,14.1791,0,0,1-9.022.92,12.48,12.48,0,0,1-7.521-5.4163A13.2055,13.2055,0,0,1,57.1831,306.916Z" fill="#1414b4"/><path d="M80.1968,336.156a13.192,13.192,0,0,1,.4228-7.4668,19.2068,19.2068,0,0,1,4.2832-6.8779,19.4411,19.4411,0,0,1,6.6807-4.7061,13.1408,13.1408,0,0,1,14.68,2.8441,12.9535,12.9535,0,0,1,3.59,14.37,19.9451,19.9451,0,0,1-4.374,6.974,19.33,19.33,0,0,1-6.6494,4.7052,12.9623,12.9623,0,0,1-7.3838.8358A15.2933,15.2933,0,0,1,80.1968,336.156ZM94.16,340.0481a12.6148,12.6148,0,0,0,6.0678-3.8325,13.111,13.111,0,0,0,3.522-6.2957,5.9392,5.9392,0,0,0-5.42-7.1736,8.2044,8.2044,0,0,0-4.1724,1.0232,14.9515,14.9515,0,0,0-3.9126,3.0232,12.6665,12.6665,0,0,0-3.4458,6.2468,6.019,6.019,0,0,0,7.3614,7.0086Z" fill="#1414b4"/><path d="M120.0269,333.331l8.8369,5.11-3.5264,18.1394.1143.0659,13.9629-12.1038,8.8369,5.11-15.419,26.6629-5.8276-3.37,10.5727-18.283-.1523-.0882L120.606,369.245l-3.771-2.1806,4.3261-21.8955-.1523-.0881L110.436,363.3639l-5.8281-3.37Z" fill="#1414b4"/><path d="M170.9409,358.4358a9.4838,9.4838,0,0,1,2.4019,4.9055,11.7437,11.7437,0,0,1-.4209,5.4485,11.4073,11.4073,0,0,1-2.7173,4.6116,9.1662,9.1662,0,0,1-4.7222,2.5517,12.3337,12.3337,0,0,1-6.3745-.4812l-4.7436-1.49-2.8492,9.0671-6.4223-2.0181,9.2329-29.3836,11.166,3.5085A11.96,11.96,0,0,1,170.9409,358.4358Zm-7.0381,11.4634a4.24,4.24,0,0,0,2.6807-3.1011,4.0878,4.0878,0,0,0-.4238-4.0073,7.1845,7.1845,0,0,0-3.5244-2.2144l-3.6939-1.1606-2.8887,9.1927,3.6939,1.1608A6.8881,6.8881,0,0,0,163.9028,369.8992Z" fill="#1414b4"/><path d="M183.0967,389.021a13.1888,13.1888,0,0,1-4.1934-6.1924,19.2035,19.2035,0,0,1-.7666-8.0664,19.44,19.44,0,0,1,2.4566-7.7939,13.14,13.14,0,0,1,13.396-6.6436,12.9512,12.9512,0,0,1,11.57,9.2466,19.9446,19.9446,0,0,1,.7529,8.1976,19.3252,19.3252,0,0,1-2.4321,7.7743,12.961,12.961,0,0,1-5.3633,5.1433,15.2946,15.2946,0,0,1-15.42-1.6655Zm13.4619-5.3757a12.6152,12.6152,0,0,0,2.4995-6.7276,13.1138,13.1138,0,0,0-1.019-7.1418,5.9393,5.9393,0,0,0-8.6607-2.4148,8.2,8.2,0,0,0-2.6968,3.3443,14.9571,14.9571,0,0,0-1.2763,4.7768,12.6652,12.6652,0,0,0,1.05,7.0564,6.0187,6.0187,0,0,0,10.1035,1.1067Z" fill="#1414b4"/><path d="M220.354,391.33a10.1986,10.1986,0,0,1-4.415-3.4263,9.5364,9.5364,0,0,1-1.8174-4.7632l-.0313-.3506,7.4942-.67.0273.3066a4.3345,4.3345,0,0,0,1.3985,2.7907,4.1837,4.1837,0,0,0,3.4482,1.0169A4.5419,4.5419,0,0,0,229.396,385a3.1779,3.1779,0,0,0,.9121-2.6437,2.8249,2.8249,0,0,0-1.2095-2.1668,5.5079,5.5079,0,0,0-2.5581-.9419l-3.5688-.3877a15.7781,15.7781,0,0,1-5.9761-2.1162q-2.8463-1.689-3.2378-6.0719a8.6454,8.6454,0,0,1,.9419-5.0319,8.8512,8.8512,0,0,1,3.5523-3.4983,13.5786,13.5786,0,0,1,5.4682-1.5933,13.083,13.083,0,0,1,6.2569.81,9.724,9.724,0,0,1,4.2158,3.1792,8.66,8.66,0,0,1,1.72,4.4183l.02.2191-7.4941.67-.0117-.1316a4.0536,4.0536,0,0,0-1.2193-2.5194,3.833,3.833,0,0,0-3.2412-.925,3.7444,3.7444,0,0,0-2.5688,1.1573,3.1564,3.1564,0,0,0-.77,2.4985,2.7157,2.7157,0,0,0,1.2993,2.1811,6.3374,6.3374,0,0,0,2.7314.9044l3.62.4714a13.49,13.49,0,0,1,6.167,2.2759,7.4253,7.4253,0,0,1,2.9912,5.7846,8.8607,8.8607,0,0,1-1.0356,5.2169,9.6855,9.6855,0,0,1-3.7959,3.7409,14.0559,14.0559,0,0,1-5.7446,1.7063A13.3491,13.3491,0,0,1,220.354,391.33Z" fill="#1414b4"/><path d="M263.3237,358.9714l-7.8012,2.1635,6.6308,23.9137-6.5718,1.8222L248.95,362.9573l-7.8018,2.1633-1.5986-5.7664,22.1753-6.1491Z" fill="#1414b4"/><path d="M289.1162,366.7187l-8.9189,4.1954,1.0434,7.3864L274.95,381.26l-3.1963-32.534,5.773-2.7156,22.9448,23.2444-6.291,2.9592Zm-3.7417-4.0263-7.1-7.65-.2388.1123,1.4458,10.3093Z" fill="#1414b4"/><path d="M290.8433,338.988l10.6191-7.84a10.0792,10.0792,0,0,1,4.4858-1.999,6.9854,6.9854,0,0,1,4.0572.5322,8.1172,8.1172,0,0,1,3.1176,2.5933,6.5835,6.5835,0,0,1,1.46,4.2,5.9478,5.9478,0,0,1-1.21,3.5461l.1831.2478a7.4479,7.4479,0,0,1,2.8134-.8192,7.1229,7.1229,0,0,1,6.542,3.0458,9.77,9.77,0,0,1,1.7383,4.0217,8.0006,8.0006,0,0,1-.5185,4.5942,10.1126,10.1126,0,0,1-3.5347,4.25l-11.4336,8.4411Zm16.4038,3.4767a5.4992,5.4992,0,0,0,1.9814-2.5018,3.064,3.064,0,0,0-.62-2.9881,2.9471,2.9471,0,0,0-2.6514-1.406,5.6406,5.6406,0,0,0-2.9438,1.1614l-3.54,2.6133,4.2334,5.7346Zm8.87,9.4216a5.711,5.711,0,0,0,2.0264-2.59,3.381,3.381,0,0,0-.7325-3.2879,3.4255,3.4255,0,0,0-2.9443-1.6548,5.5436,5.5436,0,0,0-3.08,1.1252l-4.7788,3.5281,4.73,6.407Z" fill="#1414b4"/><path d="M345.6636,323.5286l4.3554,4.1032-13.6074,14.4439-22.4179-21.12,4.7368-5.0281,18.0327,17.049Z" fill="#1414b4"/><path d="M339.5132,300.1675l5.4531,3.6395,6.4971-9.735,4.4287,2.9556-6.4976,9.7348,5.7827,3.8594,7.7183-11.5649,4.9775,3.322-11.5537,17.31-25.6181-17.0979,11.5532-17.3107,4.9775,3.322Z" fill="#1414b4"/></svg>