<svg xmlns="http://www.w3.org/2000/svg" xmlns:xlink="http://www.w3.org/1999/xlink" width="118" height="118" viewBox="0 0 118 118">
  <defs>
    <clipPath id="clip-the-ideal-sunday-delivery">
      <rect width="118" height="118"/>
    </clipPath>
  </defs>
  <g id="the-ideal-sunday-delivery" clip-path="url(#clip-the-ideal-sunday-delivery)">
    <g id="delivery" transform="translate(0 -60.521)">
      <g id="Group_5672" data-name="Group 5672" transform="translate(74.246 130.58)">
        <g id="Group_5671" data-name="Group 5671">
          <path id="Path_53587" data-name="Path 53587" d="M337.025,304.4A14.874,14.874,0,1,0,351.9,319.277,14.891,14.891,0,0,0,337.025,304.4Zm0,22.311a7.437,7.437,0,1,1,7.437-7.437A7.445,7.445,0,0,1,337.025,326.714Z" transform="translate(-322.151 -304.403)" fill="#1a3555"/>
        </g>
      </g>
      <g id="Group_5674" data-name="Group 5674" transform="translate(23.426 130.58)">
        <g id="Group_5673" data-name="Group 5673">
          <path id="Path_53588" data-name="Path 53588" d="M116.521,304.4a14.874,14.874,0,1,0,14.874,14.874A14.891,14.891,0,0,0,116.521,304.4Zm0,22.311a7.437,7.437,0,1,1,7.437-7.437A7.445,7.445,0,0,1,116.521,326.714Z" transform="translate(-101.647 -304.403)" fill="#1a3555"/>
        </g>
      </g>
      <g id="Group_5676" data-name="Group 5676" transform="translate(76.229 85.958)">
        <g id="Group_5675" data-name="Group 5675">
          <path id="Path_53589" data-name="Path 53589" d="M353.663,112.838a3.72,3.72,0,0,0-3.323-2.048H330.756v7.437h17.291l10.125,20.139,6.646-3.342Z" transform="translate(-330.756 -110.79)" fill="#1a3555"/>
        </g>
      </g>
      <g id="Group_5678" data-name="Group 5678" transform="translate(49.828 141.859)">
        <g id="Group_5677" data-name="Group 5677">
          <rect id="Rectangle_1095" data-name="Rectangle 1095" width="28.137" height="7.437" fill="#1a3555"/>
        </g>
      </g>
      <g id="Group_5680" data-name="Group 5680" transform="translate(10.536 141.859)">
        <g id="Group_5679" data-name="Group 5679">
          <path id="Path_53590" data-name="Path 53590" d="M62.324,353.345H49.433a3.718,3.718,0,1,0,0,7.437H62.324a3.718,3.718,0,1,0,0-7.437Z" transform="translate(-45.715 -353.345)" fill="#1a3555"/>
        </g>
      </g>
      <g id="Group_5682" data-name="Group 5682" transform="translate(10.536 78.521)">
        <g id="Group_5681" data-name="Group 5681">
          <path id="Path_53591" data-name="Path 53591" d="M152.4,119.127l-7.314-9.42a3.713,3.713,0,0,0-2.936-1.438H115.127V82.239a3.718,3.718,0,0,0-3.718-3.718H49.433a3.718,3.718,0,0,0,0,7.437H107.69v26.029a3.718,3.718,0,0,0,3.718,3.718h28.919l5.415,6.976v19.178H135.454a3.718,3.718,0,0,0,0,7.437H149.46a3.718,3.718,0,0,0,3.719-3.718v-24.17A3.724,3.724,0,0,0,152.4,119.127Z" transform="translate(-45.715 -78.521)" fill="#1a3555"/>
        </g>
      </g>
      <g id="Group_5684" data-name="Group 5684" transform="translate(6.074 123.019)">
        <g id="Group_5683" data-name="Group 5683">
          <path id="Path_53592" data-name="Path 53592" d="M47.177,271.6H30.071a3.718,3.718,0,1,0,0,7.437h17.1a3.718,3.718,0,0,0,0-7.437Z" transform="translate(-26.353 -271.597)" fill="#1a3555"/>
        </g>
      </g>
      <g id="Group_5686" data-name="Group 5686" transform="translate(0 108.393)">
        <g id="Group_5685" data-name="Group 5685">
          <path id="Path_53593" data-name="Path 53593" d="M35.45,208.134H3.718a3.719,3.719,0,0,0,0,7.437H35.45a3.719,3.719,0,0,0,0-7.437Z" transform="translate(0 -208.134)" fill="#1a3555"/>
        </g>
      </g>
      <g id="Group_5688" data-name="Group 5688" transform="translate(6.074 93.767)">
        <g id="Group_5687" data-name="Group 5687">
          <path id="Path_53594" data-name="Path 53594" d="M61.8,144.672H30.071a3.718,3.718,0,1,0,0,7.437H61.8a3.718,3.718,0,1,0,0-7.437Z" transform="translate(-26.353 -144.672)" fill="#1a3555"/>
        </g>
      </g>
    </g>
  </g>
</svg>
