<svg xmlns="http://www.w3.org/2000/svg" xmlns:xlink="http://www.w3.org/1999/xlink" width="70" height="70" viewBox="0 0 70 70">
  <defs>
    <clipPath id="clip-path">
      <path id="Path_53558" data-name="Path 53558" d="M4025.534-170.507a19.309,19.309,0,0,1-10.157-3,23.984,23.984,0,0,1-9.406-10.967c-.718-1.79-1.99-10.235-.656-12.271a3.241,3.241,0,0,1,2.752-1.807,3.408,3.408,0,0,1,2.7,1.965,14.074,14.074,0,0,1,1.441,4.5,11.591,11.591,0,0,0,1.953,4.17c1.094,1.562,2.252,2.558,3.021,2.6a.5.5,0,0,1,.423.273.5.5,0,0,1-.027.5.5.5,0,0,1-.449.226c-1.509-.082-3.021-1.93-3.788-3.025a12.441,12.441,0,0,1-2.125-4.608,13.151,13.151,0,0,0-1.314-4.132,2.48,2.48,0,0,0-1.863-1.468c-.644-.015-1.3.452-1.887,1.354-1.05,1.6.031,9.562.748,11.349a23.274,23.274,0,0,0,9,10.488,17.848,17.848,0,0,0,15.844,1.733.5.5,0,0,1,.641.3.5.5,0,0,1-.3.641,19.354,19.354,0,0,1-6.552,1.174Z" transform="translate(-4004.731 198.552)" fill="none"/>
    </clipPath>
    <clipPath id="clip-path-2">
      <path id="Path_53560" data-name="Path 53560" d="M4040.913-238.69a.5.5,0,0,1-.5-.441.5.5,0,0,1,.378-.547,3.125,3.125,0,0,0,1.962-1.723c1.1-2.016,1.449-5.323,1.414-7.746-.051-3.49-1.685-8.169-4.61-9.965a7.906,7.906,0,0,0-3.039-1.088,7.347,7.347,0,0,1-2.833-1,2.2,2.2,0,0,1-1.069-2.524,4.035,4.035,0,0,1,3.5-2.744c2.262-.357,5.418.5,8.452,2.294,3.079,1.822,8.6,8.027,7.473,18.469a.5.5,0,0,1-.552.444.5.5,0,0,1-.444-.552c1.076-9.935-4.1-15.791-6.987-17.5-3.355-1.985-6.232-2.419-7.806-2.163l-.054.006a3.007,3.007,0,0,0-2.613,2,1.211,1.211,0,0,0,.63,1.424,6.345,6.345,0,0,0,2.485.861,8.861,8.861,0,0,1,3.379,1.219,10.373,10.373,0,0,1,3.774,4.8,16.536,16.536,0,0,1,1.314,6.008c.018,1.238-.039,5.489-1.535,8.24a4.118,4.118,0,0,1-2.6,2.217.5.5,0,0,1-.12.015Z" transform="translate(-4032.538 266.545)" fill="none"/>
    </clipPath>
    <clipPath id="clip-path-3">
      <path id="Path_53562" data-name="Path 53562" d="M4131.866-192.237a.5.5,0,0,1-.452-.286.5.5,0,0,1,.064-.531c3.742-4.614,5.085-11.856,3.125-16.845a.307.307,0,0,1-.017-.049c-.008-.027-.816-2.819-3.061-3.472a2.132,2.132,0,0,0-1.447.1.5.5,0,0,1-.4.031.5.5,0,0,1-.294-.268,2.373,2.373,0,0,0-3.382-1.346.5.5,0,0,1-.387,0,.5.5,0,0,1-.275-.273,2.13,2.13,0,0,0-1.9-1.271,2,2,0,0,0-1.514.59.5.5,0,0,1-.7.089.5.5,0,0,1-.1-.7,2.965,2.965,0,0,1,2.3-.983,3.015,3.015,0,0,1,2.6,1.461,3.254,3.254,0,0,1,4.051,1.6,3.152,3.152,0,0,1,1.716.006c2.686.781,3.638,3.8,3.739,4.14,2.069,5.3.658,12.954-3.289,17.82a.5.5,0,0,1-.39.185Z" transform="translate(-4121.04 217.448)" fill="none"/>
    </clipPath>
    <clipPath id="clip-path-4">
      <path id="Path_53564" data-name="Path 53564" d="M4143.935-199.114a.5.5,0,0,1-.387-.182.5.5,0,0,1-.105-.414,17.581,17.581,0,0,0-1.048-9.107.5.5,0,0,1,0-.5.5.5,0,0,1,.438-.248.5.5,0,0,1,.433.256c.917,1.617,1.81,6.442,1.16,9.793a.5.5,0,0,1-.492.406Z" transform="translate(-4142.328 209.569)" fill="none"/>
    </clipPath>
    <clipPath id="clip-path-5">
      <path id="Path_53566" data-name="Path 53566" d="M4164.365-191.561a.5.5,0,0,1-.414-.219.5.5,0,0,1-.053-.465c.77-1.973,0-6.914-1.324-8.528a.5.5,0,0,1-.086-.5.5.5,0,0,1,.39-.32.5.5,0,0,1,.471.18c1.549,1.885,2.381,7.228,1.483,9.528a.5.5,0,0,1-.467.319Z" transform="translate(-4162.457 201.595)" fill="none"/>
    </clipPath>
    <clipPath id="clip-path-6">
      <path id="Path_53568" data-name="Path 53568" d="M4071.339-187.415a.5.5,0,0,1-.17-.03c-1.314-.472-3.145-2.573-2.8-6.423a7.644,7.644,0,0,1,4.151-6.276.5.5,0,0,1,.662.253.5.5,0,0,1-.253.662,6.642,6.642,0,0,0-3.562,5.449c-.323,3.656,1.486,5.155,2.145,5.392a.5.5,0,0,1,.324.558.5.5,0,0,1-.494.415Z" transform="translate(-4068.323 200.188)" fill="none"/>
    </clipPath>
    <clipPath id="clip-path-7">
      <path id="Path_53570" data-name="Path 53570" d="M4001.211-264.176a2.183,2.183,0,0,1-.8-.176.5.5,0,0,1-.279-.65.5.5,0,0,1,.649-.281,1.228,1.228,0,0,0,.413.107c-.014-.076-.084-.19-.345-.377-.122-.086-12.532-8.806-15.04-10.575-.606-.427-1.282-.914-1.462-1.044-.158-.062-.284-.047-.343.041s-.049.2.094.33a.5.5,0,0,1,.152.477.5.5,0,0,1-.337.371.5.5,0,0,1-.49-.107,1.244,1.244,0,0,1-.257-1.623,1.255,1.255,0,0,1,1.635-.385.522.522,0,0,1,.086.05s.8.576,1.5,1.07c2.507,1.768,14.917,10.488,15.042,10.576.79.565.809,1.088.753,1.432l0,.019a.509.509,0,0,1-.051.189.965.965,0,0,1-.92.555Z" transform="translate(-3982.978 278.214)" fill="none"/>
    </clipPath>
    <clipPath id="clip-path-8">
      <path id="Path_53572" data-name="Path 53572" d="M4003.377-280.538a.5.5,0,0,1-.434-.251.5.5,0,0,1,0-.5c.018-.03,1.193-2.108.441-3.437a1.7,1.7,0,0,0-.99-.686c-.455-.027-.693.517-.793.843a6.915,6.915,0,0,0-.136,1.938.5.5,0,0,1-.469.528.5.5,0,0,1-.531-.465,7.991,7.991,0,0,1,.178-2.3,1.863,1.863,0,0,1,1.811-1.548,2.632,2.632,0,0,1,1.8,1.192c1.038,1.832-.384,4.327-.445,4.432A.5.5,0,0,1,4003.377-280.538Z" transform="translate(-4000.451 286.415)" fill="none"/>
    </clipPath>
    <clipPath id="clip-path-9">
      <path id="Path_53574" data-name="Path 53574" d="M4046.858-207.181a2.739,2.739,0,0,1-.431-.036.5.5,0,0,1-.392-.315.5.5,0,0,1,.079-.5.5.5,0,0,1,.47-.178,1.018,1.018,0,0,0,.531-.015.581.581,0,0,0,.264-.221c-.277-.3-.809-.834-1.224-1.25-.37-.372-.754-.757-1.034-1.05-.471-.492-.73-.764-.5-1.133a.5.5,0,0,1,.58-.211l3.727,1.209c.055-.088.143-.215.23-.342s.157-.228.205-.3a1.284,1.284,0,0,0,.024-1.6.5.5,0,0,1-.006-.5.5.5,0,0,1,.431-.256.5.5,0,0,1,.437.245,2.273,2.273,0,0,1-.037,2.648c-.054.085-.141.212-.229.34-.062.089-.124.179-.171.252a2.652,2.652,0,0,1-.218.393.5.5,0,0,1-.579.211l-2.288-.742.137.137c.375.377.764.767,1.048,1.064.465.486.772.808.466,1.186-.02.028-.038.057-.054.087a1.713,1.713,0,0,1-.827.769,1.675,1.675,0,0,1-.641.115Z" transform="translate(-4044.538 213.886)" fill="none"/>
    </clipPath>
    <clipPath id="clip-path-10">
      <path id="Path_53576" data-name="Path 53576" d="M3964.084-267.632a.5.5,0,0,1-.4-.193,2.331,2.331,0,0,1,.22-3.018c.094-.139.183-.269.246-.382.256-.461.615-.333,2.525.439l-1.5-1.559a.5.5,0,0,1-.077-.591l.016-.029c.482-.868.987-1.5,2.683-1.152a.5.5,0,0,1,.376.333.5.5,0,0,1-.1.492.5.5,0,0,1-.478.156c-.924-.192-1.172-.056-1.436.367l2.893,3.013a.5.5,0,0,1,.051.632.5.5,0,0,1-.609.176c-1.428-.608-3.026-1.255-3.67-1.472l-.094.138c-.489.719-.763,1.193-.259,1.837a.5.5,0,0,1,.056.528.5.5,0,0,1-.45.282Z" transform="translate(-3963.208 274.214)" fill="none"/>
    </clipPath>
    <clipPath id="clip-path-11">
      <path id="Path_53578" data-name="Path 53578" d="M4046.912-183.678a1.437,1.437,0,0,1-.819-.244.5.5,0,0,1-.207-.459.5.5,0,0,1,.3-.407.5.5,0,0,1,.5.055.472.472,0,0,0,.37.026.711.711,0,0,0-.024-.159.5.5,0,0,1,.128-.486.5.5,0,0,1,.485-.131.5.5,0,0,1,.355.356,1.065,1.065,0,0,1-.373,1.243,1.25,1.25,0,0,1-.71.2Z" transform="translate(-4045.883 185.499)" fill="none"/>
    </clipPath>
    <clipPath id="clip-path-12">
      <path id="Path_53580" data-name="Path 53580" d="M3980.182-232.506a.5.5,0,0,1-.3-.1c-.242-.184-1.457-1.033-2.994-2.108-5.986-4.185-12.456-8.734-13.469-9.744a.513.513,0,0,1-.062-.075,1.312,1.312,0,0,1-.211-1.2,1.024,1.024,0,0,1,.708-.631.5.5,0,0,1,.614.354.5.5,0,0,1-.354.614.074.074,0,0,0-.03.013c-.006.011-.014.1.079.25,1.174,1.12,9.047,6.624,13.3,9.6,1.606,1.123,2.768,1.935,3.025,2.13a.5.5,0,0,1,.172.559.5.5,0,0,1-.476.341Z" transform="translate(-3963.081 246.381)" fill="none"/>
    </clipPath>
    <clipPath id="clip-path-13">
      <path id="Path_53602" data-name="Path 53602" d="M3973.4-241.84a.5.5,0,0,1-.234-.059l-6.907-3.666a.5.5,0,0,1-.208-.678.5.5,0,0,1,.678-.208l6.907,3.666a.5.5,0,0,1,.251.564.5.5,0,0,1-.487.38Z" transform="translate(-3965.991 246.509)" fill="none"/>
    </clipPath>
    <clipPath id="clip-path-14">
      <path id="Path_53604" data-name="Path 53604" d="M4015-236.189a.5.5,0,0,1-.4-.2l-4.644-6.291a.5.5,0,0,1-.058-.5.5.5,0,0,1,.4-.3.5.5,0,0,1,.46.2l4.644,6.291a.5.5,0,0,1,.044.523.5.5,0,0,1-.447.275Z" transform="translate(-4009.849 243.485)" fill="none"/>
    </clipPath>
  </defs>
  <g id="Recyclable" transform="translate(-178 -2253)">
    <path id="Subtraction_13" data-name="Subtraction 13" d="M1096-3612a34.777,34.777,0,0,1-13.624-2.75,34.884,34.884,0,0,1-11.125-7.5,34.879,34.879,0,0,1-7.5-11.125A34.784,34.784,0,0,1,1061-3647a34.786,34.786,0,0,1,2.75-13.624,34.881,34.881,0,0,1,7.5-11.125,34.878,34.878,0,0,1,11.125-7.5A34.777,34.777,0,0,1,1096-3682a34.776,34.776,0,0,1,13.623,2.75,34.881,34.881,0,0,1,11.125,7.5,34.883,34.883,0,0,1,7.5,11.125A34.783,34.783,0,0,1,1131-3647a34.78,34.78,0,0,1-2.75,13.623,34.883,34.883,0,0,1-7.5,11.125,34.887,34.887,0,0,1-11.125,7.5A34.776,34.776,0,0,1,1096-3612Zm0-69a33.781,33.781,0,0,0-13.234,2.672,33.888,33.888,0,0,0-10.807,7.287,33.889,33.889,0,0,0-7.286,10.808A33.786,33.786,0,0,0,1062-3647a33.785,33.785,0,0,0,2.672,13.234,33.887,33.887,0,0,0,7.286,10.807,33.882,33.882,0,0,0,10.807,7.286A33.781,33.781,0,0,0,1096-3613a33.781,33.781,0,0,0,13.234-2.672,33.882,33.882,0,0,0,10.807-7.286,33.887,33.887,0,0,0,7.286-10.807A33.786,33.786,0,0,0,1130-3647a33.786,33.786,0,0,0-2.672-13.234,33.887,33.887,0,0,0-7.286-10.808,33.888,33.888,0,0,0-10.807-7.287A33.781,33.781,0,0,0,1096-3681Z" transform="translate(-883 5935)" fill="#181E85"/>
    <g id="Group_5314" data-name="Group 5314" transform="translate(-5.124 1224.936)">
      <g id="Group_4448" data-name="Group 4448" transform="translate(202.472 1057.675)" clip-path="url(#clip-path)">
        <path id="Path_53557" data-name="Path 53557" d="M3999.731-203.552h29.691V-173.5h-29.691Z" transform="translate(-4000.733 202.55)" fill="#181E85"/>
      </g>
      <g id="Group_4449" data-name="Group 4449" transform="translate(208.046 1044.047)" clip-path="url(#clip-path-2)">
        <path id="Path_53559" data-name="Path 53559" d="M4027.538-271.545H4049.2v29.859h-21.661Z" transform="translate(-4028.54 270.543)" fill="#181E85"/>
      </g>
      <g id="Group_4450" data-name="Group 4450" transform="translate(225.784 1053.888)" clip-path="url(#clip-path-3)">
        <path id="Path_53561" data-name="Path 53561" d="M4116.04-222.448H4133.5v27.215H4116.04Z" transform="translate(-4117.043 221.446)" fill="#181E85"/>
      </g>
      <g id="Group_4451" data-name="Group 4451" transform="translate(230.051 1055.467)" clip-path="url(#clip-path-4)">
        <path id="Path_53563" data-name="Path 53563" d="M4137.328-214.569h4.325v12.459h-4.325Z" transform="translate(-4138.331 213.566)" fill="#181E85"/>
      </g>
      <g id="Group_4452" data-name="Group 4452" transform="translate(234.086 1057.066)" clip-path="url(#clip-path-5)">
        <path id="Path_53565" data-name="Path 53565" d="M4157.457-206.6h4.748v12.038h-4.748Z" transform="translate(-4158.46 205.593)" fill="#181E85"/>
      </g>
      <g id="Group_4453" data-name="Group 4453" transform="translate(215.218 1057.347)" clip-path="url(#clip-path-6)">
        <path id="Path_53567" data-name="Path 53567" d="M4063.323-205.187h6.9v14.777h-6.9Z" transform="translate(-4064.326 204.185)" fill="#181E85"/>
      </g>
      <g id="Group_4454" data-name="Group 4454" transform="translate(198.112 1041.709)" clip-path="url(#clip-path-7)">
        <path id="Path_53569" data-name="Path 53569" d="M3977.979-283.214h21.23v16.043h-21.23Z" transform="translate(-3978.981 282.211)" fill="#181E85"/>
      </g>
      <g id="Group_4455" data-name="Group 4455" transform="translate(201.614 1040.064)" clip-path="url(#clip-path-8)">
        <path id="Path_53571" data-name="Path 53571" d="M3995.452-291.415h6.188v7.882h-6.188Z" transform="translate(-3996.454 290.413)" fill="#181E85"/>
      </g>
      <g id="Group_4456" data-name="Group 4456" transform="translate(210.451 1054.602)" clip-path="url(#clip-path-9)">
        <path id="Path_53573" data-name="Path 53573" d="M4039.538-218.886h8.124v8.71h-8.124Z" transform="translate(-4040.54 217.884)" fill="#181E85"/>
      </g>
      <g id="Group_4457" data-name="Group 4457" transform="translate(194.149 1042.51)" clip-path="url(#clip-path-10)">
        <path id="Path_53575" data-name="Path 53575" d="M3958.208-279.214h7.994v8.586h-7.994Z" transform="translate(-3959.21 278.212)" fill="#181E85"/>
      </g>
      <g id="Group_4458" data-name="Group 4458" transform="translate(210.72 1060.291)" clip-path="url(#clip-path-11)">
        <path id="Path_53577" data-name="Path 53577" d="M4040.883-190.5h4.173v3.826h-4.173Z" transform="translate(-4041.885 189.496)" fill="#181E85"/>
      </g>
      <g id="Group_4459" data-name="Group 4459" transform="translate(194.124 1048.089)" clip-path="url(#clip-path-12)">
        <path id="Path_53579" data-name="Path 53579" d="M3958.081-251.381h19.606v15.88h-19.606Z" transform="translate(-3959.083 250.379)" fill="#181E85"/>
      </g>
      <g id="Group_4470" data-name="Group 4470" transform="translate(194.707 1048.063)" clip-path="url(#clip-path-13)">
        <path id="Path_53601" data-name="Path 53601" d="M3960.991-251.509h9.914v6.673h-9.914Z" transform="translate(-3961.993 250.507)" fill="#181E85"/>
      </g>
      <g id="Group_4471" data-name="Group 4471" transform="translate(203.498 1048.669)" clip-path="url(#clip-path-14)">
        <path id="Path_53603" data-name="Path 53603" d="M4004.849-248.485h7.652v9.3h-7.652Z" transform="translate(-4005.851 247.482)" fill="#181E85"/>
      </g>
    </g>
  </g>
</svg>
