<svg xmlns="http://www.w3.org/2000/svg" width="420" height="420" viewBox="0 0 420 420" style="background-color:#EBF2FD"><title>TIS_Icons_NoName_Navy_RGB</title><polyline points="145.223 235.547 139.701 218.687 125.771 212.854" fill="none" stroke="#1414b4" stroke-linecap="round" stroke-linejoin="round" stroke-width="5"/><path d="M274.9154,223.1548c7.3851-16.976,5.0085-33.6577-1.7562-50.0927-8.1062-19.6944-20.22-32.4263-45.2986-31.482-21.3266-.0342-46.38.7945-69.4492,14.2354-4.811,2.8032-7.5747,7.7143-8.5017,13.0932-1.2414,7.2027-2.4644,25.1779.334,42.1982" fill="none" stroke="#1414b4" stroke-linecap="round" stroke-linejoin="round" stroke-width="5"/><path d="M96.4236,223.3541,94.963,246.5206l55.0348,31.8364,137.6585-2,40.2818-34.5425a9.2789,9.2789,0,0,0,.0278-13.9927L294.08,199.607c-4.4265-3.6856-12.87-1.4976-14.5874,4.2749" fill="none" stroke="#1414b4" stroke-linecap="round" stroke-linejoin="round" stroke-width="5"/><path d="M192.0618,206.29c-1.3267-2.1934-5.8122-4.8723-8.3468-4.6751a23.7184,23.7184,0,0,0-9.3173,3.2807c-7.7983,5.68-4.8072,14.398-4.055,24.0916a51.6859,51.6859,0,0,0,8.0814,24.5947" fill="none" stroke="#1414b4" stroke-linecap="round" stroke-linejoin="round" stroke-width="5"/><path d="M169.0342,216.4314c-1.9913-2.7031-20.8115-2.4408-15.3532,13.0762" fill="none" stroke="#1414b4" stroke-linecap="round" stroke-linejoin="round" stroke-width="5"/><path d="M235.22,252.6275s-4.9261-7.7625-6.4023-11.82" fill="none" stroke="#1414b4" stroke-linecap="round" stroke-linejoin="round" stroke-width="5"/><path d="M79.5955,205.9539l7.0236,17.4a120.1583,120.1583,0,0,1,35.7116-18.4176" fill="none" stroke="#1414b4" stroke-linecap="round" stroke-linejoin="round" stroke-width="5"/><path d="M84.298,197.0256s8.2149-4.321,12.3686-6.41,9.0167-3.494,13.4321-2.0373c4.9894,1.6461,8.2178,6.5862,9.736,11.6159" fill="none" stroke="#1414b4" stroke-linecap="round" stroke-linejoin="round" stroke-width="5"/><path d="M155.2263,251.0369a19.2321,19.2321,0,0,0,20.2456,11.2666c2.475-.4049,4.9266-1.3117,7.419-1.0338,1.7769.1981,2.4253.9863,4.1337,1.5131a21.2,21.2,0,0,0,12.3607-.2859c2.5284-.9215,4.9783-2.44,7.6657-2.298,3.3934.1794,6.0051,2.9034,8.9075,4.6709a17.3742,17.3742,0,0,0,17.4706.1331c2.1254-1.25,4.0193-2.9812,6.3823-3.686,3.5331-1.0538,7.2646.3925,10.929.7991,10.15,1.1262,22.3875-7.2,23.3531-17.3665" fill="none" stroke="#1414b4" stroke-linecap="round" stroke-linejoin="round" stroke-width="5"/><path d="M93.2725,309.6042a9.4867,9.4867,0,0,1-.8233,5.4,11.745,11.745,0,0,1-3.4521,4.2363,11.4058,11.4058,0,0,1-4.8614,2.2395,9.1676,9.1676,0,0,1-5.3344-.5955,12.3333,12.3333,0,0,1-4.9629-4.03l-3.0474-3.9287-7.51,5.8248-4.1259-5.3194,24.3374-18.877,7.1728,9.2483A11.9543,11.9543,0,0,1,93.2725,309.6042ZM80.9551,315.01a4.241,4.241,0,0,0,3.97-1.0193,4.0878,4.0878,0,0,0,1.936-3.5343,7.1834,7.1834,0,0,0-1.6328-3.8285l-2.373-3.06-7.6143,5.9058,2.3731,3.0595A6.8847,6.8847,0,0,0,80.9551,315.01Z" fill="#1414b4"/><path d="M98.8257,347.6013l-4.0283,4.4253L80.1226,338.6689l20.7329-22.7771,5.1084,4.65L89.2266,338.864Z" fill="#1414b4"/><path d="M122.2817,362.0608l-8.3891-5.1733L108.2783,361.8l-5.917-3.6492,25.4922-20.4651,5.43,3.3489-6.9165,31.92-5.917-3.6489Zm1.3252-5.3342L126.13,346.6l-.2246-.1385-7.8413,6.8472Z" fill="#1414b4"/><path d="M139.6177,377.4766a10.1984,10.1984,0,0,1-2.4649-5.0157,9.5374,9.5374,0,0,1,.4556-5.0775l.1255-.3288,7.0288,2.6845-.11.2878a4.3368,4.3368,0,0,0,.0327,3.121,4.1839,4.1839,0,0,0,2.6529,2.4263,4.5437,4.5437,0,0,0,3.1816.179,3.1775,3.1775,0,0,0,1.979-1.9759,2.8256,2.8256,0,0,0-.1367-2.478,5.5075,5.5075,0,0,0-1.8857-1.9682l-3.0371-1.9137a15.779,15.779,0,0,1-4.4429-4.5229q-1.8165-2.766-.2466-6.8767a8.6466,8.6466,0,0,1,3.0532-4.1091,8.8527,8.8527,0,0,1,4.7271-1.5857,13.5766,13.5766,0,0,1,5.6128.9662,13.0839,13.0839,0,0,1,5.2675,3.4722,9.7247,9.7247,0,0,1,2.3946,4.706,8.66,8.66,0,0,1-.3916,4.7252l-.0786.2056-7.0288-2.6846.0473-.1233a4.06,4.06,0,0,0,.0093-2.7989,3.8344,3.8344,0,0,0-2.5073-2.2528,3.7436,3.7436,0,0,0-2.8164-.0867,3.1579,3.1579,0,0,0-1.7886,1.9075,2.7165,2.7165,0,0,0,.2114,2.53A6.3386,6.3386,0,0,0,151.52,362.9l3.0469,2.0115a13.49,13.49,0,0,1,4.5439,4.75,7.4259,7.4259,0,0,1,.1514,6.51,8.8623,8.8623,0,0,1-3.2187,4.2343,9.6884,9.6884,0,0,1-5.0523,1.6971,14.06,14.06,0,0,1-5.9111-.9861A13.352,13.352,0,0,1,139.6177,377.4766Z" fill="#1414b4"/><path d="M192.4165,367.2141l-7.9609-1.4722-4.5122,24.4024-6.7061-1.24,4.5117-24.4023-7.9609-1.4721,1.0884-5.8843,22.6284,4.1842Z" fill="#1414b4"/><path d="M199.1919,361.4382l6.9.328L204.63,392.5315l-6.9-.3279Z" fill="#1414b4"/><path d="M221.9858,390.5438a13.7581,13.7581,0,0,1-5.4223-5.2931,19.7828,19.7828,0,0,1-1.6509-15.7314,13.7868,13.7868,0,0,1,4.2075-6.2815,13.2081,13.2081,0,0,1,7.3648-2.9629,12.5252,12.5252,0,0,1,9.1264,2.2277,14.7835,14.7835,0,0,1,5.274,7.6754l-6.608.6935a7.1346,7.1346,0,0,0-2.6528-3.5706,6.2387,6.2387,0,0,0-4.4272-1.0839,5.9066,5.9066,0,0,0-4.9864,3.2884A15.3691,15.3691,0,0,0,223.71,383.793a5.9177,5.9177,0,0,0,5.5577,2.16,6.1163,6.1163,0,0,0,4.0229-1.9264,7.273,7.273,0,0,0,1.8819-3.781l6.52-.6842a14.1808,14.1808,0,0,1-3.5249,8.3555,12.481,12.481,0,0,1-8.3628,3.9966A13.2068,13.2068,0,0,1,221.9858,390.5438Z" fill="#1414b4"/><path d="M266.3423,357.4193l2.4028,6.0525,10.7144-4.2535,1.9643,4.9483L270.71,368.42l4.789,12.0641-6.42,2.5489-11.3642-28.6267,18.5664-7.3707,2.208,5.5617Z" fill="#1414b4"/><path d="M299.7593,356.5144l-3.03,1.877,5.6777,9.1638-5.7978,3.5918-16.2212-26.1824,9.95-6.1641a12.5552,12.5552,0,0,1,5.9966-2.0588,9.1964,9.1964,0,0,1,5.1562,1.1793,10.4551,10.4551,0,0,1,3.6773,3.5965,9.9731,9.9731,0,0,1,1.5669,5.37,9.0365,9.0365,0,0,1-1.8516,5.3657l11.7744,6.4734-6.0967,3.7771Zm-5.9727-2.8733,3.2168-1.9929a7.5742,7.5742,0,0,0,2.8823-2.95,3.5788,3.5788,0,0,0-.3657-3.6814,3.4035,3.4035,0,0,0-3.0454-1.866,7.8322,7.8322,0,0,0-3.92,1.3162l-3.2168,1.9929Z" fill="#1414b4"/><path d="M313.4868,329.1248l4.4024,4.8581,8.6728-7.8591,3.5747,3.945-8.6728,7.8592,4.6684,5.1516,10.3028-9.3364,4.0185,4.4343-15.4224,13.9748L304.35,329.3291l15.4219-13.975,4.0181,4.4342Z" fill="#1414b4"/><path d="M333.0039,308.8506l5.1909,4.0045,7.149-9.267,4.2153,3.252-7.1489,9.2671,5.5044,4.2463,8.4926-11.0088L361.1455,313l-12.7124,16.4783L324.0464,310.665l12.7124-16.4782,4.7378,3.655Z" fill="#1414b4"/><path d="M267.1429,232.3641c-15.7718,7.5955-31.4983,10.8639-48.31,5.9833a74.9684,74.9684,0,0,1-9.8114-3.8792c-3.777-1.7025-7.6541-3.4745-10.517-6.4691a10.956,10.956,0,0,1-1.9837-11.5348c1.6436-3.9946,5.3107-5.8814,9.6268-6.0539s8.5372,1.1122,12.7906,1.865a52.4806,52.4806,0,0,0,18.21.0066c4.3132-.76,9.02-2.47,10.8384-6.4537,2.4013-5.26-1.6071-11.3-6.2742-14.7129-2.3922-1.75-5.14-3.2207-8.1015-3.3265-4.9553-.177-9.3647,3.6027-11.4753,8.09s-3.1818,10.6859-3.4334,15.6379c.7442-6.545,1.8283-14.7078-1.14-18.7805-3.6771-5.0458-9.3955-6.1361-15.5108-4.8777-1.73.356-8.4747,3.83-9.1026,8.0521-2.32,15.6009,1.42,29.7705,5.6258,44.972a70.1782,70.1782,0,0,0,4.3228,10.7236" fill="none" stroke="#1414b4" stroke-linecap="round" stroke-linejoin="round" stroke-width="5"/></svg>