<svg xmlns="http://www.w3.org/2000/svg" width="420" height="420" viewBox="0 0 420 420" style="background-color:#f0faff"><title>TIS_Icons_NoName_Navy_RGB</title><path d="M188.1126,184.1152c-28.2626-8.042-49.8628,14.3037-50.2332,35.019a112.4439,112.4439,0,0,0,11.762,52.0273c8.56,17.6963,26.7271,29.087,47.9178,29.1231,15.8666.0269,30.9291-3.709,45.8688-8.0073" fill="none" stroke="#1414b4" stroke-linecap="round" stroke-linejoin="round" stroke-width="5"/><path d="M284.42,279.5575c-1.9436-8.3867.8442-15.4047,5.5349-22.5654,4.9612-7.5732,6.4953-15.6719-1.7944-22.75q-.9615-.9236-1.9209-1.8442c.0446-12.34-3.3821-17.0142-13.93-19q-.7894-.597-1.5715-1.19c-1.6345-16.8208-7.9832-23.02-22.9647-22.4233q-1.76-.249-3.5271-.5019a16.14,16.14,0,0,0-13.092-10.1665c-8.4523-1.1412-13.1118-2.1885-21.3164.9174" fill="none" stroke="#1414b4" stroke-linecap="round" stroke-linejoin="round" stroke-width="5"/><path d="M207.0432,162.1845c.9361.11,1.8772.2178,2.8008.3311,3.4-.3643,6.8713-.8262,10.3594-1.1192,22.1887-1.8623,38.3808-11.3,47.32-30.14" fill="none" stroke="#1414b4" stroke-linecap="round" stroke-linejoin="round" stroke-width="5"/><path d="M177.4148,90.5888c-7.1223,10.5312-8.5979,21.9766-6.3533,33.9619.7469,18.2129,11.3347,30.0195,29.5042,36.8916h0q-.5808,12.28-1.1614,24.5547" fill="none" stroke="#1414b4" stroke-linecap="round" stroke-linejoin="round" stroke-width="5"/><path d="M209.0049,196.8529c10.6229,4.5407,19.4886,12.5088,24.1121,22.2576a36.0105,36.0105,0,0,1,.1582,30.9378c-1.6721,3.4677-4.345,6.98-8.4214,7.8633-4.5845.9931-9.127-1.69-12.533-4.63C200.08,242.7128,193.1054,226.8,177.9014,220.0527" fill="none" stroke="#1414b4" stroke-linecap="round" stroke-linejoin="round" stroke-width="5"/><path d="M184.21,223.6469c-3.8125,1.303-9.01,5.118-10.5732,8.5146a17.3552,17.3552,0,0,0-1,10.84,9.6521,9.6521,0,0,0,2.8107,5.4546c2.1084,1.841,6.1629,5.1837,15.1449,1.54,3.641-1.477,7.5561-6.7151,11.478-7.4312" fill="none" stroke="#1414b4" stroke-linecap="round" stroke-linejoin="round" stroke-width="5"/><path d="M189.192,250.77c-2.286,3.6584-3.6816,7.9554-.4462,10.9752s8.0167,4.3639,12.6686,4.5324a16.947,16.947,0,0,0,4.3758-.3255,22.2541,22.2541,0,0,0,5.54-2.3662l8.0094-4.3238" fill="none" stroke="#1414b4" stroke-linecap="round" stroke-linejoin="round" stroke-width="5"/><path d="M210.6663,197.5977c2.3767-1.517,6.09-5.8406,7.9369-7.8708" fill="none" stroke="#1414b4" stroke-linecap="round" stroke-linejoin="round" stroke-width="5"/><path d="M229.6959,213.2812c7.3-3.4648,15.983-10.4571,16.6024-17.8768" fill="none" stroke="#1414b4" stroke-linecap="round" stroke-linejoin="round" stroke-width="5"/><path d="M235.7686,245.71c11.21-9.1329,22.606-16.2765,29.7515-28.2806" fill="none" stroke="#1414b4" stroke-linecap="round" stroke-linejoin="round" stroke-width="5"/><path d="M219.34,259.2622c-3.3954,6.0152-.9037,9.6435,2.2758,12.3092s7.6734,3.77,12.0143,3.7579c7.1915-.02,14.094-2.8556,19.8229-6.7768s10.4449-8.8975,15.1127-13.8322l15.5138-16.401" fill="none" stroke="#1414b4" stroke-linecap="round" stroke-linejoin="round" stroke-width="5"/><path d="M264.0716,259.3929c-5.826,14.9313-5.1882,23.3366-3.71,27.7264.7606,2.2594,5.1588,6.0923,9.2978,6.0923,10.1781,0,14.42-5.9771,14.42-5.9771" fill="none" stroke="#1414b4" stroke-linecap="round" stroke-linejoin="round" stroke-width="5"/><path d="M185.0145,89.7811c5.196-.4989,10.0186,3.0877,12.1627,7.386s2.206,9.1722,2.2311,13.8856c4.0809-7.2979,15.3881-10.1376,23.3777-6.2812s11.7218,13.3542,8.8334,21.1014c4.6217-4.052,9.9051-7.9223,16.2453-8.9673s13.8583,1.7142,15.687,7.2889" fill="none" stroke="#1414b4" stroke-linecap="round" stroke-linejoin="round" stroke-width="5"/><path d="M211.5581,101.8648c1.1514-6.6906,1.1312-9.2964,4.9345-15.1337" fill="none" stroke="#1414b4" stroke-linecap="round" stroke-linejoin="round" stroke-width="5"/><path d="M222.7253,104.2434c1.5578-2.3786.7276-5.6288,7.674-11.48" fill="none" stroke="#1414b4" stroke-linecap="round" stroke-linejoin="round" stroke-width="5"/><path d="M230.3993,111.0252c2.1054-2.4614,5.04-3.8869,8.0634-5.9882a17.53,17.53,0,0,1,10.0541-3.1722" fill="none" stroke="#1414b4" stroke-linecap="round" stroke-linejoin="round" stroke-width="5"/><path d="M118.0239,331.45l6.7334,4.2526-1.3081,23.1648.1113.0706,10.8321-17.15,5.729,3.6184L123.65,371.4841l-6.8076-4.3.9829-22.4853-.1113-.0705-10.4322,16.5174-5.729-3.6184Z" fill="#1414b4"/><path d="M153.3154,376.1636l-9.2334-3.4474-4.5542,5.9082-6.5127-2.4318,21.0371-25.0221,5.9771,2.2316-.5918,32.6559-6.5132-2.4318Zm.2652-5.49.51-10.424-.247-.0924-6.3638,8.2386Z" fill="#1414b4"/><path d="M191.7417,367.1382l-7.9546-1.5064-4.6177,24.3826-6.7006-1.2688,4.6171-24.3828-7.9546-1.5064,1.1133-5.8793,22.61,4.2816Z" fill="#1414b4"/><path d="M201.3813,389.8423q-3.64-3.2631-3.7573-10.5225l-.2807-17.3337,6.8188-.1106.2734,16.85q.1268,7.8313,6.11,7.7339a4.9928,4.9928,0,0,0,4.5405-2.23,10.4875,10.4875,0,0,0,1.272-5.6972l-.2734-16.85,6.8193-.11.2808,17.3336q.1179,7.2589-3.4136,10.6388a14.3894,14.3894,0,0,1-18.39.2982Z" fill="#1414b4"/><path d="M243.7329,378.4873l-3.4927.71,2.149,10.5637-6.6831,1.3593-6.1392-30.182,11.4692-2.3328a12.5536,12.5536,0,0,1,6.3384.1474,9.1975,9.1975,0,0,1,4.4277,2.8936,10.4543,10.4543,0,0,1,2.2027,4.6482,9.979,9.979,0,0,1-.3916,5.58,9.0364,9.0364,0,0,1-3.5972,4.3912l8.8008,10.1535-7.0283,1.43Zm-4.6064-4.7654,3.708-.7544a7.5755,7.5755,0,0,0,3.7265-1.768,3.5782,3.5782,0,0,0,.9331-3.58,3.4032,3.4032,0,0,0-2.2094-2.8059,7.8311,7.8311,0,0,0-4.1338-.1245l-3.708.7542Z" fill="#1414b4"/><path d="M282.8662,369.7264l-9.0781,3.8377.749,7.4221-6.4033,2.7069-1.9014-32.6352,5.8765-2.4842,22.0029,24.1375-6.4033,2.7069Zm-3.5791-4.1717-6.79-7.9257-.2432.1028,1.0347,10.3585Z" fill="#1414b4"/><path d="M316.0029,351.6313l3.3033,4.99-16.5469,10.954-17.0015-25.6823,5.76-3.8132L305.18,358.7964Z" fill="#1414b4"/><path d="M239.3592,277.1851c2.5263,2.65,3.2043,6.5163,3.655,10.1494a179.6681,179.6681,0,0,1,1.347,19.4756,3.3221,3.3221,0,0,0,.3132,1.6643c.7793,1.3158,5.0085.7989,5.7415-.5434s.4448-2.988.1372-4.486" fill="none" stroke="#1414b4" stroke-linecap="round" stroke-linejoin="round" stroke-width="5"/></svg>