<svg xmlns="http://www.w3.org/2000/svg" xmlns:xlink="http://www.w3.org/1999/xlink" width="188.434" height="188.434" viewBox="0 0 188.434 188.434">
  <defs>
    <clipPath id="clip-path">
      <path id="Subtraction_5" data-name="Subtraction 5" d="M10.842,21.121a24.491,24.491,0,0,1-3.905-.292,14.577,14.577,0,0,1-3.191-.864,7.627,7.627,0,0,1-2.309-1.416A4.431,4.431,0,0,1,.179,16.6a4.306,4.306,0,0,1-.124-1.93,6.5,6.5,0,0,1,.713-2.045,12.659,12.659,0,0,1,2.34-3.011A24.206,24.206,0,0,1,6.8,6.693,41.565,41.565,0,0,1,17.315,1.9,41.163,41.163,0,0,1,29.095,0,24.494,24.494,0,0,1,33,.292a14.578,14.578,0,0,1,3.191.864A7.627,7.627,0,0,1,38.5,2.573a4.431,4.431,0,0,1,1.258,1.949,4.307,4.307,0,0,1,.123,1.93A6.5,6.5,0,0,1,39.168,8.5a12.66,12.66,0,0,1-2.34,3.011,24.205,24.205,0,0,1-3.688,2.92,41.565,41.565,0,0,1-10.519,4.8A41.165,41.165,0,0,1,10.842,21.121ZM29.335.536a36,36,0,0,0-5.639.475,46.461,46.461,0,0,0-6.209,1.448,42.158,42.158,0,0,0-10.412,4.7A23.835,23.835,0,0,0,3.442,9.985a11.918,11.918,0,0,0-2.276,2.892A5.9,5.9,0,0,0,.52,14.724a3.866,3.866,0,0,0,.11,1.738,4,4,0,0,0,1.164,1.781,7.075,7.075,0,0,0,2.152,1.291,13.87,13.87,0,0,0,2.987.786,23.746,23.746,0,0,0,3.669.265,36,36,0,0,0,5.639-.475,46.465,46.465,0,0,0,6.209-1.448,42.158,42.158,0,0,0,10.412-4.7,23.835,23.835,0,0,0,3.632-2.828A11.917,11.917,0,0,0,38.77,8.244,5.9,5.9,0,0,0,39.417,6.4a3.866,3.866,0,0,0-.11-1.738,4,4,0,0,0-1.164-1.781,7.075,7.075,0,0,0-2.152-1.291A13.87,13.87,0,0,0,33,.8,23.747,23.747,0,0,0,29.335.536Z" transform="translate(0 0)" fill="#333"/>
    </clipPath>
  </defs>
  <g id="icon-footer-ethical-brands-blue" transform="translate(-3177 5056)">
    <circle id="Ellipse_120" data-name="Ellipse 120" cx="94.217" cy="94.217" r="94.217" transform="translate(3177 -5056)" fill="rgba(255,250,244,0)"/>
    <g id="Group_5374" data-name="Group 5374" transform="translate(6935.952 -1737.147)">
      <g id="Group_5329" data-name="Group 5329" transform="translate(-3737.952 -3297.66)">
        <path id="XMLID_487_" d="M102.785,16.089,86.7,0l-7.2,7.2S66.143,8.475,64.93,9.257,0,74.187,0,74.187c-.009,4.437,23.1,28.907,28.6,28.6,0,0,63.818-63.264,64.93-64.93s2.055-14.563,2.055-14.563Z" transform="translate(0 73.486) rotate(-45)" fill="#386ca8"/>
        <path id="Subtraction_1" data-name="Subtraction 1" d="M9.782,10.109h0a5.86,5.86,0,0,1-2.266-.523A11.754,11.754,0,0,1,5.47,8.435,16.348,16.348,0,0,1,3.421,6.761a20.91,20.91,0,0,1-2-2.2,8.85,8.85,0,0,1-1.173-1.9A1.992,1.992,0,0,1,.138.975C.473.328,1.427,0,2.973,0a19.69,19.69,0,0,1,3.8.461,16.431,16.431,0,0,1,2.792.867,10.7,10.7,0,0,1,2.208,1.2,4.963,4.963,0,0,1,1.611,1.818,3.781,3.781,0,0,1-.263,3.53A3.676,3.676,0,0,1,9.782,10.109Zm-6.006-8.9c-1.062,0-1.717.225-1.946.667a1.44,1.44,0,0,0,.12,1.245,7,7,0,0,0,.938,1.432A17.036,17.036,0,0,0,4.465,6.222a13.456,13.456,0,0,0,1.64,1.3,9.581,9.581,0,0,0,1.62.9A4.634,4.634,0,0,0,9.5,8.829a2.652,2.652,0,0,0,2.431-1.586,2.709,2.709,0,0,0,.178-2.512,3.849,3.849,0,0,0-1.249-1.422,8.652,8.652,0,0,0-1.738-.963,13.522,13.522,0,0,0-2.21-.719A15.465,15.465,0,0,0,3.775,1.207Z" transform="translate(82.894 14.327)" fill="#386ca8"/>
        <path id="Subtraction_2" data-name="Subtraction 2" d="M3,7.079H3a1.638,1.638,0,0,1-1.028-.422,4.292,4.292,0,0,1-.812-.929A8.161,8.161,0,0,1,.438,4.375,5.676,5.676,0,0,1,.081,3.209a4.021,4.021,0,0,1-.07-1.075A2.292,2.292,0,0,1,.347,1.072,2.947,2.947,0,0,1,3.014,0,2.947,2.947,0,0,1,5.681,1.072a2.292,2.292,0,0,1,.336,1.063,4.021,4.021,0,0,1-.07,1.075,5.673,5.673,0,0,1-.357,1.166,8.153,8.153,0,0,1-.728,1.347,4.328,4.328,0,0,1-.815.929,1.667,1.667,0,0,1-1.032.427ZM3.014.7a2.268,2.268,0,0,0-2.048.827A2.374,2.374,0,0,0,.75,3.219a4.52,4.52,0,0,0,.277.924A6.456,6.456,0,0,0,1.586,5.2a3.356,3.356,0,0,0,.627.73,1.251,1.251,0,0,0,.793.332h.007a1.274,1.274,0,0,0,.8-.336,3.382,3.382,0,0,0,.629-.73A6.438,6.438,0,0,0,5,4.143a4.522,4.522,0,0,0,.277-.924,2.374,2.374,0,0,0-.216-1.687A2.268,2.268,0,0,0,3.014.7Z" transform="translate(69.727 42.225)" fill="#fff"/>
        <path id="Subtraction_3" data-name="Subtraction 3" d="M3,7.079H3a1.638,1.638,0,0,1-1.028-.422,4.292,4.292,0,0,1-.812-.929A8.161,8.161,0,0,1,.438,4.375,5.676,5.676,0,0,1,.081,3.209a4.021,4.021,0,0,1-.07-1.075A2.292,2.292,0,0,1,.347,1.072,2.947,2.947,0,0,1,3.014,0,2.947,2.947,0,0,1,5.681,1.072a2.292,2.292,0,0,1,.336,1.063,4.021,4.021,0,0,1-.07,1.075,5.673,5.673,0,0,1-.357,1.166,8.153,8.153,0,0,1-.728,1.347,4.328,4.328,0,0,1-.815.929,1.667,1.667,0,0,1-1.032.427ZM3.014.7a2.268,2.268,0,0,0-2.048.827A2.374,2.374,0,0,0,.75,3.219a4.52,4.52,0,0,0,.277.924A6.456,6.456,0,0,0,1.586,5.2a3.356,3.356,0,0,0,.627.73,1.251,1.251,0,0,0,.793.332h.007a1.274,1.274,0,0,0,.8-.336,3.382,3.382,0,0,0,.629-.73A6.438,6.438,0,0,0,5,4.143a4.522,4.522,0,0,0,.277-.924,2.374,2.374,0,0,0-.216-1.687A2.268,2.268,0,0,0,3.014.7Z" transform="translate(75.754 55.621) rotate(180)" fill="#fff"/>
        <rect id="Rectangle_2292" data-name="Rectangle 2292" width="24.781" height="13.063" rx="1" transform="translate(60.252 2)" fill="#22548d"/>
      </g>
      <g id="Group_5330" data-name="Group 5330" transform="translate(-3649.239 -3268.415)">
        <path id="Path_54499" data-name="Path 54499" d="M0,0H16.076s-1.323,10.3-1.919,11.155-11.719.606-12.226,0S0,0,0,0Z" transform="translate(11.971 85.784)" fill="#333"/>
        <path id="Path_54500" data-name="Path 54500" d="M-.564-10.808c.933-2.051,34.623-3.512,35.106,0s-5.194,82.434-7.175,83.663-17.9,2.037-20.788,0S-1.5-8.757-.564-10.808Z" transform="translate(3.02 12.929)" fill="#fed8b1"/>
        <g id="Mask_Group_49" data-name="Mask Group 49" transform="translate(0 15.543)" clip-path="url(#clip-path)">
          <path id="Path_54503" data-name="Path 54503" d="M-.564-10.808c.933-2.051,34.623-3.512,35.106,0s-5.194,82.434-7.175,83.663-17.9,2.037-20.788,0S-1.5-8.757-.564-10.808Z" transform="translate(3.02 -2.778)" fill="#333"/>
        </g>
      </g>
      <g id="Group_5331" data-name="Group 5331" transform="translate(-3719.472 -3243.9)">
        <rect id="Rectangle_2290" data-name="Rectangle 2290" width="4.922" height="8.846" transform="translate(16.482 5.968)" fill="#ebaa95"/>
        <path id="Path_54448" data-name="Path 54448" d="M76.33,109.251H90.154c.04,0,.079,0,.119,0a.817.817,0,0,0,.009-.09v-8.1a.807.807,0,0,0-.8-.8H77.006a.807.807,0,0,0-.8.8v8.1a.782.782,0,0,0,.009.09C76.251,109.254,76.29,109.251,76.33,109.251Z" transform="translate(-64.298 -86.104)" fill="#ebaa95"/>
        <path id="Path_54450" data-name="Path 54450" d="M0,468.8a.807.807,0,0,0,.8.8H37.083a.807.807,0,0,0,.8-.8V460.78H0Z" transform="translate(0 -391.301)" fill="#f4dad8"/>
        <path id="Path_54452" data-name="Path 54452" d="M25.856,154.622H12.032c-6.645,0-12.05,6.031-12.05,12.778H37.87C37.87,160.653,32.5,154.622,25.856,154.622Z" transform="translate(0 -131.971)" fill="#f4dad8"/>
        <rect id="Rectangle_2291" data-name="Rectangle 2291" width="37.888" height="35.611" transform="translate(0 34.867)" fill="#f4dad8"/>
        <path id="Path_54455" data-name="Path 54455" d="M165.106,17.337h9.3V19.68h-8.928v4.027a1.172,1.172,0,1,1-2.343,0V19.313A1.979,1.979,0,0,1,165.106,17.337Z" transform="translate(-162.498 -16.132)" fill="#ebaa95"/>
        <path id="Path_54456" data-name="Path 54456" d="M90.282,15.48a.807.807,0,0,1-.8.8H77.006a.807.807,0,0,1-.8-.8V10.429a.807.807,0,0,1,.8-.8H89.477a.807.807,0,0,1,.8.8Z" transform="translate(-64.298 -9.624)" fill="#ebaa95"/>
        <path id="Rectangle_2313" data-name="Rectangle 2313" d="M0,0H18a2,2,0,0,1,2,2V25a2,2,0,0,1-2,2H0a0,0,0,0,1,0,0V0A0,0,0,0,1,0,0Z" transform="translate(0.02 39.173)" fill="#fff"/>
        <path id="Rectangle_2314" data-name="Rectangle 2314" d="M0,0H14a1,1,0,0,1,1,1V2a1,1,0,0,1-1,1H0A0,0,0,0,1,0,3V0A0,0,0,0,1,0,0Z" transform="translate(0.02 46.474)" fill="#ebaa95"/>
        <path id="Rectangle_2315" data-name="Rectangle 2315" d="M0,0H9.247a1,1,0,0,1,1,1V1a1,1,0,0,1-1,1H0A0,0,0,0,1,0,2V0A0,0,0,0,1,0,0Z" transform="translate(0.02 51.455)" fill="#f4dad8"/>
        <path id="Rectangle_2316" data-name="Rectangle 2316" d="M0,0H11.247a1,1,0,0,1,1,1V1a1,1,0,0,1-1,1H0A0,0,0,0,1,0,2V0A0,0,0,0,1,0,0Z" transform="translate(0.02 54.164)" fill="#f4dad8"/>
        <path id="Rectangle_2317" data-name="Rectangle 2317" d="M0,0H9.247a1,1,0,0,1,1,1V1a1,1,0,0,1-1,1H0A0,0,0,0,1,0,2V0A0,0,0,0,1,0,0Z" transform="translate(0.02 56.872)" fill="#f4dad8"/>
      </g>
      <g id="Group_5433" data-name="Group 5433" transform="translate(-3676.202 -3187.756)">
        <rect id="Rectangle_2300" data-name="Rectangle 2300" width="49.076" height="29.64" rx="2" transform="translate(0)" fill="#c4c4c4"/>
        <rect id="Rectangle_2302" data-name="Rectangle 2302" width="34.013" height="20.408" rx="1" transform="translate(3.887 4.616)" fill="#fff"/>
        <path id="Rectangle_2301" data-name="Rectangle 2301" d="M2,0H6.074a0,0,0,0,1,0,0V14.091a0,0,0,0,1,0,0H2a2,2,0,0,1-2-2V2A2,2,0,0,1,2,0Z" transform="translate(43.002 7.774)" fill="#fff"/>
        <rect id="Rectangle_2303" data-name="Rectangle 2303" width="15.876" height="3.43" rx="1" transform="translate(6.56 9.133)" fill="#3cad7c"/>
        <rect id="Rectangle_2304" data-name="Rectangle 2304" width="12.933" height="2" rx="1" transform="translate(6.56 15.535)" fill="#e8e8e8"/>
        <rect id="Rectangle_2320" data-name="Rectangle 2320" width="8.933" height="2" rx="1" transform="translate(6.56 18.506)" fill="#e8e8e8"/>
      </g>
    </g>
  </g>
</svg>
