<svg xmlns="http://www.w3.org/2000/svg" width="420" height="420" viewBox="0 0 420 420" style="background-color:#FCEFE0;"><title>TIS_Icons_NoName_Navy_RGB</title><path d="M68.6172,266.5055l5.8154,11.85a10.0679,10.0679,0,0,1,1.1651,4.7707,6.9856,6.9856,0,0,1-1.2486,3.8968,8.1227,8.1227,0,0,1-3.1089,2.604,6.5853,6.5853,0,0,1-4.393.6858,5.9488,5.9488,0,0,1-3.273-1.8247l-.2763.1356a7.4513,7.4513,0,0,1,.3032,2.9147,7.1231,7.1231,0,0,1-4.166,5.8922,9.7781,9.7781,0,0,1-4.2676.9917,8.0059,8.0059,0,0,1-4.4278-1.3314,10.1161,10.1161,0,0,1-3.55-4.2374l-6.2613-12.7582ZM51.4092,289.067a5.7114,5.7114,0,0,0,2.1855,2.4562,3.3816,3.3816,0,0,0,3.3662-.1326,3.4266,3.4266,0,0,0,2.1543-2.6012,5.5476,5.5476,0,0,0-.5566-3.2313l-2.6172-5.3324-7.1494,3.5089Zm10.855-7.0432a5.4919,5.4919,0,0,0,2.1079,2.3966,3.0626,3.0626,0,0,0,3.05-.0758,2.9476,2.9476,0,0,0,1.8574-2.3574,5.6372,5.6372,0,0,0-.6167-3.1039l-1.9385-3.95-6.3989,3.1407Z" fill="#1414b4"/><path d="M82.793,292.9034l3.9087,5.6956L61.3071,316.0276l-3.9092-5.6957Z" fill="#1414b4"/><path d="M73.4019,328.7688a13.1875,13.1875,0,0,1,.8335-7.4321,19.21,19.21,0,0,1,4.6557-6.6315,19.4455,19.4455,0,0,1,6.93-4.3308,13.1414,13.1414,0,0,1,14.501,3.6489,12.9522,12.9522,0,0,1,2.7924,14.5458,19.9545,19.9545,0,0,1-4.7519,6.7223,19.3236,19.3236,0,0,1-6.8984,4.3316,12.962,12.962,0,0,1-7.419.4275,15.294,15.294,0,0,1-10.6435-11.2817Zm13.728,4.6557a12.6152,12.6152,0,0,0,6.2695-3.4923,13.1125,13.1125,0,0,0,3.8638-6.092,5.94,5.94,0,0,0-5.0171-7.4613,8.203,8.203,0,0,0-4.2227.7915,14.9567,14.9567,0,0,0-4.0727,2.8031,12.6631,12.6631,0,0,0-3.7847,6.0475,6.0189,6.0189,0,0,0,6.9639,7.4035Z" fill="#1414b4"/><path d="M113.8154,328.0327l10.01,6.8755a14.04,14.04,0,0,1,4.9145,5.5907,12.4077,12.4077,0,0,1,1.0181,7.105,20.594,20.594,0,0,1-9.4219,13.679,12.33,12.33,0,0,1-7.0337,1.5746,14.2856,14.2856,0,0,1-6.9873-2.6109l-9.9375-6.8257Zm-5.0644,26.4138a7.8218,7.8218,0,0,0,5.8857,1.534q2.9121-.5088,5.8267-4.7525t2.3628-7.1313a7.81,7.81,0,0,0-3.5625-4.9556l-3.4092-2.3417L105.3418,352.105Z" fill="#1414b4"/><path d="M144.1738,353.4545l-2.6137,6.0123,10.7334,4.6664-2.1226,4.8825-10.7339-4.6663-2.7715,6.3756,12.751,5.5434-2.3857,5.4879-19.0865-8.2977,12.28-28.2462,19.0864,8.2977-2.3857,5.4878Z" fill="#1414b4"/><path d="M163.0972,384.7629a13.6573,13.6573,0,0,1-3.1426-6.6867,20.6016,20.6016,0,0,1,3.4224-15.1956,13.6548,13.6548,0,0,1,5.89-4.7375,13.0526,13.0526,0,0,1,8.0454-.5218,12.6384,12.6384,0,0,1,7.769,4.7117,15.6006,15.6006,0,0,1,2.9732,8.4742l-7.0464-1.5556a6.2244,6.2244,0,0,0-1.3511-3.6778,6.1453,6.1453,0,0,0-3.601-2.0567,6.0106,6.0106,0,0,0-5.7964,1.5591,13.1355,13.1355,0,0,0-3.3985,6.82q-1.0429,4.7268.3164,7.7524a6.5112,6.5112,0,0,0,4.84,3.7946,5.8037,5.8037,0,0,0,4.9834-.8372,6.8426,6.8426,0,0,0,2.5693-3.9839l.1235-.5585-5.6289-1.2426,1.0533-4.7692,12.2021,2.6941-3.6333,16.4556-4.9409-1.0909.939-4.2535-.3438-.0758q-3.5595,4.08-9.5742,2.7524A11.9191,11.9191,0,0,1,163.0972,384.7629Z" fill="#1414b4"/><path d="M206.7905,381.7678l-3.5634-.0577-.1749,10.7785-6.8193-.11.5-30.7961,11.7022.19a12.5555,12.5555,0,0,1,6.1587,1.5081,9.196,9.196,0,0,1,3.7011,3.7784,10.4583,10.4583,0,0,1,1.1509,5.0135,9.9761,9.9761,0,0,1-1.583,5.365,9.0362,9.0362,0,0,1-4.458,3.5141l6.41,11.81-7.1709-.1163Zm-3.4731-5.645,3.7837.0613a7.5771,7.5771,0,0,0,4.0195-.9248,3.58,3.58,0,0,0,1.6816-3.2953,3.4037,3.4037,0,0,0-1.5542-3.2156,7.83,7.83,0,0,0-4.01-1.0111l-3.7832-.0614Z" fill="#1414b4"/><path d="M246.8525,381.6433l-9.6933,1.7834-.8736,7.4085-6.8374,1.2581,5.2017-32.2742,6.2749-1.1544L257.1865,386.99l-6.8369,1.258Zm-2.5918-4.8469-4.915-9.2067-.26.0477-1.23,10.3373Z" fill="#1414b4"/><path d="M255.4731,355.3577l11.2486-4.5771a14.0414,14.0414,0,0,1,7.3721-1.0284,12.4066,12.4066,0,0,1,6.4936,3.0582,20.5917,20.5917,0,0,1,6.24,15.3934,12.3243,12.3243,0,0,1-2.5542,6.74,14.2861,14.2861,0,0,1-6.0244,4.399l-11.167,4.5438Zm19.272,18.76a7.821,7.821,0,0,0,4.5186-4.0714q1.1769-2.7112-.7632-7.48t-4.6558-5.8961a7.8091,7.8091,0,0,0-6.0981.2486l-3.8306,1.5589,6.9981,17.1987Z" fill="#1414b4"/><path d="M310.1626,354.152l-8.2456,5.3988,2.064,7.1685-5.8164,3.808-7.7051-31.77,5.3379-3.4948,25.9633,19.8152-5.8159,3.808Zm-4.2666-3.4648-8.0977-6.5842-.2207.1447,2.87,10.0066Z" fill="#1414b4"/><path d="M307.9937,326.4665l9.4326-9.2341a10.0728,10.0728,0,0,1,4.1655-2.6006,6.9866,6.9866,0,0,1,4.0923-.0343,8.121,8.121,0,0,1,3.4463,2.1369,6.5887,6.5887,0,0,1,2.0273,3.9575,5.9509,5.9509,0,0,1-.708,3.6794l.2153.22a7.4435,7.4435,0,0,1,2.6729-1.2006,7.1237,7.1237,0,0,1,6.9009,2.1112,9.7762,9.7762,0,0,1,2.2783,3.7423,8.0045,8.0045,0,0,1,.1221,4.6218,10.1191,10.1191,0,0,1-2.9126,4.6985l-10.1558,9.9421Zm16.727,1.1734a5.4959,5.4959,0,0,0,1.6162-2.7521,3.0625,3.0625,0,0,0-1.0273-2.8734,2.9478,2.9478,0,0,0-2.8208-1.0256,5.6385,5.6385,0,0,0-2.7544,1.5576l-3.1441,3.0781,4.9864,5.0934Zm10.0884,8.1035a5.7111,5.7111,0,0,0,1.6484-2.8451,3.3812,3.3812,0,0,0-1.18-3.1551,3.4255,3.4255,0,0,0-3.145-1.2312,5.5423,5.5423,0,0,0-2.8945,1.5405l-4.2446,4.1554,5.5717,5.6908Z" fill="#1414b4"/><path d="M360.1533,303.563l4.8819,3.4607-11.4761,16.1891-25.1275-17.8119,3.9952-5.6358,20.22,14.3872Z" fill="#1414b4"/><path d="M350.8223,281.27l5.9072,2.8436,5.0767-10.5457,4.7968,2.3093-5.0761,10.5456,6.2636,3.0154,6.0308-12.5279,5.3921,2.5954-9.0274,18.7525-27.7519-13.3593,9.0273-18.7524,5.3916,2.5956Z" fill="#1414b4"/><path d="M175.9492,182.2533c-6.4187,7.5431-5.8773,13.0458-14.4506,16.9464-4.1413,1.8849-12.0014.8364-12.3086-3.3576" fill="none" stroke="#1414b4" stroke-linecap="round" stroke-linejoin="round" stroke-width="5"/><path d="M103.183,183.6685c3.16-7.3389,11.9907-16.4654,16.0876-21.4151,5.6022-6.7686,12.7092-16.2043,28.3946-28.5742,9.093-7.171,37.0051-27.7378,77.3456-27.5325,20.1122.1023,32.2673,2.4226,49.8016,13.1555,13.1314,8.0377,28.1211,36.54,24.02,51.4506" fill="none" stroke="#1414b4" stroke-linecap="round" stroke-linejoin="round" stroke-width="5"/><path d="M198.261,158.9129c-11.395-2.5436-11.353-3.0589-22.1284,1.8607-5.9,2.6939-10.4472,4.5978-15.5857,8.8535-11.7383,9.7216-6.8066,5.4515-19.0806,14.2779-9.47,6.81-16.7038,16.9609-28.6016,16.2381a12.0163,12.0163,0,0,1-10.1534-7.15" fill="none" stroke="#1414b4" stroke-linecap="round" stroke-linejoin="round" stroke-width="5"/><path d="M124.15,198.6633c1.851,3.7,5.738,6.4974,9.6238,6.6429,6.2174.2328,10.5117-5.4651,15.4155-9.8136,0,0,17.0736-19.5356,21.9954-21.6325s13.4852-6.1217,13.7215-6.2479" fill="none" stroke="#1414b4" stroke-linecap="round" stroke-linejoin="round" stroke-width="5"/><path d="M288.8088,193.9834c-11.1142,9.7619-30.831,9.92-41.6337,1.7763-4.2234-3.1837-9.844-3.09-14.9124-3.0982-3.8874-.0067-7.72.9376-11.5383,1.7642-9.8515,2.1334-20.8479,13.86-29.8431,9.0953-20.5011-10.8592-3.1132-32.2578,20.1142-43.2133,2.6568-1.2531,29.4631-12.6955,42.2457-8.3875" fill="none" stroke="#1414b4" stroke-linecap="round" stroke-linejoin="round" stroke-width="5"/><polyline points="163.264 219.561 157.796 234.743 163.99 240.556 154.649 262.948 163.157 266.237 162.182 276.66 175.204 283.157 174.641 298.767 190.885 306.057 199.671 305.129 202.751 312.752 225.903 305.891 238.523 307.561 248.919 298.543 248.647 287.118 260.634 288.386 257.392 272.15 266.972 260.171 256.397 241.207 265.999 230.204 253 226.051 256.989 216.334 234.382 208.861 221.622 219.391 210.056 213.669 193.336 225.225 175.942 209.877 170.305 221.853" fill="none" stroke="#1414b4" stroke-linecap="round" stroke-linejoin="round" stroke-width="5"/><polyline points="171.33 256.549 197.73 243.208 202.748 276.488" fill="none" stroke="#1414b4" stroke-linecap="round" stroke-linejoin="round" stroke-width="5"/><polyline points="233.349 266.727 218.423 264.863 228.628 289.562" fill="none" stroke="#1414b4" stroke-linecap="round" stroke-linejoin="round" stroke-width="5"/><polyline points="211.268 226.267 214.979 238.704 244.648 235.174" fill="none" stroke="#1414b4" stroke-linecap="round" stroke-linejoin="round" stroke-width="5"/></svg>