<svg xmlns="http://www.w3.org/2000/svg" width="420" height="420" viewBox="0 0 420 420" style="background-color:#f0faff"><title>TIS_Icons_NoName_Navy_RGB</title><path d="M193.7447,179.9863c1.046,4.1381,4.1975,18.0784,5.4081,22.8093" fill="none" stroke="#1414b4" stroke-linecap="round" stroke-linejoin="round" stroke-width="5"/><path d="M169.4608,291.3915c-4.18,13.1372,5.1187,21.8633,21.0565,24.7681,11.2815,2.0561,22.8681,1.3188,34.5194-1.0142.0748-.0146.1666-.0322.2508-.0488,1.4513,5.3276,3.2027,11.54,3.629,13.24,1.397,5.5713,9.9014,3.7129,14.5286,1.8155,8.1222-3.3311,4.757-6.6675,4.3286-11.3208a2.8,2.8,0,0,0-.0609-.3887c-.3161-1.34-.8914-3.9019-1.624-7.209" fill="none" stroke="#1414b4" stroke-linecap="round" stroke-linejoin="round" stroke-width="5"/><path d="M153.9564,234.7519c-4.8861,8.21-7.84,18.1621,3.5,24.9516l2.5515,1.21c-4.2686,7.6587-.5652,19.1186,7.8026,23.7319" fill="none" stroke="#1414b4" stroke-linecap="round" stroke-linejoin="round" stroke-width="5"/><path d="M196.2871,193.8574a256.0213,256.0213,0,0,0-25.926,6.1264c-20.8281,5.7617-28.0485,16.5986-16.9406,28.4326" fill="none" stroke="#1414b4" stroke-linecap="round" stroke-linejoin="round" stroke-width="5"/><path d="M198.6682,91.3075s-.4079-5.4921-5.9092-6.0537c-5.9377-.6074-10.477-.9287-15.16,2.6993a7.0955,7.0955,0,0,0-2.7746,5.3422,3.2063,3.2063,0,0,1-2.9355,2.9922c-17.1016,1.376-31.4972,2.78-36.6,3.6646-6.1753,1.0693-9.5879,7.8955-8.8221,17.1133,1.3006,15.6513,2.6729,31.3046,4.3577,46.9033,1.418,13.125,5.0515,16.8017,14.3167,16.5039" fill="none" stroke="#1414b4" stroke-linecap="round" stroke-linejoin="round" stroke-width="5"/><path d="M261.6348,107.1913c-.6284-11.3095-2.4834-14.416-10.1624-14.9287-7.0133-.4668-49.485,1.5311-69.5523,2.7862" fill="none" stroke="#1414b4" stroke-linecap="round" stroke-linejoin="round" stroke-width="5"/><path d="M218.7444,196.7621c-.93-3.6269-2.94-13.5717-3.8781-17.2295" fill="none" stroke="#1414b4" stroke-linecap="round" stroke-linejoin="round" stroke-width="5"/><path d="M284.9247,224.2963c-4.0559-21.5117-25.0249-39.0679-43.9885-37.1416a226.5685,226.5685,0,0,0-23.1918,3.6074" fill="none" stroke="#1414b4" stroke-linecap="round" stroke-linejoin="round" stroke-width="5"/><path d="M239.064,311.3327l25.166-4.623a49.2046,49.2046,0,0,0,11.6054-3.13,28.4945,28.4945,0,0,0,14.3519-15.8971c2.6036-6.8453,3.8541-12.4477,2.4829-19.6419" fill="none" stroke="#1414b4" stroke-linecap="round" stroke-linejoin="round" stroke-width="5"/><path d="M162.6874,230c5.7916-2.69,28.2341-6.9378,31.3687-7.3287s6.4837-.357,7.0967-3.2464" fill="none" stroke="#1414b4" stroke-linecap="round" stroke-linejoin="round" stroke-width="5"/><path d="M169.0054,259.7993s26.84-8.0723,29.0359-9.3505,3.9543-3.5957,3.7187-6.0264" fill="none" stroke="#1414b4" stroke-linecap="round" stroke-linejoin="round" stroke-width="5"/><path d="M177.7862,286.7473a63.3377,63.3377,0,0,0,13.0058-3.2343c6.07-2.359,16.557-5.0733,21.0515-10.16a8.3989,8.3989,0,0,0,2.4346-3.827" fill="none" stroke="#1414b4" stroke-linecap="round" stroke-linejoin="round" stroke-width="5"/><path d="M196.8425,281.3234a76.69,76.69,0,0,1,24.6591-3.7043c2.8179.1135,5.7155.444,7.9447,1.73,3.2491,1.8744,4.4316,6.3828,4.8843,9.7318.5936,4.3911.133,7.2424-3.1752,11.0273-2.7084,3.0988-11.96,5.0581-16.2192,6.4347" fill="none" stroke="#1414b4" stroke-linecap="round" stroke-linejoin="round" stroke-width="5"/><path d="M237.5156,233.1284l.2561,6.2538c.0162,6.4587,1.77,12.9875.0668,19.2663-1.4206,5.2377-4.7151,9.2744-10.0362,11.0788-4.3371,1.4707-8.8853,1.5061-12.569-1.0309-6.2215-4.2846-6.9143-6.0457-9.8712-12.845a64.8159,64.8159,0,0,1-4.6028-27.3651c.4959-6.5476.4636-15.0012,4.4875-19.643s19.6016-5.7681,21.7571-8.396" fill="none" stroke="#1414b4" stroke-linecap="round" stroke-linejoin="round" stroke-width="5"/><path d="M157.5174,181.2707c12.858-.51,62.2173-5.3185,69.4245-5.559,1.361-.0454,34.9455-2.1729,36.0095-3.1294a5.4869,5.4869,0,0,0,1.71-3.9371c.1339-29.6975-.658-44.5738-3.3959-66.893" fill="none" stroke="#1414b4" stroke-linecap="round" stroke-linejoin="round" stroke-width="5"/><path d="M193.224,154.4934a88.385,88.385,0,0,1-8.6089-5.7761c-3.5974-2.7944-7.7467-4.84-11.2141-7.7941s-6.3-7.2109-5.9-11.7485c.29-3.2853,2.23-6.2106,4.5176-8.5867a13.3573,13.3573,0,0,1,3.3746-2.6816c3.3975-1.7665,7.7063-1.0412,10.8974,1.0756s5.4117,5.4226,7.0873,8.8658" fill="none" stroke="#1414b4" stroke-linecap="round" stroke-linejoin="round" stroke-width="5"/><path d="M193.3776,127.8478a26.6842,26.6842,0,0,1,15.6026-13.366,10.7837,10.7837,0,0,1,11.2874,3.3317,14.2654,14.2654,0,0,1,2.9383,11.72,21.3129,21.3129,0,0,1-5.8347,10.8391l-18.0841,20.124" fill="none" stroke="#1414b4" stroke-linecap="round" stroke-linejoin="round" stroke-width="5"/><path d="M66.4009,261.3064l2.9067,6.2184L51.1353,284.0317l.1118.2392,24.3012-3.3926,2.9063,6.2183-32.1157,4.1308-3.7076-7.9324Z" fill="#1414b4"/><path d="M80.0918,299.5955l-5.3154,3.8372,6.8506,9.49L77.31,316.0386,70.46,306.5491l-5.6367,4.0691,8.1381,11.2734-4.8515,3.5026L55.9277,308.52,80.9,290.4918,93.082,307.3662l-4.852,3.5026Z" fill="#1414b4"/><path d="M80.3213,336.1311a13.6573,13.6573,0,0,1,.7285-7.352A20.5988,20.5988,0,0,1,91.7769,317.485a13.6529,13.6529,0,0,1,7.4853-1.05,13.0526,13.0526,0,0,1,7.1763,3.6756,12.6393,12.6393,0,0,1,4.2558,8.0276,15.5956,15.5956,0,0,1-1.79,8.8l-5.2534-4.9473a6.22,6.22,0,0,0,.7251-3.85,6.149,6.149,0,0,0-2.0381-3.6118,6.0118,6.0118,0,0,0-5.7764-1.6321,13.1346,13.1346,0,0,0-6.4131,4.1144q-3.3186,3.524-3.7021,6.8188a6.5119,6.5119,0,0,0,2.2109,5.7388,5.8048,5.8048,0,0,0,4.7085,1.8353,6.8443,6.8443,0,0,0,4.2481-2.104l.3921-.4164L93.81,334.9329l3.3481-3.5557,9.0972,8.5671L94.7017,352.2124l-3.6836-3.469,2.9863-3.1711-.2564-.2414Q88.6,347.01,84.1162,342.7874A11.9168,11.9168,0,0,1,80.3213,336.1311Z" fill="#1414b4"/><path d="M122.9424,362.44l-8.4116-5.137L108.938,362.24l-5.9331-3.6232,25.4033-20.5755,5.4448,3.3252-6.7778,31.95-5.9331-3.6234Zm1.3017-5.34,2.48-10.1377-.2256-.1376-7.8115,6.8813Z" fill="#1414b4"/><path d="M146.8262,348.6709l7.5039,2.6682,3.8174,22.8855.124.0443,6.7959-19.1117,6.3843,2.27-10.3335,29.0613-7.587-2.6977L149.5464,361.64l-.124-.0443-6.5454,18.4068-6.3843-2.27Z" fill="#1414b4"/><path d="M197.07,367.2517l-.4453,6.4967,11.501.7882-.3643,5.3115L196.26,379.06l-.8877,12.95-6.8916-.4724,2.1059-30.7278,19.9292,1.366-.4092,5.97Z" fill="#1414b4"/><path d="M227.5728,380.9109l-3.5445.3747,1.1338,10.72-6.7822.717-3.2388-30.6291L226.78,360.863a12.5522,12.5522,0,0,1,6.2954.75,9.1955,9.1955,0,0,1,4.1323,3.3019,10.4581,10.4581,0,0,1,1.75,4.8368,9.9787,9.9787,0,0,1-.9209,5.5173,9.0384,9.0384,0,0,1-3.9985,4.0289l7.7939,10.945-7.1323.7542Zm-4.1319-5.1824,3.7627-.3979a7.575,7.575,0,0,0,3.8779-1.4056,3.5787,3.5787,0,0,0,1.27-3.4747,3.4033,3.4033,0,0,0-1.9326-3.0034,7.8319,7.8319,0,0,0-4.1031-.5175l-3.7632.398Z" fill="#1414b4"/><path d="M244.2363,357.9451l6.6944-1.7056,7.6049,29.8464-6.6943,1.7056Z" fill="#1414b4"/><path d="M266.9834,357.1958l2.4951,6.0627,10.8233-4.4537,2.0258,4.9235-10.8232,4.4538,2.6455,6.429,12.8579-5.291,2.2774,5.5337-19.2466,7.92-11.72-28.4828,19.2461-7.92,2.2773,5.5337Z" fill="#1414b4"/><path d="M283.02,343.7349l6.6328-4.4087,20.6089,10.6572.11-.073-11.229-16.8926,5.6435-3.751L321.86,354.9539l-6.7056,4.4572-20.1221-10.083-.11.0731,10.8144,16.27-5.6431,3.751Z" fill="#1414b4"/><path d="M309.7031,325.071l8.4888-8.684a14.0439,14.0439,0,0,1,6.35-3.8838,12.4059,12.4059,0,0,1,7.1743.2141,20.59,20.59,0,0,1,11.8623,11.6266,12.3314,12.3314,0,0,1,.3467,7.1991,14.29,14.29,0,0,1-3.7695,6.437l-8.4278,8.6211Zm25.1553,9.5154a7.8215,7.8215,0,0,0,2.52-5.536q-.0021-2.9554-3.6841-6.5544t-6.6211-3.55a7.8077,7.8077,0,0,0-5.4926,2.6606l-2.8911,2.9576,13.2778,12.9794Z" fill="#1414b4"/><path d="M362.84,299.1223l4.981,3.3162-10.9971,16.518-25.6377-17.069,3.8286-5.75,20.6319,13.79Z" fill="#1414b4"/><path d="M374.2231,289.9429l-9.5336-4.4381-22.66.6141,3.0083-6.462,14.8218-.0407.0927-.2-9.5112-11.3677,3.0083-6.4622,14.1182,17.7351,9.5337,4.438Z" fill="#1414b4"/></svg>