<svg xmlns="http://www.w3.org/2000/svg" width="420" height="420" viewBox="0 0 420 420" style="background-color:#FCEFE2"><title>TIS_Icons_NoName_Navy_RGB</title><path d="M236.1857,128.3605c-14.4745.5361-24.3342-7.5808-25.2813-9.3722" fill="none" stroke="#1414b4" stroke-linecap="round" stroke-linejoin="round" stroke-width="5"/><path d="M209.9044,118.9883l3.6192-11.6623,3.4856-13.6147s11.255-.95,16.96,1.7923a64.5981,64.5981,0,0,1,11.3483,7.4534l-7.876,25.5457" fill="none" stroke="#1414b4" stroke-linecap="round" stroke-linejoin="round" stroke-width="5"/><path d="M237.5768,129.0455l-5.786,20.1435c.55-1.5.9618-2.56.9618-2.56,5.703-1.8775,20.48-1.1729,26.0967-.9346,15.5543.66,32.6314,9.9033,38.63,26.3311,6.0918,16.6826,4.9811,27.3574,3.668,46.332-1.5419,22.28-4.6932,35.9736-12.65,54.59,0,0-8.9943,24.9007-43.758,24.5249-8.48-.0916-34.0084-1.9687-41.1413-4.2212" fill="none" stroke="#1414b4" stroke-linecap="round" stroke-linejoin="round" stroke-width="5"/><path d="M209.6349,120.2828l-12.3663,43.45c.569-2.4356,5.3621-19.0665,5.3621-19.0665-51.616-4.2735-43.0108,18.39-45.1324,24.4155C144.1,168.2686,144.6824,187.96,144.682,187.96c-6.4923,1.8643-9.5085,12.9961-9.2758,20.72,1.1844,7.9951,2.8484,11.37,7.4161,18.2343.7443,1.1192,2.1472,3.1636,3.7417,5.4654-3.7978,4.2675-4.58,11.9594.4815,22.1845,5.1181,10.3389,12.0229,15.8013,18.7768,18.2471l-2.9816,10.38,3.0728,31.9023,24.8879-23.2051h0" fill="none" stroke="#1414b4" stroke-linecap="round" stroke-linejoin="round" stroke-width="5"/><path d="M275.3632,193.3186c-13.7852-2.4685-24.35-1.6838-33.7528,6.796-7.3148,6.5969-8.36,12.3732-17.1253,16.5614-7.819,3.7359-18.9558,2.9611-24.53-6.3214-3.8888-6.4762-2.0851-15.0861-1.2034-18.743,3.3867-14.0467,11.2564-21.2285,21.9312-27.2375s22.1646-9.9787,34.2344-10.3276" fill="none" stroke="#1414b4" stroke-linecap="round" stroke-linejoin="round" stroke-width="5"/><path d="M197.2686,204.196c-3.7819,2.1786-7.5322.8523-11.6938-.2521-11.3881-3.0222-20.1454-13.017-23.2869-23.868" fill="none" stroke="#1414b4" stroke-linecap="round" stroke-linejoin="round" stroke-width="5"/><path d="M209.0009,220.47c.2871,4.9455-3.3517,9.5615-7.8145,11.1877s-10.8391,1.3535-15.4295.1454c-8.7225-2.2955-20.2736-10.2381-22.8743-12.6005-6.3308-5.7508-11.92-11.5457-13.6086-20.1816" fill="none" stroke="#1414b4" stroke-linecap="round" stroke-linejoin="round" stroke-width="5"/><path d="M194.0453,235.5169c.49,4.73-7.4727,13.7566-11.9693,14.3412s-9.0053.306-13.0045-1.8958a80.0863,80.0863,0,0,1-13.281-9.45" fill="none" stroke="#1414b4" stroke-linecap="round" stroke-linejoin="round" stroke-width="5"/><path d="M245.1673,224.0117c-2.7546,9.0855-3.5792,19.0186-.95,28.1055s9.029,17.1761,17.5759,20.2375" fill="none" stroke="#1414b4" stroke-linecap="round" stroke-linejoin="round" stroke-width="5"/><path d="M163.2672,283.4862s1.2577,17.9962,1.6715,20.7088c.5426,3.5568,1.0639,10.7011,1.0639,10.7011,6.8694-7.8588,24.7991-23.0083,24.7991-23.0083a99.9363,99.9363,0,0,1-18.9786-4.9853" fill="none" stroke="#1414b4" stroke-linecap="round" stroke-linejoin="round" stroke-width="5"/><path d="M239.3234,120.7105c-7.9424-.2132-13.1691-.8289-19.9279-4.454" fill="none" stroke="#1414b4" stroke-linecap="round" stroke-linejoin="round" stroke-width="5"/><path d="M245.3177,102.957c-7.5574-8.7413-21.6447-10.3507-26.3144-9.9159-.73.068-1.6065.013-1.9941.67-.5912,1.0023.7679,1.8158,1.5006,2.6984,4.7139,5.6782,8.47,6.3624,12.24,7.551,3.18,1.0027,10.6146,2.3568,13.4517.5091" fill="none" stroke="#1414b4" stroke-linecap="round" stroke-linejoin="round" stroke-width="5"/><path d="M184.1345,249.0925c3.7619-.047,6.3578,7.8047,6.3277,12.3876-.0221,3.3772-2.3046,7.3061-4.863,9.3657-4.03,3.2445-7.0441,3.1892-12.1021,3.2849" fill="none" stroke="#1414b4" stroke-linecap="round" stroke-linejoin="round" stroke-width="5"/><path d="M193.5562,285.1281a448.6249,448.6249,0,0,1,14.68-50.68" fill="none" stroke="#1414b4" stroke-linecap="round" stroke-linejoin="round" stroke-width="5"/><path d="M118.7183,331.928,98.2632,354.9546l-5.1646-4.5879,8.4742-9.54-8.6514-7.6853-8.4741,9.54-5.1319-4.5586L99.771,315.0962l5.1313,4.5586-8.416,9.4739,8.6519,7.6853,8.4155-9.4738Z" fill="#1414b4"/><path d="M126.6436,364.5l-8.5332-4.9324-5.4717,5.07-6.0191-3.479,24.8994-21.1829,5.5235,3.1929-6.0044,32.1045-6.0191-3.4791Zm1.1728-5.37,2.2334-10.1946-.2285-.1321-7.6431,7.0679Z" fill="#1414b4"/><path d="M150.2,350.1619l7.5664,2.4841,4.375,22.7854.1255.0413,6.3272-19.272,6.4379,2.1136-9.6211,29.3051-7.65-2.5117L153.2358,363.06l-.1254-.041-6.0938,18.5613-6.438-2.1138Z" fill="#1414b4"/><path d="M181.3354,359.5642l12.0772,1.2745a14.04,14.04,0,0,1,6.9844,2.5734,12.4075,12.4075,0,0,1,4.2807,5.7611,20.59,20.59,0,0,1-1.7651,16.516,12.3278,12.3278,0,0,1-5.4331,4.7358,14.2861,14.2861,0,0,1-7.3872,1.0345l-11.99-1.2654ZM189.47,385.2a7.8214,7.8214,0,0,0,5.9053-1.4562q2.3174-1.8345,2.8579-6.9545t-1.3213-7.3955a7.806,7.806,0,0,0-5.4931-2.6592l-4.1128-.4342-1.9493,18.4655Z" fill="#1414b4"/><path d="M212.2773,362.6276,222.4116,361.4l8.0845,16.6166.1309-.0158,3.8842-18.0661,10.1338-1.2274,3.7031,30.5765-6.6831.8095-2.539-20.9668-.1748.0211-4.6245,21.8345-4.3243.5237-9.7031-20.0992-.1748.0213,2.54,20.9668-6.6831.8093Z" fill="#1414b4"/><path d="M274.2681,373.38l-9.2705,3.346.3505,7.4515-6.539,2.36-.1509-32.69,6.001-2.1658,20.6787,25.2814-6.5391,2.36Zm-3.35-4.3574-6.3555-8.2779-.2485.09.479,10.399Z" fill="#1414b4"/><path d="M278.4868,346.0254l10.3506-6.351a14.0427,14.0427,0,0,1,7.1055-2.2174,12.4065,12.4065,0,0,1,6.9057,1.9578,20.59,20.59,0,0,1,8.6675,14.1689,12.3283,12.3283,0,0,1-1.42,7.0662,14.2886,14.2886,0,0,1-5.2261,5.323l-10.2759,6.3049ZM300.561,361.39a7.8221,7.8221,0,0,0,3.794-4.754q.7185-2.8668-1.9737-7.255t-5.5551-5.0576a7.8081,7.8081,0,0,0-5.9756,1.24l-3.5254,2.1631,9.71,15.8264Z" fill="#1414b4"/><path d="M314.0894,328.5989l4.4267,4.8359,8.6333-7.9026,3.5947,3.927-8.6333,7.9027,4.6939,5.1281,10.2563-9.3882,4.04,4.4141L325.75,351.5682l-20.7964-22.719,15.3516-14.0523,4.04,4.4139Z" fill="#1414b4"/></svg>