<svg xmlns="http://www.w3.org/2000/svg" xmlns:xlink="http://www.w3.org/1999/xlink" width="70" height="70" viewBox="0 0 70 70">
  <defs>
    <clipPath id="clip-path">
      <path id="Path_53498" data-name="Path 53498" d="M1153.036-219.8a.565.565,0,0,1,.747.192l.027.046.447.8,2.879,5.112.161.293a.565.565,0,0,1-.228.766.565.565,0,0,1-.766-.228l-.2-.356-1.069-1.9-2.206-3.918-.022-.04A.565.565,0,0,1,1153.036-219.8Z" transform="translate(-1152.741 219.868)" fill="none"/>
    </clipPath>
    <clipPath id="clip-path-2">
      <path id="Path_53500" data-name="Path 53500" d="M1232.547-151.954a.565.565,0,0,1,.77-.213c2.82,1.6,2.9,4.769.444,7.719l-.1.121-.1.12-.052.059-.105.117-.107.116-.108.114-.109.112-.11.11-.111.108-.111.106-.112.1-.056.051-.112.1-.112.1-.112.094-.056.046-.112.089-.056.043-.112.084-.111.08-.11.077-.11.073c-.892.581-1.691.772-2.071.235a.565.565,0,0,1,.135-.787.565.565,0,0,1,.592-.037l.014.008.03-.009a2.251,2.251,0,0,0,.372-.178l.112-.066c.076-.047.157-.1.241-.157a10.021,10.021,0,0,0,1.9-1.748c2.047-2.463,1.991-4.809-.133-6.015A.565.565,0,0,1,1232.547-151.954Z" transform="translate(-1229.395 152.24)" fill="none"/>
    </clipPath>
    <clipPath id="clip-path-3">
      <path id="Path_53502" data-name="Path 53502" d="M1217.7-200.586a.565.565,0,0,1,.7-.382l.171.052.168.054q.166.055.324.114l.157.06c2.245.882,3.3,2.393,2.6,4.8l-.009.026-.009.026-.018.044.036.019a4.562,4.562,0,0,1,1.991,5.189l-.023.073a.565.565,0,0,1-.714.358.565.565,0,0,1-.359-.714,3.346,3.346,0,0,0-1.836-4.088.565.565,0,0,1-.362-.712l.013-.035.211-.527.014-.048c.449-1.626-.188-2.623-1.8-3.293l-.149-.06q-.227-.089-.479-.17l-.17-.053-.085-.025A.565.565,0,0,1,1217.7-200.586Z" transform="translate(-1217.674 200.991)" fill="none"/>
    </clipPath>
    <clipPath id="clip-path-4">
      <path id="Path_53504" data-name="Path 53504" d="M1168.495-218.46c4.445-2.3,7.563-1.424,7.535,2.486a.565.565,0,0,1-.569.561.565.565,0,0,1-.561-.569c.02-2.85-2.083-3.438-5.884-1.476a53.735,53.735,0,0,0-4.659,2.755.565.565,0,0,1-.783-.159.565.565,0,0,1,.159-.783A54.91,54.91,0,0,1,1168.495-218.46Z" transform="translate(-1163.482 219.715)" fill="none"/>
    </clipPath>
    <clipPath id="clip-path-5">
      <path id="Path_53506" data-name="Path 53506" d="M1143.858-205.754a.565.565,0,0,1,.765.228l.141.253.225.391,1.186,2.018.234.41.087.158a.565.565,0,0,1-.228.766.565.565,0,0,1-.765-.228l-.118-.213-.181-.316-.332-.567-.8-1.351-.286-.495-.146-.263-.014-.026A.565.565,0,0,1,1143.858-205.754Z" transform="translate(-1143.561 205.822)" fill="none"/>
    </clipPath>
    <clipPath id="clip-path-6">
      <path id="Path_53508" data-name="Path 53508" d="M1123.364-193.2a.565.565,0,0,1-.191.776l-.125.077-.133.084-.141.091-.149.1-.157.105-.166.113-.175.12-.278.195-.2.14-.323.231-.459.333-.606.445-.553.41-.85.636-.393.3c-2.982,2.245-3.658,7.656-1.354,11.328a.565.565,0,0,1-.178.779.565.565,0,0,1-.779-.178c-2.6-4.147-1.843-10.215,1.632-12.831l1.041-.781.82-.609.376-.276.521-.38.4-.286.3-.21.276-.193.195-.134.244-.165.172-.113.214-.138.15-.094.1-.058A.565.565,0,0,1,1123.364-193.2Z" transform="translate(-1114.608 193.474)" fill="none"/>
    </clipPath>
    <clipPath id="clip-path-7">
      <path id="Path_53510" data-name="Path 53510" d="M1140.333-100.774a.565.565,0,0,1,.76.247,6.367,6.367,0,0,0,2.652,2.674l.105.065a5.46,5.46,0,0,0,3.933.743l.089-.018.147-.042a9.834,9.834,0,0,0,1.9-.8l.171-.1.174-.089.159-.08.147-.072.137-.064.129-.058.123-.053.12-.048.118-.045.06-.022.121-.042.062-.021.128-.042.182-.058.109-.036.105-.037.052-.019.1-.039.1-.042.108-.046.113-.051.121-.057.131-.064.144-.072.158-.081a.565.565,0,0,1,.761.242.565.565,0,0,1-.242.761l-.174.089-.159.08-.147.072-.137.064-.129.058-.123.053-.12.048-.059.023-.119.044-.06.021-.123.042-.366.118-.107.036-.1.037-.1.039-.1.042-.108.046-.113.051-.059.028-.126.061-.137.068-.227.116-.14.079a10.972,10.972,0,0,1-2.144.9l-.172.05-.036.009a6.585,6.585,0,0,1-4.772-.807l-.1-.06a7.544,7.544,0,0,1-3.169-3.186A.565.565,0,0,1,1140.333-100.774Z" transform="translate(-1140.025 100.835)" fill="none"/>
    </clipPath>
    <clipPath id="clip-path-8">
      <path id="Path_53512" data-name="Path 53512" d="M1183.4-198.679a.565.565,0,0,1,.711.364.565.565,0,0,1-.329.7l-.11.039-.041.016-.09.036-.1.042-.107.048-.115.054-.123.059-.13.064-.136.069-.215.111-.227.12-.319.172-.248.137-.514.289-.35.2-.42.244-.4.234-.386.232-.459.28-.258.161-.32.2-.148.095-.267.175-.173.117-.1.07-.132.1-.281.207-.088.063-.116.08-.07.045-.066.04-.032.018-.062.034-.062.031-.064.029-.067.028a1.232,1.232,0,0,1-1.229-.122.565.565,0,0,1-.135-.787.565.565,0,0,1,.755-.157l.032.021a.136.136,0,0,0,.136.006l.035-.014.04-.02.046-.025.052-.032.059-.038.066-.045.075-.052.129-.093.176-.13.1-.07.115-.081.13-.089.22-.147.162-.106.264-.169.189-.119.3-.186.209-.128.436-.264.339-.2.345-.2.348-.2.348-.2.344-.194.226-.125.331-.181.214-.115.207-.109.2-.1.191-.1.181-.089A6.653,6.653,0,0,1,1183.4-198.679Z" transform="translate(-1175.521 198.706)" fill="none"/>
    </clipPath>
    <clipPath id="clip-path-9">
      <path id="Path_53514" data-name="Path 53514" d="M1199.353-173.909a.565.565,0,0,1-.226.737l-.171.085-1.023.5-.845.407-.553.265-.962.456-.592.277-.581.267-.368.166-.263.115-.181.077-.119.049-.1.041-.09.033-.052.018-.046.014-.039.011-.017,0A1.965,1.965,0,0,1,1191.1-171a.565.565,0,0,1,.108-.792.565.565,0,0,1,.766.077l.025.031a.887.887,0,0,0,.87.192l.021-.006.045-.016.04-.015.1-.041.129-.054.289-.126.421-.189.789-.365,1.07-.5.544-.259.837-.4,1.438-.7A.565.565,0,0,1,1199.353-173.909Z" transform="translate(-1190.99 174.226)" fill="none"/>
    </clipPath>
    <clipPath id="clip-path-10">
      <path id="Path_53516" data-name="Path 53516" d="M1206.721-150.037a.565.565,0,0,1,.787.14.565.565,0,0,1-.14.786,13.973,13.973,0,0,1-2.6,1.428l-.148.06-.165.069-.261.112-.767.333-.183.078-.237.1-.225.091-.108.043-.211.081c-.1.039-.205.076-.305.111a5.808,5.808,0,0,1-2.295.414l-.053,0h-.052a2.34,2.34,0,0,1-1.062-.28l-.075-.042a.564.564,0,0,1-.2-.773.565.565,0,0,1,.739-.219l.034.018a1.21,1.21,0,0,0,.565.166h.1l.033,0a4.669,4.669,0,0,0,1.894-.349c.093-.033.187-.067.284-.1l.2-.076.207-.083.219-.09.114-.048,1.066-.462.176-.075.155-.064.139-.056A12.82,12.82,0,0,0,1206.721-150.037Z" transform="translate(-1198.344 150.139)" fill="none"/>
    </clipPath>
    <clipPath id="clip-path-11">
      <path id="Path_53518" data-name="Path 53518" d="M1203.254-141.429a.565.565,0,0,1-.273.751l-.226.106-.215.1-.2.1-.193.1-.183.094c-.268.14-.507.275-.727.412l-.144.092c-.189.123-.366.25-.54.386l-.13.1c-.172.141-.342.293-.519.461l-.134.129-.137.136a3.127,3.127,0,0,0-.845,1.178,2.214,2.214,0,0,0,.562,1.719,1.969,1.969,0,0,0,1.673,1.018,2.856,2.856,0,0,0,1.389-.254l.145-.057.075-.031.158-.067.167-.073.177-.079.187-.086a.565.565,0,0,1,.75.275.565.565,0,0,1-.275.75l-.207.095-.2.088-.187.082-.178.075-.17.069a3.854,3.854,0,0,1-1.954.337,3.067,3.067,0,0,1-2.479-1.492,3.129,3.129,0,0,1-.717-2.7,4.065,4.065,0,0,1,1.124-1.641,9.392,9.392,0,0,1,2.063-1.623l.171-.1.088-.049.182-.1.094-.05.195-.1.2-.1.214-.1.225-.108.237-.111A.565.565,0,0,1,1203.254-141.429Z" transform="translate(-1197.612 141.755)" fill="none"/>
    </clipPath>
    <clipPath id="clip-path-12">
      <path id="Path_53520" data-name="Path 53520" d="M1148.587-185.524l.2-.1a4.037,4.037,0,0,1,2.133-.59,4.938,4.938,0,0,1,2.727,1.509l.172.156.241.225.71.672a14.28,14.28,0,0,1,3.353,5.124l.161.465.084.25.069.212.042.139.035.125.021.078.018.074.023.107.014.07.018.106.016.11a4.651,4.651,0,0,1-.088,1.587l-.039.193q-.021.1-.045.2a3.462,3.462,0,0,1-2.122,2.356,3.791,3.791,0,0,1-3.679-.315,5.327,5.327,0,0,1-1.293-1.142l-.119-.14-.061-.074-.126-.155-.133-.166-.068-.087-.5-.647-.125-.159-.113-.14-.105-.127-.069-.08-.068-.078-.106-.117-.858-1.007a.565.565,0,0,1,.064-.8.565.565,0,0,1,.769.034l.027.03.844.991.112.124.109.125.073.087.076.091.163.2.24.307.28.363.125.16.118.149.112.139.107.129.1.12.05.057.1.108.095.1a4.09,4.09,0,0,0,.6.521l.1.067.1.065a2.672,2.672,0,0,0,2.6.229,2.366,2.366,0,0,0,1.481-1.573l.038-.176.033-.164.015-.078.026-.148.022-.138a3.033,3.033,0,0,0,.02-.88l-.013-.087-.01-.057-.017-.087-.014-.06-.024-.1-.029-.105-.035-.118-.058-.183-.094-.28-.149-.431a13.122,13.122,0,0,0-3.072-4.695l-.767-.726-.163-.151-.157-.143-.153-.135-.147-.126-.143-.118-.138-.11a3.108,3.108,0,0,0-1.525-.747,3.058,3.058,0,0,0-1.37.413l-.157.076-.164.082-.136.07-.218.115-.882.481-.216.115-.189.1-.116.058a2.049,2.049,0,0,1-1.149.31.565.565,0,0,1-.482-.637.565.565,0,0,1,.6-.486l.022,0h0a.775.775,0,0,0,.106-.028c.065-.021.142-.052.232-.092l.115-.053.113-.055.109-.055.119-.062.2-.108.719-.393.245-.131.149-.079Z" transform="translate(-1145.708 186.225)" fill="none"/>
    </clipPath>
    <clipPath id="clip-path-13">
      <path id="Path_53522" data-name="Path 53522" d="M1136.979-225.388a.565.565,0,0,1,.771.211.564.564,0,0,1-.211.771,2.053,2.053,0,0,1-.462.174l-.114.03-.124.029-.133.029-.144.029-.154.029-.165.03-.27.046-.3.048-.325.048-.469.065-.508.066-.406.05-.427.05-.6.068-.155.017-.685.073-.7.071-.356.035-.718.069-.361.034-.68.062-.838.073-.282.468-.393.648-.365.6c-.182.3-.365.591-.545.88l-.358.569-.22.347-.312.488-.235.362-.113.171-.215.324-.2.3-.143.207-.18.254-.126.174-.08.108-.115.15-.037.047-.106.131-.1.117-.062.07-.06.064-.056.057-.053.051a1.142,1.142,0,0,1-.144.115.565.565,0,0,1-.782-.16.565.565,0,0,1,.128-.76l.031-.022.019-.015.025-.023.031-.032.036-.04.064-.075.1-.126.119-.155.1-.133.107-.147.114-.16.183-.263.13-.19.135-.2.214-.322.226-.346.238-.368.165-.258.218-.343c.234-.37.473-.754.714-1.144l.363-.589.181-.3.583-.964.234-.391a.565.565,0,0,1,.4-.27l.054-.006.805-.069.619-.055.718-.066.713-.068.353-.035.7-.071.342-.036.642-.07.44-.05.419-.049.269-.033.508-.065.24-.032.341-.048.317-.047.2-.031.256-.042.2-.035.178-.034.109-.022.147-.032.127-.03.105-.027.058-.017.047-.015.036-.014.014-.006Z" transform="translate(-1123.066 225.462)" fill="none"/>
    </clipPath>
    <clipPath id="clip-path-14">
      <path id="Path_53524" data-name="Path 53524" d="M1082.082-311.223c3.268-1.2,7.69.689,12.564,5.75a40.611,40.611,0,0,1,8.292,13.148.565.565,0,0,1-.319.732.565.565,0,0,1-.733-.319,39.484,39.484,0,0,0-8.054-12.777c-4.6-4.773-8.6-6.486-11.361-5.473-2.358.866-3.591,3.784-3.074,7.307a31.919,31.919,0,0,0,3.248,10.512l.2.371.1.182.194.359.192.351.19.343.095.168.188.331.093.163.186.32q.093.158.185.312l.183.305q.137.226.272.444l.181.287q.225.355.448.689l.178.264q.222.326.443.632l.177.242.088.119.177.233a19.572,19.572,0,0,0,1.428,1.668l.181.186q.365.367.739.7a.565.565,0,0,1,.049.8.565.565,0,0,1-.8.049,21.3,21.3,0,0,1-3.577-4.221l-.185-.28q-.231-.354-.465-.729l-.187-.3q-.188-.307-.378-.629l-.191-.326-.1-.166-.193-.337-.194-.345-.2-.352-.2-.36-.1-.183-.2-.373-.2-.381a33.046,33.046,0,0,1-3.367-10.876C1077.693-306.693,1079.152-310.146,1082.082-311.223Z" transform="translate(-1078.151 311.572)" fill="none"/>
    </clipPath>
    <clipPath id="clip-path-15">
      <path id="Path_53526" data-name="Path 53526" d="M1180.454-128.477c.378-.066.728.151,1.137.669l.077.1.079.108.08.115.082.122.042.064.085.133.087.14.135.223.14.239.146.256.152.272.105.191c.189.345.376.7.551,1.047l.159.319.114.236.073.152.069.148.066.143.091.2.082.189.071.172.041.1.036.1.03.086c.009.027.017.052.024.076l.018.065.007.028.045.218.037.189.136.739.05.259.031.158.045.216.03.132.03.124.03.118.03.112c0,.018.01.036.015.054l.032.105.033.1.034.1.037.1.039.1a2.693,2.693,0,0,0,1.654,1.716.243.243,0,0,0,.1-.006l.049-.011.056-.016.063-.021.07-.025.076-.03.082-.034.135-.059.148-.068.1-.051.167-.083.117-.06.184-.1.127-.07.131-.073.2-.116.209-.124q.286-.171.59-.364c.378-.24.762-.494,1.138-.751l.375-.26.474-.336.026-.03a1.319,1.319,0,0,0,.141-.207,2.473,2.473,0,0,0-.1-2.277.565.565,0,0,1,.287-.746.565.565,0,0,1,.746.287,3.578,3.578,0,0,1,.058,3.286,2.1,2.1,0,0,1-.413.542l-.02.017-.054.04-.221.158-.178.126-.193.135c-.476.331-.97.661-1.458.97-.21.133-.416.26-.615.379l-.181.108-.176.1-.171.1-.083.047-.163.089-.157.084-.152.078-.147.073a2.6,2.6,0,0,1-1.656.388,3.774,3.774,0,0,1-2.419-2.394l-.046-.119-.043-.117-.041-.117-.019-.059-.037-.119-.018-.06-.035-.123c-.006-.021-.011-.042-.017-.063l-.034-.131-.033-.137-.033-.145-.05-.236-.034-.171-.072-.38-.128-.695-.042-.215-.026-.123-.01-.037-.015-.048-.021-.058-.04-.1-.051-.123-.061-.14-.094-.211-.08-.174-.118-.249-.1-.2-.1-.2-.141-.281-.11-.215-.15-.288-.115-.215-.115-.212-.126-.228-.124-.219-.061-.106-.12-.2c-.2-.332-.382-.62-.546-.849a3.541,3.541,0,0,0-.329-.408l-.043-.042-.008-.007-.02,0a.565.565,0,0,1-.431-.418l-.008-.036A.565.565,0,0,1,1180.454-128.477Z" transform="translate(-1179.987 128.489)" fill="none"/>
    </clipPath>
    <clipPath id="clip-path-16">
      <path id="Path_53528" data-name="Path 53528" d="M1132.327-231.551a3.063,3.063,0,0,1,3.912.458.565.565,0,0,1-.024.8.565.565,0,0,1-.8-.024,1.933,1.933,0,0,0-2.469-.289,1.933,1.933,0,0,0-.712,2.382.565.565,0,0,1-.294.743.565.565,0,0,1-.743-.294A3.063,3.063,0,0,1,1132.327-231.551Z" transform="translate(-1130.947 232.055)" fill="none"/>
    </clipPath>
  </defs>
  <g id="Charitable" transform="translate(-290 -2126)">
    <path id="Subtraction_9" data-name="Subtraction 9" d="M1096-3612a34.777,34.777,0,0,1-13.624-2.75,34.884,34.884,0,0,1-11.125-7.5,34.879,34.879,0,0,1-7.5-11.125A34.784,34.784,0,0,1,1061-3647a34.786,34.786,0,0,1,2.75-13.624,34.881,34.881,0,0,1,7.5-11.125,34.878,34.878,0,0,1,11.125-7.5A34.777,34.777,0,0,1,1096-3682a34.776,34.776,0,0,1,13.623,2.75,34.881,34.881,0,0,1,11.125,7.5,34.883,34.883,0,0,1,7.5,11.125A34.783,34.783,0,0,1,1131-3647a34.78,34.78,0,0,1-2.75,13.623,34.883,34.883,0,0,1-7.5,11.125,34.887,34.887,0,0,1-11.125,7.5A34.776,34.776,0,0,1,1096-3612Zm0-69a33.781,33.781,0,0,0-13.234,2.672,33.888,33.888,0,0,0-10.807,7.287,33.889,33.889,0,0,0-7.286,10.808A33.786,33.786,0,0,0,1062-3647a33.785,33.785,0,0,0,2.672,13.234,33.887,33.887,0,0,0,7.286,10.807,33.882,33.882,0,0,0,10.807,7.286A33.781,33.781,0,0,0,1096-3613a33.781,33.781,0,0,0,13.234-2.672,33.882,33.882,0,0,0,10.807-7.286,33.887,33.887,0,0,0,7.286-10.807A33.786,33.786,0,0,0,1130-3647a33.786,33.786,0,0,0-2.672-13.234,33.887,33.887,0,0,0-7.286-10.808,33.888,33.888,0,0,0-10.807-7.287A33.781,33.781,0,0,0,1096-3681Z" transform="translate(-771 5808)" fill="#181E85"/>
    <g id="Group_5318" data-name="Group 5318" transform="translate(3 0)">
      <g id="Group_4418" data-name="Group 4418" transform="translate(318.854 2155.722)" clip-path="url(#clip-path)">
        <path id="Path_53497" data-name="Path 53497" d="M1147.741-224.868h6.882v9.608h-6.882Z" transform="translate(-1148.871 223.738)" fill="#181E85"/>
      </g>
      <g id="Group_4419" data-name="Group 4419" transform="translate(336.175 2171.003)" clip-path="url(#clip-path-2)">
        <path id="Path_53499" data-name="Path 53499" d="M1224.4-157.24h8.386v12.622H1224.4Z" transform="translate(-1225.525 156.11)" fill="#181E85"/>
      </g>
      <g id="Group_4420" data-name="Group 4420" transform="translate(333.526 2159.987)" clip-path="url(#clip-path-3)">
        <path id="Path_53501" data-name="Path 53501" d="M1212.674-205.991h8.588v13.122h-8.588Z" transform="translate(-1213.804 204.861)" fill="#181E85"/>
      </g>
      <g id="Group_4421" data-name="Group 4421" transform="translate(321.281 2155.757)" clip-path="url(#clip-path-4)">
        <path id="Path_53503" data-name="Path 53503" d="M1158.481-224.715h14.809v7.365h-14.809Z" transform="translate(-1159.611 223.585)" fill="#181E85"/>
      </g>
      <g id="Group_4422" data-name="Group 4422" transform="translate(316.78 2158.896)" clip-path="url(#clip-path-5)">
        <path id="Path_53505" data-name="Path 53505" d="M1138.561-210.822h5.262v6.62h-5.262Z" transform="translate(-1139.691 209.692)" fill="#181E85"/>
      </g>
      <g id="Group_4423" data-name="Group 4423" transform="translate(310.238 2161.686)" clip-path="url(#clip-path-6)">
        <path id="Path_53507" data-name="Path 53507" d="M1109.608-198.474h11.1V-179.6h-11.1Z" transform="translate(-1110.738 197.345)" fill="#181E85"/>
      </g>
      <g id="Group_4424" data-name="Group 4424" transform="translate(315.981 2182.619)" clip-path="url(#clip-path-7)">
        <path id="Path_53509" data-name="Path 53509" d="M1135.025-105.835h16.058v7.276h-16.058Z" transform="translate(-1136.155 104.705)" fill="#181E85"/>
      </g>
      <g id="Group_4425" data-name="Group 4425" transform="translate(324.002 2160.504)" clip-path="url(#clip-path-8)">
        <path id="Path_53511" data-name="Path 53511" d="M1170.522-203.706H1181.4v7.4h-10.877Z" transform="translate(-1171.652 202.576)" fill="#181E85"/>
      </g>
      <g id="Group_4426" data-name="Group 4426" transform="translate(327.497 2166.035)" clip-path="url(#clip-path-9)">
        <path id="Path_53513" data-name="Path 53513" d="M1185.989-179.226h10.68v6.153h-10.68Z" transform="translate(-1187.119 178.096)" fill="#181E85"/>
      </g>
      <g id="Group_4427" data-name="Group 4427" transform="translate(329.159 2171.478)" clip-path="url(#clip-path-10)">
        <path id="Path_53515" data-name="Path 53515" d="M1193.344-155.139h11.525v6.214h-11.525Z" transform="translate(-1194.474 154.009)" fill="#181E85"/>
      </g>
      <g id="Group_4428" data-name="Group 4428" transform="translate(328.993 2173.372)" clip-path="url(#clip-path-11)">
        <path id="Path_53517" data-name="Path 53517" d="M1192.612-146.755h8.768v10.614h-8.768Z" transform="translate(-1193.742 145.625)" fill="#181E85"/>
      </g>
      <g id="Group_4429" data-name="Group 4429" transform="translate(317.265 2163.324)" clip-path="url(#clip-path-12)">
        <path id="Path_53519" data-name="Path 53519" d="M1140.709-191.225h15.207v16.368h-15.207Z" transform="translate(-1141.839 190.095)" fill="#181E85"/>
      </g>
      <g id="Group_4430" data-name="Group 4430" transform="translate(312.149 2154.458)" clip-path="url(#clip-path-13)">
        <path id="Path_53521" data-name="Path 53521" d="M1118.066-230.462h17.017v11.333h-17.017Z" transform="translate(-1119.196 229.333)" fill="#181E85"/>
      </g>
      <g id="Group_4431" data-name="Group 4431" transform="translate(302 2135)" clip-path="url(#clip-path-14)">
        <path id="Path_53523" data-name="Path 53523" d="M1073.151-316.572h27.086v31.142h-27.086Z" transform="translate(-1074.281 315.442)" fill="#181E85"/>
      </g>
      <g id="Group_4432" data-name="Group 4432" transform="translate(325.011 2176.37)" clip-path="url(#clip-path-15)">
        <path id="Path_53525" data-name="Path 53525" d="M1174.987-133.489h14.934v13.638h-14.934Z" transform="translate(-1176.117 132.359)" fill="#181E85"/>
      </g>
      <g id="Group_4433" data-name="Group 4433" transform="translate(313.93 2152.968)" clip-path="url(#clip-path-16)">
        <path id="Path_53527" data-name="Path 53527" d="M1125.947-237.055h7.705v6.878h-7.705Z" transform="translate(-1127.077 235.926)" fill="#181E85"/>
      </g>
    </g>
  </g>
</svg>
