<svg xmlns="http://www.w3.org/2000/svg" width="188.434" height="188.434" viewBox="0 0 188.434 188.434">
  <g id="icon-footer-we-give-back-blue" transform="translate(-4081 5056)">
    <circle id="Ellipse_119" data-name="Ellipse 119" cx="94.217" cy="94.217" r="94.217" transform="translate(4081 -5056)" fill="rgba(255,250,244,0)"/>
    <g id="Group_5411" data-name="Group 5411" transform="translate(6950 -1217.426)">
      <path id="Path_54652" data-name="Path 54652" d="M51.053,0c28.2,0,50.893,32.923,51.053,44.987C98.424,52.914,4.2,50.3,0,44.987S22.857,0,51.053,0Z" transform="translate(-2808 -3749.987)" fill="#87abd5"/>
      <path id="Path_54651" data-name="Path 54651" d="M36.039,0C55.948,0,73.7,23.742,72.088,28.548s-70.9,3.3-72.1,0S16.13,0,36.039,0Z" transform="translate(-2843.931 -3728.792)" fill="#d5e6fa"/>
      <g id="Group_5406" data-name="Group 5406" transform="translate(-2985.734 -3932.306)">
        <rect id="Rectangle_2318" data-name="Rectangle 2318" width="4" height="16" rx="2" transform="translate(176.734 196.306)" fill="#22548d"/>
        <g id="Group_5405" data-name="Group 5405" transform="translate(164.734 170.94)">
          <g id="Group_5402" data-name="Group 5402" transform="translate(0 0)">
            <path id="Path_54693" data-name="Path 54693" d="M191.984,193.036a6.842,6.842,0,0,1-6.852,6.805h-13.66a6.843,6.843,0,0,1-6.853-6.805,6.713,6.713,0,0,1,2.015-4.735,2.835,2.835,0,0,0,.83-2.2c-.009-.141-.013-.285-.013-.428a6.725,6.725,0,0,1,2.86-5.51,2.917,2.917,0,0,0,1.255-2.378v-.111a6.737,6.737,0,0,1,6.737-6.738h.115a6.649,6.649,0,0,1,4.7,2.06,6.906,6.906,0,0,1,1.926,4.787,2.917,2.917,0,0,0,1.255,2.378,6.729,6.729,0,0,1,2.86,5.51c0,.144,0,.288-.013.428a2.824,2.824,0,0,0,.83,2.2,6.712,6.712,0,0,1,2.014,4.735Z" transform="translate(-164.618 -170.94)" fill="#87abd5"/>
          </g>
        </g>
      </g>
      <g id="Group_5410" data-name="Group 5410" transform="translate(-2939.869 -3962.514)">
        <rect id="Rectangle_2319" data-name="Rectangle 2319" width="4" height="20" rx="2" transform="translate(180.705 205.514)" fill="#22548d"/>
        <g id="Group_5405-2" data-name="Group 5405" transform="translate(164.618 170.94)">
          <g id="Group_5402-2" data-name="Group 5402" transform="translate(0 0)">
            <path id="Path_54693-2" data-name="Path 54693" d="M200.793,200.149a9.044,9.044,0,0,1-9.058,9H173.678a9.046,9.046,0,0,1-9.06-9,8.874,8.874,0,0,1,2.664-6.259,3.747,3.747,0,0,0,1.1-2.9c-.012-.186-.018-.376-.018-.566a8.89,8.89,0,0,1,3.781-7.284,3.856,3.856,0,0,0,1.659-3.143v-.146a8.906,8.906,0,0,1,8.905-8.907c.026,0,.051,0,.077,0h.075a8.79,8.79,0,0,1,6.209,2.724,9.129,9.129,0,0,1,2.545,6.328,3.856,3.856,0,0,0,1.659,3.143,8.9,8.9,0,0,1,3.781,7.284c0,.19-.006.38-.018.566a3.733,3.733,0,0,0,1.1,2.9,8.872,8.872,0,0,1,2.662,6.259Z" transform="translate(-164.618 -170.94)" fill="#87abd5"/>
          </g>
        </g>
      </g>
    </g>
  </g>
</svg>
