<svg xmlns="http://www.w3.org/2000/svg" width="420" height="420" viewBox="0 0 420 420" style="background-color:#f0faff"><title>TIS_Icons_NoName_Navy_RGB</title><path d="M182.5357,291.892a26.179,26.179,0,0,0,19.1949.6323c8.0967-2.8867,16.0432-8.7128,22.12-15.3544l.1394.957c.6465,4.4707,4.5791,6.7646,8.792,6.1553M177.5644,183.9677c-16.1872-27.5177-46.4544-19.6926-60.5463-14.2661-19.8749,7.6528-23.0763,18.331-24.6156,44.7539,0,17.75,4.0774,46.4072,16.9863,69.7783a16.507,16.507,0,0,0,11.8954,8.7764c9.5632,1.875,29.3094,2.2934,37.8281-1.586m158.6551-39.8856L302.52,146.9013a7.9549,7.9549,0,0,0-8.7989-6.9922l-80.4326,11.2637a7.9533,7.9533,0,0,0-6.4578,9.1982l.657,4.5088a40.06,40.06,0,0,0-16.2134-5.3389c-10.1909-1.0419-18.8984,2.6563-25.5971,8.9029m24.8695,118.8845c-.1649.0781,17.4243-3.0033,16.2062-17.7893-.173-2.0991-.1853-4.0112.9859-5.9058,4.0285-6.5151,5.6314-13.3266,2.4047-19.8711-1.8388-3.729-7.0261-8.2542-3.0774-9.7319,10.2414-3.8326,12.5435-16.9146,2.3686-23.9355-3.8037-2.6247-2.27-7.9859-1.3493-12.5665a28.7377,28.7377,0,0,0,.5831-6.2188c-.0222-1.1578-1.8173-19.0921-19.6838-20.6406m29.093,65.5065,1.5319,11.891a78.3274,78.3274,0,0,1-3.0569,8.2725,35.6027,35.6027,0,0,1-9.8,13.2" fill="none" stroke="#1414b4" stroke-linecap="round" stroke-linejoin="round" stroke-width="5"/><path d="M148.38,251.5386c-2.2233,1.2762-7.76,9.7449-1.7987,17.6276,5.8192,7.695,14.2978,5.3448,23.9924,4.6057,3.8667-.2947,13.8864-1.8169,21.7734-6.5159" fill="none" stroke="#1414b4" stroke-linecap="round" stroke-linejoin="round" stroke-width="5"/><path d="M157.9912,274.7925c-2.7479,1.9289-2.9577,4.0474-2.4947,6.9523a11.6244,11.6244,0,0,0,.7657,3.4721,34.4222,34.4222,0,0,0,2.557,3.8657c1.0929,1.3326,6.6944,5.2756,11.8932,3.3586" fill="none" stroke="#1414b4" stroke-linecap="round" stroke-linejoin="round" stroke-width="5"/><path d="M195.7615,208.5452c-2.1829,1.73-7.9409,5.6547-12.0308,7.0376" fill="none" stroke="#1414b4" stroke-linecap="round" stroke-linejoin="round" stroke-width="5"/><path d="M177.5644,183.9677c7.2323,15.9417,8.7421,24.8457,3.4777,41.5409a74.98,74.98,0,0,1-4.1028,9.72c-1.7886,3.737-3.6489,7.5726-6.7084,10.3661a10.9558,10.9558,0,0,1-11.5771,1.7189c-3.9559-1.7346-5.7583-5.444-5.8319-9.7628s1.3075-8.51,2.1575-12.7446a52.4808,52.4808,0,0,0,.4237-18.2046c-.6613-4.3295-2.2623-9.0739-6.2038-10.9835-5.2035-2.5211-11.3333,1.3479-14.8527,5.9356-1.804,2.3515-3.3376,5.0644-3.5112,8.0232-.29,4.95,3.3873,9.4447,7.8246,11.6575s10.61,3.4258,15.5552,3.7907c-6.5262-.8939-14.6621-2.1647-18.8017.7093-5.1287,3.5606-6.35,9.2524-5.2317,15.395.3163,1.738,3.6346,8.56,7.8415,9.2846,15.5437,2.6768,29.7952-.7381,45.0891-4.5942,4.8814-1.2307,4.919-1.4962,9.8418-4.007" fill="none" stroke="#1414b4" stroke-linecap="round" stroke-linejoin="round" stroke-width="5"/><path d="M240.2843,283.5022l49.6838-8.2975s13.0425-1.5651,18.9463-3.0033c5.3059-1.2925,5.82-.8837,7.6932-2.8419s1.3584-2.3669,1.1773-8.076" fill="none" stroke="#1414b4" stroke-linecap="round" stroke-linejoin="round" stroke-width="5"/><path d="M232.7819,139.6308c4.59-8.259,17.8786-4.718,27.491-4.5245,5.5609.112,12.037-.2691,15.116-3.0724a2.9517,2.9517,0,0,0,1.1538-2.194c-.0678-1.45-1.8717-2.673-3.9-3.4469-6.4937-2.4779-14.8493-1.502-22.5237-1.3613-2.7577.0506-5.9056-.1314-7.5847-1.4557a3.2765,3.2765,0,0,1-1.2433-2.3278c-.3892-3.6983,4.1161-7.3655,10.0825-8.2068,2.6413-.3725,5.4025-.24,8.0928-.4478s5.5322-.8691,6.8483-2.3035.0928-3.6807-2.6056-3.8451" fill="none" stroke="#1414b4" stroke-linecap="round" stroke-linejoin="round" stroke-width="5"/><path d="M106.6108,357.2776q-1.2657-4.722,2.6025-10.8657l9.2354-14.6713,5.7719,3.6332-8.9775,14.2617q-4.1726,6.6284.8916,9.8159a4.9929,4.9929,0,0,0,5.021.6132,10.492,10.492,0,0,0,4.1782-4.0768l8.9776-14.2617,5.7719,3.6333-9.2353,14.6711q-3.8679,6.144-8.6724,7.0451a14.3892,14.3892,0,0,1-15.5649-9.798Z" fill="#1414b4"/><path d="M145.7763,348.12l6.3555,2.35L147.934,361.82l.2066.0764,13.854-7.777,7.3042,2.7016-14.876,8.3842,4.1919,20.5032-7.2222-2.6711-2.6059-14.897-3.9512,2.0571-3.3882,9.1614-6.3555-2.3506Z" fill="#1414b4"/><path d="M187.2568,360.9624l10.1992.426,5.2939,17.7045.1319.0055,6.7514-17.2012,10.1993.426-1.2852,30.7732-6.7266-.281.8819-21.1015-.1758-.0074-8.0913,20.8-4.3526-.1816-6.3281-21.4028-.1758-.0074-.8813,21.1016-6.7261-.281Z" fill="#1414b4"/><path d="M246.67,381.6829l-9.6954,1.773-.8818,7.4075-6.8384,1.2506,5.2364-32.2684,6.2758-1.1477L256.998,387.04l-6.8384,1.2506Zm-2.587-4.85-4.9052-9.2118-.2593.0475-1.2412,10.3359Z" fill="#1414b4"/><path d="M255.3227,355.4053l11.2529-4.5652a14.0414,14.0414,0,0,1,7.3736-1.0205,12.4068,12.4068,0,0,1,6.49,3.0649,20.5915,20.5915,0,0,1,6.2236,15.4,12.3272,12.3272,0,0,1-2.5615,6.7371,14.2863,14.2863,0,0,1-6.0288,4.3926l-11.1719,4.5321Zm19.2519,18.78a7.82,7.82,0,0,0,4.523-4.0666q1.18-2.71-.7554-7.4806t-4.6494-5.901a7.8081,7.8081,0,0,0-6.0981.2422l-3.833,1.5548,6.98,17.2061Z" fill="#1414b4"/><path d="M293.2958,344.046l3.58,5.4923,9.8052-6.3906,2.9072,4.46-9.8051,6.3908,3.7959,5.8241,11.6484-7.5921,3.2676,5.0132-17.4356,11.364-16.8179-25.803,17.4356-11.3641,3.2671,5.0132Z" fill="#1414b4"/></svg>