<svg xmlns="http://www.w3.org/2000/svg" width="27" height="27" viewBox="0 0 27 27">
  <g id="Group_5607" data-name="Group 5607" transform="translate(-1097 -520)">
    <rect id="Rectangle_2419" data-name="Rectangle 2419" width="27" height="27" transform="translate(1097 520)" fill="transparent"/>
    <path id="Truck_Icon_-_Light___Font_Awesome-42" data-name="Truck Icon - Light _ Font Awesome-42" d="M18.762,42.45H18.05V39.241a1.9,1.9,0,0,0-.558-1.342L15,35.408a1.891,1.891,0,0,0-1.342-.558H12.35V33.383A1.429,1.429,0,0,0,10.883,32H1.467A1.429,1.429,0,0,0,0,33.383v8.633A1.429,1.429,0,0,0,1.467,43.4h.481a2.282,2.282,0,0,0-.047.475,2.375,2.375,0,1,0,4.75,0A2.5,2.5,0,0,0,6.6,43.4h5.8a2.282,2.282,0,0,0-.048.475,2.375,2.375,0,1,0,4.75,0,2.5,2.5,0,0,0-.047-.475h1.71A.238.238,0,0,0,19,43.163v-.475A.238.238,0,0,0,18.762,42.45Zm-5.1-6.65a.948.948,0,0,1,.671.279l2.491,2.491a.794.794,0,0,1,.053.083H12.35V35.8h1.309ZM4.275,45.3A1.425,1.425,0,1,1,5.7,43.875,1.425,1.425,0,0,1,4.275,45.3Zm1.888-2.85a2.351,2.351,0,0,0-3.776,0h-.92a.48.48,0,0,1-.517-.433V33.383a.48.48,0,0,1,.517-.433h9.417a.48.48,0,0,1,.517.433V42.45Zm8.562,2.85a1.425,1.425,0,1,1,1.425-1.425A1.425,1.425,0,0,1,14.725,45.3Zm0-3.8a2.363,2.363,0,0,0-1.888.95H12.35V39.6H17.1v2.85h-.487a2.363,2.363,0,0,0-1.888-.95Z" transform="translate(1101 494)" fill="#181E85"/>
  </g>
</svg>
