<svg xmlns="http://www.w3.org/2000/svg" xmlns:xlink="http://www.w3.org/1999/xlink" width="118" height="118" viewBox="0 0 118 118">
  <defs>
    <clipPath id="clip-the-ideal-sunday-rewards">
      <rect width="118" height="118"/>
    </clipPath>
  </defs>
  <g id="the-ideal-sunday-rewards" clip-path="url(#clip-the-ideal-sunday-rewards)">
    <g id="badge" transform="translate(-38.978 3.418)">
      <g id="Group_5690" data-name="Group 5690" transform="translate(54.154)">
        <g id="Group_5689" data-name="Group 5689" transform="translate(0)">
          <path id="Path_53595" data-name="Path 53595" d="M97.978,0A43.812,43.812,0,0,0,73.394,80.085v27.872a3.207,3.207,0,0,0,4.523,2.924l20.062-9.027,20.062,9.028a3.207,3.207,0,0,0,4.523-2.924V80.085A43.812,43.812,0,0,0,97.978,0Zm18.171,103L99.294,95.413a3.2,3.2,0,0,0-2.631,0L79.807,103V83.71a43.6,43.6,0,0,0,4.951,1.9l.287.091q.323.1.647.193.24.07.48.139.261.073.524.142.306.082.614.159l.436.106q.354.085.71.164l.37.081q.39.083.783.159l.32.062q.416.078.835.147l.287.048q.432.069.868.129l.269.038c.294.039.589.074.884.107l.264.03c.295.031.59.058.887.083.09.008.179.017.269.024.292.023.585.041.879.059.094.006.188.013.283.018.3.016.595.026.893.036.09,0,.179.008.269.01q.578.015,1.161.016t1.16-.016c.09,0,.179-.007.269-.01.3-.01.6-.02.893-.036.094,0,.188-.012.283-.018.294-.017.587-.036.879-.059.09-.007.18-.016.269-.024.3-.025.592-.052.887-.083l.264-.03c.3-.033.59-.068.884-.107l.269-.038q.435-.06.868-.129l.287-.048q.419-.07.835-.147l.32-.062q.393-.076.783-.159l.37-.081q.356-.079.71-.164l.436-.106q.308-.077.614-.159c.175-.047.35-.093.524-.142s.321-.092.48-.139c.216-.063.432-.127.647-.193l.287-.091a43.6,43.6,0,0,0,4.951-1.9V103Zm-5.963-23.81c-.128.044-.256.088-.384.131q-.292.1-.587.191-.343.108-.688.208c-.162.048-.325.1-.488.141q-.456.127-.916.243l-.343.084q-.45.109-.9.207l-.227.049q-.584.122-1.173.226l-.12.02q-.53.092-1.063.167l-.241.034c-.379.051-.758.1-1.139.139l-.043,0q-.6.062-1.2.1l-.261.017q-.467.03-.936.049l-.319.012c-.392.012-.785.02-1.179.02s-.786-.008-1.179-.021l-.318-.012q-.469-.019-.936-.049l-.261-.017q-.6-.043-1.2-.1l-.043,0c-.381-.04-.76-.087-1.139-.139l-.241-.034q-.533-.076-1.063-.167l-.12-.02q-.589-.1-1.173-.226l-.227-.049q-.453-.1-.9-.207l-.343-.084q-.46-.115-.916-.243c-.163-.046-.325-.093-.488-.141q-.345-.1-.688-.208-.295-.093-.587-.191c-.129-.043-.256-.087-.384-.131a37.41,37.41,0,1,1,24.417,0Z" transform="translate(-54.154)" fill="#1a3555"/>
        </g>
      </g>
      <g id="Group_5692" data-name="Group 5692" transform="translate(72.555 14.965)">
        <g id="Group_5691" data-name="Group 5691" transform="translate(0)">
          <path id="Path_53596" data-name="Path 53596" d="M183.354,97.784l6.023-11.32a3.207,3.207,0,0,0-2.72-4.711l-12.815-.444-6.792-10.876a3.207,3.207,0,0,0-5.44,0l-6.792,10.876L142,81.752a3.207,3.207,0,0,0-2.72,4.711l6.023,11.32-6.023,11.32a3.207,3.207,0,0,0,2.72,4.711l12.815.444,6.792,10.876a3.207,3.207,0,0,0,5.44,0l6.792-10.876,12.815-.444a3.207,3.207,0,0,0,2.72-4.711Zm-11.439,10.125a3.206,3.206,0,0,0-2.609,1.506l-4.976,7.968-4.976-7.968a3.207,3.207,0,0,0-2.609-1.506l-9.389-.325,4.412-8.293a3.206,3.206,0,0,0,0-3.012l-4.412-8.293,9.389-.325a3.206,3.206,0,0,0,2.609-1.506l4.976-7.968,4.976,7.968a3.207,3.207,0,0,0,2.609,1.506l9.389.325-4.412,8.293a3.206,3.206,0,0,0,0,3.012l4.412,8.293Z" transform="translate(-138.907 -68.924)" fill="#1a3555"/>
        </g>
      </g>
    </g>
  </g>
</svg>
