<svg xmlns="http://www.w3.org/2000/svg" width="24" height="24" viewBox="0 0 24 24">
  <g id="Group_5257" data-name="Group 5257" transform="translate(-1213 -711.521)">
    <path id="Path_54358" data-name="Path 54358" d="M20,8A12,12,0,1,0,32,20,12,12,0,0,0,20,8Z" transform="translate(1205 703.521)" fill="#fd4b7f"/>
    <path id="Path_54359" data-name="Path 54359" d="M220.409,128H218.4a.72.72,0,0,0-.716.792l.576,5.76a.72.72,0,0,0,.716.648h.855a.72.72,0,0,0,.716-.648l.576-5.76a.72.72,0,0,0-.715-.792Zm-1,8.64a1.44,1.44,0,1,0,1.44,1.44A1.44,1.44,0,0,0,219.405,136.64Z" transform="translate(1005.879 590.24)" fill="#fff"/>
  </g>
</svg>
