<svg xmlns="http://www.w3.org/2000/svg" xmlns:xlink="http://www.w3.org/1999/xlink" width="70" height="70" viewBox="0 0 70 70">
  <defs>
    <clipPath id="clip-path">
      <path id="Path_52942" data-name="Path 52942" d="M3505.906-182.853a.565.565,0,0,1,.7-.317l.036.014,3.147,1.318a.564.564,0,0,1,.3.307l.015.038,1.248,3.81a.565.565,0,0,1-.361.713.565.565,0,0,1-.7-.326l-.013-.035-1.167-3.564-2.909-1.218a.565.565,0,0,1-.317-.7Z" transform="translate(-3505.862 183.199)" fill="none"/>
    </clipPath>
    <clipPath id="clip-path-2">
      <path id="Path_52944" data-name="Path 52944" d="M3547.089-254.512c5.449-.205,8.632,2.246,10.78,7.463,1.76,4.279,2,8.073.393,11.759a.565.565,0,0,1-.744.293.565.565,0,0,1-.293-.743c1.45-3.333,1.257-6.775-.34-10.73l-.061-.148c-1.96-4.761-4.7-6.907-9.566-6.769l-.148,0h-.611l-.6,0-.2,0-.385.005-.374.007-.365.009-.356.01-.348.012-.171.007-.337.015-.331.017-.324.019-.16.011-.317.023-.312.025-.309.028-.305.03-.3.033-.151.017-.3.036-.3.039-.3.042-.3.045-.15.024a22.115,22.115,0,0,0-7.8,2.68,3.567,3.567,0,0,0-1.649,2.566,32.261,32.261,0,0,0,.076,9.347.565.565,0,0,1-.466.649.565.565,0,0,1-.649-.466,34.906,34.906,0,0,1-.294-7.9l.026-.306c.051-.554.116-1.064.193-1.514a4.685,4.685,0,0,1,2.193-3.351,23.235,23.235,0,0,1,8.189-2.82l.3-.047.3-.044.3-.041.3-.038.3-.036.3-.033.152-.016.307-.029.311-.027.314-.025.317-.022.323-.02.328-.018.333-.016.34-.014.347-.012.355-.01.362-.008.372-.007.38-.005.391,0,.4,0h.622Z" transform="translate(-3528.62 254.524)" fill="none"/>
    </clipPath>
    <clipPath id="clip-path-3">
      <path id="Path_52946" data-name="Path 52946" d="M3516.773-196.485a2.751,2.751,0,0,1,4.153-1.277l.046.038,7.667,6.384a2.664,2.664,0,0,1,.91,2.009,2.663,2.663,0,0,1-.861,1.954l-.06.053-9.1,7.805a.563.563,0,0,1-.315.134l-.044,0-31.1.452a.567.567,0,0,1-.253-.056l-.038-.02-12.436-7.194a.564.564,0,0,1-.282-.485v-.04l.33-5.235a.565.565,0,0,1,.6-.528.564.564,0,0,1,.529.562v.037L3476.2-187l12,6.941,30.745-.447,8.944-7.67a1.535,1.535,0,0,0,.527-1.091v-.063a1.529,1.529,0,0,0-.468-1.106l-.045-.041-7.657-6.375a1.638,1.638,0,0,0-2.379.647l-.015.046a.565.565,0,0,1-.7.38A.565.565,0,0,1,3516.773-196.485Z" transform="translate(-3475.054 198.266)" fill="none"/>
    </clipPath>
    <clipPath id="clip-path-4">
      <path id="Path_52948" data-name="Path 52948" d="M3574.934-208.554a3.772,3.772,0,0,1,4.075,1.323,2.409,2.409,0,0,1,.239.41l.016.035.035-.057a3.4,3.4,0,0,1,2.828-1.739l.072,0a3.862,3.862,0,0,1,2.144.86c1.426,1.042,2.222,2.649,1.6,4.015a3.541,3.541,0,0,1-2.865,1.78,12.423,12.423,0,0,1-4.311,0l-.227-.042-.147-.029-.7-.145-.256-.051-.229-.043-.141-.024-.131-.021-.063-.009-.121-.016-.115-.013-.056-.005-.109-.009-.106-.006-.052,0-.1,0h-.1l-.105,0a1.726,1.726,0,0,0-1.676,1.02,1.9,1.9,0,0,0,.334,2c.054.057.109.111.165.163l.086.077c.087.076.179.148.279.219l.1.07c.105.07.22.14.347.211l.131.072.069.037.145.075.155.077.165.08.177.083.188.087.2.092a16.336,16.336,0,0,0,2.13.843c3.393.985,6.732.5,10.513-1.318a.565.565,0,0,1,.754.264.566.566,0,0,1-.264.754c-4.014,1.933-7.632,2.456-11.332,1.382a17.453,17.453,0,0,1-2.279-.9l-.208-.095-.2-.091-.185-.087-.089-.043-.17-.083c-.083-.041-.162-.082-.238-.121l-.147-.079c-.144-.079-.276-.156-.4-.235l-.121-.079c-.1-.066-.192-.134-.282-.2l-.07-.056.12.468.111.421.118.435.169.617a15.305,15.305,0,0,0,.942,2.337.564.564,0,0,1-.251.758.565.565,0,0,1-.758-.251,16.434,16.434,0,0,1-1.017-2.526l-.14-.513-.09-.332-.128-.483-.122-.467-.113-.451-.073-.292-.069-.285-.066-.279-.062-.273-.059-.268-.029-.132-.055-.26-.052-.255-.048-.25-.045-.245-.042-.241c-.007-.04-.014-.079-.02-.119l-.038-.235-.035-.231-.016-.114-.03-.226-.027-.223c0-.037-.008-.074-.013-.111l-.022-.219-.02-.217c-.018-.216-.032-.428-.041-.639l-.008-.21c-.009-.314-.009-.624,0-.934l.008-.207.011-.207q.01-.155.022-.312l.019-.209c0-.035.007-.07.01-.1l.023-.211.025-.212.028-.214.031-.216A3.552,3.552,0,0,1,3574.934-208.554Zm3.162,1.988a2.672,2.672,0,0,0-2.935-.882,1.2,1.2,0,0,0-.223.084l-.086.042-.046.023-.1.051-.05.028-.1.059c-.1.061-.205.128-.3.2a1.613,1.613,0,0,0-.708.864,14.366,14.366,0,0,0-.075,3.871l.007.068.033-.051a2.9,2.9,0,0,1,2.355-1.256l.081,0,.13,0h.127l.125,0,.125,0,.126.008.129.011.133.014.138.018.144.021.153.025.162.028.172.032.281.056.383.08.008-.085c.023-.241.053-.481.091-.719l.007-.049.008-.1a4.138,4.138,0,0,0-.273-2.4Zm4.063-.886a2.394,2.394,0,0,0-2.062,1.5,8.011,8.011,0,0,0-.583,2.03l-.005.032-.023.25-.024.237-.047.429.055.008a11.293,11.293,0,0,0,3.241-.048l.169-.028a2.566,2.566,0,0,0,2.033-1.136c.352-.77-.194-1.871-1.237-2.634A2.822,2.822,0,0,0,3582.159-207.452Z" transform="translate(-3572.248 208.675)" fill="none"/>
    </clipPath>
    <clipPath id="clip-path-5">
      <path id="Path_52950" data-name="Path 52950" d="M3553.037-194.443a3.2,3.2,0,0,1,2.413,1.327.564.564,0,0,1-.191.776.564.564,0,0,1-.754-.159l-.021-.032a2.3,2.3,0,0,0-1.325-.786h-.024l-.1.014a4.79,4.79,0,0,0-1.664.586l-.083.05-.025.018a2.118,2.118,0,0,0-.9,1.969v.138q0,.035,0,.072l0,.148.008.155.01.162c0,.028,0,.055.006.084l.015.173.017.181.02.189.021.2.024.206.055.453.025.221.027.262.021.248c0,.021,0,.042.005.063a11.112,11.112,0,0,0,1.738,5.289.565.565,0,0,1-.17.781.565.565,0,0,1-.781-.17,12.244,12.244,0,0,1-1.9-5.656l-.016-.22-.015-.172-.024-.241-.04-.354-.068-.563-.042-.363-.026-.243-.014-.15-.018-.208-.01-.129-.009-.182,0-.114,0-.11v-.158c0-.017,0-.034,0-.051l0-.1.007-.1.008-.1c0-.017,0-.033,0-.05l.011-.1.014-.1a3.246,3.246,0,0,1,1.294-2.235l.077-.058.039-.025a5.922,5.922,0,0,1,2.2-.8l.13-.018Z" transform="translate(-3549.22 194.447)" fill="none"/>
    </clipPath>
    <clipPath id="clip-path-6">
      <path id="Path_52952" data-name="Path 52952" d="M3534.472-180.661c1.1-.428,2.583-.342,3.025.258a.564.564,0,0,1-.12.79.565.565,0,0,1-.738-.059l-.017-.019h0a.486.486,0,0,0-.054-.022l-.024-.008a1.86,1.86,0,0,0-.437-.071,3,3,0,0,0-1.223.185c-.888.347-1.22,1.045-.776,2.308a.565.565,0,0,1-.345.72.565.565,0,0,1-.72-.345C3532.393-178.769,3533.022-180.1,3534.472-180.661Z" transform="translate(-3532.786 180.929)" fill="none"/>
    </clipPath>
    <clipPath id="clip-path-7">
      <path id="Path_52954" data-name="Path 52954" d="M3609.28-155.212a.565.565,0,0,1,.724.338c.029.08.067.172.112.273l.058.126.031.066.069.139.076.148.081.156.1.181.114.206c.124.22.254.445.386.667l.179.3.189.3a.566.566,0,0,1-.174.78.565.565,0,0,1-.758-.142l-.042-.064-.133-.214-.093-.152c-.184-.3-.367-.614-.539-.921l-.062-.109-.117-.213-.051-.1-.1-.185q-.093-.181-.171-.344l-.073-.158c-.058-.128-.106-.247-.146-.355A.564.564,0,0,1,3609.28-155.212Z" transform="translate(-3608.908 155.246)" fill="none"/>
    </clipPath>
    <clipPath id="clip-path-8">
      <path id="Path_52956" data-name="Path 52956" d="M3469.735-191.09a.565.565,0,0,1,.71.367.565.565,0,0,1-.367.71,26.585,26.585,0,0,0-7.9,4.075.565.565,0,0,1-.848-.205l-.015-.035-1.587-3.932a.565.565,0,0,1,.312-.735.565.565,0,0,1,.72.277l.016.035,1.315,3.259,0,0a27.716,27.716,0,0,1,7.409-3.738Z" transform="translate(-3459.686 191.117)" fill="none"/>
    </clipPath>
    <clipPath id="clip-path-9">
      <path id="Path_52958" data-name="Path 52958" d="M3470.96-207.917a4.283,4.283,0,0,1,2.563,3,.565.565,0,0,1-.377.7.564.564,0,0,1-.7-.378,3.214,3.214,0,0,0-1.836-2.251,3.485,3.485,0,0,0-2.6.429l-.5.253-.667.344-.664.345-.959.5a.565.565,0,0,1-.763-.237.564.564,0,0,1,.237-.763l.963-.5.99-.514.653-.335.2-.1A4.52,4.52,0,0,1,3470.96-207.917Z" transform="translate(-3464.388 208.083)" fill="none"/>
    </clipPath>
    <clipPath id="clip-path-10">
      <path id="Path_52960" data-name="Path 52960" d="M3562.794-151.3a.565.565,0,0,1,.509.616c-.243,2.565-3.239,4.728-5.9,4.432l-.059-.007-.12-.016-.125-.019-.135-.023-.151-.028-.35-.067-.149-.027-.137-.023-.126-.019-.117-.015a1.8,1.8,0,0,0-.776.042,1.63,1.63,0,0,0-.34.147l-.078.045-.042.025-.09.057-.048.031-.1.069-.353.239-.136.088-.131.079a4.494,4.494,0,0,1-4.522-.038l-.1-.064-.1-.067-.155-.107-.329-.234-.115-.08-.106-.072-.1-.064a1.46,1.46,0,0,0-.74-.286,1.177,1.177,0,0,0-.405.052l-.082.025-.089.031-.047.017-.1.039-.112.045-.124.052-.208.089-.143.059-.127.05-.086.032a5.365,5.365,0,0,1-3.136.068,2.439,2.439,0,0,1-.3-.115l-.093-.043-.133-.065a.811.811,0,0,0-.3-.1,2.152,2.152,0,0,0-.676.054l-.134.028-.42.093-.147.03-.077.014-.08.014a4.911,4.911,0,0,1-5.169-2.877.564.564,0,0,1,.288-.745.565.565,0,0,1,.745.288,3.777,3.777,0,0,0,3.967,2.217l.085-.015.122-.024.158-.034.212-.047.093-.02.173-.036a3.089,3.089,0,0,1,.987-.061,1.823,1.823,0,0,1,.593.167l.221.107a1.506,1.506,0,0,0,.209.086,4.214,4.214,0,0,0,2.447-.051l.064-.024.1-.041.417-.177.15-.061a2.6,2.6,0,0,1,1.222-.25,2.645,2.645,0,0,1,1.481.588l.146.1.4.284.089.061.078.051.075.047a3.358,3.358,0,0,0,3.374.029l.1-.063.055-.035.17-.113.178-.122.138-.092.064-.042.121-.077a2.838,2.838,0,0,1,.738-.343,2.79,2.79,0,0,1,1.256-.08l.148.02.078.012.163.027.174.031.422.08.117.021.154.025.092.013.089.011c2.063.229,4.471-1.51,4.652-3.416a.565.565,0,0,1,.579-.511Z" transform="translate(-3535.316 151.304)" fill="none"/>
    </clipPath>
  </defs>
  <g id="Plastic-Free" transform="translate(-69 -2253)">
    <path id="Subtraction_12" data-name="Subtraction 12" d="M1096-3612a34.777,34.777,0,0,1-13.624-2.75,34.884,34.884,0,0,1-11.125-7.5,34.879,34.879,0,0,1-7.5-11.125A34.784,34.784,0,0,1,1061-3647a34.786,34.786,0,0,1,2.75-13.624,34.881,34.881,0,0,1,7.5-11.125,34.878,34.878,0,0,1,11.125-7.5A34.777,34.777,0,0,1,1096-3682a34.776,34.776,0,0,1,13.623,2.75,34.881,34.881,0,0,1,11.125,7.5,34.883,34.883,0,0,1,7.5,11.125A34.783,34.783,0,0,1,1131-3647a34.78,34.78,0,0,1-2.75,13.623,34.883,34.883,0,0,1-7.5,11.125,34.887,34.887,0,0,1-11.125,7.5A34.776,34.776,0,0,1,1096-3612Zm0-69a33.781,33.781,0,0,0-13.234,2.672,33.888,33.888,0,0,0-10.807,7.287,33.889,33.889,0,0,0-7.286,10.808A33.786,33.786,0,0,0,1062-3647a33.785,33.785,0,0,0,2.672,13.234,33.887,33.887,0,0,0,7.286,10.807,33.882,33.882,0,0,0,10.807,7.286A33.781,33.781,0,0,0,1096-3613a33.781,33.781,0,0,0,13.234-2.672,33.882,33.882,0,0,0,10.807-7.286,33.887,33.887,0,0,0,7.286-10.807A33.786,33.786,0,0,0,1130-3647a33.786,33.786,0,0,0-2.672-13.234,33.887,33.887,0,0,0-7.286-10.808,33.888,33.888,0,0,0-10.807-7.287A33.781,33.781,0,0,0,1096-3681Z" transform="translate(-992 5935)" fill="#181E85"/>
    <g id="Group_5312" data-name="Group 5312" transform="translate(-1.967 1224.729)">
      <g id="Group_4140" data-name="Group 4140" transform="translate(87.401 1063.387)" clip-path="url(#clip-path)">
        <path id="Path_52941" data-name="Path 52941" d="M3500.861-188.2h7.785v8.517h-7.785Z" transform="translate(-3501.991 187.07)" fill="#181E85"/>
      </g>
      <g id="Group_4141" data-name="Group 4141" transform="translate(92.544 1047.271)" clip-path="url(#clip-path-2)">
        <path id="Path_52943" data-name="Path 52943" d="M3523.621-259.524H3556.6v21.834h-32.977Z" transform="translate(-3524.751 258.394)" fill="#181E85"/>
      </g>
      <g id="Group_4142" data-name="Group 4142" transform="translate(80.44 1059.982)" clip-path="url(#clip-path-3)">
        <path id="Path_52945" data-name="Path 52945" d="M3470.054-203.266h56.755v21.6h-56.755Z" transform="translate(-3471.184 202.136)" fill="#181E85"/>
      </g>
      <g id="Group_4143" data-name="Group 4143" transform="translate(102.402 1057.631)" clip-path="url(#clip-path-4)">
        <path id="Path_52947" data-name="Path 52947" d="M3567.247-213.675h20.333v17.9h-20.333Z" transform="translate(-3568.377 212.545)" fill="#181E85"/>
      </g>
      <g id="Group_4144" data-name="Group 4144" transform="translate(97.198 1060.846)" clip-path="url(#clip-path-5)">
        <path id="Path_52949" data-name="Path 52949" d="M3544.22-199.447h8.572v15.134h-8.572Z" transform="translate(-3545.35 198.317)" fill="#181E85"/>
      </g>
      <g id="Group_4145" data-name="Group 4145" transform="translate(93.485 1063.9)" clip-path="url(#clip-path-6)">
        <path id="Path_52951" data-name="Path 52951" d="M3527.786-185.929h7.082v6.64h-7.082Z" transform="translate(-3528.916 184.799)" fill="#181E85"/>
      </g>
      <g id="Group_4146" data-name="Group 4146" transform="translate(110.685 1069.704)" clip-path="url(#clip-path-7)">
        <path id="Path_52953" data-name="Path 52953" d="M3603.908-160.246h4.836v6.06h-4.836Z" transform="translate(-3605.038 159.116)" fill="#181E85"/>
      </g>
      <g id="Group_4147" data-name="Group 4147" transform="translate(76.967 1061.598)" clip-path="url(#clip-path-8)">
        <path id="Path_52955" data-name="Path 52955" d="M3454.685-196.117h13.046v7.551h-13.046Z" transform="translate(-3455.815 194.987)" fill="#181E85"/>
      </g>
      <g id="Group_4148" data-name="Group 4148" transform="translate(78.03 1057.764)" clip-path="url(#clip-path-9)">
        <path id="Path_52957" data-name="Path 52957" d="M3459.388-213.084h11.419v6.152h-11.419Z" transform="translate(-3460.518 211.954)" fill="#181E85"/>
      </g>
      <g id="Group_4149" data-name="Group 4149" transform="translate(94.057 1070.594)" clip-path="url(#clip-path-10)">
        <path id="Path_52959" data-name="Path 52959" d="M3530.316-156.3h30.249v8.483h-30.249Z" transform="translate(-3531.446 155.174)" fill="#181E85"/>
      </g>
    </g>
  </g>
</svg>
