<svg xmlns="http://www.w3.org/2000/svg" xmlns:xlink="http://www.w3.org/1999/xlink" width="70" height="70" viewBox="0 0 70 70">
  <defs>
    <clipPath id="clip-path">
      <path id="Path_52808" data-name="Path 52808" d="M5031.25-216.2a.565.565,0,0,1,.686.409l.163.667.808,3.455.2.845.047.185a.565.565,0,0,1-.408.687.565.565,0,0,1-.687-.407l-.08-.319-.174-.725-.9-3.831-.07-.281A.564.564,0,0,1,5031.25-216.2Z" transform="translate(-5030.823 216.213)" fill="none"/>
    </clipPath>
    <clipPath id="clip-path-2">
      <path id="Path_52810" data-name="Path 52810" d="M5005.784-104.414a.565.565,0,0,1,.71-.367.565.565,0,0,1,.367.71c-.782,2.457.827,4.233,4.321,4.87a19.876,19.876,0,0,0,7.382-.187l.263-.052a.565.565,0,0,1,.654.406l.724,2.629.1.374c.121.484,1.022.536,2.106.178l.137-.047c.091-.033.184-.068.277-.106.551-.226.787-.42.846-.585,0-.01.006-.02.009-.03l.007-.031a.1.1,0,0,1,0-.017l0-.036c0-.013,0-.026,0-.04l0-.046a.237.237,0,0,0,0-.025l-.007-.056c0-.01,0-.02-.006-.031l-.013-.069-.016-.079-.045-.193-.049-.206a3.941,3.941,0,0,1-.086-.486l-.007-.065-.152-.664-.217-.973a.565.565,0,0,1,.43-.674.565.565,0,0,1,.674.429l.349,1.55.017.074c.008.036.015.073.02.109l.01.093.01.08.014.084.019.093.023.105.044.186.028.124c.009.041.017.081.024.12l.021.117c.169,1.051-.167,1.63-1.515,2.183a5.953,5.953,0,0,1-2.128.47,1.76,1.76,0,0,1-1.9-1.205l-.1-.375-.6-2.161-.173.032a20.781,20.781,0,0,1-7.2.143l-.181-.032C5006.893-98.835,5004.758-101.191,5005.784-104.414Z" transform="translate(-5005.529 104.808)" fill="none"/>
    </clipPath>
    <clipPath id="clip-path-3">
      <path id="Path_52812" data-name="Path 52812" d="M4987.759-161.171a.564.564,0,0,1,.774-.2.565.565,0,0,1,.2.774l-.089.152c-.058.1-.114.2-.166.3l-.075.146q-.056.109-.105.215l-.064.141c-.748,1.678-.507,2.923,1.03,3.873l.043.026.55.261a.564.564,0,0,1,.269.751l-.018.035a3.615,3.615,0,0,0,1.542,4.593.564.564,0,0,1,.222.767.564.564,0,0,1-.767.222,4.834,4.834,0,0,1-2.254-5.516l.023-.067-.089-.043-.037-.02a3.7,3.7,0,0,1-2.044-3.174A6.241,6.241,0,0,1,4987.759-161.171Z" transform="translate(-4986.7 161.447)" fill="none"/>
    </clipPath>
    <clipPath id="clip-path-4">
      <path id="Path_52814" data-name="Path 52814" d="M4996.575-202.333a.565.565,0,0,1,.657.455.565.565,0,0,1-.454.657,57.34,57.34,0,0,0-5.81,1.373c-4.434,1.226-5.676,3.246-3.566,5.494a.565.565,0,0,1-.025.8.564.564,0,0,1-.8-.025c-2.835-3.02-1.041-5.937,4.081-7.353A58.448,58.448,0,0,1,4996.575-202.333Z" transform="translate(-4985.237 202.342)" fill="none"/>
    </clipPath>
    <clipPath id="clip-path-5">
      <path id="Path_52816" data-name="Path 52816" d="M4975.236-310.5a3.649,3.649,0,0,1,2.612-.809l.168,0,.173.008.09.005.185.012.193.015.2.018.208.021a1.94,1.94,0,0,1,1.531.951,2.3,2.3,0,0,1,.257.627,1.818,1.818,0,0,1,.053.31.564.564,0,0,1-.521.605.565.565,0,0,1-.6-.485l-.006-.055-.006-.032-.009-.044c0-.008,0-.017-.006-.026a1.2,1.2,0,0,0-.13-.32.818.818,0,0,0-.677-.407l-.2-.019-.187-.017-.178-.014-.168-.012-.082,0-.156-.007a2.747,2.747,0,0,0-1.964.5l-.093.07a1.046,1.046,0,0,0-.407.794,1.289,1.289,0,0,1-1.182,1.2l-1.018.083-1.244.106-1.285.114-.832.078-.772.075-.707.072-.722.078-.478.055-.421.052-.3.041-.26.038-.176.029c-1.044.181-1.68,1.425-1.527,3.263l.142,1.694.118,1.36.113,1.286.111,1.224.11,1.172.127,1.316.111,1.1.094.9.068.627.021.176q0,.043.01.086l.022.167.023.161.025.155.025.149.013.072.028.14.029.135.03.129.032.124c.016.06.034.119.051.175l.037.11a1.712,1.712,0,0,0,1.239,1.27l.09.021.046.009.095.017c.048.008.1.014.149.02l.1.01.107.007.111,0,.115,0h.058l.121,0,.062,0a.566.566,0,0,1,.583.547.566.566,0,0,1-.547.583c-1.874.06-2.9-.58-3.442-2.288l-.043-.143-.042-.148-.038-.153c-.05-.207-.095-.427-.135-.66l-.029-.178-.026-.183-.025-.188c0-.032-.008-.064-.012-.1l-.022-.2-.1-.9-.131-1.273-.11-1.118-.11-1.153-.129-1.4-.113-1.267-.135-1.568-.163-1.93c-.2-2.356.732-4.171,2.46-4.47l.134-.022.2-.031.232-.033.4-.052.377-.046.33-.038.541-.059.906-.093.664-.065,1.332-.124,1.329-.116,1.574-.131.3-.024a.157.157,0,0,0,.146-.136A2.168,2.168,0,0,1,4975.236-310.5Z" transform="translate(-4963.44 311.309)" fill="none"/>
    </clipPath>
    <clipPath id="clip-path-6">
      <path id="Path_52818" data-name="Path 52818" d="M5025.146-303.662l1.642-.078,1.684-.074,1.239-.05,1.506-.055,1.347-.042.983-.024.61-.01.392,0h.332l.185,0,.12,0,.1,0,.1.007.134.012.065.007.127.016.124.018c1.334.213,1.928.914,2.18,2.568l.021.153c0,.026.008.052.012.078l.019.161.018.166.016.172c0,.029.006.058.008.088l.013.18.013.186c0,.031,0,.063.006.1a.565.565,0,0,1-.533.6.565.565,0,0,1-.595-.533l-.016-.259-.018-.242-.013-.153-.013-.146-.015-.139-.015-.133c0-.022-.006-.043-.008-.064l-.018-.123-.019-.117-.021-.111c0-.018-.006-.036-.01-.054l-.022-.1c-.012-.05-.024-.1-.037-.144l-.026-.089c-.009-.029-.019-.057-.028-.084l-.03-.079a1.1,1.1,0,0,0-.8-.7l-.076-.019-.04-.009-.083-.016-.085-.014-.091-.012-.093-.01-.1-.009-.133-.009-.145-.006-.131,0-.261,0h-.378l-.524.007-.795.017-.7.019-1.227.04-1.354.051-1.312.054-1.645.073-1.261.059-1.093.054-.89.046-1.167.062-1.132.063-1.082.064-.519.032a.563.563,0,0,1-.6-.529.564.564,0,0,1,.528-.6l1.082-.066,1.14-.066,1.183-.065.905-.047Z" transform="translate(-5019 303.997)" fill="none"/>
    </clipPath>
    <clipPath id="clip-path-7">
      <path id="Path_52820" data-name="Path 52820" d="M5052.369-216.649a.565.565,0,0,1,.688.407l.056.223.054.229.155.7.451,2.06.1.444.059.237a.565.565,0,0,1-.407.688.564.564,0,0,1-.687-.407l-.061-.241-.123-.536-.5-2.3-.1-.424-.073-.309-.022-.086A.564.564,0,0,1,5052.369-216.649Z" transform="translate(-5051.944 216.667)" fill="none"/>
    </clipPath>
    <clipPath id="clip-path-8">
      <path id="Path_52822" data-name="Path 52822" d="M5060.571-209.153c4.6-.468,9.586,3.727,10.551,8.85a.564.564,0,0,1-.45.66.564.564,0,0,1-.659-.45c-.863-4.572-5.338-8.34-9.327-7.935a50.632,50.632,0,0,0-5.183.806.564.564,0,0,1-.668-.437.564.564,0,0,1,.437-.669A51.742,51.742,0,0,1,5060.571-209.153Z" transform="translate(-5054.823 209.189)" fill="none"/>
    </clipPath>
    <clipPath id="clip-path-9">
      <path id="Path_52824" data-name="Path 52824" d="M5088.714-128.148a.565.565,0,0,1,.661.449,7.9,7.9,0,0,1-.534,4.6l-.051.137a7.006,7.006,0,0,1-3.427,3.858l-.1.049-.034.015a11.7,11.7,0,0,1-2.567.715l-.173.026-5.68,1.043a.566.566,0,0,1-.65-.417l-.007-.036a.565.565,0,0,1,.417-.65l.037-.008,5.687-1.045.022,0a10.562,10.562,0,0,0,2.318-.6l.154-.061.078-.038a5.883,5.883,0,0,0,2.832-3.14l.036-.1a6.942,6.942,0,0,0,.534-4.132A.565.565,0,0,1,5088.714-128.148Z" transform="translate(-5076.142 128.159)" fill="none"/>
    </clipPath>
    <clipPath id="clip-path-10">
      <path id="Path_52826" data-name="Path 52826" d="M5008.47-176.327a.565.565,0,0,1,.67-.435.565.565,0,0,1,.435.67,1.274,1.274,0,0,1-.822.948,2.138,2.138,0,0,1-.387.115l-.1.018-.053.009-.115.017-.127.016-.144.017-.306.034-.15.02-.129.019-.216.034-.326.055-.269.048-.287.054-.3.058-.316.063-.662.137-.455.1-.344.076-.25.056-.49.113-.383.091-.37.091-.268.068-.257.067-.246.066-.231.064-.216.062-.134.04-.186.059-.114.038-.1.036-.094.035-.083.034-.073.032a.566.566,0,0,1-.751-.274.565.565,0,0,1,.275-.75l.086-.038.1-.039.109-.041.119-.042.129-.044.138-.045.147-.046.156-.047.164-.047.258-.072.366-.1.289-.075.3-.075.307-.075.418-.1.472-.108.388-.087.491-.106.459-.1.444-.09.423-.083.4-.074.365-.065.25-.042.154-.024.208-.03.123-.016.4-.045.161-.02.093-.014.082-.014.072-.014.063-.014.054-.015c.124-.038.173-.082.19-.142Z" transform="translate(-4999.765 176.774)" fill="none"/>
    </clipPath>
    <clipPath id="clip-path-11">
      <path id="Path_52828" data-name="Path 52828" d="M5014-151.774a.564.564,0,0,1,.615.508,2.06,2.06,0,0,1-1.117,1.9l-.034.018-.063.031-.079.035-.062.026-.106.042-.166.063-.249.089-.292.1-.56.186-.582.188-1.186.375-.552.172-.852.263-1.381.422-.519.157a.564.564,0,0,1-.7-.378.564.564,0,0,1,.343-.692l.088-.028,1.265-.384.861-.264.563-.174.651-.2.715-.226.705-.226.6-.2.382-.129.338-.118.126-.047.1-.038.052-.022.033-.017a1.016,1.016,0,0,0,.563-.784l0-.035A.566.566,0,0,1,5014-151.774Z" transform="translate(-5006.084 151.777)" fill="none"/>
    </clipPath>
    <clipPath id="clip-path-12">
      <path id="Path_52830" data-name="Path 52830" d="M5023.134-126.272a.565.565,0,0,1,.7-.378.565.565,0,0,1,.377.7,2.46,2.46,0,0,1-.651,1.065l-.037.034-.035.039a7.077,7.077,0,0,1-2.691,1.582l-.166.063-.333.122-1.59.567-.15.056a14.885,14.885,0,0,1-3.055.76.565.565,0,0,1-.637-.482.566.566,0,0,1,.482-.637,13.729,13.729,0,0,0,2.812-.7l.153-.057.44-.158,1.217-.433.3-.109a6.484,6.484,0,0,0,2.386-1.338l.066-.072.023-.023a1.335,1.335,0,0,0,.366-.544Z" transform="translate(-5014.864 126.673)" fill="none"/>
    </clipPath>
    <clipPath id="clip-path-13">
      <path id="Path_52832" data-name="Path 52832" d="M5040.08-118.584a4.305,4.305,0,0,1,2.055.466,3.312,3.312,0,0,1,1.382,2.613,3.242,3.242,0,0,1-.853,2.939,4.165,4.165,0,0,1-1.833,1l-.2.067-.249.078-.635.186-.87.252-.125.038a.566.566,0,0,1-.712-.364.565.565,0,0,1,.364-.711l.1-.03.325-.1.914-.263.309-.091.034-.011.181-.057.173-.057.162-.056.078-.028.149-.056.071-.028.136-.055.126-.054a1.973,1.973,0,0,0,.658-.408,2.14,2.14,0,0,0,.584-2.044,2.394,2.394,0,0,0-.827-1.785,3.341,3.341,0,0,0-1.521-.315,16.765,16.765,0,0,0-5.391.81.565.565,0,0,1-.711-.364.564.564,0,0,1,.364-.711,17.9,17.9,0,0,1,5.558-.866Z" transform="translate(-5033.921 118.586)" fill="none"/>
    </clipPath>
    <clipPath id="clip-path-14">
      <path id="Path_52834" data-name="Path 52834" d="M5043.839-195.545a.564.564,0,0,1,.794-.079.565.565,0,0,1,.079.8,1.711,1.711,0,0,1-.808.483l-.129.043-.14.044-.15.044-.162.045-.253.067-1.188.3-.2.053-.189.053-.091.026-.174.052-.166.052-.155.052q-.151.052-.283.1l-.127.051a1.952,1.952,0,0,0-.712.439,4.335,4.335,0,0,0-.757,2.432l-.019.213-.027.34-.068,1.036-.005.075a14.063,14.063,0,0,0,.994,5.93l.233.531.105.236.062.13.063.129.018.036a3.086,3.086,0,0,0,.579.827,4.66,4.66,0,0,0,.485.421l.126.094.136.1.148.1.079.055a2.566,2.566,0,0,0,2.338.163,2.894,2.894,0,0,0,1.9-2.116c.009-.037.019-.073.028-.11l.026-.109.022-.109c0-.018.006-.036.009-.055l.018-.11c.011-.074.02-.149.027-.226l.009-.118.007-.122c0-.021,0-.042,0-.063l0-.13v-.067l0-.139,0-.146-.007-.155,0-.081-.016-.256-.021-.28-.026-.306-.047-.516-.009-.105c-.006-.077-.012-.151-.017-.223l-.013-.208c0-.033,0-.066-.006-.1l-.007-.189,0-.179v-.086l-.058-1.413a.565.565,0,0,1,.542-.588.565.565,0,0,1,.585.5l0,.037.059,1.435c0,.241.012.494.035.8l.018.218.058.633.018.221.017.209.014.2.01.187.009.178q0,.043,0,.086l0,.165a5.524,5.524,0,0,1-.108,1.271l-.029.134c-.005.022-.011.045-.017.067l-.035.137a4.017,4.017,0,0,1-2.631,2.89,3.662,3.662,0,0,1-3.342-.3l-.094-.065-.177-.125a6.7,6.7,0,0,1-.867-.72,4.092,4.092,0,0,1-.73-1.013l-.076-.148-.075-.152-.079-.169-.179-.4-.158-.361a15.238,15.238,0,0,1-1.079-6.437l.027-.389.047-.736.022-.285.015-.174a5.38,5.38,0,0,1,1.039-3.182,3.614,3.614,0,0,1,1.659-.941l.183-.059.19-.058.1-.029.206-.058.106-.029.244-.065,1.091-.277.249-.064.065-.018.144-.04.131-.039.118-.037q.138-.045.241-.087l.085-.037.043-.02.052-.026Z" transform="translate(-5037.763 195.752)" fill="none"/>
    </clipPath>
    <clipPath id="clip-path-15">
      <path id="Path_52836" data-name="Path 52836" d="M5018.535-294.443a.564.564,0,0,1,.629.492l.068.562.064.549.04.36.06.531.054.523.035.345.049.512.031.339.029.337.028.336.027.335.038.5.022.336.023.337.021.338.019.34.02.342.017.345.017.348.021.529.014.358.018.546.01.371.01.377.012.577.008.393.006.4.007.616,0,.636,0,.88v.921l0,.965a1.815,1.815,0,0,1-.574,1.305l-.021.017-.023.017-.012.008-.027.016-.029.016-.051.022-.038.015-.04.014-.068.021-.076.02-.084.02-.093.019-.068.013-.109.019-.119.018-.223.03-.148.018-.333.037-.382.038-.515.046-1.065.086-1.267.1-1.566.111-1.8.118-.3.017-.314.013-.478.03-1.474.12-8.007.693-2.133.176-1.321.1-.705.05-.717.045-.428.022-.141.006a.565.565,0,0,1-.587-.542.565.565,0,0,1,.542-.587l.344-.016.342-.019.6-.039,1.066-.078.988-.078,2.035-.169,8.857-.764.72-.056.461-.028.391-.016,1.22-.077,1.312-.089,1.236-.089.764-.058.543-.043.739-.063.546-.05.294-.029.252-.026.226-.025.26-.032.11-.015.135-.02.091-.016.013-.018a.676.676,0,0,0,.12-.334l0-.045,0-.958v-.69l0-.792,0-.762-.006-.492-.006-.48-.008-.469-.009-.459-.011-.45-.012-.441-.013-.433-.015-.426-.017-.419-.019-.414-.02-.409c0-.068-.007-.135-.011-.2l-.022-.4-.012-.2-.025-.4-.026-.4-.028-.4-.03-.4-.033-.4-.034-.4-.036-.4-.039-.4-.039-.406-.043-.41-.045-.415-.047-.421-.075-.645-.08-.662A.566.566,0,0,1,5018.535-294.443Z" transform="translate(-4994.596 294.447)" fill="none"/>
    </clipPath>
    <clipPath id="clip-path-16">
      <path id="Path_52838" data-name="Path 52838" d="M5006.637-279a3.04,3.04,0,0,1,3.035.273,5.359,5.359,0,0,1,1.8,2.227.564.564,0,0,1-.26.755.565.565,0,0,1-.755-.261,4.309,4.309,0,0,0-1.406-1.78,1.926,1.926,0,0,0-1.874-.221,2.475,2.475,0,0,0-.567.437l-.064.068a2.763,2.763,0,0,0-.865,1.6,2.737,2.737,0,0,0,1.137,2.175l.077.064.076.062.116.091.081.061.085.062.091.064.148.1.166.111.328.213.508.327.225.148.193.131.13.092.083.06.163.122.041.032a19.4,19.4,0,0,0,1.891,1.268.566.566,0,0,1,.2.773.565.565,0,0,1-.773.2,20.476,20.476,0,0,1-2-1.346l-.111-.085-.074-.055-.115-.083-.125-.086-.136-.092-.271-.177-.591-.379-.263-.173-.173-.117-.105-.073-.1-.071-.094-.069-.091-.069-.132-.1-.088-.071-.088-.074a3.8,3.8,0,0,1-1.529-3.134,3.731,3.731,0,0,1,1.095-2.2l.07-.075A3.6,3.6,0,0,1,5006.637-279Z" transform="translate(-5004.541 279.288)" fill="none"/>
    </clipPath>
    <clipPath id="clip-path-17">
      <path id="Path_52840" data-name="Path 52840" d="M5034.384-282.042a3.006,3.006,0,0,1,3.15.938,3.788,3.788,0,0,1,.779,3.117,5.382,5.382,0,0,1-1.394,2.656l-.066.067-4.078,4.539a.565.565,0,0,1-.767.069l-.031-.026a.563.563,0,0,1-.068-.767l.025-.031,4.086-4.547.021-.022a4.251,4.251,0,0,0,1.163-2.157,2.654,2.654,0,0,0-.539-2.174,1.868,1.868,0,0,0-1.947-.582,5.465,5.465,0,0,0-3.2,2.737.565.565,0,0,1-.759.25.566.566,0,0,1-.25-.759A6.6,6.6,0,0,1,5034.384-282.042Z" transform="translate(-5030.455 282.168)" fill="none"/>
    </clipPath>
  </defs>
  <g id="Vegan-Friendly" transform="translate(-403 -2253)">
    <path id="Subtraction_15" data-name="Subtraction 15" d="M1096-3612a34.777,34.777,0,0,1-13.624-2.75,34.884,34.884,0,0,1-11.125-7.5,34.879,34.879,0,0,1-7.5-11.125A34.784,34.784,0,0,1,1061-3647a34.786,34.786,0,0,1,2.75-13.624,34.881,34.881,0,0,1,7.5-11.125,34.878,34.878,0,0,1,11.125-7.5A34.777,34.777,0,0,1,1096-3682a34.776,34.776,0,0,1,13.623,2.75,34.881,34.881,0,0,1,11.125,7.5,34.883,34.883,0,0,1,7.5,11.125A34.783,34.783,0,0,1,1131-3647a34.78,34.78,0,0,1-2.75,13.623,34.883,34.883,0,0,1-7.5,11.125,34.887,34.887,0,0,1-11.125,7.5A34.776,34.776,0,0,1,1096-3612Zm0-69a33.781,33.781,0,0,0-13.234,2.672,33.888,33.888,0,0,0-10.807,7.287,33.889,33.889,0,0,0-7.286,10.808A33.786,33.786,0,0,0,1062-3647a33.785,33.785,0,0,0,2.672,13.234,33.887,33.887,0,0,0,7.286,10.807,33.882,33.882,0,0,0,10.807,7.286A33.781,33.781,0,0,0,1096-3613a33.781,33.781,0,0,0,13.234-2.672,33.882,33.882,0,0,0,10.807-7.286,33.887,33.887,0,0,0,7.286-10.807A33.786,33.786,0,0,0,1130-3647a33.786,33.786,0,0,0-2.672-13.234,33.887,33.887,0,0,0-7.286-10.808,33.888,33.888,0,0,0-10.807-7.287A33.781,33.781,0,0,0,1096-3681Z" transform="translate(-658 5935)" fill="#181E85"/>
    <g id="Group_5311" data-name="Group 5311" transform="translate(-2.758 1225.334)">
      <g id="Group_4073" data-name="Group 4073" transform="translate(436.984 1056.153)" clip-path="url(#clip-path)">
        <path id="Path_52807" data-name="Path 52807" d="M5025.823-221.213h4.611v8.544h-4.611Z" transform="translate(-5026.953 220.083)" fill="#181E85"/>
      </g>
      <g id="Group_4074" data-name="Group 4074" transform="translate(431.268 1081.326)" clip-path="url(#clip-path-2)">
        <path id="Path_52809" data-name="Path 52809" d="M5000.528-109.808h21.541v12.576h-21.541Z" transform="translate(-5001.659 108.678)" fill="#181E85"/>
      </g>
      <g id="Group_4075" data-name="Group 4075" transform="translate(427.014 1068.528)" clip-path="url(#clip-path-3)">
        <path id="Path_52811" data-name="Path 52811" d="M4981.7-166.447h7.5v14.663h-7.5Z" transform="translate(-4982.829 165.318)" fill="#181E85"/>
      </g>
      <g id="Group_4076" data-name="Group 4076" transform="translate(426.683 1059.288)" clip-path="url(#clip-path-4)">
        <path id="Path_52813" data-name="Path 52813" d="M4980.236-207.342H4994.5v11.2h-14.265Z" transform="translate(-4981.367 206.212)" fill="#181E85"/>
      </g>
      <g id="Group_4077" data-name="Group 4077" transform="translate(421.758 1034.666)" clip-path="url(#clip-path-5)">
        <path id="Path_52815" data-name="Path 52815" d="M4958.44-316.309h19.728v24.991H4958.44Z" transform="translate(-4959.571 315.179)" fill="#181E85"/>
      </g>
      <g id="Group_4078" data-name="Group 4078" transform="translate(434.312 1036.317)" clip-path="url(#clip-path-6)">
        <path id="Path_52817" data-name="Path 52817" d="M5014-309h21.4v6.776H5014Z" transform="translate(-5015.129 307.867)" fill="#181E85"/>
      </g>
      <g id="Group_4079" data-name="Group 4079" transform="translate(441.756 1056.051)" clip-path="url(#clip-path-7)">
        <path id="Path_52819" data-name="Path 52819" d="M5046.943-221.667h4.267v7.283h-4.267Z" transform="translate(-5048.074 220.537)" fill="#181E85"/>
      </g>
      <g id="Group_4080" data-name="Group 4080" transform="translate(442.406 1057.74)" clip-path="url(#clip-path-8)">
        <path id="Path_52821" data-name="Path 52821" d="M5049.822-214.189h18.57v11.815h-18.57Z" transform="translate(-5050.952 213.059)" fill="#181E85"/>
      </g>
      <g id="Group_4081" data-name="Group 4081" transform="translate(447.224 1076.05)" clip-path="url(#clip-path-9)">
        <path id="Path_52823" data-name="Path 52823" d="M5071.142-133.159h15.632v13.172h-15.632Z" transform="translate(-5072.272 132.029)" fill="#181E85"/>
      </g>
      <g id="Group_4082" data-name="Group 4082" transform="translate(429.966 1065.065)" clip-path="url(#clip-path-10)">
        <path id="Path_52825" data-name="Path 52825" d="M4994.765-181.774h12.082V-176h-12.082Z" transform="translate(-4995.896 180.645)" fill="#181E85"/>
      </g>
      <g id="Group_4083" data-name="Group 4083" transform="translate(431.394 1070.713)" clip-path="url(#clip-path-11)">
        <path id="Path_52827" data-name="Path 52827" d="M5001.083-156.777h10.8v6.864h-10.8Z" transform="translate(-5002.213 155.647)" fill="#181E85"/>
      </g>
      <g id="Group_4084" data-name="Group 4084" transform="translate(433.378 1076.386)" clip-path="url(#clip-path-12)">
        <path id="Path_52829" data-name="Path 52829" d="M5009.864-131.673H5021.5v7.281h-11.635Z" transform="translate(-5010.994 130.544)" fill="#181E85"/>
      </g>
      <g id="Group_4085" data-name="Group 4085" transform="translate(437.684 1078.213)" clip-path="url(#clip-path-13)">
        <path id="Path_52831" data-name="Path 52831" d="M5028.92-123.586h11.909v9.927H5028.92Z" transform="translate(-5030.05 122.456)" fill="#181E85"/>
      </g>
      <g id="Group_4086" data-name="Group 4086" transform="translate(438.552 1060.777)" clip-path="url(#clip-path-14)">
        <path id="Path_52833" data-name="Path 52833" d="M5032.763-200.752h11.956v19.273h-11.956Z" transform="translate(-5033.893 199.622)" fill="#181E85"/>
      </g>
      <g id="Group_4087" data-name="Group 4087" transform="translate(428.798 1038.476)" clip-path="url(#clip-path-15)">
        <path id="Path_52835" data-name="Path 52835" d="M4989.6-299.447h27.6v21.357h-27.6Z" transform="translate(-4990.727 298.317)" fill="#181E85"/>
      </g>
      <g id="Group_4088" data-name="Group 4088" transform="translate(431.045 1041.9)" clip-path="url(#clip-path-16)">
        <path id="Path_52837" data-name="Path 52837" d="M4999.541-284.288h9.246v11.882h-9.246Z" transform="translate(-5000.671 283.159)" fill="#181E85"/>
      </g>
      <g id="Group_4089" data-name="Group 4089" transform="translate(436.901 1041.25)" clip-path="url(#clip-path-17)">
        <path id="Path_52839" data-name="Path 52839" d="M5025.456-287.168h10.188v13.889h-10.188Z" transform="translate(-5026.585 286.038)" fill="#181E85"/>
      </g>
    </g>
  </g>
</svg>
