<svg xmlns="http://www.w3.org/2000/svg" width="420" height="420" viewBox="0 0 420 420" style="background-color:#f0faff"><title>TIS_Icons_NoName_Navy_RGB</title><path d="M210.4216,176.3316c1.9113,3.5066,13.2834,23.5037,15.4583,27.522" fill="none" stroke="#1414b4" stroke-linecap="round" stroke-linejoin="round" stroke-width="5"/><path d="M300.6977,243.9591c11.2185,6.3661,10.9666,18.733,1.2778,30.39-5.2976,6.3739-13.4915,12.1151-14.9,10.1257" fill="none" stroke="#1414b4" stroke-linecap="round" stroke-linejoin="round" stroke-width="5"/><path d="M275.3542,195.2089c8.5723,2.5333,16.925,7.4913,13.452,19.36l-.9831,2.4526c7.7982,2.5473,12.537,12.7709,9.7218,21.2564" fill="none" stroke="#1414b4" stroke-linecap="round" stroke-linejoin="round" stroke-width="5"/><path d="M221.1615,194.0784a240.3732,240.3732,0,0,1,20.8333-12.3226c17.9653-9.2782,29.81-6.424,29.7015,8.7616" fill="none" stroke="#1414b4" stroke-linecap="round" stroke-linejoin="round" stroke-width="5"/><path d="M209.5268,204.6742c-1.6661-3.0818-6.605-11.1888-8.2851-14.2968" fill="none" stroke="#1414b4" stroke-linecap="round" stroke-linejoin="round" stroke-width="5"/><path d="M178.7661,271.2514c-10.8841-17.3507-7.6393-42.7322,6.6082-53.46,7.21-5.4292,16.2961-12.2078,21.0266-15.0666" fill="none" stroke="#1414b4" stroke-linecap="round" stroke-linejoin="round" stroke-width="5"/><path d="M197.7056,295.3641c3.1113,6.1054,7.2483,9.5306,13.0982,13.099a26.6614,26.6614,0,0,0,19.7265,3.5245,46.0383,46.0383,0,0,0,10.3752-4.34c7.0859-3.6706,5.78-1.8114,12.866-5.4819" fill="none" stroke="#1414b4" stroke-linecap="round" stroke-linejoin="round" stroke-width="5"/><path d="M266.3385,197.4935c-5.6869,1.8328-23.7987,13.1766-26.2,14.9s-4.68,3.8748-6.9366,2.28" fill="none" stroke="#1414b4" stroke-linecap="round" stroke-linejoin="round" stroke-width="5"/><path d="M280.9353,221.9733s-23.5624,11.5119-25.8825,12.0291-5.0006.0434-6.3833-1.7757" fill="none" stroke="#1414b4" stroke-linecap="round" stroke-linejoin="round" stroke-width="5"/><path d="M292.0289,246.06a59.26,59.26,0,0,1-10.9871,6.0432c-5.6674,2.2369-14.5945,7.0369-20.9136,6.3994a7.8571,7.8571,0,0,1-4.1038-1.0812" fill="none" stroke="#1414b4" stroke-linecap="round" stroke-linejoin="round" stroke-width="5"/><path d="M275.4951,254.4442c-6.6658,3.1076-10.4276,5.1847-15.5462,10.3186-1.8631,1.8686-3.643,3.9368-4.3567,6.2366-1.04,3.3519,1.0124,7.2,2.83,9.7871,2.3827,3.3928,4.5109,5.0583,9.1878,5.5555,3.8292.407,7.6854-1.3193,11.4852-3.08" fill="none" stroke="#1414b4" stroke-linecap="round" stroke-linejoin="round" stroke-width="5"/><path d="M216.9372,247.1912l3.7981,4.4576c4.0929,4.4459,7.0373,10.0439,12.1968,13.2738a14.3253,14.3253,0,0,0,13.9324,1.2311c3.9131-1.746,7.0591-4.6119,7.9769-8.6949,1.55-6.8959.9067-8.5457-1.3831-15.0941A60.645,60.645,0,0,0,239.23,220.6466c-4.5012-4.1816-9.8508-10.0077-15.5638-10.6386s-17.127,8.4944-20.2772,8.0594" fill="none" stroke="#1414b4" stroke-linecap="round" stroke-linejoin="round" stroke-width="5"/><path d="M241.0555,170.7369c-3.9193,2.2358-40.499,5.2114-40.499,5.2114s-16.4987,27.7581-19.81,29.9444" fill="none" stroke="#1414b4" stroke-linecap="round" stroke-linejoin="round" stroke-width="5"/><path d="M240.7013,168.2208c-8.1791-20.8229-20.6482-41.2562-36.169-57.3682-45.53-47.2645-72.9318-22.3614-68.1623,10.2113,3.0614,20.9078,8.5592,35.8159,14.6377,47.3268,8.6813,16.44,17.1051,29.7786,27.6,39.056" fill="none" stroke="#1414b4" stroke-linecap="round" stroke-linejoin="round" stroke-width="5"/><path d="M237.6673,267.7235c2.844-.5,13.2441,20.4332,13.846,23.2575.9235,4.3335,1.3833,8.8049,3.0142,12.9247s4.7266,7.9756,9.0138,9.0946,22.599-12.2559,22.599-12.2559,5.16-4.5694.9449-14.0532" fill="none" stroke="#1414b4" stroke-linecap="round" stroke-linejoin="round" stroke-width="5"/><path d="M189.5358,179.5836a11.054,11.054,0,0,1,18.1915-11.9669" fill="none" stroke="#1414b4" stroke-linecap="round" stroke-linejoin="round" stroke-width="5"/><path d="M52.4453,218.8068l-6.5376.4935.8808,11.6708-5.3086.4007-.8813-11.6708-6.9322.5234,1.0469,13.8645-5.9673.45L27.18,213.7864l30.7124-2.3185,1.5669,20.7529-5.9673.4505Z" fill="#1414b4"/><path d="M47.6137,250.1107,59.8744,236.515l1.9634,7.2177-8.5146,8.9284.0693.2548L65.28,256.3846l1.9522,7.1752L49.75,257.9652l-12.226,13.7231-1.9639-7.2176,8.5342-9.025-.0694-.2548-11.9067-3.3723-1.9756-7.26Z" fill="#1414b4"/><path d="M73.7709,290.4442l-3.6054-7.2488L47.9467,294.2475l-3.0376-6.1063,22.2193-11.0521-3.606-7.2488,5.3579-2.665L79.1288,287.779Z" fill="#1414b4"/><path d="M71.893,312.2016l-2.1343-2.8544-8.6338,6.4545-4.0835-5.4624L81.71,291.8977l7.0078,9.3743a12.5509,12.5509,0,0,1,2.5737,5.7944,9.1942,9.1942,0,0,1-.7251,5.2393,10.4589,10.4589,0,0,1-3.2622,3.9768,9.9786,9.9786,0,0,1-5.2129,2.0291,9.0362,9.0362,0,0,1-5.5068-1.377l-5.4219,12.294-4.2944-5.7442Zm2.3413-6.2L76.5,309.0321a7.5765,7.5765,0,0,0,3.1905,2.6141,3.5789,3.5789,0,0,0,3.6357-.685,3.4036,3.4036,0,0,0,1.5933-3.1963,7.8277,7.8277,0,0,0-1.6529-3.791l-2.2656-3.0308Z" fill="#1414b4"/><path d="M96.4506,343.8472l-7.33-6.5894-6.4013,3.83L77.55,336.44,106.29,320.86l4.7441,4.2657-12.51,30.17-5.1695-4.6479Zm2.2573-5.0115L103,329.3229l-.1963-.1765-8.9389,5.3355Z" fill="#1414b4"/><path d="M151.3964,356.9729l-7.28-3.5422-10.8574,22.3149-6.1323-2.9839,10.8569-22.3147-7.28-3.5422,2.6182-5.3809,20.6924,10.068Z" fill="#1414b4"/><path d="M163.2167,375.3508l-3.4336-.9543-2.8867,10.3862-6.5708-1.8262,8.2476-29.6753,11.2763,3.1342a12.549,12.549,0,0,1,5.5791,3.012,9.1953,9.1953,0,0,1,2.6294,4.59,10.456,10.456,0,0,1-.15,5.1414,9.9732,9.9732,0,0,1-2.8848,4.7926,9.035,9.035,0,0,1-5.2,2.2768l3.2251,13.0439-6.91-1.92Zm-1.9375-6.3384,3.646,1.0133a7.576,7.576,0,0,0,4.1231.1183,3.5788,3.5788,0,0,0,2.458-2.7646,3.4041,3.4041,0,0,0-.6934-3.5037,7.8313,7.8313,0,0,0-3.6255-1.99l-3.646-1.0132Z" fill="#1414b4"/><path d="M192.6694,366.8547l-.5772,6.5305L203.75,374.416l-.4687,5.3033-11.6587-1.0307-.6118,6.9249,13.85,1.2246-.5269,5.9607-20.7309-1.833,2.7124-30.68,20.7309,1.8329-.5268,5.9608Z" fill="#1414b4"/><path d="M220.78,367.4324l.5747,6.5307,11.6592-1.0261.4668,5.3035-11.6592,1.0262.6094,6.9252,13.8506-1.219.5249,5.9609-20.732,1.8247-2.7006-30.6814,20.7319-1.8247.5249,5.961Z" fill="#1414b4"/><path d="M269.9433,351.3015a9.4786,9.4786,0,0,1,4.9009,2.4109,11.7433,11.7433,0,0,1,3.001,4.5671,11.42,11.42,0,0,1,.6718,5.31,9.1682,9.1682,0,0,1-2.1743,4.9075,12.3368,12.3368,0,0,1-5.3369,3.5195l-4.6641,1.7229,3.2935,8.9152-6.3149,2.3329-10.6734-28.8915,10.979-4.0559A11.9558,11.9558,0,0,1,269.9433,351.3015Zm1.4458,13.3735a4.24,4.24,0,0,0,.2236-4.093,4.0877,4.0877,0,0,0-2.7871-2.9105,7.1817,7.1817,0,0,0-4.1426.4047l-3.6323,1.3418,3.3394,9.0388,3.6323-1.3418A6.8839,6.8839,0,0,0,271.3891,364.675Z" fill="#1414b4"/><path d="M307.809,357.4184l3.0152,5.1687-17.1407,9.9989L278.164,345.9817l5.9668-3.4807,12.4663,21.4577Z" fill="#1414b4"/><path d="M328.644,339.3483l-7.4473,6.4559,3.0069,6.827-5.253,4.5537-11.8965-30.4491,4.8208-4.1792,28.3868,16.1541-5.253,4.5537Zm-4.6929-2.8613-8.9077-5.4385-.1992.1729,4.186,9.5313Z" fill="#1414b4"/><path d="M322.7914,312.394l4.8326-6.33,22.9575,3.3552.08-.105L334.539,297.0057l4.1118-5.3858,24.5161,18.7163-4.8857,6.4-22.31-2.9713-.08.1049,15.5283,11.8547-4.1118,5.3857Z" fill="#1414b4"/><path d="M356.57,269.6022l-3.5918,7.2556,22.24,11.01-3.0259,6.1121-22.24-11.01-3.5918,7.2557-5.3628-2.655,10.2095-20.6232Z" fill="#1414b4"/><path d="M360.5732,257.3412l6.2944,1.8338,3.2739-11.2367,5.1114,1.4893-3.274,11.2367,6.6744,1.9447,3.89-13.3489,5.7451,1.6738-5.8218,19.9812-29.57-8.6157,5.8213-19.9811,5.7451,1.6739Z" fill="#1414b4"/><path d="M359.98,236.379l1.0908-12.0948a14.0435,14.0435,0,0,1,2.4668-7.0229,12.4067,12.4067,0,0,1,5.6958-4.368,20.5925,20.5925,0,0,1,16.5406,1.5142,12.3221,12.3221,0,0,1,4.8178,5.36,14.281,14.281,0,0,1,1.1465,7.3709l-1.083,12.0072Zm25.5088-8.5228a7.8227,7.8227,0,0,0-1.5459-5.8827q-1.8691-2.2892-6.9971-2.7517t-7.3745,1.4333a7.8092,7.8092,0,0,0-2.5757,5.533l-.3715,4.1193,18.4931,1.6681Z" fill="#1414b4"/></svg>