<svg xmlns="http://www.w3.org/2000/svg" width="27" height="27" viewBox="0 0 27 27">
  <g id="Group_5606" data-name="Group 5606" transform="translate(-1097 -550)">
    <rect id="Rectangle_2420" data-name="Rectangle 2420" width="27" height="27" transform="translate(1097 550)" fill="#fff"/>
    <path id="Gift_Icon_-_Light___Font_Awesome-42" data-name="Gift Icon - Light _ Font Awesome-42" d="M15.406,20.25H14.1a2.745,2.745,0,0,0,.508-1.594A2.573,2.573,0,0,0,12.136,16c-1.4,0-2.218.843-3.636,3.181C7.082,16.843,6.269,16,4.864,16a2.573,2.573,0,0,0-2.474,2.656A2.745,2.745,0,0,0,2.9,20.25h-1.3A1.594,1.594,0,0,0,0,21.844v3.188a.533.533,0,0,0,.531.531h.531v4.781a1.594,1.594,0,0,0,1.594,1.594H14.344a1.594,1.594,0,0,0,1.594-1.594V25.563h.531A.533.533,0,0,0,17,25.031V21.844A1.594,1.594,0,0,0,15.406,20.25Zm-6.236-.12c1.644-2.766,2.191-3.068,2.965-3.068a1.606,1.606,0,0,1,0,3.188H9.1ZM4.864,17.063c.777,0,1.321.3,2.965,3.068l.07.12H4.861a1.605,1.605,0,0,1,0-3.187ZM6.375,30.875H2.656a.533.533,0,0,1-.531-.531V25.563h4.25Zm0-6.375H1.063V21.844a.533.533,0,0,1,.531-.531H6.375Zm3.187,6.375H7.438V21.313H9.563Zm5.313-.531a.533.533,0,0,1-.531.531H10.625V25.563h4.25ZM15.938,24.5H10.625V21.313h4.781a.533.533,0,0,1,.531.531Z" transform="translate(1102 539)" fill="#235896"/>
  </g>
</svg>
