<svg xmlns="http://www.w3.org/2000/svg" width="420" height="420" viewBox="0 0 420 420" style="background-color:#E7FFDE"><title>TIS_Icons_NoName_Navy_RGB</title><path d="M107.2529,359.04a13.1883,13.1883,0,0,1-1.0351-7.4068,19.2048,19.2048,0,0,1,2.8667-7.5786,19.4414,19.4414,0,0,1,5.64-5.9135,13.14,13.14,0,0,1,14.9526-.06,12.95,12.95,0,0,1,6.3111,13.3995,19.9385,19.9385,0,0,1-2.937,7.69,19.3251,19.3251,0,0,1-5.6094,5.9065,12.9619,12.9619,0,0,1-7.0811,2.2532,15.2928,15.2928,0,0,1-13.1079-8.2912Zm14.4532,1.1075a12.6178,12.6178,0,0,0,5.2085-4.9374,13.1185,13.1185,0,0,0,2.2329-6.86,5.94,5.94,0,0,0-6.7105-5.9847,8.2,8.2,0,0,0-3.894,1.8136,14.9475,14.9475,0,0,0-3.251,3.7253,12.6649,12.6649,0,0,0-2.168,6.7969,6.0189,6.0189,0,0,0,8.5821,5.4462Z" fill="#1414b4"/><path d="M149.0386,370.6678l-3.3374-1.2511-3.7842,10.094-6.3858-2.3941,10.8121-28.84,10.9589,4.1087a12.5532,12.5532,0,0,1,5.2945,3.4885,9.1934,9.1934,0,0,1,2.2173,4.802,10.452,10.452,0,0,1-.6,5.1088,9.9768,9.9768,0,0,1-3.2925,4.5217,9.036,9.036,0,0,1-5.3789,1.8132l2.0713,13.276-6.7159-2.5177Zm-1.3755-6.4835,3.543,1.3284a7.5742,7.5742,0,0,0,4.0966.4786,3.5784,3.5784,0,0,0,2.6905-2.539,3.4029,3.4029,0,0,0-.3838-3.5508,7.8329,7.8329,0,0,0-3.4375-2.2992l-3.5435-1.3283Z" fill="#1414b4"/><path d="M173.1592,387.1487a13.6573,13.6573,0,0,1-3.52-6.4954,20.5988,20.5988,0,0,1,2.5444-15.3668,13.6551,13.6551,0,0,1,5.6084-5.0678,13.0534,13.0534,0,0,1,8.0024-.9826,12.64,12.64,0,0,1,8.0269,4.2582,15.5971,15.5971,0,0,1,3.4541,8.29l-7.124-1.1488a6.2232,6.2232,0,0,0-1.56-3.5941,6.1466,6.1466,0,0,0-3.7134-1.8467,6.01,6.01,0,0,0-5.6972,1.8891,13.1331,13.1331,0,0,0-3.0015,7.0035q-.7705,4.7789.7607,7.7214a6.511,6.511,0,0,0,5.0494,3.5108,5.804,5.804,0,0,0,4.9272-1.1218,6.8427,6.8427,0,0,0,2.3364-4.1248l.0913-.5647-5.69-.9176.7774-4.8217,12.3369,1.9893-2.6831,16.6371-4.9956-.8056.6938-4.3-.3477-.056q-3.32,4.278-9.4008,3.2974A11.92,11.92,0,0,1,173.1592,387.1487Z" fill="#1414b4"/><path d="M223.1685,385.0325l-9.8457.4521-1.8707,7.2214-6.9448.3191,9.5313-31.27,6.3735-.2928,12.2695,30.2688-6.9443.3191Zm-1.9107-5.1538-3.6211-9.7881-.2637.012-2.62,10.0749Z" fill="#1414b4"/><path d="M235.2578,360.2607l7.7129-1.9829,15.96,16.8406.1279-.0328L254.0078,355.44l6.5625-1.6871,7.68,29.8726-7.7988,2.0048-15.688-16.1379-.128.0327L249.5,388.4463l-6.5625,1.687Z" fill="#1414b4"/><path d="M267.2915,350.64l6.335-2.7554,12.2851,28.2438-6.3349,2.7554Z" fill="#1414b4"/><path d="M300.6021,366.6487a13.76,13.76,0,0,1-7.2085-2.3351,19.7813,19.7813,0,0,1-8.4644-13.3627,13.7905,13.7905,0,0,1,.9805-7.4963,13.21,13.21,0,0,1,5.2837-5.9251,12.5248,12.5248,0,0,1,9.1665-2.0564,14.7839,14.7839,0,0,1,8.1338,4.5357l-5.6128,3.5553a7.139,7.139,0,0,0-3.9629-2.0213,6.2387,6.2387,0,0,0-4.4483.9948,5.9067,5.9067,0,0,0-3.0073,5.16A15.3685,15.3685,0,0,0,299.15,359.834a5.918,5.918,0,0,0,5.939-.5327,6.1168,6.1168,0,0,0,2.749-3.5124,7.27,7.27,0,0,0,.0073-4.2234l5.5381-3.5081a14.18,14.18,0,0,1,.5518,9.052,12.4806,12.4806,0,0,1-5.7183,7.2942A13.21,13.21,0,0,1,300.6021,366.6487Z" fill="#1414b4"/><path d="M235.1974,227.2941c6.4186-7.5431,5.8772-13.0457,14.4506-16.9464,4.1412-1.8849,12.0013-.8364,12.3086,3.3576" fill="none" stroke="#1414b4" stroke-linecap="round" stroke-linejoin="round" stroke-width="5"/><path d="M307.9635,225.8789c-3.16,7.3389-11.9907,16.4654-16.0875,21.4151-5.6023,6.7686-12.7092,16.2043-28.3947,28.5743-9.0929,7.1709-37.0051,27.7378-77.3455,27.5325-20.1123-.1024-32.2673-2.4226-49.8017-13.1555-13.1314-8.0378-28.1211-36.54-24.02-51.4507" fill="none" stroke="#1414b4" stroke-linecap="round" stroke-linejoin="round" stroke-width="5"/><path d="M212.8855,250.6345c11.3951,2.5436,11.3531,3.0589,22.1284-1.8607,5.9-2.6939,10.4473-4.5978,15.5858-8.8535,11.7383-9.7215,6.8066-5.4515,19.0806-14.2779,9.47-6.81,16.7037-16.9609,28.6015-16.2381a12.0167,12.0167,0,0,1,10.1535,7.15" fill="none" stroke="#1414b4" stroke-linecap="round" stroke-linejoin="round" stroke-width="5"/><path d="M286.9962,210.8841c-1.8511-3.7-5.7381-6.4974-9.6239-6.6429-6.2174-.2327-10.5117,5.4651-15.4155,9.8136,0,0-17.0735,19.5357-21.9954,21.6326s-13.4852,6.1216-13.7214,6.2478" fill="none" stroke="#1414b4" stroke-linecap="round" stroke-linejoin="round" stroke-width="5"/><path d="M122.3377,215.5641c11.1142-9.7619,30.8311-9.92,41.6337-1.7763,4.2235,3.1836,9.844,3.09,14.9125,3.0982,3.8873.0066,7.72-.9376,11.5383-1.7643,9.8515-2.1334,20.8479-13.86,29.8431-9.0952,20.5011,10.8592,3.1132,32.2577-20.1143,43.2133-2.6567,1.2531-29.4631,12.6954-42.2456,8.3875" fill="none" stroke="#1414b4" stroke-linecap="round" stroke-linejoin="round" stroke-width="5"/><path d="M131.1188,195.7969c.7853-26.8488,7.8383-42.8715,16.6256-52.0673a85.492,85.492,0,0,1,58.7167-25.8747c47.4024-1.3817,63.7246,18.6414,66.7535,21.9107,7.96,8.5914,8.5976,28.4968,9.7716,40.1675" fill="none" stroke="#1414b4" stroke-linecap="round" stroke-linejoin="round" stroke-width="5"/><path d="M271.4154,156.6447c.2083,9.5487-5.8188,19.2553-5.6105,28.804,3.7457-.6632,14.0912,1.0867,14.0912,1.0867" fill="none" stroke="#1414b4" stroke-linecap="round" stroke-linejoin="round" stroke-width="5"/><path d="M132.695,194.1622c7.3264-14.2634,25.61-32.4835,62.5838-15.3383,46.44,21.5345,61.3925-25.6378,68.7878-28.5033" fill="none" stroke="#1414b4" stroke-linecap="round" stroke-linejoin="round" stroke-width="5"/><path d="M150.5346,164.4953c19.1169-16.8372,65.6723-26.6232,103.5137-21.38" fill="none" stroke="#1414b4" stroke-linecap="round" stroke-linejoin="round" stroke-width="5"/><path d="M224.9429,175.7768c6.9382-6.9257,13.083-15.7286,15.8144-25.1436" fill="none" stroke="#1414b4" stroke-linecap="round" stroke-linejoin="round" stroke-width="5"/><path d="M197.0253,172.3711A47.5985,47.5985,0,0,0,213.8289,150.56" fill="none" stroke="#1414b4" stroke-linecap="round" stroke-linejoin="round" stroke-width="5"/><path d="M165.1284,139.8872l21.2555.6871" fill="none" stroke="#1414b4" stroke-linecap="round" stroke-linejoin="round" stroke-width="5"/><path d="M203.2558,128.8159a77.5607,77.5607,0,0,1,22.6936,5.1721" fill="none" stroke="#1414b4" stroke-linecap="round" stroke-linejoin="round" stroke-width="5"/></svg>