<svg xmlns="http://www.w3.org/2000/svg" width="420" height="420" viewBox="0 0 420 420" style="background-color:#f0faff"><title>TIS_Icon_Recyclable</title><path d="M239.941,334.0676c-21.0492,0-38.3817-7.3584-50.6751-14.9642-20.7942-12.8649-38.3367-33.32-46.9263-54.7167-3.5847-8.93-9.9279-51.0663-3.2751-61.2236,4.9855-7.612,10.2167-9.1036,13.7289-9.0133,5.0783.13,9.8675,3.6108,13.4853,9.8019,3.5152,6.0159,6.2775,15.85,7.1893,22.4555.6979,5.0551,4.7054,13.611,9.7456,20.8064,5.4577,7.7912,11.2328,12.76,15.0715,12.9682a2.5,2.5,0,0,1-.27,4.9927c-7.5284-.4077-15.0705-9.6309-18.8963-15.0923-5.5345-7.9009-9.7957-17.14-10.6034-22.9912-.8238-5.9674-3.4-15.2211-6.5533-20.6167-2.7117-4.6405-6.013-7.2423-9.2959-7.3261-3.2121-.083-6.4707,2.2536-9.4187,6.7544-5.2378,7.9969.1531,47.7045,3.7326,56.6213,8.0838,20.1372,25.295,40.1879,44.9169,52.3276,17.2523,10.6738,44.9708,20.8386,79.0482,8.6484a2.5,2.5,0,0,1,1.684,4.708A96.5386,96.5386,0,0,1,239.941,334.0676Z" fill="#1414b4"/><path d="M205.7421,265.1237a2.5,2.5,0,0,1-.5941-4.9285c3.97-.9746,7.1718-3.7866,9.7886-8.5964,5.4709-10.0559,7.23-26.5572,7.0524-38.6468-.2562-17.4129-8.4041-40.7546-23-49.7156-6.076-3.73-10.6942-4.5924-15.16-5.426-4.3362-.8095-8.82-1.6465-14.1349-4.9722-4.6976-2.9393-6.6419-7.53-5.3342-12.5947,1.83-7.0891,9.6494-13.2049,17.4729-13.6918,11.2832-1.7828,27.0315,2.489,42.1659,11.4437,15.3627,9.09,42.9259,40.0468,37.2846,92.1466a2.5,2.5,0,1,1-4.971-.5381c5.3671-49.5676-20.4556-78.7826-34.86-87.3053-16.7392-9.9045-31.0946-12.0678-38.9474-10.7909a2.4945,2.4945,0,0,1-.2671.0289c-6.3488.3417-11.8666,5.4243-13.0369,9.9569-.7579,2.9351.3,5.326,3.1451,7.1062,4.5117,2.823,8.1673,3.5053,12.4,4.2955a44.2411,44.2411,0,0,1,16.8589,6.08c9.6431,5.92,15.5626,16.2789,18.83,23.9264a82.4548,82.4548,0,0,1,6.553,29.9767c.0907,6.1742-.1933,27.3856-7.66,41.11-3.2807,6.03-7.6507,9.7522-12.9886,11.0627A2.5069,2.5069,0,0,1,205.7421,265.1237Z" fill="#1414b4"/><path d="M306.4793,301.0322a2.5,2.5,0,0,1-1.94-4.0747c18.6723-23.022,25.3766-59.1524,15.5947-84.043a2.4607,2.4607,0,0,1-.0824-.2467c-.0383-.1363-4.0685-14.0642-15.27-17.3218a10.729,10.729,0,0,0-7.2347.4921,2.5168,2.5168,0,0,1-3.4307-1.1873c-3.3606-7.4244-9.511-9.8711-16.8741-6.7132a2.5,2.5,0,0,1-3.2965-1.3443c-.1064-.25-2.8091-6.3971-9.4624-6.3424-5.1507.05-7.4772,2.8517-7.5737,2.971a2.5156,2.5156,0,0,1-3.5006.405,2.4852,2.4852,0,0,1-.45-3.47c.151-.1972,3.7853-4.83,11.475-4.9056a15.0349,15.0349,0,0,1,12.97,7.2907c8.3519-2.683,15.8188.2628,20.2126,7.9738a15.7235,15.7235,0,0,1,8.5608.0293c13.397,3.8957,18.1556,18.9491,18.6541,20.6527,10.3265,26.4336,3.283,64.6306-16.4088,88.9092A2.4954,2.4954,0,0,1,306.4793,301.0322Z" fill="#1414b4"/><path d="M281.7676,235.288a2.5022,2.5022,0,0,1-2.4571-2.9761c3.1949-16.4886-1.6365-39.109-5.2285-45.4379a2.5,2.5,0,0,1,4.3485-2.4681c4.58,8.0693,9.0279,32.14,5.7887,48.8572A2.5009,2.5009,0,0,1,281.7676,235.288Z" fill="#1414b4"/><path d="M303.3955,241.1635a2.5019,2.5019,0,0,1-2.3283-3.41c3.8409-9.841.0135-34.4941-6.6052-42.5463a2.5,2.5,0,0,1,3.8625-3.1751c7.73,9.4045,11.88,36.062,7.4005,47.5393A2.5009,2.5009,0,0,1,303.3955,241.1635Z" fill="#1414b4"/><path d="M214.7913,256.2341a2.4957,2.4957,0,0,1-.8454-.148c-6.5555-2.3559-15.6921-12.8347-13.9939-32.0467a38.1347,38.1347,0,0,1,20.7118-31.31,2.5,2.5,0,0,1,2.0394,4.5652c-.6782.3071-16.0292,7.4831-17.7706,27.185-1.6122,18.2394,7.4149,25.7189,10.7044,26.901a2.5006,2.5006,0,0,1-.8457,4.8536Z" fill="#1414b4"/><path d="M205.3677,184.5212a10.8832,10.8832,0,0,1-3.9768-.88,2.5,2.5,0,1,1,1.8456-4.6469,6.14,6.14,0,0,0,2.06.5324c-.0713-.38-.4176-.95-1.7184-1.88-.6079-.427-62.5252-43.9357-75.0385-52.76-3.0217-2.1309-6.3964-4.5623-7.2912-5.2079-.79-.3069-1.42-.2351-1.7091.2035-.2428.3684-.2466.9946.47,1.6472a2.5,2.5,0,1,1-3.3651,3.698,6.2079,6.2079,0,0,1-1.2809-8.0957c1.42-2.1555,4.4921-3.5851,8.156-1.9194a2.5,2.5,0,0,1,.43.25c.0034.0024,3.9753,2.8729,7.4716,5.3385,12.51,8.8219,74.4238,52.3282,75.0477,52.7666,3.9424,2.8169,4.0325,5.4266,3.7587,7.1457l-.0145.0942a2.4978,2.4978,0,0,1-.2517.9428A4.8167,4.8167,0,0,1,205.3677,184.5212Z" fill="#1414b4"/><path d="M146.4744,135.6075a2.5006,2.5006,0,0,1-2.1619-3.7519c.0862-.15,5.9523-10.5191,2.2-17.1456-.69-1.2191-3.2836-3.3227-4.9374-3.4217-2.2706-.13-3.4532,2.5775-3.9567,4.2067-.8746,2.83-.786,7.9382-.678,9.6675a2.5,2.5,0,0,1-4.99.3145c-.0184-.2908-.4347-7.1688.8909-11.4581,1.57-5.0794,4.9453-7.9666,9.0324-7.7216,3.7462.2241,7.6933,3.66,8.99,5.9488,5.1755,9.14-1.9189,21.589-2.2234,22.1145A2.4992,2.4992,0,0,1,146.4744,135.6075Z" fill="#1414b4"/><path d="M187.5347,212.2652a13.6774,13.6774,0,0,1-2.1493-.181,2.5,2.5,0,1,1,.7876-4.9375,5.0713,5.0713,0,0,0,2.6517-.0761,2.9029,2.9029,0,0,0,1.3169-1.1047c-1.3809-1.4992-4.0336-4.1614-6.1025-6.2377-1.85-1.8568-3.7635-3.7769-5.1612-5.2389-2.3488-2.457-3.6427-3.81-2.49-5.6511a2.5,2.5,0,0,1,2.89-1.0512l18.5973,6.03c.2758-.4382.712-1.074,1.147-1.7058.3923-.57.7836-1.1361,1.0221-1.517,1.465-2.3391,2.3313-4.2824.1216-8.005a2.5,2.5,0,1,1,4.3-2.5522c3.9369,6.6322,1.1539,11.0758-.1836,13.2113-.2667.4259-.7024,1.0608-1.1411,1.6981-.3069.4458-.6156.8929-.8536,1.2545a13.1323,13.1323,0,0,1-1.0841,1.9632,2.4992,2.4992,0,0,1-2.89,1.0512l-11.4144-3.7008c.2325.2335.4609.4627.6822.6848,1.8743,1.881,3.8124,3.826,5.2284,5.3084,2.3183,2.4271,3.85,4.0305,2.3214,5.9183a4.9086,4.9086,0,0,0-.2711.4328,8.5326,8.5326,0,0,1-4.1279,3.8342A8.3453,8.3453,0,0,1,187.5347,212.2652Z" fill="#1414b4"/><path d="M98.9984,151.3231a2.4956,2.4956,0,0,1-1.9709-.96c-4.8911-6.2538-1.143-11.7654,1.0964-15.0585.47-.6908.9136-1.3434,1.2256-1.9044,1.2786-2.297,3.0674-1.6587,12.5937,2.1926l-7.4666-7.7756a2.5,2.5,0,0,1-.3813-2.947l.08-.1431c2.4084-4.3321,4.9235-7.506,13.3876-5.7488a2.5,2.5,0,1,1-1.0164,4.8955c-4.6084-.9566-5.846-.2813-7.1653,1.8316L123.8174,140.74a2.5,2.5,0,0,1-2.783,4.0316c-7.1249-3.0348-15.0963-6.2635-18.3094-7.3448q-.2278.3406-.4666.69c-2.44,3.588-3.8077,5.95-1.2925,9.1664a2.5,2.5,0,0,1-1.9675,4.04Z" fill="#1414b4"/><path d="M182.4368,216.2851a7.1666,7.1666,0,0,1-4.0838-1.2179,2.5,2.5,0,0,1,2.9389-4.0452,2.3523,2.3523,0,0,0,1.844.1292,3.5846,3.5846,0,0,0-.1216-.7912,2.5,2.5,0,0,1,4.828-1.3c1.0092,3.7474-.9666,5.5866-1.8629,6.2035A6.232,6.232,0,0,1,182.4368,216.2851Z" fill="#1414b4"/><path d="M179.8206,215.5447a2.4892,2.4892,0,0,1-1.5082-.5077c-1.2091-.9162-7.27-5.1536-14.9436-10.5184-29.8612-20.8768-62.1425-43.5718-67.1939-48.61a2.5,2.5,0,0,1-.3078-.373,6.5461,6.5461,0,0,1-1.0542-5.9848,5.114,5.114,0,0,1,3.534-3.1466,2.5,2.5,0,0,1,1.2971,4.8289.3627.3627,0,0,0-.1477.0665c-.029.0546-.07.4861.3923,1.2469,5.8577,5.5864,45.1358,33.0467,66.3452,47.8747,8.0191,5.6065,13.813,9.6571,15.0986,10.6315a2.5,2.5,0,0,1-1.5118,4.4925Z" fill="#1414b4"/><path d="M82.4858,325.1369l-2.4-2.6348-7.9692,7.26L67.5239,324.72,90.293,303.9787l7.8818,8.6523a12.5547,12.5547,0,0,1,3.1221,5.5181,9.1925,9.1925,0,0,1-.2154,5.2849,10.45,10.45,0,0,1-2.8623,4.2739,9.9721,9.9721,0,0,1-4.9917,2.5237,9.0349,9.0349,0,0,1-5.6142-.8379l-4.2075,12.761-4.83-5.302Zm1.731-6.3977,2.5478,2.7974a7.5767,7.5767,0,0,0,3.4283,2.2932,3.5786,3.5786,0,0,0,3.5522-1.0335,3.403,3.403,0,0,0,1.2769-3.3354,7.8344,7.8344,0,0,0-2.0117-3.6136L90.4619,313.05Z" fill="#1414b4"/><path d="M111.9321,333.632l-3.9717,5.2163,9.3125,7.09-3.225,4.236-9.3125-7.09-4.2115,5.5315,11.063,8.4226-3.625,4.7609L91.4028,349.1921l18.6577-24.5059L126.62,337.2934l-3.625,4.7612Z" fill="#1414b4"/><path d="M123.1338,368.759a13.7573,13.7573,0,0,1-1.7339-7.3763,19.7792,19.7792,0,0,1,7.05-14.16,13.7865,13.7865,0,0,1,6.9214-3.042,13.2092,13.2092,0,0,1,7.8047,1.4527,12.5266,12.5266,0,0,1,6.5049,6.7778,14.781,14.781,0,0,1,.3305,9.3066l-5.9477-2.9609a7.14,7.14,0,0,0-.3223-4.437,6.2379,6.2379,0,0,0-3.1538-3.2905,5.9061,5.9061,0,0,0-5.9722.0986,15.37,15.37,0,0,0-6.4028,12.86,5.9183,5.9183,0,0,0,3.53,4.8051,6.1182,6.1182,0,0,0,4.4287.5335,7.27,7.27,0,0,0,3.6167-2.18l5.8686,2.9221a14.18,14.18,0,0,1-7.4585,5.1582,12.48,12.48,0,0,1-9.2011-1.116A13.2065,13.2065,0,0,1,123.1338,368.759Z" fill="#1414b4"/><path d="M158.084,385.1191l2.8022-10.1358-4.3491-22.2473,6.87,1.8994,2.4888,14.6114.2119.0586,9.6406-11.2581,6.87,1.8994L167.46,376.8005l-2.8018,10.136Z" fill="#1414b4"/><path d="M188.2437,389.6406a13.7588,13.7588,0,0,1-4.358-6.1985,19.7782,19.7782,0,0,1,1.2657-15.7674,13.7843,13.7843,0,0,1,5.289-5.4021,13.2074,13.2074,0,0,1,7.7837-1.56,12.524,12.524,0,0,1,8.562,3.8655,14.7846,14.7846,0,0,1,3.7754,8.5132l-6.623-.5315a7.1382,7.1382,0,0,0-1.9522-3.9971,6.2387,6.2387,0,0,0-4.1533-1.8781,5.9051,5.9051,0,0,0-5.5049,2.3169,15.3691,15.3691,0,0,0-1.1494,14.32,5.917,5.917,0,0,0,5.0669,3.1435,6.1165,6.1165,0,0,0,4.3081-1.155,7.27,7.27,0,0,0,2.544-3.3713l6.5346.5246a14.1759,14.1759,0,0,1-4.999,7.5662,12.481,12.481,0,0,1-8.9541,2.3933A13.2089,13.2089,0,0,1,188.2437,389.6406Z" fill="#1414b4"/><path d="M239.18,384.5007l.6328,5.95L220.08,392.55l-3.2573-30.6274,6.87-.7305,2.58,24.6816Z" fill="#1414b4"/><path d="M265.5933,376.5319l-9.4346,2.8506-.0444,7.46-6.6548,2.0105,1.58-32.6523,6.1074-1.8452,19.3115,26.34-6.6548,2.0105Zm-3.1148-4.5286-5.9087-8.6027-.2524.0764-.0728,10.41Z" fill="#1414b4"/><path d="M271.3086,349.362l11.6431-6.22a10.073,10.073,0,0,1,4.7275-1.3284,6.9848,6.9848,0,0,1,3.9375,1.1143,8.1267,8.1267,0,0,1,2.7095,3.0173,6.588,6.588,0,0,1,.8364,4.3672,5.9511,5.9511,0,0,1-1.7114,3.3335l.145.2717a7.4515,7.4515,0,0,1,2.9028-.4033,7.1246,7.1246,0,0,1,6.0318,3.9612,9.7751,9.7751,0,0,1,1.1377,4.2312,8,8,0,0,1-1.1788,4.4705,10.11,10.11,0,0,1-4.1127,3.6936l-12.5352,6.6963Zm15.7275,5.8157a5.4968,5.4968,0,0,0,2.3228-2.1888,3.0626,3.0626,0,0,0-.1807-3.0461,2.9475,2.9475,0,0,0-2.42-1.7751,5.6393,5.6393,0,0,0-3.0811.7229l-3.8808,2.0732,3.3589,6.2871Zm7.4121,10.6069a5.71,5.71,0,0,0,2.3794-2.269,3.38,3.38,0,0,0-.248-3.3592,3.4259,3.4259,0,0,0-2.6738-2.0637,5.54,5.54,0,0,0-3.21.6672l-5.24,2.7989,3.7524,7.0244Z" fill="#1414b4"/><path d="M327.7964,341.9709l3.7192,4.6875-15.5449,12.3345-19.144-24.128,5.4116-4.2937,15.39,19.4676Z" fill="#1414b4"/><path d="M325.0742,317.9665l4.8711,4.3877,7.8335-8.6963,3.9556,3.5632-7.833,8.6963,5.1655,4.6528,9.3057-10.3308,4.4458,4.0049L338.89,339.7079l-22.8847-20.6135,13.9287-15.4639,4.4463,4.0052Z" fill="#1414b4"/><path d="M134.3719,169.4819a2.4888,2.4888,0,0,1-1.17-.2923l-34.46-18.2907a2.5,2.5,0,0,1,2.3441-4.4165l34.46,18.2907a2.5,2.5,0,0,1-1.1742,4.7088Z" fill="#1414b4"/><path d="M166.9478,185.6105a2.4961,2.4961,0,0,1-2.0134-1.0155l-23.1686-31.3889a2.5,2.5,0,1,1,4.0228-2.9692l23.1686,31.3889a2.5,2.5,0,0,1-2.0094,3.9847Z" fill="#1414b4"/></svg>