<svg xmlns="http://www.w3.org/2000/svg" xmlns:xlink="http://www.w3.org/1999/xlink" width="70" height="70" viewBox="0 0 70 70">
  <defs>
    <clipPath id="clip-path">
      <path id="Path_53088" data-name="Path 53088" d="M4493.074-254.329l.008.063,3.445,23.644a.565.565,0,0,1-.477.64.565.565,0,0,1-.635-.441l-.007-.037-3.447-23.66a1.231,1.231,0,0,0-1.3-1.09l-.048,0-18.155,2.542a1.235,1.235,0,0,0-1.006,1.391l.008.05.148,1.019a.565.565,0,0,1-.846.568,8.485,8.485,0,0,0-3.435-1.131,6.617,6.617,0,0,0-5.165,1.7,9.8,9.8,0,0,1,2.612,2.968.565.565,0,0,1-.2.773.565.565,0,0,1-.773-.2,7.874,7.874,0,0,0-6.57-4.126,15.118,15.118,0,0,0-6.42,1.143l-.231.09-.223.091c-2.75,1.147-3.874,2.531-4.405,5.906l-.042.274c-.061.418-.112.865-.158,1.345l-.029.325-.027.334-.025.344-.025.355-.023.365-.011.172,0,.2a34.014,34.014,0,0,0,3.671,15.107l.1.192a3.168,3.168,0,0,0,2.211,1.67l.082.015c.452.089.958.158,1.494.209l.27.024c2.36.19,5.193.018,6.441-.55a.564.564,0,0,1,.748.28.564.564,0,0,1-.28.748c-1.813.826-6.067.924-8.757.424l-.121-.023a4.287,4.287,0,0,1-3.086-2.267,34.986,34.986,0,0,1-3.908-15.827v-.246l.02-.32.021-.311.021-.3.033-.437.023-.281.024-.273.024-.265.027-.258.027-.25.028-.243.03-.236.032-.23.033-.223c.006-.037.012-.073.017-.109l.035-.214c.007-.035.013-.07.019-.1l.037-.205.04-.2c.054-.263.112-.511.176-.747l.049-.175a8.379,8.379,0,0,1,.57-1.482c.854-1.7,2.264-2.826,4.637-3.74a16.188,16.188,0,0,1,6.906-1.216,9.4,9.4,0,0,1,3.868,1.085.374.374,0,0,1,.039-.039,7.775,7.775,0,0,1,6.227-2.16,9.625,9.625,0,0,1,2.841.746l.047.021-.006-.046a2.366,2.366,0,0,1,1.893-2.6l.063-.012,18.189-2.547a2.36,2.36,0,0,1,2.593,1.934Zm-17.775,29.46.008.038.03.217a1.1,1.1,0,0,0,1.347.913.565.565,0,0,1,.641.478.565.565,0,0,1-.479.64,2.273,2.273,0,0,1-2.342-1.043l-.023-.042-.1.091a13.221,13.221,0,0,1-4.314,2.781l-.131.048a6.482,6.482,0,0,1-4.752-.157.565.565,0,0,1-.295-.743.566.566,0,0,1,.743-.294,5.352,5.352,0,0,0,3.924.129,12.485,12.485,0,0,0,4.771-3.319.565.565,0,0,1,.96.225Zm-8.418-24.511.037,0a5.036,5.036,0,0,1,4.18,2.653,6.264,6.264,0,0,1,.784,2.565,7.023,7.023,0,0,1-.111,1.358l-.039.205-.112.542-.024.121c-.17.9-.112,1.336.216,1.563a3.546,3.546,0,0,1-.492,6.337l-.087.035.028.057.026.049.033.055.061.1.078.116.173.249.153.219a4.755,4.755,0,0,1,.372.61,4.366,4.366,0,0,1,.254,3.235q.089-.182.17-.369.337-.775.6-1.579l.037-.116-.331-2.564a.566.566,0,0,1,.452-.626l.037-.006a.565.565,0,0,1,.626.451l.006.037.346,2.687a.576.576,0,0,1-.02.238,18.5,18.5,0,0,1-.712,1.926,8.617,8.617,0,0,1-2.155,3.006,3.885,3.885,0,0,1-2.023,3.5,6.513,6.513,0,0,1-1.451.657c-.175.055-.338.1-.481.132l-.078.017-.1.019-.03,0-.06.005-.025,0-.128-.017-.042-.011-.022-.008-.023-.011-.026-.016-.034-.023-.105-.075-.071-.111a.412.412,0,0,1-.079-.388l.017-.073.022-.087.118-.139.044-.05.032-.032.017-.013.007,0,.015-.007.021-.008.009,0a.585.585,0,0,1,.146-.046l.033,0,.067-.013.028-.006c.114-.026.247-.062.393-.108a5.374,5.374,0,0,0,1.2-.542,2.774,2.774,0,0,0,1.482-2.659l-.006-.083a2.514,2.514,0,0,1,.27-1.618l.035-.06a3.917,3.917,0,0,0,.518-3.943c-.013-.025-.025-.051-.041-.078l-.048-.084L4471-232.3l-.067-.1-.115-.169-.267-.38-.093-.138-.053-.081-.048-.075-.042-.069-.037-.065-.032-.062-.029-.06-.027-.06c0-.01-.008-.02-.012-.03l-.024-.061-.021-.064a.971.971,0,0,1,.573-1.287l.053-.021a2.416,2.416,0,0,0,.47-4.374l-.058-.04c-.8-.555-.924-1.364-.7-2.62l.041-.212.121-.586a5.95,5.95,0,0,0,.12-1.281v-.019l0-.05-.008-.065-.012-.078-.014-.089-.018-.1-.021-.1-.023-.109c0-.018-.009-.037-.014-.056a5.447,5.447,0,0,0-.526-1.367,3.917,3.917,0,0,0-3.291-2.077.566.566,0,0,1-.515-.612.566.566,0,0,1,.538-.516Z" transform="translate(-4444.48 256.341)" fill="none"/>
    </clipPath>
    <clipPath id="clip-path-2">
      <path id="Path_53090" data-name="Path 53090" d="M4497.271-144.586a.565.565,0,0,1,.771.209.565.565,0,0,1-.176.751l-.033.02a2.274,2.274,0,0,0-.634,1.095,2.254,2.254,0,0,0,.4,2.058l.034.045.069.087.07.082.07.078a2.106,2.106,0,0,0,1.357.682l.117.014a5.513,5.513,0,0,0,.6.028l.149,0,.156,0,.08,0,.166-.008.173-.011.181-.013.188-.015.3-.027.761-.076.238-.022.225-.018a11.534,11.534,0,0,0,4.674-1.394.565.565,0,0,1,.774.2.565.565,0,0,1-.2.774,12.572,12.572,0,0,1-5.019,1.538l-.361.03-.359.034-.709.072-.357.033-.163.014-.152.012-.145.01-.136.008-.128.006-.123,0-.117,0h-.273l-.1,0-.1-.006-.1-.008-.05,0-.1-.011-.1-.013-.1-.015a3.5,3.5,0,0,1-2.373-1.412,3.378,3.378,0,0,1-.583-3.045A3.168,3.168,0,0,1,4497.271-144.586Z" transform="translate(-4495.975 144.661)" fill="none"/>
    </clipPath>
    <clipPath id="clip-path-3">
      <path id="Path_53092" data-name="Path 53092" d="M4508.235-121.3a.565.565,0,0,1,.787.138.564.564,0,0,1-.138.787c-.336.236-.411.426-.347.908l.02.138,0,.027a2.091,2.091,0,0,0,.105.531l.018.049.047.082c.119.2.245.391.376.569l.078.105a2.494,2.494,0,0,0,.776.492,1.786,1.786,0,0,0,1.219.116l.061-.02a.565.565,0,0,1,.726.335.565.565,0,0,1-.335.725,3.279,3.279,0,0,1-3.332-.946,8.364,8.364,0,0,1-.62-.937.532.532,0,0,1-.035-.075,3.186,3.186,0,0,1-.2-.845l-.007-.078-.007-.051a1.866,1.866,0,0,1,.75-2.008Z" transform="translate(-4507.39 121.407)" fill="none"/>
    </clipPath>
    <clipPath id="clip-path-4">
      <path id="Path_53094" data-name="Path 53094" d="M4538.74-187.532a.565.565,0,0,1,.793.092.565.565,0,0,1-.091.794,11.679,11.679,0,0,1-2.889,1.683.565.565,0,0,1-.716-.354.565.565,0,0,1,.354-.716A10.756,10.756,0,0,0,4538.74-187.532Z" transform="translate(-4535.808 187.654)" fill="none"/>
    </clipPath>
    <clipPath id="clip-path-5">
      <path id="Path_53096" data-name="Path 53096" d="M4493-212.181a.565.565,0,0,1,.748.281l.129.287.123.281c.021.046.04.092.06.138l.114.272a10.87,10.87,0,0,1,.506,8.413l-.083.272c-.014.046-.028.092-.043.138a17.321,17.321,0,0,1-.952,2.258l-.1.206-.095.194-.092.183-.089.173-.086.163-.084.154-.083.146c-.068.118-.136.229-.2.332l-.081.122c-.082.119-.165.23-.252.336l-.058.068.274-.063.418-.1.433-.1.445-.11.535-.134.18-.047.153-.042.133-.039.079-.025.037-.012c.109-.036.2-.072.3-.114l.077-.034.04-.019.136-.066.3-.151.537-.277a.565.565,0,0,1,.76.247.564.564,0,0,1-.246.76l-.729.376-.177.088-.1.049-.1.044-.048.021c-.127.055-.253.1-.394.149l-.1.031-.1.031-.172.049-.128.035-.218.057-.428.107-.337.084-.33.081-.48.115-.464.108-.3.068-.294.065-.287.062-.281.059-.273.056-.271.053-.263.05-.259.047-.252.044-.126.021-.246.04-.241.037-.238.034-.233.031-.23.028-.113.013-.226.023-.223.02q-.166.014-.328.025l-.217.013c-.43.023-.847.029-1.261.017l-.207-.007c-.1,0-.207-.01-.31-.016l-.207-.014q-.154-.012-.311-.027l-.208-.022-.209-.024-.21-.027-.212-.03-.105-.016-.215-.034-.107-.018a3.552,3.552,0,0,1-2.231-2.553,3.771,3.771,0,0,1,1.415-4.044,2.412,2.412,0,0,1,.414-.229l.037-.016-.056-.036a3.405,3.405,0,0,1-1.675-2.867l0-.072a3.861,3.861,0,0,1,.908-2.124c1.075-1.4,2.7-2.16,4.051-1.506a3.54,3.54,0,0,1,1.714,2.905,12.409,12.409,0,0,1-.066,4.132l-.043.223-.049.228-.075.332-.107.463-.039.173-.052.237-.028.145-.026.136-.021.128-.019.121-.016.115c0,.019,0,.037-.007.056l-.011.109-.009.106c0,.035,0,.07-.006.1l0,.1v.158a1.728,1.728,0,0,0,.982,1.7,1.9,1.9,0,0,0,2.006-.289l.085-.08a4.064,4.064,0,0,0,.678-.883l.075-.129.076-.138c.014-.024.026-.048.04-.073l.08-.153.084-.163.088-.175.091-.187.1-.2a16.4,16.4,0,0,0,.892-2.11q.041-.133.082-.263l.076-.257c.861-2.964.688-4.768-.674-7.911l-.121-.273-.125-.28A.565.565,0,0,1,4493-212.181ZM4486.575-202h-.007a4.109,4.109,0,0,0-2.537.233,2.671,2.671,0,0,0-.948,2.913,1.019,1.019,0,0,0,.063.185l.036.083c.006.015.013.029.02.045l.047.094c.016.032.033.065.051.1l.057.1c.06.1.123.208.192.306a1.615,1.615,0,0,0,.847.728,14.389,14.389,0,0,0,3.87.163l.066-.006-.05-.033a2.9,2.9,0,0,1-1.2-2.383l0-.081v-.194c0-.169.013-.332.031-.5l.016-.13c.006-.044.013-.089.019-.135l.022-.141.026-.148.03-.156.035-.166.037-.177.043-.19.088-.382-.084-.01c-.24-.029-.48-.065-.717-.107Zm0-6.528c-.762-.369-1.874.151-2.662,1.177a2.82,2.82,0,0,0-.678,1.5,2.393,2.393,0,0,0,1.457,2.1,8,8,0,0,0,2.017.63l.027.005.261.03.262.033.4.053.009-.055a11.3,11.3,0,0,0,.026-3.241l-.025-.17A2.563,2.563,0,0,0,4486.578-208.526Z" transform="translate(-4481.876 212.232)" fill="none"/>
    </clipPath>
    <clipPath id="clip-path-6">
      <path id="Path_53098" data-name="Path 53098" d="M4610.421-134.915a.565.565,0,0,1,.582.547c0,.093.007.182.011.274l.026.584.009.236v.243l0,.055,0,.05-.007.046c0,.007,0,.014,0,.021l-.01.041c0,.007,0,.013,0,.02l-.012.038-.007.018-.016.036-.025.055-.032.058-.049.087a1.97,1.97,0,0,1-.293.372,2.272,2.272,0,0,1-.332.3,1.674,1.674,0,0,1-.57.254l-.094.023-.769.169-.411.1-.088.019-.181.038-.189.038-.2.038-.213.039-.34.059-.241.039-.25.04c-.544.085-1.125.167-1.706.244l-.762.1-11.215,1.873a.564.564,0,0,1-.643-.428l-.008-.036a.565.565,0,0,1,.428-.643l.036-.007,11.227-1.875.555-.07.234-.031.245-.033.487-.067c.324-.046.642-.092.946-.14l.36-.058.337-.057.21-.037.2-.037.187-.036.173-.035.082-.018.154-.035.275-.065.834-.184.04-.01a.605.605,0,0,0,.218-.088c.013-.009.024-.019.04-.03l.045-.04c.024-.023.052-.051.083-.083l.049-.052.021-.023.031-.039.022-.031.013-.022.008-.015,0-.012,0-.022,0-.019,0-.037v-.092l-.009-.254-.018-.367c-.008-.149-.014-.287-.018-.433A.565.565,0,0,1,4610.421-134.915Z" transform="translate(-4592.361 134.915)" fill="none"/>
    </clipPath>
    <clipPath id="clip-path-7">
      <path id="Path_53100" data-name="Path 53100" d="M4592.446-289.753c1.01.062,1.648,1.076.971,1.815a2.8,2.8,0,0,1-1.831.694l-.137.011-.093.006-.146.008-.162.007-.539.016-.186.007-.158.007-.138.009-.125.011-.081.009-.119.015c-1.085.153-1.845.771-1.794,1.252a.179.179,0,0,0,.068.125,2.258,2.258,0,0,0,1.2.209h.156l.441-.011.965-.036.257-.008.248-.006.238,0,.228,0h.22l.21,0a7.036,7.036,0,0,1,2.493.41c.716.273,1.217.683,1.245,1.28a.518.518,0,0,1,0,.055,1.23,1.23,0,0,1-.435.878l-.026.021-.034.03a5.054,5.054,0,0,1-3.287.8h-.349l-.121,0-.173,0-.169-.007-.173-.01-.3-.021-.514-.042-.787-.067-.21-.016-.2-.013-.1-.005-.192-.009-.186-.006c-1.513-.04-2.3.215-2.7.933a.565.565,0,0,1-.768.219.565.565,0,0,1-.22-.768,2.876,2.876,0,0,1,2.084-1.408,7.592,7.592,0,0,1,1.884-.1l.223.012.232.015.615.049.707.061.337.026.272.017.163.007.2.006.1,0,.207,0h.2l.193,0,.188-.006.091,0,.178-.01.086-.006.168-.014.161-.017a2.785,2.785,0,0,0,1.416-.459l.032-.028.037-.031.013-.012,0,0-.024-.022-.021-.019a1.7,1.7,0,0,0-.45-.241c-.1-.038-.2-.073-.307-.1l-.127-.036a5.187,5.187,0,0,0-.619-.121l-.15-.019c-.127-.014-.261-.026-.4-.035l-.172-.01-.089,0-.183-.006-.191,0h-.408l-.217,0-.345.008-1.359.048-.31.007a3.173,3.173,0,0,1-2.073-.45,1.3,1.3,0,0,1-.494-.911c-.127-1.207,1.15-2.246,2.761-2.473l.143-.019.094-.01.145-.013.1-.007.167-.009.264-.01.541-.016.2-.008.127-.007.083-.006a2.957,2.957,0,0,0,1.015-.228l.041-.022-.02,0-.032,0-.036,0a.564.564,0,0,1-.529-.6.565.565,0,0,1,.561-.531Z" transform="translate(-4584.858 289.754)" fill="none"/>
    </clipPath>
  </defs>
  <g id="UK-Made" transform="translate(-290 -2253)">
    <path id="Subtraction_14" data-name="Subtraction 14" d="M1096-3612a34.777,34.777,0,0,1-13.624-2.75,34.884,34.884,0,0,1-11.125-7.5,34.879,34.879,0,0,1-7.5-11.125A34.784,34.784,0,0,1,1061-3647a34.786,34.786,0,0,1,2.75-13.624,34.881,34.881,0,0,1,7.5-11.125,34.878,34.878,0,0,1,11.125-7.5A34.777,34.777,0,0,1,1096-3682a34.776,34.776,0,0,1,13.623,2.75,34.881,34.881,0,0,1,11.125,7.5,34.883,34.883,0,0,1,7.5,11.125A34.783,34.783,0,0,1,1131-3647a34.78,34.78,0,0,1-2.75,13.623,34.883,34.883,0,0,1-7.5,11.125,34.887,34.887,0,0,1-11.125,7.5A34.776,34.776,0,0,1,1096-3612Zm0-69a33.781,33.781,0,0,0-13.234,2.672,33.888,33.888,0,0,0-10.807,7.287,33.889,33.889,0,0,0-7.286,10.808A33.786,33.786,0,0,0,1062-3647a33.785,33.785,0,0,0,2.672,13.234,33.887,33.887,0,0,0,7.286,10.807,33.882,33.882,0,0,0,10.807,7.286A33.781,33.781,0,0,0,1096-3613a33.781,33.781,0,0,0,13.234-2.672,33.882,33.882,0,0,0,10.807-7.286,33.887,33.887,0,0,0,7.286-10.807A33.786,33.786,0,0,0,1130-3647a33.786,33.786,0,0,0-2.672-13.234,33.887,33.887,0,0,0-7.286-10.808,33.888,33.888,0,0,0-10.807-7.287A33.781,33.781,0,0,0,1096-3681Z" transform="translate(-771 5935)" fill="#181E85"/>
    <g id="Group_5313" data-name="Group 5313" transform="translate(-5.084 1226.464)">
      <g id="Group_4213" data-name="Group 4213" transform="translate(304.084 1047.086)" clip-path="url(#clip-path)">
        <path id="Path_53087" data-name="Path 53087" d="M4439.48-261.341h54.313v38.315H4439.48Z" transform="translate(-4440.61 260.212)" fill="#181E85"/>
      </g>
      <g id="Group_4214" data-name="Group 4214" transform="translate(315.72 1072.321)" clip-path="url(#clip-path-2)">
        <path id="Path_53089" data-name="Path 53089" d="M4490.975-149.661h14.338v8.626h-14.338Z" transform="translate(-4492.104 148.531)" fill="#181E85"/>
      </g>
      <g id="Group_4215" data-name="Group 4215" transform="translate(318.299 1077.576)" clip-path="url(#clip-path-3)">
        <path id="Path_53091" data-name="Path 53091" d="M4502.39-126.407h6.87v7.49h-6.87Z" transform="translate(-4503.519 125.277)" fill="#181E85"/>
      </g>
      <g id="Group_4216" data-name="Group 4216" transform="translate(324.72 1062.606)" clip-path="url(#clip-path-4)">
        <path id="Path_53093" data-name="Path 53093" d="M4530.808-192.654h6.108v4.98h-6.108Z" transform="translate(-4531.938 191.524)" fill="#181E85"/>
      </g>
      <g id="Group_4217" data-name="Group 4217" transform="translate(312.534 1057.053)" clip-path="url(#clip-path-5)">
        <path id="Path_53095" data-name="Path 53095" d="M4476.876-217.232h17.66v18.639h-17.66Z" transform="translate(-4478.006 216.102)" fill="#181E85"/>
      </g>
      <g id="Group_4218" data-name="Group 4218" transform="translate(337.5 1074.523)" clip-path="url(#clip-path-6)">
        <path id="Path_53097" data-name="Path 53097" d="M4587.361-139.915h20.949v8.41h-20.949Z" transform="translate(-4588.491 138.785)" fill="#181E85"/>
      </g>
      <g id="Group_4219" data-name="Group 4219" transform="translate(335.804 1039.536)" clip-path="url(#clip-path-7)">
        <path id="Path_53099" data-name="Path 53099" d="M4579.859-294.754h13.278v10.888h-13.278Z" transform="translate(-4580.988 293.624)" fill="#181E85"/>
      </g>
    </g>
  </g>
</svg>
