<svg xmlns="http://www.w3.org/2000/svg" xmlns:xlink="http://www.w3.org/1999/xlink" width="70" height="70" viewBox="0 0 70 70">
  <defs>
    <clipPath id="clip-path">
      <path id="Path_53272" data-name="Path 53272" d="M116.449-213.747a.565.565,0,0,1,.8-.064.565.565,0,0,1,.064.8,7.943,7.943,0,0,0-.708.976l-.074.12-.114.193-.34.592a4.421,4.421,0,0,1-2.225,2.1c-1.35.614-3.477.15-3.579-1.232a.565.565,0,0,1,.522-.6.565.565,0,0,1,.6.522c.026.361,1.238.625,1.984.286a3.277,3.277,0,0,0,1.67-1.556l.086-.148.213-.374.089-.154.083-.141.08-.133.04-.065A9.074,9.074,0,0,1,116.449-213.747Z" transform="translate(-110.268 213.946)" fill="none"/>
    </clipPath>
    <clipPath id="clip-path-2">
      <path id="Path_53274" data-name="Path 53274" d="M92.356-290.053h.175l.344,0,.337.006.166,0,.327.01q.243.008.478.02l.311.016.305.019a17.618,17.618,0,0,1,8.306,2.5l.262.152.132.078.267.16.135.082c3.343,2.046,6.632,8.787,5.677,12.257a.565.565,0,0,1-.694.395.565.565,0,0,1-.395-.694c.811-2.947-2.237-9.194-5.178-10.994l-.262-.159-.258-.153-.255-.148-.252-.142-.249-.137a16.048,16.048,0,0,0-6.576-2.013l-.284-.026-.144-.012-.292-.021q-.368-.025-.755-.042l-.313-.012-.32-.01-.327-.007-.334-.005-.341,0A26.265,26.265,0,0,0,81.2-286.489a28.425,28.425,0,0,0-5.976,3.665,35.194,35.194,0,0,0-4,3.645c-.389.416-.751.826-1.131,1.275l-.27.322-.956,1.163-1.426,1.654-.256.3c-.379.456-.7.868-.979,1.257a8.19,8.19,0,0,0-.865,1.459.565.565,0,0,1-.742.3.565.565,0,0,1-.3-.742,9.237,9.237,0,0,1,.983-1.669c.266-.373.567-.761.913-1.181l.177-.214.332-.39,1.273-1.475,1-1.221.075-.09c.453-.541.877-1.024,1.336-1.516a36.326,36.326,0,0,1,4.125-3.761,29.524,29.524,0,0,1,6.206-3.806,27.4,27.4,0,0,1,11.4-2.537Z" transform="translate(-64.26 290.053)" fill="none"/>
    </clipPath>
    <clipPath id="clip-path-3">
      <path id="Path_53276" data-name="Path 53276" d="M83.639-239.22h.11l.09,0,.072.006.1.012.148.022.174.031.205.04.3.062.72.158.508.113a.565.565,0,0,1,.428.674.565.565,0,0,1-.674.428l-1.116-.247-.242-.051-.237-.048-.19-.034-.129-.02-.068-.008-.062-.006-.076,0H83.54l-.1.006-.086.007-.063.007-.064.009-.065.011-.067.013-.069.015-.071.018-.074.02-.078.023-.082.026-.086.029-.091.033-.146.055-.105.042-.17.07-.186.079-.276.121-.395.178-.882.4-.155.072-.235.111-.219.106a11.167,11.167,0,0,0-1.017.563,9.12,9.12,0,0,0-.975.707l-.847.7-.541.44-.3.237-.218.166-.147.108-.133.095-.8.55-.234.162-.424.3-.586.418-.164.118-.111.082-.111.084-.113.087-.057.045-.117.093-.184.15-.131.108-.285.241-.771.664-.2.171-.2.164c-1.69,1.387-2.876,1.942-4.5,1.844a3.28,3.28,0,0,1-2.772-1.952.565.565,0,0,1,.29-.745.565.565,0,0,1,.744.29,2.148,2.148,0,0,0,1.811,1.279,4.516,4.516,0,0,0,3.2-1.193l.167-.129.085-.067.174-.14.179-.147.184-.154.79-.68.158-.135.149-.126.208-.173.194-.158.062-.05.122-.1.18-.138.18-.133.576-.413.277-.2.421-.294.468-.321.437-.3.1-.073.157-.114.172-.13.266-.208.18-.144.35-.285.933-.769a10.256,10.256,0,0,1,1.095-.793,13.038,13.038,0,0,1,1.344-.729l.3-.143.349-.161.834-.379.333-.149.153-.067.214-.091.133-.055.187-.075.117-.045.111-.041.054-.019.1-.035.1-.032.1-.028.093-.025.046-.011.09-.021.088-.018.087-.016.086-.013.086-.011.043,0,.087-.008.183-.013.048,0Z" transform="translate(-63.789 239.22)" fill="none"/>
    </clipPath>
    <clipPath id="clip-path-4">
      <path id="Path_53278" data-name="Path 53278" d="M100.019-228.288a.565.565,0,0,1-.2.745l-.046.026-.12.059-.435.2-.854.393-.711.323-.378.169-.467.206-.167.072a1.065,1.065,0,0,0-.155.087l-.063.043-.034.024-.071.053-.077.059-.082.065-.087.072-.139.119-.1.087-.1.092-.163.149-.231.217-.247.238-.194.192-.2.2-.209.212-.247.254-.126.131c-.439.458-.891.945-1.337,1.436l-.312.345-.331.37-.26.294a.564.564,0,0,1-.051.051l-.132.119-.141.131-.262.25-.232.224-.161.153-.155.145-.076.069-.148.133a3.439,3.439,0,0,1-2.572,1.135,3.255,3.255,0,0,1-2.659-1.813.565.565,0,0,1,.252-.758.565.565,0,0,1,.758.252,2.135,2.135,0,0,0,1.691,1.189,2.142,2.142,0,0,0,1.477-.6l.112-.091.057-.048.118-.1.061-.054.125-.113.13-.12.136-.128.45-.433.166-.157.111-.1.143-.129-.027.024.243-.274.426-.476c.524-.582,1.062-1.163,1.582-1.707l.255-.265.29-.3.239-.24.153-.152.149-.146.144-.14.14-.133.135-.127.131-.12.127-.114.122-.107.118-.1.057-.048.111-.09q.082-.065.158-.123l.1-.073a2.59,2.59,0,0,1,.47-.279l.244-.105.366-.161.408-.183.558-.254.505-.232.974-.455A.565.565,0,0,1,100.019-228.288Z" transform="translate(-85.228 228.587)" fill="none"/>
    </clipPath>
    <clipPath id="clip-path-5">
      <path id="Path_53280" data-name="Path 53280" d="M153.78-244.537q.211-.061.419-.117l.274-.073q.477-.123.93-.219l.257-.053a8.26,8.26,0,0,1,4.087-.008.565.565,0,0,1,.355.716.565.565,0,0,1-.716.355,8.458,8.458,0,0,0-4.271.214l-.25.062-.127.032-.256.068-.129.035-.262.074c-.852.245-1.712.538-2.53.851l-.289.112-.337.135-.3.122-.239.1-.14.064a13.394,13.394,0,0,0-5.73,4.663c-1,1.716-.664,3.1,1.209,4.091a1.853,1.853,0,0,0,1.533.076l.118-.038.123-.043.063-.023.13-.051.067-.027.137-.059.143-.064.148-.069.076-.037.157-.077.164-.082.084-.043.263-.138.184-.1.191-.1.421-.231.271-.146.25-.132.156-.08.149-.075.142-.069.136-.064.131-.059.064-.028.124-.052.121-.048.118-.044.116-.041.115-.037.057-.018.114-.033.057-.015.116-.029.623-.137.208-.044.194-.04.182-.036.171-.033.162-.029.153-.025.146-.022.141-.019.069-.008.135-.014.132-.011.066,0,.131-.007.132,0h.2l.555,0,.284.005.178.006a4.616,4.616,0,0,1,2.621.747l.072.053a7.512,7.512,0,0,0,8.695-.375.565.565,0,0,1,.8.052.565.565,0,0,1-.052.8,8.647,8.647,0,0,1-10.038.489l-.082-.061a3.415,3.415,0,0,0-1.962-.569l-.14-.006-.164-.005-.177,0-.274,0h-.371l-.114,0-.056,0-.113.005-.057,0-.115.009-.117.012-.06.007-.123.016-.129.019-.136.022-.143.025-.152.028-.162.032-.265.055-.193.041-.494.108-.1.022-.1.025-.049.013-.1.029-.1.032-.1.035-.052.019-.105.041-.109.045-.113.049-.119.054-.061.029-.127.061-.134.066-.141.072-.15.078-.241.128-.263.143-.5.276-.342.185-.23.121-.211.108-.132.065-.126.061-.121.056-.059.026-.115.05-.056.024-.111.045-.109.042-.055.02-.109.039-.055.019-.111.036-.056.018a3.113,3.113,0,0,1-2.471-.131c-2.46-1.3-2.964-3.4-1.657-5.657a14.441,14.441,0,0,1,6.225-5.118l.123-.057.136-.061.147-.064.158-.067.169-.07.178-.072.284-.112.3-.115.209-.078.215-.079.22-.079.225-.079.228-.078.231-.078.117-.038.234-.076.235-.074.236-.072.235-.07Z" transform="translate(-142.854 245.256)" fill="none"/>
    </clipPath>
    <clipPath id="clip-path-6">
      <path id="Path_53282" data-name="Path 53282" d="M133.948-187.209a.565.565,0,0,1,.5-.112l.04.012,5.108,1.689a.565.565,0,0,1,.358.716l-.013.035-.669,1.629,2.354.752a.565.565,0,0,1,.278.879l-.025.03-1.909,2.187,2.2,3.938a.565.565,0,0,1-.027.594l-.025.034-2,2.5.681,3.411a.565.565,0,0,1-.577.675l-.036,0-2.069-.219.046,1.939a.565.565,0,0,1-.164.412l-.031.029-2.349,2.038a.565.565,0,0,1-.4.137l-.044,0-2.733-.362-5.116,1.516a.565.565,0,0,1-.669-.3l-.015-.034-.536-1.328-1.562.165a.565.565,0,0,1-.251-.03l-.04-.016-3.671-1.647a.565.565,0,0,1-.333-.5v-.04l.114-3.164-2.617-1.306a.565.565,0,0,1-.313-.517l0-.041.18-1.93-1.524-.589a.565.565,0,0,1-.331-.709l.013-.035,1.96-4.7-1.114-1.045a.565.565,0,0,1-.158-.563l.013-.04,1.236-3.431a.565.565,0,0,1,.723-.34.565.565,0,0,1,.352.688l-.011.035-1.11,3.081,1.129,1.059a.565.565,0,0,1,.149.591l-.015.039-1.887,4.524,1.382.534a.565.565,0,0,1,.361.54l0,.04-.184,1.97,2.6,1.3a.565.565,0,0,1,.312.485v.041l-.114,3.147,3.184,1.429,1.834-.193a.565.565,0,0,1,.567.314l.016.036.5,1.247,4.74-1.4a.566.566,0,0,1,.187-.023l.047,0,2.6.344,1.956-1.7-.055-2.316a.565.565,0,0,1,.588-.578l.036,0,1.945.205-.582-2.915a.565.565,0,0,1,.088-.43l.025-.033,1.928-2.41-2.2-3.953a.565.565,0,0,1,.041-.614l.026-.033,1.6-1.838-2.118-.677a.565.565,0,0,1-.364-.717l.013-.035.671-1.635-4.237-1.4-2.643,2.181a.565.565,0,0,1-.572.088l-.038-.017-2.316-1.146-3.5,2.422a.565.565,0,0,1-.662-.014l-.033-.027-3.366-2.97-.953,2.025a.565.565,0,0,1-.716.286l-.036-.015a.565.565,0,0,1-.286-.716l.015-.036,1.274-2.706a.565.565,0,0,1,.855-.208l.03.025,3.6,3.176,3.415-2.36a.565.565,0,0,1,.532-.06l.04.018,2.285,1.131Z" transform="translate(-115.726 187.338)" fill="none"/>
    </clipPath>
    <clipPath id="clip-path-7">
      <path id="Path_53284" data-name="Path 53284" d="M138.683-152.932a.565.565,0,0,1,.807.384l.007.036,1.134,7.52a.565.565,0,0,1-.474.643.565.565,0,0,1-.636-.438l-.007-.037-1.018-6.748-5.268,2.662a.565.565,0,0,1-.74-.215l-.019-.034a.565.565,0,0,1,.215-.74l.034-.019Z" transform="translate(-132.408 152.993)" fill="none"/>
    </clipPath>
    <clipPath id="clip-path-8">
      <path id="Path_53286" data-name="Path 53286" d="M179.541-130.556a.565.565,0,0,1,.556-.78l.037,0,3.373.421a.565.565,0,0,1,.491.631.565.565,0,0,1-.594.494l-.037,0-2.41-.3,1.936,4.685a.565.565,0,0,1-.271.722l-.035.016a.565.565,0,0,1-.722-.271l-.016-.035Z" transform="translate(-179.497 131.337)" fill="none"/>
    </clipPath>
    <clipPath id="clip-path-9">
      <path id="Path_53288" data-name="Path 53288" d="M172.749-169.909a.565.565,0,0,1,.691.345l.012.035.7,2.354,6.232-.741a.565.565,0,0,1,.622.457l.006.037a.565.565,0,0,1-.457.622l-.037.006-6.7.8a.565.565,0,0,1-.6-.362l-.012-.037-.839-2.81A.565.565,0,0,1,172.749-169.909Z" transform="translate(-172.345 169.933)" fill="none"/>
    </clipPath>
  </defs>
  <g id="Biodegradable" transform="translate(-69 -2126)">
    <path id="Subtraction_11" data-name="Subtraction 11" d="M1096-3612a34.777,34.777,0,0,1-13.624-2.75,34.884,34.884,0,0,1-11.125-7.5,34.879,34.879,0,0,1-7.5-11.125A34.784,34.784,0,0,1,1061-3647a34.786,34.786,0,0,1,2.75-13.624,34.881,34.881,0,0,1,7.5-11.125,34.878,34.878,0,0,1,11.125-7.5A34.777,34.777,0,0,1,1096-3682a34.776,34.776,0,0,1,13.623,2.75,34.881,34.881,0,0,1,11.125,7.5,34.883,34.883,0,0,1,7.5,11.125A34.783,34.783,0,0,1,1131-3647a34.78,34.78,0,0,1-2.75,13.623,34.883,34.883,0,0,1-7.5,11.125,34.887,34.887,0,0,1-11.125,7.5A34.776,34.776,0,0,1,1096-3612Zm0-69a33.781,33.781,0,0,0-13.234,2.672,33.888,33.888,0,0,0-10.807,7.287,33.889,33.889,0,0,0-7.286,10.808A33.786,33.786,0,0,0,1062-3647a33.785,33.785,0,0,0,2.672,13.234,33.887,33.887,0,0,0,7.286,10.807,33.882,33.882,0,0,0,10.807,7.286A33.781,33.781,0,0,0,1096-3613a33.781,33.781,0,0,0,13.234-2.672,33.882,33.882,0,0,0,10.807-7.286,33.887,33.887,0,0,0,7.286-10.807A33.786,33.786,0,0,0,1130-3647a33.786,33.786,0,0,0-2.672-13.234,33.887,33.887,0,0,0-7.286-10.808,33.888,33.888,0,0,0-10.807-7.287A33.781,33.781,0,0,0,1096-3681Z" transform="translate(-992 5808)" fill="#181E85"/>
    <g id="Group_5320" data-name="Group 5320" transform="translate(0 0)">
      <g id="Group_4305" data-name="Group 4305" transform="translate(91.502 2154.197)" clip-path="url(#clip-path)">
        <path id="Path_53271" data-name="Path 53271" d="M105.268-218.946H114.7v7.434h-9.436Z" transform="translate(-106.398 217.816)" fill="#181E85"/>
      </g>
      <g id="Group_4306" data-name="Group 4306" transform="translate(81.106 2137)" clip-path="url(#clip-path-2)">
        <path id="Path_53273" data-name="Path 53273" d="M59.26-295.053h47.746v20.906H59.26Z" transform="translate(-60.39 293.923)" fill="#181E85"/>
      </g>
      <g id="Group_4307" data-name="Group 4307" transform="translate(81 2148.486)" clip-path="url(#clip-path-3)">
        <path id="Path_53275" data-name="Path 53275" d="M58.789-244.22h24.98v13.152H58.789Z" transform="translate(-59.919 243.09)" fill="#181E85"/>
      </g>
      <g id="Group_4308" data-name="Group 4308" transform="translate(85.844 2150.888)" clip-path="url(#clip-path-4)">
        <path id="Path_53277" data-name="Path 53277" d="M80.228-233.587H97.346v11.909H80.228Z" transform="translate(-81.357 232.458)" fill="#181E85"/>
      </g>
      <g id="Group_4309" data-name="Group 4309" transform="translate(98.865 2147.122)" clip-path="url(#clip-path-5)">
        <path id="Path_53279" data-name="Path 53279" d="M137.854-250.256h27.574v15.526H137.854Z" transform="translate(-138.984 249.126)" fill="#181E85"/>
      </g>
      <g id="Group_4310" data-name="Group 4310" transform="translate(92.736 2160.209)" clip-path="url(#clip-path-6)">
        <path id="Path_53281" data-name="Path 53281" d="M110.726-192.338H139.5v26.865h-28.77Z" transform="translate(-111.856 191.208)" fill="#181E85"/>
      </g>
      <g id="Group_4311" data-name="Group 4311" transform="translate(96.505 2167.97)" clip-path="url(#clip-path-7)">
        <path id="Path_53283" data-name="Path 53283" d="M127.408-157.993H137.9v10.91H127.408Z" transform="translate(-128.537 156.863)" fill="#181E85"/>
      </g>
      <g id="Group_4312" data-name="Group 4312" transform="translate(107.145 2172.863)" clip-path="url(#clip-path-8)">
        <path id="Path_53285" data-name="Path 53285" d="M174.5-136.337h6.763v8.971H174.5Z" transform="translate(-175.627 135.207)" fill="#181E85"/>
      </g>
      <g id="Group_4313" data-name="Group 4313" transform="translate(105.529 2164.142)" clip-path="url(#clip-path-9)">
        <path id="Path_53287" data-name="Path 53287" d="M167.345-174.933h10.932v6.2H167.345Z" transform="translate(-168.475 173.803)" fill="#181E85"/>
      </g>
    </g>
  </g>
</svg>
