<svg xmlns="http://www.w3.org/2000/svg" xmlns:xlink="http://www.w3.org/1999/xlink" width="70" height="70" viewBox="0 0 70 70">
  <defs>
    <clipPath id="clip-path">
      <path id="Path_54450" data-name="Path 54450" d="M3133.872-186.539c1.351-.614,3.478-.15,3.579,1.232a.565.565,0,0,1-.522.6.565.565,0,0,1-.6-.522c-.026-.361-1.237-.625-1.984-.286a3.278,3.278,0,0,0-1.67,1.557l-.389.676-.083.141-.081.133-.04.065a9.148,9.148,0,0,1-.807,1.111.565.565,0,0,1-.8.064.564.564,0,0,1-.064-.8,7.959,7.959,0,0,0,.708-.976l.11-.182.077-.131.34-.592A4.422,4.422,0,0,1,3133.872-186.539Z" transform="translate(-3130.276 186.805)" fill="none"/>
    </clipPath>
    <clipPath id="clip-path-2">
      <path id="Path_54452" data-name="Path 54452" d="M3051.143-169.979a.564.564,0,0,1,.742-.3.565.565,0,0,1,.3.742,9.215,9.215,0,0,1-.983,1.669c-.266.373-.567.761-.913,1.181l-.146.176-.316.372-1.284,1.488-.155.186-.961,1.168c-.453.541-.877,1.024-1.336,1.516a36.29,36.29,0,0,1-4.126,3.761,29.52,29.52,0,0,1-6.205,3.806,27.39,27.39,0,0,1-11.624,2.537h-.175l-.344,0-.169,0-.333-.008-.165,0-.323-.011-.317-.014-.157-.008-.308-.018-.152-.01-.3-.022-.148-.012-.292-.026a17.727,17.727,0,0,1-8.094-2.752l-.268-.163c-3.344-2.046-6.632-8.787-5.678-12.257a.565.565,0,0,1,.694-.395.565.565,0,0,1,.4.694c-.811,2.947,2.238,9.194,5.178,10.994l.262.159.129.077.256.15a16.341,16.341,0,0,0,7.063,2.352l.281.027q.355.032.727.055l.3.017.152.008.31.013.316.011.323.009.33.006.168,0,.342,0a26.266,26.266,0,0,0,11.148-2.434,28.438,28.438,0,0,0,5.976-3.665,35.167,35.167,0,0,0,4-3.645c.389-.416.751-.826,1.131-1.275l.334-.4.909-1.1,1.494-1.733.171-.2c.379-.456.7-.868.979-1.257A8.216,8.216,0,0,0,3051.143-169.979Z" transform="translate(-3006.741 170.321)" fill="none"/>
    </clipPath>
    <clipPath id="clip-path-3">
      <path id="Path_54454" data-name="Path 54454" d="M3123.07-184.734l.2-.168c1.742-1.447,2.942-2.025,4.594-1.925a3.28,3.28,0,0,1,2.771,1.952.565.565,0,0,1-.29.744.565.565,0,0,1-.745-.29,2.147,2.147,0,0,0-1.811-1.279,4.3,4.3,0,0,0-2.961,1.013l-.161.118-.165.125-.169.132-.174.14-.178.147-.184.154-.871.749-.226.192-.209.173-.13.107-.188.15-.181.14-.12.09-.12.088-.577.413-.451.318-.4.281-.852.584-.2.149-.265.2-.231.183-.376.306-.981.809a10.293,10.293,0,0,1-1.095.793,13.509,13.509,0,0,1-1.467.788l-.286.134-1.076.49-.333.149-.227.1-.141.06-.133.055-.126.051-.12.047-.115.043-.108.039-.053.018-.1.033-.1.03-.1.027-.046.012-.091.022-.088.019-.044.009-.086.015-.043.007-.086.012-.086.01-.043,0-.18.014c-.107.008-.2.012-.3.009l-.091,0-.047,0-.1-.01-.11-.015-.124-.02-.1-.018-.156-.03-.277-.057-.466-.1-.863-.192a.565.565,0,0,1-.429-.674.565.565,0,0,1,.675-.428l1.005.223.437.092.187.037.126.023.134.021.092.012.062.006.058,0,.072,0h.108l.05,0,.137-.011.063-.007.064-.009.064-.011.067-.013.069-.015.035-.009.073-.019.076-.022.08-.025.127-.043.138-.05.151-.058.108-.044.237-.1.268-.116.3-.135,1.1-.5.222-.1.227-.109a11.505,11.505,0,0,0,1.125-.616,9.089,9.089,0,0,0,.975-.707l1-.825.349-.283.246-.2.206-.159.2-.152.181-.13.88-.6.406-.283.457-.323.47-.337.111-.082.111-.084.113-.087.115-.091.181-.146.127-.1.276-.233.846-.728Z" transform="translate(-3107.963 186.837)" fill="none"/>
    </clipPath>
    <clipPath id="clip-path-4">
      <path id="Path_54456" data-name="Path 54456" d="M3130.427-190.407l.158-.149.077-.071.15-.137.146-.129.142-.121a3.232,3.232,0,0,1,2.357-.951,3.255,3.255,0,0,1,2.659,1.813.565.565,0,0,1-.253.758.565.565,0,0,1-.758-.252,2.135,2.135,0,0,0-1.691-1.189,1.989,1.989,0,0,0-1.315.476l-.106.08-.055.043-.112.091-.116.1-.121.105-.125.113-.13.12-.136.128-.494.475-.2.185-.153.139-.242.274-.248.277-.178.2c-.524.582-1.062,1.163-1.583,1.707l-.128.134-.252.26-.246.249-.235.235-.151.149-.146.143-.142.136-.138.13-.134.123-.128.117-.062.056-.122.107-.059.051-.116.1-.111.09-.106.084a3.057,3.057,0,0,1-.622.391l-.244.105-.367.161-.516.231-.335.152-.67.308-.923.432a.565.565,0,0,1-.765-.232.565.565,0,0,1,.2-.745l.045-.025.125-.061.35-.165.933-.43.54-.245.443-.2.479-.212.265-.115a1.1,1.1,0,0,0,.155-.086l.063-.043.069-.049.074-.056.08-.062.084-.068.089-.075.094-.081.1-.086.156-.14.166-.153.175-.165.184-.177.192-.188.2-.2.137-.138.263-.268.25-.259c.512-.535,1.042-1.108,1.559-1.682l.177-.2.5-.568.024-.026.026-.025.132-.119.141-.131.121-.115Z" transform="translate(-3121.318 191.967)" fill="none"/>
    </clipPath>
    <clipPath id="clip-path-5">
      <path id="Path_54458" data-name="Path 54458" d="M3040.374-190.983c2.46,1.3,2.964,3.4,1.657,5.657a14.331,14.331,0,0,1-6.085,5.051l-.2.095-.129.059-.069.031-.147.064-.159.067-.169.07-.271.109-.191.075-.2.076-.312.116-.215.078-.332.118-.227.079-.23.078-.232.077-.117.038-.235.075c-.236.074-.473.146-.707.213l-.141.04-.278.077c-2.3.622-4.213.8-5.548.352a.565.565,0,0,1-.355-.716.565.565,0,0,1,.715-.355,7.214,7.214,0,0,0,3.429-.031l.235-.047c.119-.024.239-.051.361-.078l.246-.057.25-.061q.189-.048.382-.1l.26-.072.131-.037c.852-.245,1.712-.538,2.53-.851l.359-.14.267-.107.24-.1.251-.107.153-.068.03-.014a13.4,13.4,0,0,0,5.73-4.663c1-1.716.664-3.1-1.209-4.091a2.087,2.087,0,0,0-1.9.053l-.132.053-.068.029-.14.061-.146.066-.151.072-.078.038-.161.08-.253.13-.268.142-.188.1-.517.283-.184.1-.174.093-.244.127-.153.078-.146.072-.139.067-.134.062-.064.029-.127.055-.122.05-.119.046-.117.043-.116.039-.057.018-.115.034-.057.016-.115.03-.116.028-.564.123-.208.044-.194.04-.183.036-.171.033-.161.029-.153.025-.147.022-.141.019-.136.016-.133.013-.066.005-.131.009-.131.006-.132,0h-.067l-.646,0-.178,0-.171-.005-.09,0a4.617,4.617,0,0,1-2.621-.747l-.072-.053a7.513,7.513,0,0,0-8.695.375.564.564,0,0,1-.8-.052.564.564,0,0,1,.052-.8,8.647,8.647,0,0,1,10.038-.489l.082.061a3.415,3.415,0,0,0,1.961.569l.182.008.2.005.225,0h.578l.114,0,.169-.009.115-.009.058-.005.119-.013.062-.008.126-.017.065-.01.135-.022.144-.025.152-.028.163-.032.173-.036.285-.06.542-.119.1-.024.1-.026.049-.014.1-.03.1-.034.1-.037.105-.041.109-.045.056-.024.116-.052.122-.056.127-.061.066-.033.209-.106.228-.119.335-.18.682-.374.331-.178.152-.079.143-.073.135-.068.129-.063.062-.03.121-.056.116-.052.114-.048.056-.023.109-.044.109-.041.109-.039.11-.037.112-.035A3.112,3.112,0,0,1,3040.374-190.983Z" transform="translate(-3017.417 191.305)" fill="none"/>
    </clipPath>
    <clipPath id="clip-path-6">
      <path id="Path_54460" data-name="Path 54460" d="M3061.441-266.065l.172,1.934.026.269a.565.565,0,0,1-.505.619.565.565,0,0,1-.619-.505l-.03-.308-.162-1.823-.039-.4-.032-.309-.033-.3c-.005-.048-.011-.1-.017-.144l-.034-.281-.036-.274c-.006-.045-.012-.09-.019-.135-.314-2.247-.818-3.827-1.61-4.722l-.243-.268-.141-.151c-.173-.182-.354-.36-.558-.544a11.806,11.806,0,0,0-1.958-1.422c-2.822-1.654-6.676-2.591-11.8-2.441a18.752,18.752,0,0,0-12.877,5.672c-2,2.093-3.265,5.488-3.554,10.331l-.019.348q-.018.351-.028.712a.565.565,0,0,1-.581.548.565.565,0,0,1-.548-.581,31.636,31.636,0,0,1,.326-3.784l.05-.316a14.832,14.832,0,0,1,3.541-8.042,19.884,19.884,0,0,1,13.656-6.018c5.334-.156,9.4.832,12.407,2.6a12.914,12.914,0,0,1,2.144,1.558c.227.2.427.4.619.6l.1.109.242.265c1,1.082,1.576,2.812,1.929,5.242l.042.3.04.309q.019.157.038.318l.037.329.036.343Z" transform="translate(-3026.196 278.414)" fill="none"/>
    </clipPath>
    <clipPath id="clip-path-7">
      <path id="Path_54462" data-name="Path 54462" d="M3162.7-239.554a.564.564,0,0,1,.577.552v.2l0,.132c0,.044,0,.088,0,.131l-.008.131-.011.131-.013.132-.017.134-.02.136c0,.023-.007.046-.011.069l-.024.141c0,.024-.009.048-.014.072l-.03.147-.016.076-.035.155-.039.161-.042.168-.046.176-.05.184-.054.193-.058.2-.062.213-.2.667-.088.3-.079.278-.07.257-.041.161c-.007.026-.014.052-.02.078l-.036.15-.032.144-.029.138-.026.133-.022.128-.019.124-.016.121-.013.119,0,.033h.032c.228,0,.485.019.77.043l.108.01c.258.024.529.055.808.091l.145.019.28.039.269.04.283.045a.565.565,0,0,1,.462.651.565.565,0,0,1-.614.468l-.3-.047-.258-.038-.134-.019-.275-.037c-.213-.028-.421-.052-.62-.072l-.232-.022-.241-.019-.15-.009-.142-.007-.133,0h-.18l-.107,0-.1,0a1.527,1.527,0,0,0-.157.018.566.566,0,0,1-.664-.544v-.269c0-.044,0-.088,0-.132l.006-.131c0-.044.006-.087.009-.131l.012-.132c0-.044.01-.088.016-.133l.018-.135.021-.138c.011-.07.024-.14.038-.213l.03-.147c0-.025.011-.05.016-.076l.035-.155.039-.161.042-.168.046-.176.05-.184.054-.193.121-.416.226-.757.057-.193.052-.183.071-.258.043-.162.039-.154.036-.147.033-.141.029-.135.026-.13c0-.021.007-.042.012-.063l.021-.124.019-.12.015-.117c0-.019,0-.039.007-.058l.011-.114c0-.038.006-.075.009-.113l.005-.112,0-.112c0-.075,0-.15,0-.226A.564.564,0,0,1,3162.7-239.554Z" transform="translate(-3160.876 239.554)" fill="none"/>
    </clipPath>
    <clipPath id="clip-path-8">
      <path id="Path_54464" data-name="Path 54464" d="M3057.263-243.645l-.516.733-.27.378-.052.071c-.363.5-.7.935-1.048,1.352a11.045,11.045,0,0,1-4.971,3.625,10.792,10.792,0,0,1-8.02-.809l-.145-.066c-3.7-1.714-6.717-1.92-9.129-.919a8.569,8.569,0,0,0-4.272,4.131.564.564,0,0,1-.76.244.565.565,0,0,1-.244-.761,9.672,9.672,0,0,1,4.844-4.658c2.69-1.116,5.988-.907,9.89.87l.147.067c2.831,1.313,5.239,1.522,7.333.827a9.962,9.962,0,0,0,4.461-3.28c.294-.35.58-.717.885-1.131l.165-.227.264-.369.516-.733.163-.227.1-.139.1-.13.091-.121.087-.112.083-.1.08-.1.077-.087a1.814,1.814,0,0,1,.7-.528.565.565,0,0,1,.731.323.565.565,0,0,1-.287.716l-.036.015a.324.324,0,0,0-.073.044l-.035.029-.02.017-.042.04-.045.047-.05.054-.054.062-.089.107-.065.081-.106.137-.077.1-.124.168-.089.123Z" transform="translate(-3027.773 245.879)" fill="none"/>
    </clipPath>
    <clipPath id="clip-path-9">
      <path id="Path_54466" data-name="Path 54466" d="M3045.8-249.208c4.479-3.944,15.179-6.167,23.841-4.967a.565.565,0,0,1,.482.637.565.565,0,0,1-.637.482c-8.364-1.159-18.739,1-22.939,4.7a.565.565,0,0,1-.8-.051A.566.566,0,0,1,3045.8-249.208Z" transform="translate(-3045.614 254.5)" fill="none"/>
    </clipPath>
    <clipPath id="clip-path-10">
      <path id="Path_54468" data-name="Path 54468" d="M3123.617-245.159a.565.565,0,0,1,.7-.385.564.564,0,0,1,.385.7,14.274,14.274,0,0,1-3.717,5.924.565.565,0,0,1-.8,0,.564.564,0,0,1,0-.8A13.187,13.187,0,0,0,3123.617-245.159Z" transform="translate(-3120.021 245.566)" fill="none"/>
    </clipPath>
    <clipPath id="clip-path-11">
      <path id="Path_54470" data-name="Path 54470" d="M3095.938-245.275a.565.565,0,0,1,.729-.327.565.565,0,0,1,.327.729,11.32,11.32,0,0,1-4,5.187.565.565,0,0,1-.788-.131.565.565,0,0,1,.131-.788A10.191,10.191,0,0,0,3095.938-245.275Z" transform="translate(-3092.104 245.64)" fill="none"/>
    </clipPath>
    <clipPath id="clip-path-12">
      <path id="Path_54472" data-name="Path 54472" d="M3060.791-256.31l4.8.155a.564.564,0,0,1,.546.583.564.564,0,0,1-.545.546h-.037l-4.8-.155a.565.565,0,0,1-.546-.583.564.564,0,0,1,.546-.546Z" transform="translate(-3060.207 256.31)" fill="none"/>
    </clipPath>
    <clipPath id="clip-path-13">
      <path id="Path_54474" data-name="Path 54474" d="M3098.941-267.382a18.09,18.09,0,0,1,5.293,1.206.565.565,0,0,1,.319.732.566.566,0,0,1-.733.319,16.956,16.956,0,0,0-4.962-1.131.565.565,0,0,1-.522-.6.565.565,0,0,1,.568-.523Z" transform="translate(-3098.334 267.383)" fill="none"/>
    </clipPath>
  </defs>
  <g id="Organic" transform="translate(-737 -2126)">
    <path id="Subtraction_5" data-name="Subtraction 5" d="M1096-3612a34.777,34.777,0,0,1-13.624-2.75,34.884,34.884,0,0,1-11.125-7.5,34.879,34.879,0,0,1-7.5-11.125A34.784,34.784,0,0,1,1061-3647a34.786,34.786,0,0,1,2.75-13.624,34.881,34.881,0,0,1,7.5-11.125,34.878,34.878,0,0,1,11.125-7.5A34.777,34.777,0,0,1,1096-3682a34.776,34.776,0,0,1,13.623,2.75,34.881,34.881,0,0,1,11.125,7.5,34.883,34.883,0,0,1,7.5,11.125A34.783,34.783,0,0,1,1131-3647a34.78,34.78,0,0,1-2.75,13.623,34.883,34.883,0,0,1-7.5,11.125,34.887,34.887,0,0,1-11.125,7.5A34.776,34.776,0,0,1,1096-3612Zm0-69a33.781,33.781,0,0,0-13.234,2.672,33.888,33.888,0,0,0-10.807,7.287,33.889,33.889,0,0,0-7.286,10.808A33.786,33.786,0,0,0,1062-3647a33.785,33.785,0,0,0,2.672,13.234,33.887,33.887,0,0,0,7.286,10.807,33.882,33.882,0,0,0,10.807,7.286A33.781,33.781,0,0,0,1096-3613a33.781,33.781,0,0,0,13.234-2.672,33.882,33.882,0,0,0,10.807-7.286,33.887,33.887,0,0,0,7.286-10.807A33.786,33.786,0,0,0,1130-3647a33.786,33.786,0,0,0-2.672-13.234,33.887,33.887,0,0,0-7.286-10.808,33.888,33.888,0,0,0-10.807-7.287A33.781,33.781,0,0,0,1096-3681Z" transform="translate(-324 5808)" fill="#181E85"/>
    <g id="Group_5315" data-name="Group 5315" transform="translate(5.564 1.901)">
      <g id="Group_5295" data-name="Group 5295" transform="translate(771.35 2157.798)" clip-path="url(#clip-path)">
        <path id="Path_54449" data-name="Path 54449" d="M3125.276-191.8h9.436v7.434h-9.436Z" transform="translate(-3126.406 190.675)" fill="#181E85"/>
      </g>
      <g id="Group_5296" data-name="Group 5296" transform="translate(743.436 2161.523)" clip-path="url(#clip-path-2)">
        <path id="Path_54451" data-name="Path 54451" d="M3001.741-175.321h47.746v20.907h-47.746Z" transform="translate(-3002.871 174.191)" fill="#181E85"/>
      </g>
      <g id="Group_5297" data-name="Group 5297" transform="translate(766.309 2157.791)" clip-path="url(#clip-path-3)">
        <path id="Path_54453" data-name="Path 54453" d="M3102.964-191.837h24.98v13.152h-24.98Z" transform="translate(-3104.093 190.708)" fill="#181E85"/>
      </g>
      <g id="Group_5298" data-name="Group 5298" transform="translate(769.326 2156.632)" clip-path="url(#clip-path-4)">
        <path id="Path_54455" data-name="Path 54455" d="M3116.318-196.967h17.118v11.909h-17.118Z" transform="translate(-3117.448 195.837)" fill="#181E85"/>
      </g>
      <g id="Group_5299" data-name="Group 5299" transform="translate(745.849 2156.781)" clip-path="url(#clip-path-5)">
        <path id="Path_54457" data-name="Path 54457" d="M3012.416-196.3h27.575v15.526h-27.575Z" transform="translate(-3013.546 195.175)" fill="#181E85"/>
      </g>
      <g id="Group_5300" data-name="Group 5300" transform="translate(747.833 2137.099)" clip-path="url(#clip-path-6)">
        <path id="Path_54459" data-name="Path 54459" d="M3021.2-283.414H3058.9V-262.4H3021.2Z" transform="translate(-3022.326 282.284)" fill="#181E85"/>
      </g>
      <g id="Group_5301" data-name="Group 5301" transform="translate(778.265 2145.879)" clip-path="url(#clip-path-7)">
        <path id="Path_54461" data-name="Path 54461" d="M3155.876-244.554h6.575v10.144h-6.575Z" transform="translate(-3157.006 243.424)" fill="#181E85"/>
      </g>
      <g id="Group_5302" data-name="Group 5302" transform="translate(748.189 2144.45)" clip-path="url(#clip-path-8)">
        <path id="Path_54463" data-name="Path 54463" d="M3022.773-250.879h33.074v13.3h-33.074Z" transform="translate(-3023.903 249.749)" fill="#181E85"/>
      </g>
      <g id="Group_5303" data-name="Group 5303" transform="translate(752.22 2142.502)" clip-path="url(#clip-path-9)">
        <path id="Path_54465" data-name="Path 54465" d="M3040.613-259.5h26.779v8.54h-26.779Z" transform="translate(-3041.743 258.371)" fill="#181E85"/>
      </g>
      <g id="Group_5304" data-name="Group 5304" transform="translate(769.033 2144.521)" clip-path="url(#clip-path-10)">
        <path id="Path_54467" data-name="Path 54467" d="M3115.021-250.566h6.963v9.071h-6.963Z" transform="translate(-3116.151 249.437)" fill="#181E85"/>
      </g>
      <g id="Group_5305" data-name="Group 5305" transform="translate(762.725 2144.504)" clip-path="url(#clip-path-11)">
        <path id="Path_54469" data-name="Path 54469" d="M3087.1-250.64h7.187v8.318H3087.1Z" transform="translate(-3088.234 249.51)" fill="#181E85"/>
      </g>
      <g id="Group_5306" data-name="Group 5306" transform="translate(755.518 2142.093)" clip-path="url(#clip-path-12)">
        <path id="Path_54471" data-name="Path 54471" d="M3055.207-261.31h8.192v3.544h-8.192Z" transform="translate(-3056.337 260.181)" fill="#181E85"/>
      </g>
      <g id="Group_5307" data-name="Group 5307" transform="translate(764.133 2139.591)" clip-path="url(#clip-path-13)">
        <path id="Path_54473" data-name="Path 54473" d="M3093.334-272.383h8.518v4.558h-8.518Z" transform="translate(-3094.464 271.253)" fill="#181E85"/>
      </g>
    </g>
  </g>
</svg>
