<svg xmlns="http://www.w3.org/2000/svg" width="420" height="420" viewBox="0 0 420 420" style="background-color:#f0faff"><title>TIS_Icons_NoName_Navy_RGB</title><path d="M59.0015,255.8959l-6.2071,1.97,3.4878,10.9877-5.0747,1.6108L47.72,259.4767l-12.3716,3.927-2.09-6.5844,29.3564-9.3181,6.0435,19.04-5.7031,1.81Z" fill="#1414b4"/><path d="M57.5537,289.2926l-1.66-3.1537L46.3545,291.16l-3.1768-6.0349,27.2544-14.3471,5.4517,10.3566a12.552,12.552,0,0,1,1.6338,6.1262,9.1947,9.1947,0,0,1-1.5376,5.0609,10.4552,10.4552,0,0,1-3.8452,3.4164,9.9769,9.9769,0,0,1-5.4663,1.187,9.0348,9.0348,0,0,1-5.2227-2.2231l-7.2822,11.2921-3.3408-6.3463Zm3.2847-5.7567,1.7627,3.3484a7.5757,7.5757,0,0,0,2.7407,3.0819,3.5792,3.5792,0,0,0,3.6982-.1068,3.4036,3.4036,0,0,0,2.0747-2.9071,7.8338,7.8338,0,0,0-1.0385-4.0032l-1.7627-3.3484Z" fill="#1414b4"/><path d="M83.9224,304.9055,78.77,308.9593l7.2368,9.1984-4.184,3.292-7.2369-9.1984L69.1221,316.55l8.5971,10.9273-4.7031,3.7L60.1475,314.8209,84.354,295.7764l12.8687,16.3564-4.7032,3.7Z" fill="#1414b4"/><path d="M102.79,325.7832l-4.3559,4.9,8.7471,7.7763-3.5372,3.979-8.747-7.7762-4.6192,5.1956,10.3916,9.2379-3.976,4.4723L81.1392,339.74l20.4638-23.0188,15.5542,13.8276-3.9756,4.4722Z" fill="#1414b4"/><path d="M123.7427,367.9442q-1.7879-4.55,1.3672-11.0892l7.5307-15.6147,6.1431,2.9628-7.3208,15.1787q-3.4029,7.0547,1.9873,9.6541a4.9932,4.9932,0,0,0,5.0581.0459,10.49,10.49,0,0,0,3.6943-4.52l7.3213-15.1787,6.1426,2.9626-7.5312,15.6148q-3.1539,6.5391-7.8272,7.9734a14.3886,14.3886,0,0,1-16.5654-7.99Z" fill="#1414b4"/><path d="M161.6636,354.4558l6.58,1.6167-2.8868,11.75.2134.0525,12.8858-9.294,7.5629,1.8581-13.8325,10.0128L178.67,390.35l-7.4775-1.8372-4.274-14.5067-3.6933,2.4909-2.3306,9.4858-6.58-1.6167Z" fill="#1414b4"/><path d="M204.6519,362.1545l12.13-.5693a14.0429,14.0429,0,0,1,7.294,1.4858,12.4049,12.4049,0,0,1,5.104,5.0463,20.5913,20.5913,0,0,1,.7568,16.5928,12.3309,12.3309,0,0,1-4.6533,5.5041,14.286,14.286,0,0,1-7.1455,2.1413l-12.043.5651Zm11.9228,24.1077a7.8216,7.8216,0,0,0,5.6167-2.334q2.0135-2.1644,1.7715-7.307t-2.4258-7.11a7.8073,7.8073,0,0,0-5.8325-1.7965l-4.1314.1938.87,18.5476Z" fill="#1414b4"/><path d="M244.2271,364.0746l1.5478,6.3706,11.373-2.7636,1.2574,5.1734-11.3731,2.7636,1.6416,6.7554,13.5108-3.2831,1.4131,5.8149L243.374,389.82l-7.2724-29.9291,20.2231-4.9143,1.4131,5.8148Z" fill="#1414b4"/><path d="M290.479,367.571l2.4077,5.4783L274.72,381.0339l-12.3935-28.1965,6.3242-2.78,9.9453,22.7361Z" fill="#1414b4"/><path d="M285.3472,341.832l5.9135-3.57,15.92,26.3671-5.9141,3.57Z" fill="#1414b4"/><path d="M295.7417,336.0574l5.2886-4.3759,20.5444,13.44.2031-.1683-9.3916-22.6686,5.2886-4.3758,12.07,30.0466-6.7456,5.5822Z" fill="#1414b4"/><path d="M329.377,313.194l5.0444,4.1871,7.4751-9.0061,4.0967,3.4-7.4751,9.0059,5.35,4.44,8.88-10.6989,4.6045,3.8218-13.2916,16.0144-23.7-19.6709,13.2919-16.0144,4.6045,3.8217Z" fill="#1414b4"/><path d="M359.7612,294.24l-1.7373,3.1121,9.4126,5.2546-3.3247,5.955-26.8926-15.0138,5.7051-10.2192a12.5524,12.5524,0,0,1,4.2427-4.7115,9.1928,9.1928,0,0,1,5.08-1.4724,10.4561,10.4561,0,0,1,4.9614,1.3587,9.9788,9.9788,0,0,1,3.977,3.9336,9.0358,9.0358,0,0,1,.9859,5.59l13.4365-.0574-3.4956,6.262Zm-6.6167.388,1.8448-3.304a7.58,7.58,0,0,0,1.0874-3.9785,3.5784,3.5784,0,0,0-2.107-3.0408,3.4035,3.4035,0,0,0-3.5683-.1528,7.8281,7.8281,0,0,0-2.7886,3.0542l-1.8442,3.304Z" fill="#1414b4"/><path d="M381.9292,271.6592l-9.9609-3.3709-22.458,3.0842,2.2851-6.7519,14.7285-1.6583.0708-.2084-10.6953-10.2617,2.2847-6.7519,15.97,16.0879,9.9609,3.3708Z" fill="#1414b4"/><path d="M179.72,287.5525c-20.8675,16.5018-46.9769-.3514-54.6756-21.6669a147.0466,147.0466,0,0,1-8.6763-57.2106c.8784-20.78,12.073-37.8208,29.8565-43.9952" fill="none" stroke="#1414b4" stroke-linecap="round" stroke-linejoin="round" stroke-width="5"/><path d="M153.3239,190.8993c33.2488-12.6984,44.6122,21.0869,49.4,31.1815s6.1279,18.6387,1.2732,28.7071c-1.7314,3.5908-4.4991,7.2279-8.72,8.1423-4.7471,1.0283-9.4507-1.75-12.9776-4.7945-12.6751-10.9434-11.0222-17.4366-26.7656-24.4233" fill="none" stroke="#1414b4" stroke-linecap="round" stroke-linejoin="round" stroke-width="5"/><path d="M260.9163,246.2734c-19.0222.4946-17.5595-8-18.1253-13.3282s4.7169-10.3736,6.0615-11.5485a27.5922,27.5922,0,0,1,6.2931-3.7918c4.2741-2.0768,24.8815-12.9888,29.1556-15.0655" fill="none" stroke="#1414b4" stroke-linecap="round" stroke-linejoin="round" stroke-width="5"/><path d="M255.1,217.661c-13.6268,3.5672-17.4059-13.5809-7.0421-23.0909,6.48-5.9461,27.22-18.022,27.5173-17.9357" fill="none" stroke="#1414b4" stroke-linecap="round" stroke-linejoin="round" stroke-width="5"/><path d="M282.1016,171.91c-.5848.5-30.7506,22.7243-40.0254,12.1813-7.2213-8.2088,7.9858-25.6168,15.7963-31.6179,9.86-7.576,16.2052-9.9986,16.2052-9.9986l7.76-.594c10.0714.3264,12.9392,3.6765,13.2941,16.0463q.13,1.502.26,3c10.7776,8.0352,12.4464,14.2925,6.7849,25.4371-.0223.7518-.0436,1.4986-.065,2.2456,13.5025,12.535,14.4523,22.5178,3.4346,36.11q-1.0164,1.8055-2.0345,3.62a18.6851,18.6851,0,0,1-.3207,18.8731c-4.9291,8.6356-38.3764,20.844-42.8408,21.5681-14.5632,2.3621-18.1077-11.2836-8.09-17.568,4.0607-2.5475,33.9274-18.8141,37.4585-22.177" fill="none" stroke="#1414b4" stroke-linecap="round" stroke-linejoin="round" stroke-width="5"/><path d="M174.6739,258.8054c.03-1.2686,6.2765,28.7167,7.9977,35.564a7.7777,7.7777,0,0,0,4.1015,5.194,7.3453,7.3453,0,0,0,4.6254.4361c15.789-3.7317,61.3916-13.7268,61.3916-13.1021,0,0,29.9852-5.6222,39.3556-9.37,3.8908-1.5563,3.1234-6.8716,1.2494-16.242" fill="none" stroke="#1414b4" stroke-linecap="round" stroke-linejoin="round" stroke-width="5"/><path d="M158.8105,185.9592c-5.2462-22.5668-9.3831-45.1336-14.6293-67.7-.7387-3.1774-1.4176-6.7535.3259-9.5107,1.6795-2.6558,5.0258-3.62,8.0776-4.3688q42.4735-10.4181,85.5188-18.2867c3.5482-.6485,7.7859-1.0686,10.2089,1.6033,1.3424,1.48,1.6888,3.5712,2.0967,5.5275,3.2657,15.6612,4.81,22.7893,9.2526,42.8108" fill="none" stroke="#1414b4" stroke-linecap="round" stroke-linejoin="round" stroke-width="5"/><path d="M215.3085,219.6352c0,1.2494-14.3679-18.7408-15.6173-20.4067-3.2893-4.3857-13.7432-14.5761-16.7137-23.8781-2.7381-8.5741-.3891-20.097,5.4692-26.93s9.4615-9.4645,18.2949-11.1918c19.6359-3.84,28.81,10.5082,31.0549,16.8326,4.7853,13.4785,1.99,27.3229-1.8249,41.1076-3.4112,12.3269-3.054,18.5933-5.8787,29.8806-1.2494,7.9127-8.3186,5.0189-9.6919,2.72" fill="none" stroke="#1414b4" stroke-linecap="round" stroke-linejoin="round" stroke-width="5"/><path d="M212.6015,158.1352c-7.4963.4165-8.6452,3.4638-9.5786,8.7457a11.1333,11.1333,0,0,0,6.8161,11.5165,7.3468,7.3468,0,0,0,6.92-1.0454c3.5077-2.5451,6.7155-7.8647,5.39-11.9909-1.4-4.3605-5.4381-6.5238-9.9639-7.2259" fill="none" stroke="#1414b4" stroke-linecap="round" stroke-linejoin="round" stroke-width="5"/><path d="M186.9663,111.9286c8.1235-1.5486,14.0284-3.0972,22.1519-4.6459" fill="none" stroke="#1414b4" stroke-linecap="round" stroke-linejoin="round" stroke-width="5"/><path d="M233.4246,265.0332c-.3124,0-5.4139,3.7335-4.72,7.31a6.4573,6.4573,0,1,0,4.8412-7.5108" fill="none" stroke="#1414b4" stroke-linecap="round" stroke-linejoin="round" stroke-width="5"/></svg>