<svg xmlns="http://www.w3.org/2000/svg" width="188.434" height="188.434" viewBox="0 0 188.434 188.434">
  <g id="icon-footer-shop-small-blue" transform="translate(-3629 5056)">
    <circle id="Ellipse_118" data-name="Ellipse 118" cx="94.217" cy="94.217" r="94.217" transform="translate(3629 -5056)" fill="rgba(255,250,244,0)"/>
    <g id="Group_5375" data-name="Group 5375" transform="translate(3960.408 -150.816)">
      <rect id="Rectangle_2311" data-name="Rectangle 2311" width="83.215" height="57.94" transform="translate(-278.914 -4834.491)" fill="#d3dfed"/>
      <g id="Group_5360" data-name="Group 5360" transform="translate(-265.304 -4852.185)">
        <path id="Path_54547" data-name="Path 54547" d="M102.4,135.467v5.444a9.333,9.333,0,0,0,18.665,0v-5.444Z" transform="translate(-102.4 -122.246)" fill="#87abd5"/>
        <path id="Path_54549" data-name="Path 54549" d="M307.2,135.467v5.444a9.333,9.333,0,0,0,18.665,0v-5.444Z" transform="translate(-269.87 -122.246)" fill="#87abd5"/>
        <path id="Path_54552" data-name="Path 54552" d="M121.065,76.154,123.4,62.933h-14l-7,13.221Z" transform="translate(-102.4 -62.933)" fill="#87abd5"/>
        <path id="Path_54554" data-name="Path 54554" d="M315.4,76.154l-7-13.221h-14l2.333,13.221Z" transform="translate(-259.403 -62.933)" fill="#87abd5"/>
      </g>
      <g id="Group_5359" data-name="Group 5359" transform="translate(-283.969 -4852.185)">
        <path id="Path_54546" data-name="Path 54546" d="M0,135.467v5.444a9.213,9.213,0,0,0,9.333,9.333,9.213,9.213,0,0,0,9.333-9.333v-5.444Z" transform="translate(0 -122.246)" fill="#22548d"/>
        <path id="Path_54548" data-name="Path 54548" d="M204.8,135.467v5.444a9.333,9.333,0,0,0,18.665,0v-5.444Z" transform="translate(-167.47 -122.246)" fill="#22548d"/>
        <path id="Path_54550" data-name="Path 54550" d="M409.6,135.467v5.444a9.333,9.333,0,0,0,18.665,0v-5.444Z" transform="translate(-334.939 -122.246)" fill="#22548d"/>
        <path id="Path_54551" data-name="Path 54551" d="M18.665,76.154l7-13.221H11.86L0,76.154Z" transform="translate(0 -62.933)" fill="#22548d"/>
        <path id="Path_54553" data-name="Path 54553" d="M223.465,76.154l-2.333-13.221h-14L204.8,76.154Z" transform="translate(-167.47 -62.933)" fill="#22548d"/>
        <path id="Path_54555" data-name="Path 54555" d="M396.865,76.154,385,62.933H371.2l7,13.221Z" transform="translate(-303.539 -62.933)" fill="#22548d"/>
      </g>
      <path id="Path_54556" data-name="Path 54556" d="M-1.108-3.763c.556-.91,27.224-1.309,28,0s0,37.525,0,37.525h-28S-1.663-2.852-1.108-3.763Z" transform="translate(-270.029 -4810.313)" fill="#1b5496"/>
      <path id="Path_54557" data-name="Path 54557" d="M-1.9-3.573c.143-.649,19.274-.455,19.973,0s.658,18.344,0,18.411-19.553.51-19.973,0S-2.047-2.924-1.9-3.573Z" transform="translate(-227.012 -4805.813)" fill="#1b5496"/>
      <path id="Path_54558" data-name="Path 54558" d="M-2.948-3.719c.478-.715,14.96-.426,15.51,0s.369,13.518,0,13.948-15.07.452-15.51,0S-3.426-3-2.948-3.719Z" transform="translate(-223.736 -4803.436)" fill="#fffaf4"/>
      <path id="Path_54649" data-name="Path 54649" d="M-1.154-3.829c.451-.839,22.1-1.205,22.73,0s0,34.569,0,34.569H-1.154S-1.605-2.99-1.154-3.829Z" transform="translate(-267.34 -4807.292)" fill="#fffaf4"/>
      <path id="Path_54559" data-name="Path 54559" d="M-1.969-2.29c.988-.518,91.871-.826,93.326,0s0,6.222,0,6.222H-1.969S-2.957-1.772-1.969-2.29Z" transform="translate(-282 -4774.261)" fill="#1b5496"/>
    </g>
  </g>
</svg>
