<svg xmlns="http://www.w3.org/2000/svg" width="24" height="16.799" viewBox="0 0 24 16.799">
  <path id="Box_Open_Icon___Font_Awesome-49" data-name="Box Open Icon _ Font Awesome-49" d="M15.922,40.364a1.818,1.818,0,0,1-1.552-.877l-2.411-4-2.407,4A1.824,1.824,0,0,1,8,40.368a1.725,1.725,0,0,1-.5-.071l-5.137-1.47V45.5a1.2,1.2,0,0,0,.907,1.162l8.107,2.029a2.437,2.437,0,0,0,1.162,0l8.114-2.029a1.2,1.2,0,0,0,.907-1.162V38.826l-5.137,1.466A1.725,1.725,0,0,1,15.922,40.364Zm7.972-4.207L21.963,32.3a.612.612,0,0,0-.626-.334l-9.378,1.2,3.439,5.7a.616.616,0,0,0,.694.274l7.421-2.119a.618.618,0,0,0,.382-.866ZM1.954,32.3.023,36.157a.611.611,0,0,0,.379.862l7.421,2.119a.616.616,0,0,0,.694-.274l3.442-5.7-9.382-1.2a.613.613,0,0,0-.622.334Z" transform="translate(0.042 -31.963)" fill="#181E85"/>
</svg>
