<svg xmlns="http://www.w3.org/2000/svg" xmlns:xlink="http://www.w3.org/1999/xlink" width="70" height="70" viewBox="0 0 70 70">
  <defs>
    <clipPath id="clip-path">
      <path id="Path_53416" data-name="Path 53416" d="M1561.607-231.489a.565.565,0,0,1,.719.348.565.565,0,0,1-.348.719c-3.712,1.289-6.127,4.838-6.361,9.3l-.007.135a32.664,32.664,0,0,0,1.927,12.708,9.727,9.727,0,0,0,4.773,5.334,6.087,6.087,0,0,0,6.7-.69.565.565,0,0,1,.793.093.565.565,0,0,1-.093.793,7.211,7.211,0,0,1-7.886.823,10.854,10.854,0,0,1-5.349-5.969,33.783,33.783,0,0,1-2-12.9l.01-.244C1554.691-226,1557.4-230.027,1561.607-231.489Z" transform="translate(-1554.443 231.52)" fill="none"/>
    </clipPath>
    <clipPath id="clip-path-2">
      <path id="Path_53418" data-name="Path 53418" d="M1591.928-207.445a7.654,7.654,0,0,1,6.421.054,9.438,9.438,0,0,1,3.689,3.7,19.774,19.774,0,0,1,.987,1.862l.14.3.6,1.338.036.079c1.248,2.631,1.392,4.681.286,6.974a3.554,3.554,0,0,1-2.36,2.147,3.993,3.993,0,0,1-3.421-1.208,14.413,14.413,0,0,1-1.588-1.6l-.137-.163-.068-.083-.138-.171-.071-.089-.365-.47-.267-.346a6.883,6.883,0,0,0-2.361-2.063c-.275-.151-.577-.3-.912-.449a.565.565,0,0,1-.287-.745.565.565,0,0,1,.746-.287c.363.161.695.325,1,.492a7.974,7.974,0,0,1,2.705,2.357l.612.78.261.328.116.143.175.212.128.15.091.1.059.065.087.093.057.06.057.059.064.064.1.1.1.1.11.1.182.161.281.244a2.992,2.992,0,0,0,2.444.959,2.511,2.511,0,0,0,1.581-1.533c.926-1.922.826-3.6-.235-5.882l-.113-.243-.62-1.381-.015-.034a19.368,19.368,0,0,0-1.016-1.938c-2.076-3.423-4.774-4.8-8.741-3.281a.565.565,0,0,1-.729-.326A.565.565,0,0,1,1591.928-207.445Z" transform="translate(-1591.565 208.119)" fill="none"/>
    </clipPath>
    <clipPath id="clip-path-3">
      <path id="Path_53420" data-name="Path 53420" d="M1691.451-193.342a.565.565,0,0,1-.261.755l-.432.216-1.4.723-3.957,2.06-.692.352-.109.053-.022.01a5.668,5.668,0,0,0-1.185.694l-.1.078-.058.052a4.707,4.707,0,0,0-.621.7l-.063.09a1.986,1.986,0,0,0-.428,1.278l.01.1.015.208.022.32.01.119.015.132.014.092.005.031c.137.811.625,1.3,1.948,1.453l.147.016.155.013.161.01.168.008c.086,0,.174.005.266.007h.38l.2,0a.565.565,0,0,1,.579.55.565.565,0,0,1-.55.579q-.426.011-.807,0l-.188-.009c-2.284-.124-3.327-.954-3.576-2.433l-.013-.08-.011-.077-.01-.078-.009-.082-.012-.138-.017-.23-.019-.272-.008-.088c0-.009,0-.018,0-.027a3.04,3.04,0,0,1,.618-2.035,5.764,5.764,0,0,1,.869-1l.072-.064.019-.015a6.8,6.8,0,0,1,1.412-.873l.125-.056.3-.148.876-.45,4.719-2.456.482-.245.2-.1A.565.565,0,0,1,1691.451-193.342Z" transform="translate(-1680.989 193.66)" fill="none"/>
    </clipPath>
    <clipPath id="clip-path-4">
      <path id="Path_53422" data-name="Path 53422" d="M1688.312-219.678l.062-.029c.07-.031.094-.031.133-.017l.054.022.052.019.034.01a.565.565,0,0,1,.385.7.565.565,0,0,1-.7.385.427.427,0,0,1,.095.038l.025.016.017.012c.015.01.025.011.055,0l.038-.017.1-.048-.123.066-.137.076-.351.2-.315.184-.261.155-.272.162-.421.255-.43.264-.364.227-.323.2-.312.2-.3.2-.29.19-.186.124-.181.122-.175.119-.25.173-.159.112-.153.109-.216.158-.135.1-.127.1-.12.094-.165.134-.1.085-.092.081-.043.039a3.291,3.291,0,0,0-1.074,3.154,1.561,1.561,0,0,0,2.14,1.1.565.565,0,0,1,.69.4.565.565,0,0,1-.4.69,2.679,2.679,0,0,1-3.517-1.9,4.414,4.414,0,0,1,1.4-4.28l.049-.044.1-.091.112-.095.12-.1.128-.1.136-.105.071-.054.147-.11.154-.113.161-.116.168-.119.175-.122.181-.125.188-.128.293-.2.306-.2.319-.207.331-.211.458-.288.263-.164.291-.179.432-.263.28-.168.271-.161.26-.153.346-.2.308-.174.133-.073.1-.051Z" transform="translate(-1680.366 219.734)" fill="none"/>
    </clipPath>
    <clipPath id="clip-path-5">
      <path id="Path_53424" data-name="Path 53424" d="M1688.391-254.318l.08,0,.155.008.151.01q.112.008.219.02l.14.016.136.019.132.022q.1.017.191.038l.122.029a2.652,2.652,0,0,1,2.08,2.451l.025.144.022.149c0,.025.007.051.01.076l.019.156.009.08.015.163c0,.028,0,.055.007.083l.012.17c0,.029,0,.058.005.087l.01.177.007.182,0,.075.036.414.036.028.078.061.152.122.073.061.143.121c1.987,1.717,2.276,3.322,1.1,5.738l-.027.056,0,.129,0,0c3.05,2.923,3.261,5.455.718,8.649l-.049.061-.287.511.025.053a4.781,4.781,0,0,1-.2,4.4l-.049.082a5.493,5.493,0,0,1-1.86,1.659l-.176.109-.091.055-.186.11-.095.055-.2.11-.2.111-.208.111-.214.112-.219.112-.226.113-.115.057-.234.114-.119.057-.242.114-.248.115-.253.115-.259.116c-.294.13-.6.259-.9.385l-.3.123-.38.153-.376.148-.369.142-.359.135-.346.127-.249.089-.239.084-.228.078-.215.071-.2.064-.244.074-.163.046-.145.038-.086.02-.039.009-.073.014-.032.006c-1.77.287-3.15-.362-3.616-1.612a2.862,2.862,0,0,1,1.33-3.35l.094-.059.107-.063.784-.451,3.322-1.885.752-.431.763-.442.6-.35.527-.315.269-.163.3-.187.263-.167.139-.09.163-.109.105-.073.062-.044.08-.06.065-.052.035-.03.015-.014a.565.565,0,0,1,.8.02.565.565,0,0,1-.019.8l-.042.038-.048.041-.054.044-.061.047-.067.05-.112.081-.082.058-.184.124-.155.1-.228.146-.254.159-.279.171-.3.184-.505.3-.663.388-.631.364-.982.561-3.423,1.945-.379.219-.1.06c-1.885,1.182-1.079,3.342,1.438,2.934l.055-.01.065-.014.114-.029.133-.037.2-.061.173-.055.253-.084.277-.095.221-.078.391-.142.33-.123.429-.164.441-.173.269-.108.27-.11.191-.079c.286-.119.571-.241.847-.364l.236-.105.231-.105.227-.1.222-.1.216-.1.212-.1.1-.052.3-.154.2-.1.1-.051.187-.1.092-.05.179-.1.087-.049.17-.1.164-.1.158-.1.151-.095.145-.094.138-.093.131-.091.063-.045.121-.089.058-.044.11-.087.1-.085.1-.084a2.289,2.289,0,0,0,.412-.466l.021-.036a3.658,3.658,0,0,0,.063-3.694.565.565,0,0,1,0-.553l.46-.819a.566.566,0,0,1,.053-.079c2.184-2.694,2.128-4.561-.316-7l-.157-.155-.081-.078-.167-.157a.565.565,0,0,1-.18-.386v-.09l.013-.462a.57.57,0,0,1,.061-.239l.039-.077.074-.151c.024-.05.047-.1.069-.148l.065-.144.06-.141.028-.069.053-.137a2.729,2.729,0,0,0-.786-3.364l-.111-.1-.057-.052-.119-.105-.125-.107-.065-.054-.134-.108-.139-.11-.146-.111L1691.1-249a.564.564,0,0,1-.225-.4l-.059-.678,0-.033-.005-.168-.007-.162-.008-.156-.009-.15-.011-.144-.012-.138-.014-.133-.015-.127c0-.021-.005-.041-.008-.062l-.018-.12-.01-.058-.021-.112a1.568,1.568,0,0,0-1.395-1.46l-.1-.018-.1-.016-.109-.014-.056-.006-.115-.011-.12-.009-.124-.007-.129-.006h-.036l-1.634.125-.117.052-.037.017c-.2.092-.434.21-.7.357a20.746,20.746,0,0,0-2.595,1.725q-.146.112-.291.231l-.144.12-.142.123-.141.126-.139.128-.138.131-.136.133-.134.135-.132.137-.13.139-.128.14-.063.071-.124.142q-.092.107-.181.215l-.117.145-.057.073-.113.145-.109.146-.053.073-.1.146-.1.146c-.049.073-.1.146-.144.219l-.092.145q-.089.145-.171.289l-.079.143q-.058.107-.111.213l-.068.14c-.46.975-.577,1.839-.146,2.328.565.643,1.812.58,3.512-.1l.188-.076q.331-.138.683-.3l.2-.1a24.187,24.187,0,0,0,2.343-1.33l.261-.169.207-.137.2-.134.228-.157.287-.2.073-.053.061-.046.008-.007a.565.565,0,0,1,.8.062.565.565,0,0,1-.062.8l-.058.048-.068.054-.121.091-.093.067-.155.11-.174.12-.257.172-.21.137-.222.142-.233.147-.161.1-.248.151-.254.152-.259.151-.262.15-.176.1-.263.144-.175.093-.174.091-.172.088-.17.085-.1.048-.2.094-.195.09q-.193.088-.382.168l-.188.078-.185.074-.183.07-.18.066-.178.062c-1.827.619-3.258.563-4.144-.445-.957-1.088-.668-2.655.458-4.434a15,15,0,0,1,3.192-3.531,21.85,21.85,0,0,1,2.738-1.818l.154-.084.213-.112.13-.066.12-.059.162-.077.049-.022.131-.057.075-.031.033-.013a.569.569,0,0,1,.118-.031l.041,0,1.753-.134.031,0Z" transform="translate(-1678.388 254.318)" fill="none"/>
    </clipPath>
    <clipPath id="clip-path-6">
      <path id="Path_53426" data-name="Path 53426" d="M1613.173-137.338l.084-.036a.433.433,0,0,1,.269-.051l.064.011.081.016.087.044.038.02.028.017.011.008.021.018.037.037.06.076.015.021.01.018.011.022a.738.738,0,0,1,.035.082l.019.062.025.09.031.123.069.291.457,2.059.77,3.533.242,1.086.158.679.041.165a1.194,1.194,0,0,0,.577.769l.04.021.042.018a1.094,1.094,0,0,0,.575.055l.058-.012.919-.214.718-.165,2.07-.467,1.675-.372.468-.1,1.228-.269,1.7-.367,1.782-.379,1.354-.28.691-.139.331-.064.35-.065.231-.041.151-.024.084-.012.072-.009c.043-.005.08-.008.115-.01h.048l.7-.136.694-.138c1.111-.223,2.222-.457,3.258-.692l.4-.091.382-.089.367-.088.354-.087.171-.043.285-.073.339-.089.215-.058.205-.057.2-.056.186-.054.175-.053.166-.052.079-.025.15-.05.139-.049.129-.047.118-.046.032-.015a.443.443,0,0,0,.216-.34l.01-.057.008-.062.005-.067c0-.012,0-.024,0-.036l0-.075c0-.013,0-.026,0-.04v-.084l0-.09-.006-.1-.008-.1-.01-.108-.012-.115-.015-.122-.027-.2-.021-.139-.023-.147-.04-.234-.045-.252-.069-.364-.058-.3a.565.565,0,0,1,.443-.665.565.565,0,0,1,.665.443l.084.426.055.29.048.267.042.245.036.226.021.141.018.134.016.128.012.122.01.117.008.112.006.108c0,.035,0,.07,0,.1v.1c0,.034,0,.067,0,.1a1.652,1.652,0,0,1-.985,1.685l-.064.025-.136.051-.146.052-.077.027-.162.054-.172.055-.09.028-.187.057-.3.087-.211.059-.22.06-.229.061-.362.094-.344.087-.359.088-.374.089-.387.091-.4.092c-.93.211-1.917.421-2.912.623l-.939.188-.766.149-.163.031a.571.571,0,0,1-.141.009l-.017,0-.12.017-.129.021-.219.038-.34.064-.412.08-.487.1-.932.191-1.376.29-1.41.3-1.451.315-2.515.554-1.6.359-1.186.269-1.025.236-.484.113a2.225,2.225,0,0,1-1.323-.1l-.078-.033-.024-.011a2.32,2.32,0,0,1-1.2-1.471l-.086-.352-.084-.358-.257-1.143-1.105-5.059-.129-.573-.1-.419-.023-.091-.009-.018a.56.56,0,0,1-.049-.208v-.037l0-.039.014-.1,0-.021.007-.02.01-.021.006-.011.017-.025.037-.047.077-.089Z" transform="translate(-1612.916 137.43)" fill="none"/>
    </clipPath>
    <clipPath id="clip-path-7">
      <path id="Path_53428" data-name="Path 53428" d="M1603.485-310.49c1.311-.24,2.186-.168,2.827.539a2.374,2.374,0,0,1,.539,1.184l.424,2.022.352,1.661.422,1.957.814,3.694.147.662a.565.565,0,0,1-.429.674.565.565,0,0,1-.674-.429l-.812-3.675-.472-2.173-.356-1.675-.5-2.4a1.552,1.552,0,0,0-.29-.745c-.284-.314-.839-.359-1.787-.186q-9.71,1.775-19.291,4.125l-.084.021-.16.042c-.694.188-1.046.373-1.238.678a1.853,1.853,0,0,0-.072,1.393l.032.158.019.083.173.752.287,1.274.249,1.137.4,1.875,1.195,5.715.338,1.583.281,1.283.164.729.15.655.088.381a.565.565,0,0,1-.422.678.565.565,0,0,1-.678-.422l-.218-.948-.164-.726-.245-1.112-.242-1.127-.752-3.586-.484-2.319L1582.6-299l-.29-1.337-.177-.794-.126-.559-.129-.563-.066-.287a3.1,3.1,0,0,1,.146-2.579,2.817,2.817,0,0,1,1.888-1.162l.184-.048.1-.024Q1593.742-308.709,1603.485-310.49Z" transform="translate(-1581.617 310.614)" fill="none"/>
    </clipPath>
    <clipPath id="clip-path-8">
      <path id="Path_53430" data-name="Path 53430" d="M1626.165-259.46a6.5,6.5,0,0,1,5.437,1.148,6.914,6.914,0,0,1,2.221,3.021c.82,2.309.8,4.568.093,7.683l-.072.309q-.055.234-.115.475l-.082.324c-.028.109-.057.219-.087.33l-.091.337-.107.39-.056.211-.027.1-.051.2-.048.2-.046.2-.044.2-.042.2-.041.2c-.007.034-.013.068-.02.1l-.059.316-.039.221-.039.231-.04.243-.062.391-.149.973-.056.347-.053.32-.052.3-.053.283-.054.273-.057.27-.04.181-.042.183-.045.188-.043.173-.007.041a1.67,1.67,0,0,1-1.581,1.58h-.055a1.986,1.986,0,0,1-1.584-.833.565.565,0,0,1,.2-.775.565.565,0,0,1,.774.2.922.922,0,0,0,.626.283c.254,0,.424-.148.511-.64l.01-.056.01-.049.068-.276.042-.177.04-.174.038-.173.054-.26.052-.266.051-.278.051-.3.07-.431.076-.487.092-.6.064-.4.062-.371.041-.233.041-.224.041-.216.042-.211.043-.207.044-.2.046-.2.049-.205.052-.209.055-.213.059-.22.108-.4.089-.328.084-.322.08-.315q.058-.234.112-.461l.069-.3.065-.294a11.755,11.755,0,0,0-.12-6.762,5.8,5.8,0,0,0-1.849-2.506,5.378,5.378,0,0,0-4.528-.933l-.189.038-.181.039-.174.041a4.84,4.84,0,0,0-2.6,1.485l-.127.132-.13.14-.134.147-.137.155-.142.164a6.3,6.3,0,0,0-1.126,5.546,5.4,5.4,0,0,0,.316.764,12.411,12.411,0,0,0,1.395,2.1l.129.162.094.115.389.463,1.1,1.292.168.2.088.109,1.4,1.909.376.509.376.505.336.447.239.313.211.272.128.162.14.173.087.1.064.073.015.008a.565.565,0,0,1,.289.456v.037a.566.566,0,0,1-.635.574.565.565,0,0,1-.315-.131,1.26,1.26,0,0,1-.146-.135l-.07-.077-.064-.074-.072-.085-.122-.15-.139-.175-.208-.268-.175-.228-.325-.429-.289-.386-.668-.9-1.317-1.8-.055-.069-.063-.077-.647-.764-.617-.726-.333-.4-.075-.092-.064-.079a13.867,13.867,0,0,1-1.627-2.434,6.519,6.519,0,0,1-.382-.924,7.418,7.418,0,0,1,1.345-6.625c.156-.181.305-.35.451-.508l.144-.154a5.986,5.986,0,0,1,3.156-1.9l.192-.047Q1625.9-259.408,1626.165-259.46Z" transform="translate(-1620.081 259.617)" fill="none"/>
    </clipPath>
    <clipPath id="clip-path-9">
      <path id="Path_53432" data-name="Path 53432" d="M1643.91-238.063a.564.564,0,0,1,.247.042l.015.007.013,0a3.034,3.034,0,0,1,2.427,1.9l.024.072a3.268,3.268,0,0,1-1.358,3.29l-.058.043a2.225,2.225,0,0,1-2.025.341l-.071-.024-.024-.009a3.081,3.081,0,0,1-1.893-3.114l.007-.073.005-.036q.028-.158.06-.3l.033-.143a2.236,2.236,0,0,1,2.278-1.97l.132-.012.03-.006a.558.558,0,0,1,.107-.008l.034,0Zm.015,1.151-.081-.015-.116.009-.112.011c-.685.077-.96.271-1.136.832l-.027.092c-.009.032-.018.064-.026.1l-.024.1-.024.111-.023.118-.019.1,0,.046a1.951,1.951,0,0,0,1.143,1.932l.043.018.045.015a1.1,1.1,0,0,0,.936-.146l.049-.035a2.256,2.256,0,0,0,1.012-2.08A1.944,1.944,0,0,0,1643.925-236.912Z" transform="translate(-1641.197 238.064)" fill="none"/>
    </clipPath>
    <clipPath id="clip-path-10">
      <path id="Path_53434" data-name="Path 53434" d="M1630.672-288.907a.565.565,0,0,1,.661.449.565.565,0,0,1-.449.661l-.294.057-.418.083-.571.119-.683.148-1.614.354-.5.106-.409.083-.382.075-.133.025a.565.565,0,0,1-.661-.449.565.565,0,0,1,.449-.661l.365-.071.478-.1.716-.152,1.9-.416.611-.129.347-.071.435-.086Z" transform="translate(-1625.207 288.917)" fill="none"/>
    </clipPath>
    <clipPath id="clip-path-11">
      <path id="Path_53436" data-name="Path 53436" d="M1668.44-131.488a2.024,2.024,0,0,1,2.121.8,2.023,2.023,0,0,1,.05,2.266,2.024,2.024,0,0,1-2.084.891,2.023,2.023,0,0,1-1.6-1.6,2.531,2.531,0,0,1,1.228-2.2l.028-.016.01-.01a.562.562,0,0,1,.215-.123Zm1.2,1.452a.9.9,0,0,0-.746-.377l-.056,0-.018.011-.031.016-.017.008-.026.018-.044.032-.024.019a2.7,2.7,0,0,0-.329.311.932.932,0,0,0-.316.646.9.9,0,0,0,.709.708.894.894,0,0,0,.921-.394A.894.894,0,0,0,1669.639-130.036Z" transform="translate(-1666.902 131.543)" fill="none"/>
    </clipPath>
  </defs>
  <g id="Free-UK-Delivery" transform="translate(-403 -2126)">
    <path id="Subtraction_8" data-name="Subtraction 8" d="M1096-3612a34.777,34.777,0,0,1-13.624-2.75,34.884,34.884,0,0,1-11.125-7.5,34.879,34.879,0,0,1-7.5-11.125A34.784,34.784,0,0,1,1061-3647a34.786,34.786,0,0,1,2.75-13.624,34.881,34.881,0,0,1,7.5-11.125,34.878,34.878,0,0,1,11.125-7.5A34.777,34.777,0,0,1,1096-3682a34.776,34.776,0,0,1,13.623,2.75,34.881,34.881,0,0,1,11.125,7.5,34.883,34.883,0,0,1,7.5,11.125A34.783,34.783,0,0,1,1131-3647a34.78,34.78,0,0,1-2.75,13.623,34.883,34.883,0,0,1-7.5,11.125,34.887,34.887,0,0,1-11.125,7.5A34.776,34.776,0,0,1,1096-3612Zm0-69a33.781,33.781,0,0,0-13.234,2.672,33.888,33.888,0,0,0-10.807,7.287,33.889,33.889,0,0,0-7.286,10.808A33.786,33.786,0,0,0,1062-3647a33.785,33.785,0,0,0,2.672,13.234,33.887,33.887,0,0,0,7.286,10.807,33.882,33.882,0,0,0,10.807,7.286A33.781,33.781,0,0,0,1096-3613a33.781,33.781,0,0,0,13.234-2.672,33.882,33.882,0,0,0,10.807-7.286,33.887,33.887,0,0,0,7.286-10.807A33.786,33.786,0,0,0,1130-3647a33.786,33.786,0,0,0-2.672-13.234,33.887,33.887,0,0,0-7.286-10.808,33.888,33.888,0,0,0-10.807-7.287A33.781,33.781,0,0,0,1096-3681Z" transform="translate(-658 5808)" fill="#181E85"/>
    <g id="Group_5317" data-name="Group 5317" transform="translate(4)">
      <g id="Group_4377" data-name="Group 4377" transform="translate(412 2153.872)" clip-path="url(#clip-path)">
        <path id="Path_53415" data-name="Path 53415" d="M1549.443-236.52h17.742v32.659h-17.742Z" transform="translate(-1550.573 235.39)" fill="#181E85"/>
      </g>
      <g id="Group_4378" data-name="Group 4378" transform="translate(420.388 2159.16)" clip-path="url(#clip-path-2)">
        <path id="Path_53417" data-name="Path 53417" d="M1586.565-213.119H1602.1v19.45h-15.531Z" transform="translate(-1587.695 211.989)" fill="#181E85"/>
      </g>
      <g id="Group_4379" data-name="Group 4379" transform="translate(440.594 2162.427)" clip-path="url(#clip-path-3)">
        <path id="Path_53419" data-name="Path 53419" d="M1675.989-198.66h12.779v13.276h-12.779Z" transform="translate(-1677.119 197.53)" fill="#181E85"/>
      </g>
      <g id="Group_4380" data-name="Group 4380" transform="translate(440.453 2156.536)" clip-path="url(#clip-path-4)">
        <path id="Path_53421" data-name="Path 53421" d="M1675.366-224.734h10.948v12.805h-10.948Z" transform="translate(-1676.496 223.604)" fill="#181E85"/>
      </g>
      <g id="Group_4381" data-name="Group 4381" transform="translate(440.006 2148.721)" clip-path="url(#clip-path-5)">
        <path id="Path_53423" data-name="Path 53423" d="M1673.388-259.318h19.874v32.124h-19.874Z" transform="translate(-1674.518 258.188)" fill="#181E85"/>
      </g>
      <g id="Group_4382" data-name="Group 4382" transform="translate(425.212 2175.133)" clip-path="url(#clip-path-6)">
        <path id="Path_53425" data-name="Path 53425" d="M1607.916-142.43h30.564v12.749h-30.564Z" transform="translate(-1609.046 141.3)" fill="#181E85"/>
      </g>
      <g id="Group_4383" data-name="Group 4383" transform="translate(418.14 2136)" clip-path="url(#clip-path-7)">
        <path id="Path_53427" data-name="Path 53427" d="M1576.617-315.614h29.666v26.07h-29.666Z" transform="translate(-1577.747 314.484)" fill="#181E85"/>
      </g>
      <g id="Group_4384" data-name="Group 4384" transform="translate(426.831 2147.523)" clip-path="url(#clip-path-8)">
        <path id="Path_53429" data-name="Path 53429" d="M1615.081-264.617H1631.7v24.552h-16.619Z" transform="translate(-1616.211 263.487)" fill="#181E85"/>
      </g>
      <g id="Group_4385" data-name="Group 4385" transform="translate(431.603 2152.394)" clip-path="url(#clip-path-9)">
        <path id="Path_53431" data-name="Path 53431" d="M1636.2-243.064h7.794V-235H1636.2Z" transform="translate(-1637.326 241.934)" fill="#181E85"/>
      </g>
      <g id="Group_4386" data-name="Group 4386" transform="translate(427.99 2140.903)" clip-path="url(#clip-path-10)">
        <path id="Path_53433" data-name="Path 53433" d="M1620.207-293.917h8.4v4.439h-8.4Z" transform="translate(-1621.337 292.787)" fill="#181E85"/>
      </g>
      <g id="Group_4387" data-name="Group 4387" transform="translate(437.411 2176.463)" clip-path="url(#clip-path-11)">
        <path id="Path_53435" data-name="Path 53435" d="M1661.9-136.543h6.291v6.308H1661.9Z" transform="translate(-1663.032 135.413)" fill="#181E85"/>
      </g>
    </g>
  </g>
</svg>
