<svg xmlns="http://www.w3.org/2000/svg" xmlns:xlink="http://www.w3.org/1999/xlink" width="97.265" height="97.265" viewBox="0 0 97.265 97.265">
  <defs>
    <clipPath id="clip-path">
      <rect id="Rectangle_2253" data-name="Rectangle 2253" width="97.265" height="97.265" transform="translate(0 0)" fill="#fff"/>
    </clipPath>
  </defs>
  <g id="No_Issue" data-name="No Issue" clip-path="url(#clip-path)">
    <g id="et8Xwh.tif" transform="translate(0.042 0.086)">
      <g id="Group_2124" data-name="Group 2124">
        <g id="Group_2123" data-name="Group 2123">
          <path id="Path_46054" data-name="Path 46054" d="M168.132,2091.759a6.465,6.465,0,0,0,.234-1.158,46.278,46.278,0,0,1,4.345-18.477,48.28,48.28,0,0,1,38.8-27.935,51.326,51.326,0,0,1,9.355-.134,46.459,46.459,0,0,1,14.707,3.58,49.317,49.317,0,0,1,25.074,23.932,48.813,48.813,0,0,1,4.54,24.636,48.114,48.114,0,0,1-9.9,25.9,49.6,49.6,0,0,1-14.06,12.42,48.872,48.872,0,0,1-16.269,5.9,48.057,48.057,0,0,1-12.248.5,47.362,47.362,0,0,1-22.536-7.746,48.589,48.589,0,0,1-19.489-25.414,42.639,42.639,0,0,1-2.052-9.5c-.117-1.3-.164-2.592-.27-3.888a9.539,9.539,0,0,0-.237-1.159Zm95.57,1.105c-.108-13.293-4.658-24.436-13.73-33.569a47,47,0,1,0-.031,66.405A45.872,45.872,0,0,0,263.7,2092.864Z" transform="translate(-168.13 -2043.903)" fill="#fff"/>
          <path id="Path_46055" data-name="Path 46055" d="M275.779,2182.225a28.331,28.331,0,0,1-7.805-1.1,8.43,8.43,0,0,1-.814-.27.808.808,0,1,1,.432-1.554,4.272,4.272,0,0,1,.587.155,28.519,28.519,0,0,0,9.51,1.006,26.573,26.573,0,0,0,9.058-2.184,27.763,27.763,0,0,0,9.25-6.4,27.107,27.107,0,0,0,7.351-14.579,27.408,27.408,0,0,0-5.784-22.3,27.939,27.939,0,0,0-49.176,12.369,26.111,26.111,0,0,0-.5,5.806A27.873,27.873,0,0,0,254.5,2170.6a9.934,9.934,0,0,0,5.149,3.3,9.765,9.765,0,0,0,6.854-.829,21.045,21.045,0,0,0,4.816-3.279,56.969,56.969,0,0,0,10.134-12.4,93.3,93.3,0,0,0,5.267-9.333,1.686,1.686,0,0,1,.47-.693,1.1,1.1,0,0,1,.864-.186,1.023,1.023,0,0,1,.411.773,2.026,2.026,0,0,1-.28.915,87.375,87.375,0,0,1-10.846,17.159,36.287,36.287,0,0,1-6.709,6.514,17.365,17.365,0,0,1-5.712,2.916,10.846,10.846,0,0,1-10.677-2.729,22.642,22.642,0,0,1-4.279-5.739,28,28,0,0,1-3.456-10.21,29.807,29.807,0,0,1,19.589-32.28,28.584,28.584,0,0,1,12.1-1.541,29.035,29.035,0,0,1,16.606,6.818,29.784,29.784,0,0,1,9.138,13.419,28.617,28.617,0,0,1,1.4,7.512,29.983,29.983,0,0,1-1.029,9.864,28.637,28.637,0,0,1-5.191,10.26,29.628,29.628,0,0,1-11.643,8.975,26.036,26.036,0,0,1-7.359,2.042C278.688,2182.016,277.232,2182.1,275.779,2182.225Z" transform="translate(-227.165 -2103.549)" fill="#fff"/>
          <path id="Path_46056" data-name="Path 46056" d="M329.306,2183.688a45.766,45.766,0,0,1-1.5,11.266,19.777,19.777,0,0,1-5.524,9.439,14.293,14.293,0,0,1-7.862,3.533,8.25,8.25,0,0,1-.851.03c-.445.01-.843-.1-.906-.605s.255-.726.72-.8c.324-.047.634-.144.955-.184a12.8,12.8,0,0,0,9.671-6.431,24.761,24.761,0,0,0,2.926-7.832,46.064,46.064,0,0,0,.738-11.028c-.025-1.006-.122-1.1-1.188-.935a19.587,19.587,0,0,0-6.184,2.128,25.5,25.5,0,0,0-9.666,8.865,18.593,18.593,0,0,0-2.9,7.3,9.426,9.426,0,0,0-.2,3.745.89.89,0,0,1,.025.36c-.07.4-.311.731-.71.693a1.08,1.08,0,0,1-.724-.507,2.332,2.332,0,0,1-.116-.951c-.054-1.069-.051-1.063-1.1-1.442-.457-.167-.916-.334-1.359-.54a15.013,15.013,0,0,1-6.626-6.078,24.05,24.05,0,0,1-3.056-8.549c-.284-1.633-.384-3.3-.554-4.951a19.939,19.939,0,0,1-.187-2.424c.032-1.62.133-3.24.235-4.86.054-.846.273-1.054,1.167-1a16.059,16.059,0,0,1,2.643.351,24.162,24.162,0,0,1,10.937,5.832,25.107,25.107,0,0,1,5.113,6.156c.37.657.54.676,1.141.235.982-.717,1.922-1.494,2.923-2.18a22.759,22.759,0,0,1,8.8-3.672,11.308,11.308,0,0,1,2.052-.161c.665,0,.835.194.886.891C329.139,2180.89,329.224,2182.389,329.306,2183.688Zm-34.576-6.421-.168.014c.216,2.218.357,4.443.656,6.648a24,24,0,0,0,2.714,8.532,13.088,13.088,0,0,0,7.236,6.356c.767.267.953.174,1.074-.6a18.283,18.283,0,0,1,1.581-5.1,1.226,1.226,0,0,0-.078-1.455c-.2-.252-.324-.562-.5-.836a78.756,78.756,0,0,0-8.372-10.887c-.579-.621-1.152-1.252-1.693-1.909a.7.7,0,0,1,.032-1,.695.695,0,0,1,.991,0,4.648,4.648,0,0,1,.617.586c1.42,1.612,2.916,3.163,4.228,4.86,1.928,2.5,3.717,5.117,5.564,7.684.324.455.46.463.8.012.559-.746,1.08-1.527,1.666-2.248,1.6-1.96,1.6-1.944.124-4.074a25.6,25.6,0,0,0-9.612-8.4,18.78,18.78,0,0,0-5.867-1.915c-.825-.117-.947-.023-.978.8-.04.979-.011,1.956-.011,2.929Z" transform="translate(-262.61 -2140.625)" fill="#fff"/>
          <path id="Path_46057" data-name="Path 46057" d="M402.212,2386.161c-.141-.531-.275-1.04-.414-1.548-.108-.385.162-.5.432-.6.311-.109.448.08.518.34q.525,1.932,1.042,3.867c.1.355-.082.465-.375.344a9.555,9.555,0,0,1-1.072-.564c-.526-.3-1.037-.632-1.569-.921-.356-.193-.552-.055-.478.341a13.285,13.285,0,0,0,.363,1.409c.108.365.095.648-.338.743a.469.469,0,0,1-.63-.389c-.324-1.252-.669-2.5-.972-3.76-.1-.405.094-.54.467-.341.864.449,1.7.934,2.562,1.385a.678.678,0,0,0,.432,0C402.221,2386.466,402.205,2386.26,402.212,2386.161Z" transform="translate(-342.414 -2300.83)" fill="#fff"/>
          <path id="Path_46058" data-name="Path 46058" d="M381.673,2082.677a2.25,2.25,0,0,1-2.327,2.4,2.308,2.308,0,0,1-2.46-2.288,2.507,2.507,0,0,1,2.436-2.5,2.3,2.3,0,0,1,2.351,2.4Zm-3.744.035a1.459,1.459,0,0,0,1.378,1.432,1.431,1.431,0,1,0-1.379-1.433Z" transform="translate(-325.924 -2071.382)" fill="#fff"/>
          <path id="Path_46059" data-name="Path 46059" d="M201.08,2222.116a2.269,2.269,0,0,1,2.34-2.376,2.329,2.329,0,0,1,2.433,2.439,2.47,2.47,0,0,1-2.448,2.356,2.322,2.322,0,0,1-2.325-2.419Zm3.743.108a1.565,1.565,0,0,0-1.265-1.547,1.424,1.424,0,0,0-.216,2.839,1.39,1.39,0,0,0,1.481-1.293Z" transform="translate(-193.034 -2176.742)" fill="#fff"/>
          <path id="Path_46060" data-name="Path 46060" d="M201.725,2251.883a3.882,3.882,0,0,1-.847-.017.563.563,0,0,1-.366-.373c-.012-.138.178-.414.3-.424,1.327-.127,2.657-.234,3.988-.3.364-.018.216.238.082.4-.47.559-.944,1.112-1.417,1.669a4.5,4.5,0,0,0-.463.562c-.175.294-.015.483.283.483.324,0,.638-.108.959-.121a2.174,2.174,0,0,1,.827.067c.139.051.255.3.281.48.014.093-.168.264-.3.317a2.412,2.412,0,0,1-.7.167c-1.048.092-2.1.167-3.145.238-.108.007-.31-.028-.324-.085a.541.541,0,0,1,.039-.419c.513-.679,1.054-1.336,1.574-2.011a3.16,3.16,0,0,0,.267-.518,5.548,5.548,0,0,0-.545-.119,4.035,4.035,0,0,0-.486,0Z" transform="translate(-192.604 -2200.182)" fill="#fff"/>
          <path id="Path_46061" data-name="Path 46061" d="M516.823,2230.791c-.444.039-.888.089-1.332.108a3.286,3.286,0,0,1-.549-.059,2.216,2.216,0,0,1,.247-.531c.495-.59,1.026-1.149,1.512-1.743a3.594,3.594,0,0,0,.359-.7c-.268-.011-.54-.031-.8-.03a7.462,7.462,0,0,1-1.091.01c-.189-.027-.352-.237-.526-.364.138-.163.254-.432.421-.472a10.846,10.846,0,0,1,1.679-.235c.648-.048,1.3-.045,1.944-.05a2.3,2.3,0,0,1,.462.094,1.618,1.618,0,0,1-.17.41c-.432.54-.877,1.065-1.311,1.6a4.633,4.633,0,0,0-.421.595c-.161.281-.031.458.312.425.362-.034.72-.108,1.08-.144a.78.78,0,0,1,.473.055.755.755,0,0,1,.324.459.506.506,0,0,1-.324.377c-.756.121-1.522.191-2.284.28Z" transform="translate(-430.055 -2182.022)" fill="#fff"/>
          <path id="Path_46062" data-name="Path 46062" d="M504.949,2184.9a2.592,2.592,0,0,1,2.582-2.534,2.326,2.326,0,0,1,2.293,2.7c-.03.182-.259.332-.4.5a2.023,2.023,0,0,1-.432-.472c-.132-.287-.133-.638-.28-.916a1.392,1.392,0,1,0-2.454,1.316c.122.226.287.38.54.057a2.524,2.524,0,0,1,.623-.438,5.458,5.458,0,0,1,.459.945c.1.348-.208.482-.483.586-.228.083-.465.144-.685.246a.663.663,0,0,1-.944-.265C505.461,2186.062,505.22,2185.474,504.949,2184.9Z" transform="translate(-422.727 -2148.509)" fill="#fff"/>
          <path id="Path_46063" data-name="Path 46063" d="M514.273,2257.665a2.349,2.349,0,0,1,2.173-2.683,2.531,2.531,0,0,1,2.536,2.02,2.39,2.39,0,0,1-.5,1.934c-.067.108-.324.208-.4.161a.688.688,0,0,1-.313-.461c.014-.356.172-.707.193-1.065a1.443,1.443,0,0,0-1.051-1.456,1.36,1.36,0,0,0-1.579.821,2.687,2.687,0,0,0,0,.914c.209-.058.419-.108.627-.172.45-.127.642.021.577.442-.116.756-.254.876-1.023.865-.99-.012-1.135-.123-1.224-.937C514.277,2257.887,514.276,2257.725,514.273,2257.665Z" transform="translate(-429.775 -2203.364)" fill="#fff"/>
          <path id="Path_46064" data-name="Path 46064" d="M459.715,2358.675a3.552,3.552,0,0,0-.637.344c-.683.563-.774.8-.432,1.137.516.5.762-.125,1.11-.308a4.533,4.533,0,0,1,.507-.332c.161-.058.47-.082.514-.006.108.179.2.552.108.63-.648.552-1.329,1.06-2.022,1.554-.067.047-.324-.054-.4-.155q-1.258-1.564-2.484-3.158a.5.5,0,0,1,.122-.756c.578-.447,1.156-.892,1.762-1.3a.584.584,0,0,1,.511.108.36.36,0,0,1-.021.615,6.564,6.564,0,0,0-.9.812.661.661,0,0,0-.059.622.649.649,0,0,0,.6.1,7.385,7.385,0,0,0,.812-.529C459.069,2357.9,459.512,2358.18,459.715,2358.675Z" transform="translate(-385.62 -2279.916)" fill="#fff"/>
          <path id="Path_46065" data-name="Path 46065" d="M481.107,2136.355c.5.108,1,.2,1.489.348.108.033.162.252.241.386a1.243,1.243,0,0,1-.382.216c-.324.041-.648.022-.972.037-1.012.049-1.067.089-1.335,1.043-.131.466-.228.944-.367,1.4-.039.13-.18.324-.266.324a.5.5,0,0,1-.37-.258,1.768,1.768,0,0,1-.131-.789c.047-.4.205-.78.28-1.177a2.457,2.457,0,0,0-.025-.576,2.8,2.8,0,0,0-.517.161,6.68,6.68,0,0,0-.6.408c-.272.186-.57.216-.716-.108a.719.719,0,0,1,.108-.619,6.207,6.207,0,0,1,.88-.83c.648-.54,1.316-1.067,1.98-1.595.233-.186.49-.156.607.1a1.178,1.178,0,0,1,.005.648c-.017.1-.169.166-.242.262-.176.234-.341.475-.512.716h.822Z" transform="translate(-401.908 -2112.431)" fill="#fff"/>
          <path id="Path_46066" data-name="Path 46066" d="M239.573,2137.358a2.052,2.052,0,0,1-.938,1.8,1.955,1.955,0,0,1-2.087-.01,19.827,19.827,0,0,1-1.976-1.609.446.446,0,0,1,.012-.738.717.717,0,0,1,.628-.014,5.191,5.191,0,0,1,.756.607c.38.3.756.609,1.156.891a.781.781,0,0,0,1.1-.066.93.93,0,0,0,.043-1.228,3.356,3.356,0,0,0-.53-.495q-.692-.6-1.392-1.181c-.228-.191-.271-.385-.059-.613s.424-.39.725-.133c.648.556,1.333,1.069,1.924,1.677a4.672,4.672,0,0,1,.64,1.108Z" transform="translate(-218.208 -2112.304)" fill="#fff"/>
          <path id="Path_46067" data-name="Path 46067" d="M372.728,2395.437c-.1.077-.209.222-.329.233a.89.89,0,0,1-.571-.108,1.889,1.889,0,0,0-2.678.169c-.146.13-.446.086-.675.121-.022-.216-.121-.465-.051-.648.475-1.25.978-2.491,1.491-3.728a1.928,1.928,0,0,1,.369-.439,1.736,1.736,0,0,1,.324.334c.657,1.213,1.3,2.434,1.944,3.653A4.326,4.326,0,0,1,372.728,2395.437Zm-1.795-1.493-.5-.583-.446.594c.145.1.286.273.432.278s.3-.16.509-.29Z" transform="translate(-319.509 -2306.159)" fill="#fff"/>
          <path id="Path_46068" data-name="Path 46068" d="M264.108,2366.52c.116.007-.057.032-.2-.023a.591.591,0,0,1-.346-.3.484.484,0,0,1,.2-.384c.3-.21.621-.379.936-.56.913-.522,1.815-1.061,2.742-1.556.54-.289.678-.2.582.363-.244,1.434-.516,2.864-.795,4.292a.567.567,0,0,1-.272.324c-.053.029-.235-.088-.291-.178a3.332,3.332,0,0,1-.293-.648,2.09,2.09,0,0,0-2.267-1.331Zm2.86-.9c-.216-.135-.38-.292-.432-.261a4.745,4.745,0,0,0-.6.479l.5.432Z" transform="translate(-240.264 -2285.382)" fill="#fff"/>
          <path id="Path_46069" data-name="Path 46069" d="M257.5,2121.609a2.054,2.054,0,0,1-.34-.269c-.763-.889-1.512-1.785-2.275-2.677a.564.564,0,0,1,.089-.926c.474-.377.94-.765,1.4-1.151a.461.461,0,0,1,.731.085c.222.261.051.442-.14.605a7.964,7.964,0,0,0-.825.705.437.437,0,0,0,.467.7c.3-.108.54-.356.836-.471a.643.643,0,0,1,.516.115c.069.051.059.324-.013.432-.159.23-.432.388-.559.628a.689.689,0,0,0-.021.618.662.662,0,0,0,.619.129c.324-.152.566-.452.876-.633a.65.65,0,0,1,.54-.024c.216.108.412.35.149.584-.573.508-1.174.984-1.769,1.467A.894.894,0,0,1,257.5,2121.609Z" transform="translate(-233.552 -2098.706)" fill="#fff"/>
          <path id="Path_46070" data-name="Path 46070" d="M434.009,2377.614a2.321,2.321,0,0,1-2.466-2.544,2.523,2.523,0,0,1,2.471-2.484.755.755,0,0,1,.567.311c.125.324-.108.511-.432.585a3.21,3.21,0,0,0-.692.225,1.5,1.5,0,1,0,1.458,2.61,5.425,5.425,0,0,1,.682-.5.592.592,0,0,1,.54.108.569.569,0,0,1,.014.524A2.383,2.383,0,0,1,434.009,2377.614Z" transform="translate(-367.239 -2292.215)" fill="#fff"/>
          <path id="Path_46071" data-name="Path 46071" d="M328.5,2084.306a.772.772,0,0,1,.294.008c.138.047.359.146.363.231a.647.647,0,0,1-.184.5,5.153,5.153,0,0,1-.79.283c-.3.127-.458.4-.285.679a.77.77,0,0,0,.589.26c.316-.005.629-.158.946-.179a.573.573,0,0,1,.474.21c.055.138-.04.482-.135.509a18.625,18.625,0,0,1-2.221.519c-.13.021-.409-.274-.459-.465-.306-1.173-.576-2.355-.822-3.542a.539.539,0,0,1,.266-.447,17.882,17.882,0,0,1,2.119-.482c.15-.022.346.239.521.371-.12.141-.216.348-.364.41-.333.139-.717.163-1.038.324-.165.082-.361.378-.324.522s.314.3.514.37C328.088,2084.437,328.268,2084.343,328.5,2084.306Z" transform="translate(-287.656 -2072.981)" fill="#fff"/>
          <path id="Path_46072" data-name="Path 46072" d="M460.626,2119.849a2.4,2.4,0,0,1,4.618-.864.715.715,0,0,1-.065.635c-.248.194-.529.08-.71-.21a2.493,2.493,0,0,0-.361-.487,1.389,1.389,0,0,0-2.125.18,1.37,1.37,0,0,0,.324,2.022c.2.135.49.165.635.333a.913.913,0,0,1,.141.648c-.009.072-.332.176-.5.155A2.336,2.336,0,0,1,460.626,2119.849Z" transform="translate(-389.223 -2099.486)" fill="#fff"/>
          <path id="Path_46073" data-name="Path 46073" d="M496.156,2162.253a3.293,3.293,0,0,1-.187.37c-.736,1.072-1.466,2.146-2.223,3.2-.118.166-.365.235-.553.35-.108-.21-.352-.508-.286-.615a1.225,1.225,0,0,0-.149-1.459,1.717,1.717,0,0,0-1.188-.945c-.141-.021-.247-.275-.369-.422.115-.095.225-.258.349-.27,1.448-.145,2.9-.268,4.348-.383C495.978,2162.074,496.067,2162.191,496.156,2162.253Zm-2.2.63a4.418,4.418,0,0,0-.481.666c-.024.05.186.216.288.324a5.818,5.818,0,0,0,.529-.555C494.318,2163.288,494.142,2163.11,493.96,2162.883Z" transform="translate(-412.334 -2133.184)" fill="#fff"/>
          <path id="Path_46074" data-name="Path 46074" d="M440.412,2103.7c-.152,1.489-.281,2.817-.432,4.142-.018.152-.216.417-.292.4-.176-.035-.432-.177-.466-.324a1.575,1.575,0,0,0-.764-1.168c-.46-.239-.872-.59-1.461-.282-.136.07-.409-.125-.62-.2.09-.195.126-.463.276-.572,1.051-.756,2.121-1.485,3.2-2.205a.516.516,0,0,1,.443-.056C440.4,2103.507,440.414,2103.709,440.412,2103.7Zm-1.391,1.25a4.058,4.058,0,0,0-.472.784c-.017.051.28.278.448.3.335.045.379-.24.345-.482a2.567,2.567,0,0,0-.32-.6Z" transform="translate(-370.891 -2088.862)" fill="#fff"/>
          <path id="Path_46075" data-name="Path 46075" d="M352.965,2084.144a2.333,2.333,0,0,1-2.17-1.4,2.4,2.4,0,0,1,2.8-3.407,1.234,1.234,0,0,1,.531.271.5.5,0,0,1,.167.4.481.481,0,0,1-.333.3,3.544,3.544,0,0,1-.705-.1,1.431,1.431,0,0,0-1.52.738,1.366,1.366,0,0,0,.129,1.586,1.4,1.4,0,0,0,1.615.464c.192-.055.389-.2.565-.177a.649.649,0,0,1,.442.347.511.511,0,0,1-.2.461C353.867,2083.835,353.413,2083.977,352.965,2084.144Z" transform="translate(-306.006 -2070.613)" fill="#fff"/>
          <path id="Path_46076" data-name="Path 46076" d="M420.332,2093.194c-.108-.036-.265-.077-.412-.139-.49-.207-.756.011-.939.455a2.608,2.608,0,0,1-.338.648.475.475,0,0,1-.4.132c-.133-.033-.247-.181-.343-.3a.281.281,0,0,1-.008-.233c.492-1.246.985-2.491,1.5-3.726a.43.43,0,0,1,.393-.158,9.136,9.136,0,0,1,1.651.75,1.351,1.351,0,0,1,.49,1.62,1.593,1.593,0,0,1-1.6.954Zm.076-.761c.27-.281.513-.432.6-.648.116-.285-.281-.66-.648-.679-.287-.014-.683.334-.585.6C419.863,2091.954,420.135,2092.134,420.408,2092.433Z" transform="translate(-356.904 -2078.62)" fill="#fff"/>
          <path id="Path_46077" data-name="Path 46077" d="M216.11,2181.962a1.729,1.729,0,0,1-.7,1.474.747.747,0,0,1-.648.045c-.262-.13-.21-.392-.027-.611a1.652,1.652,0,0,0,.359-.48.633.633,0,0,0-.058-.54.589.589,0,0,0-.54-.108c-.286.129-.506.4-.794.532a3.449,3.449,0,0,1-1.228.378,1.048,1.048,0,0,1-1.106-1.167,2.089,2.089,0,0,1,.875-1.654c.1-.076.368-.1.42-.036a.841.841,0,0,1,.179.532c-.008.135-.172.261-.266.391-.186.257-.5.53-.174.837.369.35.648-.016.927-.23a4.958,4.958,0,0,1,.871-.642,1.3,1.3,0,0,1,1.912,1.278Z" transform="translate(-200.814 -2146.544)" fill="#fff"/>
          <path id="Path_46078" data-name="Path 46078" d="M226.5,2161.055a1.882,1.882,0,0,1-1,1.559.692.692,0,0,1-.635-.08c-.272-.222-.025-.408.16-.569.324-.29.808-.6.406-1.08-.324-.384-.737-.019-1.08.162-.179.094-.351.2-.54.281a1.284,1.284,0,0,1-1.568-.149,1.421,1.421,0,0,1-.182-1.594,3.17,3.17,0,0,1,.873-.972.507.507,0,0,1,.5.09.581.581,0,0,1-.012.533c-.148.232-.414.382-.577.606a.459.459,0,0,0-.018.432.618.618,0,0,0,.5.184c.335-.123.619-.389.955-.5a3.387,3.387,0,0,1,1.266-.246C226.154,2159.761,226.483,2160.256,226.5,2161.055Z" transform="translate(-208.773 -2130.544)" fill="#fff"/>
          <path id="Path_46079" data-name="Path 46079" d="M319.77,2388.882c.373-1.338.706-2.548,1.049-3.755a.447.447,0,0,1,.648-.336c.317.12.4.336.295.678-.241.815-.459,1.639-.658,2.466-.178.738-.135.8.576,1.057a2.676,2.676,0,0,1,.678.232.568.568,0,0,1,.137.514c-.051.149-.3.365-.416.338a12.9,12.9,0,0,1-1.968-.6C319.93,2389.4,319.857,2389.043,319.77,2388.882Z" transform="translate(-282.752 -2301.405)" fill="#fff"/>
          <path id="Path_46080" data-name="Path 46080" d="M296.329,2376.231c-.117.277-.206.5-.3.722-.216.48-.418.962-.64,1.436-.528,1.124-.532,1.125.54,1.818.252.162.48.317.3.671s-.407.283-.705.169c-2.149-.818-2.153-.825-1.188-2.843.261-.54.487-1.106.756-1.649a2.147,2.147,0,0,1,.463-.687.66.66,0,0,1,.547.01C296.211,2375.918,296.262,2376.117,296.329,2376.231Z" transform="translate(-263.057 -2294.653)" fill="#fff"/>
          <path id="Path_46081" data-name="Path 46081" d="M348.581,2390.173c-.163,1.488-.306,2.808-.456,4.135-.033.3-.239.4-.516.381-.333-.025-.54-.2-.517-.54.038-.483.134-.959.191-1.44.1-.8.179-1.6.269-2.406.036-.312.164-.6.519-.508C348.3,2389.852,348.472,2390.087,348.581,2390.173Z" transform="translate(-303.402 -2305.207)" fill="#fff"/>
          <path id="Path_46082" data-name="Path 46082" d="M209.671,2204.482c-.269-.078-.462-.133-.657-.185q-1.52-.406-3.04-.809c-.313-.082-.517-.245-.419-.6s.33-.394.659-.3c1.166.324,2.341.611,3.5.952a.629.629,0,0,1,.374.474C210.067,2204.184,209.817,2204.333,209.671,2204.482Z" transform="translate(-196.4 -2163.752)" fill="#fff"/>
          <path id="Path_46083" data-name="Path 46083" d="M515.731,2208.831a1.232,1.232,0,0,1,.417.072c.125.08.28.209.3.336a.589.589,0,0,1-.2.392.684.684,0,0,1-.335.131c-1.145.257-2.292.5-3.434.765-.349.079-.6-.027-.6-.376a.666.666,0,0,1,.36-.514C513.414,2209.338,514.6,2209.085,515.731,2208.831Z" transform="translate(-427.967 -2168.505)" fill="#fff"/>
          <path id="Path_46084" data-name="Path 46084" d="M292.272,2099.117a.937.937,0,1,1-.838.464.94.94,0,0,1,.838-.464Z" transform="translate(-261.234 -2085.615)" fill="#fff"/>
        </g>
      </g>
    </g>
  </g>
</svg>
