<svg xmlns="http://www.w3.org/2000/svg" xmlns:xlink="http://www.w3.org/1999/xlink" width="100" height="100" viewBox="0 0 100 100">
  <defs>
    <clipPath id="clip-tis-icon-menu">
      <rect width="100" height="100"/>
    </clipPath>
  </defs>
  <g id="tis-icon-menu" clip-path="url(#clip-tis-icon-menu)">
    <rect id="Rectangle_2497" data-name="Rectangle 2497" width="100" height="100" fill="none"/>
    <path id="Menu" d="M0,32.927A3.186,3.186,0,0,1,3.186,29.74H71.162a3.186,3.186,0,0,1,0,6.373H3.186A3.187,3.187,0,0,1,0,32.927Zm13.947,24.1a3.187,3.187,0,0,1,3.186-3.186H71.162a3.186,3.186,0,0,1,0,6.373H17.133A3.186,3.186,0,0,1,13.947,57.029ZM38.118,8.656A3.186,3.186,0,0,1,41.3,5.47h29.86a3.186,3.186,0,0,1,0,6.373H41.3A3.186,3.186,0,0,1,38.118,8.656Z" transform="translate(87.351 83.215) rotate(180)" fill="#1f1f83" fill-rule="evenodd"/>
  </g>
</svg>
