<svg xmlns="http://www.w3.org/2000/svg" xmlns:xlink="http://www.w3.org/1999/xlink" width="100" height="100" viewBox="0 0 100 100">
  <defs>
    <clipPath id="clip-tis-icon-star">
      <rect width="100" height="100"/>
    </clipPath>
  </defs>
  <g id="tis-icon-star" clip-path="url(#clip-tis-icon-star)">
    <g id="Iconly_Light-Outline_Star" data-name="Iconly/Light-Outline/Star" transform="translate(16 16)">
      <path id="Star" d="M48.516,61.668a6.691,6.691,0,0,1-3.081-.763L33.261,54.6a1.666,1.666,0,0,0-1.524,0L19.561,60.908a6.685,6.685,0,0,1-3.069.759,6.615,6.615,0,0,1-3.915-1.287A6.494,6.494,0,0,1,10,54l2.319-13.368a1.512,1.512,0,0,0-.45-1.353L2.014,29.81a6.464,6.464,0,0,1-1.7-6.687A6.534,6.534,0,0,1,5.662,18.63l13.626-1.962a1.59,1.59,0,0,0,1.206-.858l6.09-12.174a6.631,6.631,0,0,1,11.832,0l6.1,12.171a1.585,1.585,0,0,0,1.2.861L59.34,18.63a6.533,6.533,0,0,1,5.343,4.494,6.452,6.452,0,0,1-1.7,6.687L53.13,39.275a1.513,1.513,0,0,0-.447,1.35L55,54a6.483,6.483,0,0,1-2.586,6.384A6.561,6.561,0,0,1,48.516,61.668ZM32.5,5a1.572,1.572,0,0,0-1.446.876L24.967,18.048A6.588,6.588,0,0,1,20,21.612L6.373,23.577a1.558,1.558,0,0,0-1.3,1.077,1.48,1.48,0,0,0,.4,1.548l9.855,9.468a6.509,6.509,0,0,1,1.911,5.817L14.92,54.851a1.49,1.49,0,0,0,.615,1.491,1.566,1.566,0,0,0,1.722.129l12.183-6.315a6.677,6.677,0,0,1,6.12,0l12.18,6.312a1.605,1.605,0,0,0,1.731-.126,1.488,1.488,0,0,0,.612-1.491L47.757,41.486a6.5,6.5,0,0,1,1.908-5.817L59.52,26.2a1.453,1.453,0,0,0,.4-1.548,1.54,1.54,0,0,0-1.3-1.077L45,21.612a6.592,6.592,0,0,1-4.965-3.57L33.942,5.877A1.565,1.565,0,0,0,32.5,5Z" transform="translate(2 3)" fill="#1f1f83"/>
    </g>
  </g>
</svg>
