<svg xmlns="http://www.w3.org/2000/svg" xmlns:xlink="http://www.w3.org/1999/xlink" width="100" height="100" viewBox="0 0 100 100">
  <defs>
    <clipPath id="clip-tis-icon-marker">
      <rect width="100" height="100"/>
    </clipPath>
  </defs>
  <g id="tis-icon-marker" clip-path="url(#clip-tis-icon-marker)">
    <g id="Iconly_Light-Outline_Location" data-name="Iconly/Light-Outline/Location" transform="translate(19 16)">
      <g id="Location" transform="translate(4 2)">
        <path id="Combined_Shape" data-name="Combined Shape" d="M0,27.711A27.637,27.637,0,0,1,27.5,0,27.637,27.637,0,0,1,55,27.711C55,46.493,33.479,65,27.5,65S0,46.493,0,27.711Zm5,0c0,16,18.759,31.452,22.5,32.277C31.239,59.159,50,43.7,50,27.711a22.5,22.5,0,1,0-45,0Zm11.67-.207A10.833,10.833,0,1,1,27.5,38.333,10.846,10.846,0,0,1,16.671,27.5Zm5,0A5.833,5.833,0,1,0,27.5,21.669,5.84,5.84,0,0,0,21.672,27.5Z" transform="translate(0)" fill="#1f1f83"/>
      </g>
    </g>
  </g>
</svg>
